<svg xmlns="http://www.w3.org/2000/svg" xmlns:xlink="http://www.w3.org/1999/xlink" viewBox="0 0 186.28 182.01"><defs><style>.cls-1{fill:none;}.cls-2{fill:#fff;}.cls-3{fill:#8abfc6;}.cls-4{clip-path:url(#clip-path);}.cls-5{fill:#7a7d29;}.cls-6{fill:#a2a637;}.cls-7{fill:#b5b85f;}.cls-8{fill:#c7ca87;}.cls-9{fill:#dadbaf;}.cls-10{fill:#f5d2d9;}.cls-11{fill:#eba5b3;}.cls-12{fill:#e1798c;}.cls-13{fill:#d74c66;}.cls-14{fill:#cd1f40;}.cls-15{fill:#9a1730;}.cls-16{fill:#e8f2f4;}.cls-17{fill:#d1e6e8;}.cls-18{fill:#b9d9dd;}.cls-19{fill:#a2cdd1;}.cls-20{fill:#8bc0c6;}.cls-21{fill:#689095;}.cls-22{fill:#404041;}</style><clipPath id="clip-path"><rect class="cls-1" x="31.42" y="26.05" width="118.07" height="112.45"/></clipPath></defs><g id="Layer_2" data-name="Layer 2"><g id="Categories_and_Icons" data-name="Categories and Icons"><circle class="cls-2" cx="98.41" cy="94.15" r="87.87"/><path class="cls-3" d="M89.87,179.74a89.87,89.87,0,1,1,89.87-89.87A90,90,0,0,1,89.87,179.74ZM89.87,4a85.87,85.87,0,1,0,85.87,85.87A86,86,0,0,0,89.87,4Z"/><g id="Branding"><g class="cls-4"><g class="cls-4"><path class="cls-5" d="M148,107.48v28.6a.92.92,0,0,1-.92.92H135.9V106.56h11.22a.92.92,0,0,1,.92.92"/><rect class="cls-6" x="119.75" y="106.56" width="13.15" height="30.44"/><rect class="cls-7" x="103.6" y="106.56" width="13.15" height="30.44"/><rect class="cls-8" x="87.45" y="106.56" width="13.15" height="30.44"/><rect class="cls-9" x="71.3" y="106.56" width="13.15" height="30.44"/><polygon class="cls-10" points="58.96 104.2 45.29 104.2 55.99 98.56 58.96 104.2"/><polygon class="cls-11" points="77.22 104.2 62.35 104.2 58.64 97.16 70.27 91.03 70.28 91.03 77.22 104.2"/><polygon class="cls-12" points="95.48 104.2 80.61 104.2 72.93 89.63 84.56 83.5 95.48 104.2"/><polygon class="cls-13" points="113.05 102.9 110.58 104.2 98.86 104.2 87.22 82.1 98.1 76.36 98.11 76.36 98.85 75.96 113.05 102.9"/><polygon class="cls-14" points="127.33 95.37 115.7 101.5 101.5 74.57 113.14 68.43 127.33 95.37"/><path class="cls-15" d="M140.86,87.93a.87.87,0,0,1-.45.54L130,94,115.79,67l10.42-5.5a.94.94,0,0,1,1.25.39l13.34,25.3a.9.9,0,0,1,.06.7"/><polygon class="cls-16" points="48.71 99.89 43.79 102.49 46.36 98.41 48.71 99.89"/><polygon class="cls-17" points="65.2 91.21 51.77 98.28 47.96 95.88 54.99 84.76 65.2 91.21"/><polygon class="cls-18" points="81.58 82.57 68.25 89.59 56.59 82.22 63.61 71.11 81.58 82.57"/><polygon class="cls-19" points="97.98 73.7 97.76 74.04 84.65 80.96 84.64 80.96 65.21 68.57 72.23 57.45 97.98 73.7"/><rect class="cls-20" x="83.64" y="42.25" width="13.15" height="30.45" transform="translate(-6.54 103.08) rotate(-57.74)"/><path class="cls-21" d="M114.19,48l-6,9.48L82.46,41.26l6-9.49a.91.91,0,0,1,.78-.43,1,1,0,0,1,.49.14l24.19,15.27a.94.94,0,0,1,.28,1.28"/><polygon class="cls-22" points="51.98 96.46 50.38 98.99 48.19 97.61 48.18 97.6 45.83 96.12 44.56 95.32 46.17 92.79 47.43 93.59 51.24 95.99 51.25 96 51.98 96.46"/><polygon class="cls-22" points="68.46 87.77 66.86 90.3 64.67 88.92 54.46 82.47 53.19 81.67 54.79 79.13 56.06 79.93 67.72 87.3 67.73 87.31 68.46 87.77"/><polygon class="cls-22" points="84.85 79.14 83.24 81.67 81.06 80.28 81.05 80.28 63.08 68.82 61.81 68.01 63.42 65.48 64.68 66.28 84.11 78.67 84.12 78.67 84.85 79.14"/><polygon class="cls-22" points="100.32 69.68 99.89 70.36 98.72 72.21 97.65 71.54 97.45 71.41 71.7 55.16 70.43 54.36 72.04 51.82 73.31 52.62 99.05 68.88 100.32 69.68"/><polygon class="cls-22" points="108.94 56.02 107.34 58.56 106.07 57.76 80.33 41.5 79.06 40.7 80.66 38.17 81.93 38.97 107.67 55.22 108.94 56.02"/><polygon class="cls-22" points="63.66 102.86 61.01 104.25 59.85 102.06 56.88 96.42 56.26 95.25 58.91 93.85 59.53 95.02 63.24 102.06 63.66 102.86"/><polygon class="cls-22" points="81.92 102.86 79.26 104.25 78.11 102.06 71.17 88.89 71.16 88.89 70.55 87.72 73.2 86.32 73.82 87.49 81.5 102.06 81.92 102.86"/><polygon class="cls-22" points="100.17 102.86 97.52 104.25 96.37 102.06 85.45 81.36 84.83 80.18 87.49 78.79 88.1 79.96 88.11 79.96 99.75 102.06 100.17 102.86"/><polygon class="cls-22" points="117.37 100.84 115.06 102.06 114.72 102.24 114.63 102.06 113.94 100.76 99.74 73.82 99.62 73.59 99.12 72.65 100.76 71.79 100.76 71.78 101.77 71.25 102.39 72.43 116.59 99.36 117.37 100.84"/><polygon class="cls-22" points="131.66 93.31 129 94.71 128.22 93.23 114.03 66.29 113.41 65.12 116.06 63.73 116.67 64.9 116.68 64.9 130.88 91.83 131.66 93.31"/><path class="cls-22" d="M145.57,102.06H35.34A3.93,3.93,0,0,0,31.42,106v28.6a3.93,3.93,0,0,0,3.92,3.92H145.57a3.93,3.93,0,0,0,3.92-3.92V106a3.93,3.93,0,0,0-3.92-3.92m.92,32.52a.92.92,0,0,1-.92.92H35.34a.92.92,0,0,1-.92-.92V106a.92.92,0,0,1,.92-.92H145.57a.92.92,0,0,1,.92.92Z"/><path class="cls-22" d="M144.34,83.69,131,58.39a4,4,0,0,0-3.48-2.1,3.87,3.87,0,0,0-1.82.46L102.55,69h0l-2.65,1.4-2.24,1.18L84.12,78.67h0l-3,1.61h0l-13.32,7-3.06,1.61L51.25,96l-3.06,1.61-4.93,2.59-3.52,1.86-.32.17a1.5,1.5,0,0,0,.7,2.83h71.73a1.46,1.46,0,0,0,.7-.18l5.35-2.82L142.7,89a3.92,3.92,0,0,0,1.64-5.3m-2.59,2.1a.87.87,0,0,1-.45.54l-10.42,5.5-2.66,1.4-11.63,6.13-2.65,1.4-2.47,1.3H46.18l10.7-5.64L59.53,95l11.63-6.13h0l2.65-1.4,11.63-6.13L88.1,80h0L99,74.22h0l.74-.4,2.65-1.39L114,66.29l2.64-1.39h0l10.42-5.5a.94.94,0,0,1,1.25.39l13.34,25.3a.9.9,0,0,1,.06.7"/><path class="cls-22" d="M47.86,125.41A5.14,5.14,0,1,1,53,120.27a5.14,5.14,0,0,1-5.13,5.14m0-7.27A2.14,2.14,0,1,0,50,120.27a2.14,2.14,0,0,0-2.13-2.13"/><rect class="cls-22" x="66.75" y="103.56" width="3" height="33.44"/><rect class="cls-22" x="82.9" y="103.56" width="3" height="33.44"/><rect class="cls-22" x="99.05" y="103.56" width="3" height="33.44"/><rect class="cls-22" x="115.2" y="103.56" width="3" height="33.44"/><rect class="cls-22" x="131.35" y="103.56" width="3" height="33.44"/><path class="cls-22" d="M116.71,44.38A3.91,3.91,0,0,0,115,41.93L90.79,26.66a3.91,3.91,0,0,0-5.41,1.22L38.54,102.06l-.44.69a1.51,1.51,0,0,0,1.27,2.31h.75a1.46,1.46,0,0,0,.7-.18l5.35-2.82h0l10.7-5.64L59.53,95l11.63-6.13h0l2.65-1.4,11.63-6.13L88.1,80h0L99,74.22h0a1.52,1.52,0,0,0,.55-.52l.07-.11,1.14-1.8h0L102.54,69h0L116.2,47.34a3.91,3.91,0,0,0,.51-3m-3,1.36-6,9.48-1.6,2.54-7,11.12-1.6,2.53-.22.34L84.12,78.67h0l-3,1.61h0l-13.33,7-3,1.62L51.24,96,48.18,97.6l-4.92,2.6,2.57-4.08,1.6-2.53,7-11.12,1.6-2.54,7-11.11,1.6-2.54,7-11.12,1.61-2.54,7-11.12L81.93,39l6-9.49a.91.91,0,0,1,.78-.43,1,1,0,0,1,.49.14l24.19,15.27a.94.94,0,0,1,.28,1.28"/></g></g></g></g></g></svg>