<svg xmlns="http://www.w3.org/2000/svg" viewBox="0 0 248.66 242.97" aria-hidden="true"><defs><clipPath id="a" transform="translate(-580.53 -230.53)"><path style="fill:none" d="M580.49 230.5h248.7v242.97h-248.7z"/></clipPath></defs><g style="clip-path:url(#a)"><path d="M248.66 125.67a117.3 117.3 0 11-117.3-117.3 117.3 117.3 0 01117.3 117.3" style="fill:#fff"/><circle cx="119.97" cy="119.97" r="117.3" style="fill:none;stroke:#8abfc6;stroke-miterlimit:9.99999982885729;stroke-width:5.340000061197681px"/></g><path d="M198.24 139v37.92a1.22 1.22 0 01-1.22 1.22h-14.89v-40.36h14.89a1.22 1.22 0 011.22 1.22z" style="fill:#7a7d29"/><path style="fill:#a2a637" d="M160.7 137.78h17.45v40.4H160.7z"/><path style="fill:#b5b85f" d="M139.26 137.78h17.45v40.4h-17.45z"/><path style="fill:#c7ca87" d="M117.83 137.78h17.45v40.4h-17.45z"/><path style="fill:#dadbaf" d="M96.4 137.78h17.45v40.4H96.4z"/><path d="M80.02 134.66H61.88l14.2-7.48z" style="fill:#f5d2d9"/><path d="M104.25 134.66H84.52l-4.93-9.35 15.44-8.14z" style="fill:#eba5b3"/><path d="M128.47 134.66h-19.72l-10.19-19.33 15.43-8.15z" style="fill:#e1798c"/><path d="M151.8 132.94l-3.28 1.72h-15.55l-15.45-29.34 14.44-7.62 1-.53z" style="fill:#d74c66"/><path d="M170.76 122.94l-15.44 8.13-18.85-35.74 15.44-8.15z" style="fill:#cd1f40"/><path d="M188.71 113.07a1.19 1.19 0 01-.6.72l-13.83 7.3-18.81-35.74 13.83-7.3a1.24 1.24 0 011.66.51l17.7 33.58a1.21 1.21 0 01.05.93z" style="fill:#9a1730"/><path d="M66.47 128.93l-6.53 3.45 3.41-5.42z" style="fill:#e8f2f4"/><path d="M88.3 117.41l-17.83 9.38-5-3.18 9.33-14.76z" style="fill:#d1e6e8"/><path d="M110.04 105.94l-17.69 9.32-15.48-9.79 9.32-14.74z" style="fill:#b9d9dd"/><path d="M131.8 94.17l-.29.45-17.4 9.18-25.79-16.44 9.32-14.75z" style="fill:#a2cdd1"/><path style="fill:#8bc0c6" d="M98.3835 65.1491l9.2485-14.8325 34.3485 21.4173-9.2485 14.8325z"/><path d="M153.32 60.13l-8 12.58-34.2-21.59 8-12.59a1.21 1.21 0 011-.58 1.33 1.33 0 01.65.19l32.15 20.26a1.27 1.27 0 01.37 1.73z" style="fill:#689095"/><path d="M70.76 124.38l-2.13 3.36-2.9-1.84-3.12-2-1.68-1.06 2.14-3.36 1.67 1.06 5 3.18zM92.63 112.84l-2.16 3.36-2.9-1.83-13.55-8.56-1.69-1.06 2.12-3.37 1.72 1.09 15.47 9.78zM114.38 101.39l-2.14 3.36-2.89-1.85-23.88-15.21-1.69-1.07 2.14-3.36 1.67 1.06 25.79 16.45zM134.91 88.84l-.57.9-1.55 2.45-1.42-.89-.27-.17-34.17-21.57-1.69-1.09 2.14-3.37 1.68 1.07 34.16 21.57zM146.35 70.71l-2.12 3.37-1.69-1.06-34.16-21.55-1.69-1.06 2.13-3.36 1.68 1.06 34.16 21.57zM86.26 132.87l-3.52 1.84-1.54-2.9-4-7.48-.73-1.56 3.52-1.86.83 1.56 4.92 9.34zM110.47 132.87l-3.53 1.85-1.47-2.91-9.21-17.48-.81-1.55 3.52-1.86.82 1.55 10.19 19.34zM134.71 132.87l-3.52 1.85-1.52-2.91-14.49-27.47-.83-1.57 3.53-1.84.81 1.55 15.44 29.33zM157.54 130.19l-3.07 1.62-.45.24-.12-.24-.91-1.73-18.85-35.75-.16-.3-.66-1.25 2.17-1.14 1.34-.7.83 1.57 18.81 35.72zM176.47 120.2l-3.53 1.85-1-2L153.1 84.3l-.82-1.56 3.52-1.84.81 1.55 18.86 35.78z" style="fill:#404041"/><path d="M194.96 131.8H48.67a5.21 5.21 0 00-5.2 5.21v38a5.22 5.22 0 005.2 5.2h146.29a5.22 5.22 0 005.2-5.2v-38a5.2 5.2 0 00-5.2-5.21zm1.22 43.15a1.22 1.22 0 01-1.22 1.23H48.67a1.23 1.23 0 01-1.22-1.23v-37.94a1.21 1.21 0 011.21-1.23h146.3a1.21 1.21 0 011.22 1.22z" style="fill:#404041"/><path d="M193.33 107.47l-17.69-33.58a5.31 5.31 0 00-4.62-2.78 5.07 5.07 0 00-2.41.61l-30.74 16.2-3.52 1.86-3 1.57-18 9.46-4 2.13-17.68 9.29-4.06 2.14-17.9 9.5-4.06 2.14-6.54 3.44-4.64 2.35-.42.24a2 2 0 00.92 3.74h95.2a1.87 1.87 0 00.93-.24l7.1-3.74 32.96-17.33a5.19 5.19 0 002.17-7zm-3.44 2.78a1.14 1.14 0 01-.6.72l-13.82 7.26-3.53 1.86-15.47 8.14-3.52 1.85-3.27 1.72H63.06l14.2-7.49 3.51-1.8 15.44-8.13 3.52-1.87 15.41-8.17 3.51-1.86 14.44-7.62 1-.53 3.63-1.84 15.45-8.15 3.5-1.85 13.82-7.3a1.25 1.25 0 011.66.52l17.68 33.52a1.18 1.18 0 01.08 1zM65.29 162.8a6.81 6.81 0 116.81-6.81 6.81 6.81 0 01-6.81 6.81zm0-9.64a2.83 2.83 0 102.82 2.83 2.83 2.83 0 00-2.82-2.83z" style="fill:#404041"/><path style="fill:#404041" d="M90.36 133.8h3.98v44.38h-3.98zM111.79 133.8h3.98v44.38h-3.98zM133.22 133.8h3.98v44.38h-3.98zM154.66 133.8h3.98v44.38h-3.98zM176.09 133.8h3.98v44.38h-3.98zM156.66 55.26a5.15 5.15 0 00-2.3-3.25l-32.1-20.27a5.19 5.19 0 00-7.13 1.62L52.92 131.8l-.59.91a2 2 0 00.63 2.76 2 2 0 001.13.31h.93a2 2 0 00.92-.24l7.1-3.74 14.2-7.49 3.53-1.8 15.44-8.14 3.52-1.86 15.4-8.17 3.52-1.86 14.44-7.62a1.93 1.93 0 00.73-.69l.09-.14 1.52-2.39 2.36-3.74 18.2-28.71a5.22 5.22 0 00.68-3.93zm-4.05 1.8l-8 12.59-2.12 3.37-9.29 14.75-2.18 3.36-.29.45-17.36 9.19-4 2.13-17.69 9.29-4 2.15-18 9.41-4.06 2.14-6.53 3.45 3.41-5.42 2.11-3.36 9.29-14.75 2.13-3.37 9.29-14.75 2.12-3.37 9.29-14.76 2.14-3.37 9.38-14.72 2.12-3.36 8-12.59a1.24 1.24 0 011.16-.58 1.36 1.36 0 01.65.19l32.16 20.26a1.26 1.26 0 01.37 1.7z"/></svg>