<svg xmlns="http://www.w3.org/2000/svg" viewBox="0 0 186.28 182.01"><g id="Layer_2" data-name="Layer 2"><g id="Categories_and_Icons" data-name="Categories and Icons"><circle class="cls-5" cx="98.41" cy="94.15" r="87.87"/><path class="cls-1" d="M89.87,179.74a89.87,89.87,0,1,1,89.87-89.87A90,90,0,0,1,89.87,179.74ZM89.87,4a85.87,85.87,0,1,0,85.87,85.87A86,86,0,0,0,89.87,4Z"/><g id="Discovery-icon"><path class="cls-2" d="M87.57,114.69,59,143.27a12.19,12.19,0,0,1-17.24,0,8.93,8.93,0,0,1,0-12.65L72.63,99.75a1.07,1.07,0,0,1,1.52,0l13.42,13.42a1.07,1.07,0,0,1,0,1.52"/><path class="cls-1" d="M139.47,70.9a25.14,25.14,0,1,1-25.13-25.13A25.14,25.14,0,0,1,139.47,70.9"/><path class="cls-4" d="M112.8,105.54a35.86,35.86,0,1,1,35.87-35.86A35.9,35.9,0,0,1,112.8,105.54Zm0-69A33.17,33.17,0,1,0,146,69.68,33.2,33.2,0,0,0,112.8,36.52Z"/><path class="cls-4" d="M112.8,97.5a27.82,27.82,0,1,1,27.82-27.82A27.85,27.85,0,0,1,112.8,97.5Zm0-52.94a25.13,25.13,0,1,0,25.13,25.12A25.15,25.15,0,0,0,112.8,44.56Z"/><polygon class="cls-4" points="85.78 109.6 74.55 98.36 84.14 88.78 86.04 90.69 78.36 98.36 85.78 105.79 93.47 98.11 95.37 100.01 85.78 109.6"/><path class="cls-4" d="M49.78,146.53a12.16,12.16,0,0,1-8.6-20.77L70.45,96.49a4.12,4.12,0,0,1,5.81,0l11.4,11.4a4.12,4.12,0,0,1,0,5.81h0L58.39,143A12.1,12.1,0,0,1,49.78,146.53ZM73.35,98a1.44,1.44,0,0,0-1,.41L43.08,127.66a9.48,9.48,0,1,0,13.41,13.41L85.76,111.8h0a1.42,1.42,0,0,0,0-2L74.35,98.39A1.42,1.42,0,0,0,73.35,98Z"/><path class="cls-5" d="M132.87,69.68h-2.69a17.33,17.33,0,0,0-10.7-16l1-2.49A20,20,0,0,1,132.87,69.68Z"/></g></g></g></svg>