<svg xmlns="http://www.w3.org/2000/svg" viewBox="0 0 248.66 242.97" aria-hidden="true"><defs><clipPath id="a" transform="translate(-580.53 -230.53)"><path style="fill:none" d="M580.49 230.5h248.7v242.97h-248.7z"/></clipPath></defs><g style="clip-path:url(#a)"><path d="M248.66 125.67a117.3 117.3 0 11-117.3-117.3 117.3 117.3 0 01117.3 117.3" style="fill:#fff"/><circle cx="119.97" cy="119.97" r="117.3" style="fill:none;stroke:#8abfc6;stroke-miterlimit:9.99999982885729;stroke-width:5.340000061197681px"/></g><rect x="52.12" y="114.72" width="12.79" height="26.63" rx="1.49" style="fill:#8bc0c6"/><rect x="79.36" y="92.89" width="12.79" height="48.46" rx="1.49" style="fill:#8bc0c6"/><rect x="104.85" y="101.31" width="12.79" height="40.03" rx="1.49" style="fill:#8bc0c6"/><rect x="132.94" y="91.01" width="12.79" height="50.34" rx="1.49" style="fill:#8bc0c6"/><path d="M140.85 181.47H85.11a3.13 3.13 0 01-3.12-2.26 2.76 2.76 0 011.53-3.1c3.75-1.92 6.28-4.95 7-8.3a38.78 38.78 0 00.51-9.74 1.75 1.75 0 011.59-1.91h40.64a1.76 1.76 0 011.76 1.76v.16a39.25 39.25 0 00.51 9.74c.68 3.35 3.21 6.38 7 8.3a2.77 2.77 0 011.53 3.1 3.12 3.12 0 01-3.21 2.25zm-53.56-3.52h51.38a15.3 15.3 0 01-6.63-9.45 40.35 40.35 0 01-.67-8.84H94.6a40.85 40.85 0 01-.68 8.83 15.32 15.32 0 01-6.63 9.46z" style="fill:#414042"/><path d="M112.98 152.7a3.12 3.12 0 113.11-3.11 3.11 3.11 0 01-3.11 3.11z" style="fill:#a2a637"/><path d="M159.71 159.67H50.47a8.61 8.61 0 01-8.6-8.6v-9.81a1.76 1.76 0 011.76-1.76h26.84a1.76 1.76 0 010 3.51H45.35v8.06a5.09 5.09 0 005.08 5.09h109.28a1.76 1.76 0 11.08 3.51z" style="fill:#414042"/><path d="M159.61 143.02h-116a1.76 1.76 0 01-1.76-1.76V70.61a9.19 9.19 0 019.18-9.18h123.92a9.19 9.19 0 019.18 9.18v34.46a1.76 1.76 0 01-3.51 0V70.61a5.68 5.68 0 00-5.67-5.66H51.01a5.66 5.66 0 00-5.66 5.66v68.86h114.26a1.76045449 1.76045449 0 11.08 3.52zM166.01 163.06h32.72a1.75 1.75 0 011.76 1.76 1.75 1.75 0 01-1.76 1.75h-32.72a1.75 1.75 0 01-1.76-1.75 1.76 1.76 0 011.76-1.76z" style="fill:#414042"/><path d="M201.56 181.47h-38.38a5.24 5.24 0 01-5.23-5.24v-67.68a5.23 5.23 0 015.23-5.23h38.38a5.24 5.24 0 015.24 5.23v67.69a5.24 5.24 0 01-5.24 5.23zm-38.38-74.65a1.72 1.72 0 00-1.72 1.72v67.69a1.72 1.72 0 001.72 1.72h38.38a1.72 1.72 0 001.72-1.72v-67.68a1.72 1.72 0 00-1.72-1.72z" style="fill:#414042"/><path d="M182.37 175.3a3 3 0 113-3 3 3 0 01-3 3z" style="fill:#a2a637"/><path d="M186.87 114.38h-9a1.76 1.76 0 11-.08-3.51h9.07a1.76 1.76 0 010 3.51zM69.04 142.95H56.25a1.6 1.6 0 01-1.6-1.6v-31.6a1.6 1.6 0 011.6-1.6h12.79a1.6 1.6 0 011.61 1.6v31.6a1.61 1.61 0 01-1.61 1.6zm-11.18-3.21h9.61v-28.38h-9.58zM96.28 142.95H83.47a1.6 1.6 0 01-1.61-1.6V89.3a1.61 1.61 0 011.61-1.6h12.79a1.59 1.59 0 011.6 1.6v52.05a1.59 1.59 0 01-1.6 1.6zm-11.19-3.21h9.58V90.91h-9.58zM121.77 142.95h-12.79a1.61 1.61 0 01-1.61-1.6V97.18a1.62 1.62 0 011.6-1.61h12.8a1.61 1.61 0 011.61 1.61v44.17a1.61 1.61 0 01-1.61 1.6zm-11.18-3.21h9.58V98.79h-9.58zM149.86 142.95h-12.79a1.61 1.61 0 01-1.61-1.6V86.88a1.61 1.61 0 011.61-1.61h12.79a1.61 1.61 0 011.61 1.61v54.47a1.61 1.61 0 01-1.61 1.6zm-11.18-3.21h9.58V88.47h-9.58z" style="fill:#414042"/><path d="M62.65 101.53a1.61 1.61 0 01-1.06-2.82l27.24-23.64a1.62 1.62 0 011.86-.18l24.72 14.29 27.31-14.32a1.60356634 1.60356634 0 111.49 2.84l-28.09 14.77a1.61 1.61 0 01-1.55 0l-24.5-14.15-26.37 22.89a1.6 1.6 0 01-1.05.32z" style="fill:#414042"/><path d="M179.91 142.91l9.5 9.8a.46.46 0 010 .65 14.78 14.78 0 114.84-11.41.46.46 0 01-.46.46h-13.68a.27.27 0 00-.28.27.26.26 0 00.08.23z" style="fill:#a2a637"/><path d="M182.37 155.9a16.4 16.4 0 1116.4-16.43 1.6 1.6 0 01-1.6 1.6h-11l7.65 7.9a1.61 1.61 0 010 2.27 16.3 16.3 0 01-11.45 4.66zm0-29.59a13.19 13.19 0 108 23.7l-9.11-9.4a1.6 1.6 0 011.15-2.72h13.06a13.21 13.21 0 00-13.1-11.58z" style="fill:#414042"/></svg>