<svg data-name="Layer 1" xmlns="http://www.w3.org/2000/svg" xmlns:xlink="http://www.w3.org/1999/xlink" viewBox="0 0 168.31 126.79" aria-hidden="true"><defs><clipPath id="clip-path" transform="translate(-616.48 -287.55)"><rect x="616.49" y="287.69" width="168.31" height="126.65" style="fill:none"/></clipPath></defs><g id="Group_791" data-name="Group 791"><g id="Group_767" data-name="Group 767"><g id="ContentDevelopment-icon"><g id="ContentDevelopment-icon-2"><rect id="Rectangle_502" data-name="Rectangle 502" x="127.4" y="14.29" width="20.86" height="27.4" style="fill:#a2a637"/><path id="Path_1571" data-name="Path 1571" d="M646.2,301.84l8.18,11.06L644.5,326v3.25h19.68l.08-3.25h18V301.84Z" transform="translate(-616.48 -287.55)" style="fill:#a2a637"/><g style="clip-path:url(#clip-path)"><g id="Group_743" data-name="Group 743"><path id="Path_1572" data-name="Path 1572" d="M682,314.16H649.29a1.94,1.94,0,0,1-1.55-.82l-9.43-13.27a1.91,1.91,0,0,1,.58-2.64,1.85,1.85,0,0,1,1-.3H682v3.76H643.47l6.78,9.51H682Z" transform="translate(-616.48 -287.55)" style="fill:#414042"/><path id="Path_1573" data-name="Path 1573" d="M762.09,314.16H742.7V310.4h17.47v-9.51H742.55v-3.76h19.54A1.91,1.91,0,0,1,764,299h0v13.27a1.92,1.92,0,0,1-1.91,1.92h0" transform="translate(-616.48 -287.55)" style="fill:#414042"/><path id="Path_1574" data-name="Path 1574" d="M682,327.43H639.86a1.92,1.92,0,0,1-1.85-2,1.84,1.84,0,0,1,.3-1l9.43-13.27a1.9,1.9,0,0,1,1.55-.81H682v3.76H650.25l-6.78,9.51H682Z" transform="translate(-616.48 -287.55)" style="fill:#414042"/><path id="Path_1575" data-name="Path 1575" d="M762.09,327.43H742.7v-3.76h17.54v-9.51H742.7V310.4h19.39a1.9,1.9,0,0,1,1.91,1.91h0v13.27a1.91,1.91,0,0,1-1.91,1.92h0" transform="translate(-616.48 -287.55)" style="fill:#414042"/><path id="Path_1576" data-name="Path 1576" d="M764,323.52h4.8V300.89H764Zm6.64,3.76h-8.55a1.92,1.92,0,0,1-1.92-1.92h0V299a1.91,1.91,0,0,1,1.92-1.91h8.55a1.91,1.91,0,0,1,1.92,1.91h0v26.32a1.92,1.92,0,0,1-1.92,1.92h0" transform="translate(-616.48 -287.55)" style="fill:#414042"/><path id="Path_1577" data-name="Path 1577" d="M772.48,323.52h4.57a3.84,3.84,0,0,0,4-3.68h0V304.57a3.83,3.83,0,0,0-4-3.68h-4.57Zm4.57,3.76h-6.49a1.92,1.92,0,0,1-1.91-1.92h0V299a1.91,1.91,0,0,1,1.91-1.91h6.49a7.58,7.58,0,0,1,7.74,7.44h0v15.26a7.6,7.6,0,0,1-7.74,7.45h0" transform="translate(-616.48 -287.55)" style="fill:#414042"/><path id="Path_1578" data-name="Path 1578" d="M621.94,312.31,639.34,323l7.6-10.69-7.6-10.61Zm17.92,15.12a1.81,1.81,0,0,1-1-.3l-21.53-13.2a1.91,1.91,0,0,1,0-3.24l21.45-13.12a1.93,1.93,0,0,1,2.51.51l9.51,13.13a1.84,1.84,0,0,1,0,2.21l-9.43,13.27a2,2,0,0,1-1.55.81" transform="translate(-616.48 -287.55)" style="fill:#414042"/><rect id="Rectangle_503" data-name="Rectangle 503" x="12.62" y="16.94" width="3.76" height="15.59" style="fill:#414042"/><path id="Path_1579" data-name="Path 1579" d="M684.6,414.34h-3.76V358.9l-15.11-12.53-.29-.29a9.44,9.44,0,0,1-3-6.79V327.13h3.76v12.16a5.55,5.55,0,0,0,1.92,4.2l.14.15,15.63,12.9a1.9,1.9,0,0,1,.66,1.48Z" transform="translate(-616.48 -287.55)" style="fill:#414042"/><path id="Path_1580" data-name="Path 1580" d="M727.22,414.34h-3.76V357.43a1.83,1.83,0,0,1,.81-1.55c2.28-1.55,13.63-9.58,16.51-20.12V300.52a5.68,5.68,0,1,0-11.35-.15v14.3a1.92,1.92,0,0,1-3.76,0V297.42a5.68,5.68,0,0,0-11.36,0v17.25a1.91,1.91,0,0,1-2.25,1.51,1.94,1.94,0,0,1-1.51-1.51V297.42a5.71,5.71,0,1,0-11.42,0v17.25a1.92,1.92,0,0,1-3.76,0V297.13a5.68,5.68,0,0,0-11.36,0v34.8a1.91,1.91,0,0,1-1.91,1.91h-4.79v-3.76h2.8V297.13a9.43,9.43,0,0,1,17.17-5.53,9.44,9.44,0,0,1,13.23-1.78,9.55,9.55,0,0,1,1.89,1.92,9.43,9.43,0,0,1,16.22,1.85,9.44,9.44,0,0,1,16,6.85v35.61a2.14,2.14,0,0,1-.08.44c-2.8,10.91-13.56,19.32-17.25,22Z" transform="translate(-616.48 -287.55)" style="fill:#414042"/></g></g></g></g></g></g></svg>