<svg data-name="Layer 1" xmlns="http://www.w3.org/2000/svg" viewBox="0 0 168.31 126.79" aria-hidden="true"><g data-name="Group 791"><g data-name="Group 767"><path data-name="Rectangle 502" style="fill:#a2a637" d="M127.4 14.29h20.86v27.4H127.4z"/><path data-name="Path 1571" d="m646.2 301.84 8.18 11.06-9.88 13.1v3.25h19.68l.08-3.25h18v-24.16Z" transform="translate(-616.48 -287.55)" style="fill:#a2a637"/><g data-name="Group 743"><path data-name="Path 1572" d="M682 314.16h-32.71a1.94 1.94 0 0 1-1.55-.82l-9.43-13.27a1.91 1.91 0 0 1 .58-2.64 1.85 1.85 0 0 1 1-.3H682v3.76h-38.53l6.78 9.51H682Z" transform="translate(-616.48 -287.55)" style="fill:#414042"/><path data-name="Path 1573" d="M762.09 314.16H742.7v-3.76h17.47v-9.51h-17.62v-3.76h19.54A1.91 1.91 0 0 1 764 299v13.27a1.92 1.92 0 0 1-1.91 1.92" transform="translate(-616.48 -287.55)" style="fill:#414042"/><path data-name="Path 1574" d="M682 327.43h-42.14a1.92 1.92 0 0 1-1.85-2 1.84 1.84 0 0 1 .3-1l9.43-13.27a1.9 1.9 0 0 1 1.55-.81H682v3.76h-31.75l-6.78 9.51H682Z" transform="translate(-616.48 -287.55)" style="fill:#414042"/><path data-name="Path 1575" d="M762.09 327.43H742.7v-3.76h17.54v-9.51H742.7v-3.76h19.39a1.9 1.9 0 0 1 1.91 1.91v13.27a1.91 1.91 0 0 1-1.91 1.92" transform="translate(-616.48 -287.55)" style="fill:#414042"/><path data-name="Path 1576" d="M764 323.52h4.8v-22.63H764Zm6.64 3.76h-8.55a1.92 1.92 0 0 1-1.92-1.92V299a1.91 1.91 0 0 1 1.92-1.91h8.55a1.91 1.91 0 0 1 1.92 1.91v26.32a1.92 1.92 0 0 1-1.92 1.92" transform="translate(-616.48 -287.55)" style="fill:#414042"/><path data-name="Path 1577" d="M772.48 323.52h4.57a3.84 3.84 0 0 0 4-3.68v-15.27a3.83 3.83 0 0 0-4-3.68h-4.57Zm4.57 3.76h-6.49a1.92 1.92 0 0 1-1.91-1.92V299a1.91 1.91 0 0 1 1.91-1.91h6.49a7.58 7.58 0 0 1 7.74 7.44v15.26a7.6 7.6 0 0 1-7.74 7.45" transform="translate(-616.48 -287.55)" style="fill:#414042"/><path data-name="Path 1578" d="m621.94 312.31 17.4 10.69 7.6-10.69-7.6-10.61Zm17.92 15.12a1.81 1.81 0 0 1-1-.3l-21.53-13.2a1.91 1.91 0 0 1 0-3.24l21.45-13.12a1.93 1.93 0 0 1 2.51.51l9.51 13.13a1.84 1.84 0 0 1 0 2.21l-9.43 13.27a2 2 0 0 1-1.55.81" transform="translate(-616.48 -287.55)" style="fill:#414042"/><path data-name="Rectangle 503" style="fill:#414042" d="M12.62 16.94h3.76v15.59h-3.76z"/><path data-name="Path 1579" d="M684.6 414.34h-3.76V358.9l-15.11-12.53-.29-.29a9.44 9.44 0 0 1-3-6.79v-12.16h3.76v12.16a5.55 5.55 0 0 0 1.92 4.2l.14.15 15.63 12.9a1.9 1.9 0 0 1 .66 1.48Z" transform="translate(-616.48 -287.55)" style="fill:#414042"/><path data-name="Path 1580" d="M727.22 414.34h-3.76v-56.91a1.83 1.83 0 0 1 .81-1.55c2.28-1.55 13.63-9.58 16.51-20.12v-35.24a5.68 5.68 0 1 0-11.35-.15v14.3a1.92 1.92 0 0 1-3.76 0v-17.25a5.68 5.68 0 0 0-11.36 0v17.25a1.91 1.91 0 0 1-2.25 1.51 1.94 1.94 0 0 1-1.51-1.51v-17.25a5.71 5.71 0 1 0-11.42 0v17.25a1.92 1.92 0 0 1-3.76 0v-17.54a5.68 5.68 0 0 0-11.36 0v34.8a1.91 1.91 0 0 1-1.91 1.91h-4.79v-3.76h2.8v-32.95a9.43 9.43 0 0 1 17.17-5.53 9.44 9.44 0 0 1 13.23-1.78 9.55 9.55 0 0 1 1.89 1.92 9.43 9.43 0 0 1 16.22 1.85 9.44 9.44 0 0 1 16 6.85v35.61a2.14 2.14 0 0 1-.08.44c-2.8 10.91-13.56 19.32-17.25 22Z" transform="translate(-616.48 -287.55)" style="fill:#414042"/></g></g></g></svg>