<svg xmlns="http://www.w3.org/2000/svg" viewBox="0 0 186.28 182.01"><defs><style>.cls-1{fill:#fff;}.cls-2{fill:#8abfc6;}.cls-3{fill:#a0a437;}.cls-4{fill:#404041;}</style></defs><g id="Layer_2" data-name="Layer 2"><g id="Categories_and_Icons" data-name="Categories and Icons"><circle class="cls-1" cx="98.41" cy="94.15" r="87.87"/><path class="cls-2" d="M89.87,179.74a89.87,89.87,0,1,1,89.87-89.87A90,90,0,0,1,89.87,179.74ZM89.87,4a85.87,85.87,0,1,0,85.87,85.87A86,86,0,0,0,89.87,4Z"/><g id="ContentDevelopment-icon"><rect class="cls-3" x="123" y="63.2" width="15.75" height="20.7"/><polygon class="cls-3" points="49.2 63.2 55.39 71.52 47.97 81.43 47.97 83.91 62.83 83.91 62.87 81.43 76.46 81.43 76.46 63.2 49.2 63.2"/><path class="cls-4" d="M76.29,72.49H51.57a1.4,1.4,0,0,1-1.16-.6l-7.15-10a1.43,1.43,0,0,1,1.16-2.25H76.29v2.85H47.19l5.11,7.15h24Z"/><path class="cls-4" d="M136.78,72.49H122.14V69.64h13.21V62.49H122V59.64h14.76a1.42,1.42,0,0,1,1,.42,1.45,1.45,0,0,1,.41,1v10a1.43,1.43,0,0,1-1.42,1.42"/><path class="cls-4" d="M76.29,82.49H44.42a1.43,1.43,0,0,1-1.16-2.25l7.15-10a1.43,1.43,0,0,1,1.15-.6H76.29v2.85h-24l-5.11,7.16h29.1Z"/><path class="cls-4" d="M136.78,82.49H122.13V79.65h13.23V72.49H122.14V69.64h14.64a1.43,1.43,0,0,1,1.42,1.43v10a1.4,1.4,0,0,1-1.42,1.42"/><path class="cls-4" d="M138.2,79.54h3.61V62.49H138.2Zm5,2.85h-6.45A1.42,1.42,0,0,1,135.36,81V61.07a1.42,1.42,0,0,1,1.42-1.43h6.45a1.42,1.42,0,0,1,1.42,1.42V81a1.43,1.43,0,0,1-1.43,1.43"/><path class="cls-4" d="M144.65,79.54h3.47a2.89,2.89,0,0,0,3-2.76V65.26a2.91,2.91,0,0,0-3-2.78h-3.47Zm3.47,2.85h-4.89A1.43,1.43,0,0,1,141.81,81V61.06a1.43,1.43,0,0,1,1.42-1.42h4.89A5.74,5.74,0,0,1,154,65.26V76.78a5.74,5.74,0,0,1-5.84,5.61"/><path class="cls-4" d="M30.93,71.12l13.11,8,5.77-8.09-5.77-8ZM44.42,82.49a1.43,1.43,0,0,1-.74-.21l-16.22-10a1.42,1.42,0,0,1,0-2.42L43.68,60a1.43,1.43,0,0,1,1.9.38l7.14,9.89a1.41,1.41,0,0,1,0,1.66l-7.14,10a1.44,1.44,0,0,1-1.16.59"/><rect class="cls-4" x="36.3" y="65.18" width="2.85" height="11.78"/><path class="cls-4" d="M78.25,148.17H75.41V106.29L64,96.83a1.19,1.19,0,0,1-.19-.2,7.12,7.12,0,0,1-2.22-5.15V82.29H64.4v9.19a4.26,4.26,0,0,0,1.44,3.19l.1.09,11.8,9.76a1.45,1.45,0,0,1,.51,1.1Z"/><path class="cls-4" d="M110.46,148.17h-2.84v-43a1.4,1.4,0,0,1,.63-1.18c1.71-1.15,10.3-7.24,12.46-15.19V62.16a4.31,4.31,0,0,0-8.61,0v10.7a1.42,1.42,0,0,1-1.42,1.42,1.44,1.44,0,0,1-1.44-1.42v-13a4.3,4.3,0,1,0-8.6,0v13a1.43,1.43,0,0,1-2.86,0v-13a4.31,4.31,0,1,0-8.61,0v13a1.42,1.42,0,0,1-1.42,1.42,1.43,1.43,0,0,1-1.43-1.42V59.64a4.31,4.31,0,0,0-8.61,0V85.93a1.42,1.42,0,0,1-1.42,1.42H72.74V84.5h2.13V59.64a7.14,7.14,0,0,1,12.95-4.16,7.14,7.14,0,0,1,11.39.09A7.15,7.15,0,0,1,111.49,57a7.14,7.14,0,0,1,12.06,5.19V89a1.47,1.47,0,0,1,0,.36c-2.14,8.27-10.25,14.6-13.05,16.58Z"/></g></g></g></svg>