<svg data-name="Layer 1" xmlns="http://www.w3.org/2000/svg" viewBox="0 0 82.37 62.04"><defs><clipPath id="clip-path" transform="translate(-319.35 -329.33)"><path fill="none" d="M319.35 329.39h82.36v61.98h-82.36z"/></clipPath></defs><g id="Group_767" data-name="Group 767"><g id="ContentDevelopment-icon"><g id="ContentDevelopment-icon-2"><path id="Rectangle_502" data-name="Rectangle 502" class="cls-2" d="M62.35 6.99h10.21V20.4H62.35z"/><path id="Path_1571" data-name="Path 1571" class="cls-2" d="M333.89 336.32l4 5.41-4.83 6.42v1.59h9.63v-1.59h8.8v-11.83z" transform="translate(-319.35 -329.33)"/><g clip-path="url(#clip-path)"><g id="Group_743" data-name="Group 743"><path id="Path_1572" data-name="Path 1572" class="cls-4" d="M351.42 342.35h-16a1 1 0 01-.75-.4l-4.62-6.5a.93.93 0 01.29-1.29 1 1 0 01.47-.15h20.63v1.84h-18.89l3.32 4.66h15.55z" transform="translate(-319.35 -329.33)"/><path id="Path_1573" data-name="Path 1573" class="cls-4" d="M390.6 342.35h-9.49v-1.84h8.55v-4.66H381V334h9.56a.94.94 0 01.94.94v6.49a.94.94 0 01-.94.94" transform="translate(-319.35 -329.33)"/><path id="Path_1574" data-name="Path 1574" class="cls-4" d="M351.42 348.84h-20.63a.93.93 0 01-.9-1 .86.86 0 01.14-.47l4.62-6.49a.91.91 0 01.76-.4h16v1.84h-15.54l-3.32 4.68h18.87z" transform="translate(-319.35 -329.33)"/><path id="Path_1575" data-name="Path 1575" class="cls-4" d="M390.6 348.84h-9.49V347h8.59v-4.65h-8.59v-1.84h9.49a.94.94 0 01.94.93v6.5a.94.94 0 01-.94.94" transform="translate(-319.35 -329.33)"/><path id="Path_1576" data-name="Path 1576" class="cls-4" d="M391.54 346.93h2.35v-11.08h-2.35zm3.25 1.84h-4.19a.94.94 0 01-.93-.94V335a.94.94 0 01.93-.94h4.19a.94.94 0 01.94.94v12.88a.94.94 0 01-.94.94" transform="translate(-319.35 -329.33)"/><path id="Path_1577" data-name="Path 1577" class="cls-4" d="M395.69 346.93h2.24a1.89 1.89 0 001.95-1.8v-7.47a1.88 1.88 0 00-1.95-1.8h-2.24zm2.24 1.84h-3.18a.94.94 0 01-.94-.94V335a.94.94 0 01.94-.94h3.18a3.72 3.72 0 013.79 3.65v7.46a3.72 3.72 0 01-3.79 3.65" transform="translate(-319.35 -329.33)"/><path id="Path_1578" data-name="Path 1578" class="cls-4" d="M322 341.44l8.51 5.24 3.72-5.24-3.72-5.2zm8.77 7.4a.86.86 0 01-.47-.14l-10.54-6.46a.94.94 0 01-.29-1.29.92.92 0 01.29-.3l10.5-6.42a1 1 0 011.23.25l4.65 6.42a.92.92 0 010 1.09l-4.62 6.49a.91.91 0 01-.76.4" transform="translate(-319.35 -329.33)"/><path id="Rectangle_503" data-name="Rectangle 503" class="cls-4" d="M6.17 8.29h1.84v7.63H6.17z"/><path id="Path_1579" data-name="Path 1579" class="cls-4" d="M352.69 391.37h-1.84v-27.13l-7.4-6.13-.15-.14a4.65 4.65 0 01-1.44-3.32v-5.95h1.84v5.95a2.72 2.72 0 00.94 2.05l.07.08 7.65 6.31a1 1 0 01.33.72z" transform="translate(-319.35 -329.33)"/><path id="Path_1580" data-name="Path 1580" class="cls-4" d="M373.54 391.38h-1.84v-27.86a.91.91 0 01.4-.75c1.12-.76 6.67-4.69 8.08-9.85v-17.25a2.78 2.78 0 10-5.56 0v6.93a.93.93 0 01-1.1.74 1 1 0 01-.74-.74v-8.44a2.78 2.78 0 10-5.55 0v8.44a.94.94 0 01-1.84 0v-8.44a2.8 2.8 0 10-5.59-.3 1.5 1.5 0 000 .3v8.44a.94.94 0 01-1.84 0V334a2.78 2.78 0 00-5.56 0v17a.94.94 0 01-.94.94h-2.35v-1.84h1.38V334a4.62 4.62 0 018.4-2.7 4.64 4.64 0 017.4.07 4.63 4.63 0 017.94.9 4.62 4.62 0 017.83 3.36v17.42a1.43 1.43 0 010 .22c-1.37 5.34-6.64 9.45-8.44 10.75z" transform="translate(-319.35 -329.33)"/></g></g></g></g></g></svg>