<svg viewBox="0 0 248.66 242.97" aria-hidden="true"><defs><clipPath id="clip-path" transform="translate(-580.53 -230.53)"><rect x="580.49" y="230.5" width="248.7" height="242.97" style="fill:none"/></clipPath><clipPath id="clip-path-2" transform="translate(-580.53 -230.53)"><rect x="635.27" y="273.67" width="153.4" height="156.63" style="fill:none"/></clipPath></defs><g id="BG_circle" data-name="BG circle"><g><g id="Group_1735" data-name="Group 1735"><path id="Path_2498" data-name="Path 2498" d="M829.19,356.2a117.3,117.3,0,1,1-117.3-117.3h0a117.3,117.3,0,0,1,117.3,117.3" transform="translate(-580.53 -230.53)" style="fill:#fff"/><circle id="Ellipse_167" data-name="Ellipse 167" cx="119.97" cy="119.97" r="117.3" style="fill:none;stroke:#8abfc6;stroke-miterlimit:9.99999982885729;stroke-width:5.340000061197681px"/></g></g></g><g id="Copywriting"><g style="clip-path:url(#clip-path-2)"><g id="Group_1734" data-name="Group 1734"><path id="Path_2489" data-name="Path 2489" d="M770.47,319l2.4-2.5a3.81,3.81,0,0,1,5.38,0l0,0,8.8,8.8a3.78,3.78,0,0,1,0,5.37l-.13.13-2.3,2.2s-14.3-14.3-14.3-14" transform="translate(-580.53 -230.53)" style="fill:#8bc0c6"/><path id="Path_2490" data-name="Path 2490" d="M711.77,406.37l-2.2-11.5-11.8-2.6,68.6-68.6,14.1,14.1Z" transform="translate(-580.53 -230.53)" style="fill:#a2a637"/><path id="Path_2491" data-name="Path 2491" d="M708.07,393.37h-.3L696,391a1.4,1.4,0,0,1-.7-2.4l68.9-68.9a1.4,1.4,0,0,1,2,0l0,0,7.1,7.1a1.39,1.39,0,0,1,0,2l0,0-64.2,64.1a1.36,1.36,0,0,1-1,.4m-9-4.7,8.5,1.7,62.7-62.5-5.1-5.1Z" transform="translate(-580.53 -230.53)" style="fill:#414042"/><path id="Path_2492" data-name="Path 2492" d="M710.47,405.17h-.4a1.41,1.41,0,0,1-1-1.1l-2.4-11.8a1.4,1.4,0,0,1,.4-1.3l64.2-64.2a1.4,1.4,0,0,1,2,0l0,0,7.1,7.1a1.39,1.39,0,0,1,0,2l0,0-68.9,68.9a1.36,1.36,0,0,1-1,.4m-.9-12.8,1.7,8.5,66-66-5-5.1Z" transform="translate(-580.53 -230.53)" style="fill:#414042"/><path id="Path_2493" data-name="Path 2493" d="M779.27,336.27a1.4,1.4,0,0,1-1-.4l-14.1-14.2a1.4,1.4,0,0,1,0-2l0,0,3.6-3.6a1.4,1.4,0,0,1,2,0l0,0,14.1,14.1a1.39,1.39,0,0,1,0,2l0,0-3.6,3.6a1.36,1.36,0,0,1-1,.4m-12.2-15.5,12.2,12.2,1.6-1.6-12.1-12.2Z" transform="translate(-580.53 -230.53)" style="fill:#414042"/><path id="Path_2494" data-name="Path 2494" d="M782.87,332.67a1.4,1.4,0,0,1-1-.4l-14.1-14.2a1.4,1.4,0,0,1,0-2l0,0,3.2-3.2a5.49,5.49,0,0,1,3.9-1.6,5.62,5.62,0,0,1,4,1.7l8.2,8.2a5.6,5.6,0,0,1,.1,7.9l-3.2,3.2a1.36,1.36,0,0,1-1,.4m-12.3-15.6,12.2,12.2,2.2-2.2a2.79,2.79,0,0,0-.1-3.9l-8.2-8.2a2.9,2.9,0,0,0-3.9-.1Z" transform="translate(-580.53 -230.53)" style="fill:#414042"/><path id="Path_2495" data-name="Path 2495" d="M694,407.47a1.4,1.4,0,0,1-1.41-1.39,1.48,1.48,0,0,1,0-.21l1-7a1.4,1.4,0,0,1,2.4-.8l6.2,6a1.39,1.39,0,0,1,0,2,1.41,1.41,0,0,1-.84.42l-7.2,1H694m2-5.5-.3,2.4,2.5-.4Z" transform="translate(-580.53 -230.53)" style="fill:#414042"/><path id="Path_2496" data-name="Path 2496" d="M701.17,406.47a1.4,1.4,0,0,1-1-.4l-6.2-6a1.43,1.43,0,0,1-.4-1.2l1.4-9.5a1.39,1.39,0,0,1,1.56-1.22l.14,0,11.7,2.3a1.39,1.39,0,0,1,1.1,1.1l2.4,11.8a1.41,1.41,0,0,1-1,1.68l-.15,0-9.3,1.3h-.2m-4.7-7.9,5.2,5,7.2-1-1.9-9.4-9.4-1.9Z" transform="translate(-580.53 -230.53)" style="fill:#414042"/><rect id="Rectangle_1317" data-name="Rectangle 1317" x="694.82" y="358.48" width="90.7" height="2.8" transform="translate(-618.22 398.25) rotate(-45)" style="fill:#414042"/><path id="Path_2497" data-name="Path 2497" d="M757.07,357.57v71.2H636.77V275.17h120.3v53.7" transform="translate(-580.53 -230.53)" style="fill:none;stroke:#414042;stroke-miterlimit:10;stroke-width:3px"/><line id="Line_160" data-name="Line 160" x1="71.94" y1="85.04" x2="161.74" y2="85.04" style="fill:none;stroke:#414042;stroke-miterlimit:10;stroke-width:3px"/><line id="Line_161" data-name="Line 161" x1="71.94" y1="72.14" x2="161.74" y2="72.14" style="fill:none;stroke:#414042;stroke-miterlimit:10;stroke-width:3px"/><line id="Line_162" data-name="Line 162" x1="71.94" y1="97.94" x2="161.74" y2="97.94" style="fill:none;stroke:#414042;stroke-miterlimit:10;stroke-width:3px"/><line id="Line_163" data-name="Line 163" x1="71.94" y1="110.84" x2="154.34" y2="110.84" style="fill:none;stroke:#414042;stroke-miterlimit:10;stroke-width:3px"/><line id="Line_164" data-name="Line 164" x1="71.94" y1="123.74" x2="141.34" y2="123.74" style="fill:none;stroke:#414042;stroke-miterlimit:10;stroke-width:3px"/><line id="Line_165" data-name="Line 165" x1="71.94" y1="136.64" x2="129.04" y2="136.64" style="fill:none;stroke:#414042;stroke-miterlimit:10;stroke-width:3px"/><line id="Line_166" data-name="Line 166" x1="71.94" y1="149.64" x2="116.04" y2="149.64" style="fill:none;stroke:#414042;stroke-miterlimit:10;stroke-width:3px"/><line id="Line_167" data-name="Line 167" x1="71.94" y1="162.54" x2="109.94" y2="162.54" style="fill:none;stroke:#414042;stroke-miterlimit:10;stroke-width:3px"/><line id="Line_168" data-name="Line 168" x1="71.94" y1="175.44" x2="104.64" y2="175.44" style="fill:none;stroke:#414042;stroke-miterlimit:10;stroke-width:3px"/></g></g></g></svg>