<svg xmlns="http://www.w3.org/2000/svg" width="248.7" height="242.97"><defs><clipPath id="a"><path fill="none" d="M0 0h248.7v242.97H0z"/></clipPath><clipPath id="b"><path fill="none" d="M0 0h153.4v156.63H0z"/></clipPath></defs><g clip-path="url(#a)"><path d="M248.7 125.7A117.3 117.3 0 1 1 131.4 8.4a117.3 117.3 0 0 1 117.3 117.3" fill="#fff"/><circle cx="117.3" cy="117.3" r="117.3" transform="rotate(-45 121.91181374 115.38447333)" fill="none" stroke="#8abfc6" stroke-miterlimit="10" stroke-width="5.34"/></g><g transform="translate(54.778 43.17)" clip-path="url(#b)"><path d="m135.2 45.3 2.4-2.5a3.8 3.8 0 0 1 5.4 0l8.8 8.8a3.8 3.8 0 0 1-.1 5.5l-2.3 2.2s-14.3-14.3-14.3-14" fill="#8bc0c6"/><path d="m76.5 132.7-2.2-11.5-11.8-2.6L131.1 50l14.1 14.1Z" fill="#a2a637"/><path d="M72.8 119.7h-.3l-11.8-2.4a1.4 1.4 0 0 1-.7-2.4L128.9 46a1.4 1.4 0 0 1 2 0l7.1 7.1a1.4 1.4 0 0 1 0 2l-64.2 64.1a1.4 1.4 0 0 1-1 .4m-9-4.7 8.5 1.7L135 54.1l-5.1-5.1Z" fill="#414042"/><path d="M75.2 131.5h-.4a1.4 1.4 0 0 1-1-1.1l-2.4-11.8a1.4 1.4 0 0 1 .4-1.3L136 53.1a1.4 1.4 0 0 1 2 0l7.1 7.1a1.4 1.4 0 0 1 0 2l-68.9 68.9a1.4 1.4 0 0 1-1 .4m-.9-12.8 1.7 8.5 66-66-5-5.1Z" fill="#414042"/><path d="M144 62.6a1.4 1.4 0 0 1-1-.4L128.9 48a1.4 1.4 0 0 1 0-2l3.6-3.6a1.4 1.4 0 0 1 2 0l14.1 14.1a1.4 1.4 0 0 1 0 2l-3.6 3.6a1.4 1.4 0 0 1-1 .4M131.8 47 144 59.2l1.6-1.6-12.1-12.2Z" fill="#414042"/><path d="M147.6 59a1.4 1.4 0 0 1-1-.4l-14.1-14.2a1.4 1.4 0 0 1 0-2l3.2-3.2a5.5 5.5 0 0 1 3.9-1.6 5.6 5.6 0 0 1 4 1.7l8.2 8.2a5.6 5.6 0 0 1 .1 7.9l-3.2 3.2a1.4 1.4 0 0 1-1 .4m-12.3-15.6 12.2 12.2 2.2-2.2a2.8 2.8 0 0 0-.1-3.9l-8.2-8.2a2.9 2.9 0 0 0-3.9-.1ZM58.7 133.8a1.4 1.4 0 0 1-1.4-1.6l1-7a1.4 1.4 0 0 1 2.4-.8l6.2 6a1.4 1.4 0 0 1-.8 2.4l-7.2 1h-.2m2-5.5-.3 2.4 2.5-.4Z" fill="#414042"/><path d="M65.9 132.8a1.4 1.4 0 0 1-1-.4l-6.2-6a1.4 1.4 0 0 1-.4-1.2l1.4-9.5a1.4 1.4 0 0 1 1.7-1.2l11.7 2.3a1.4 1.4 0 0 1 1.1 1.1l2.4 11.8a1.4 1.4 0 0 1-1.2 1.7l-9.3 1.3h-.2m-4.7-7.9 5.2 5 7.2-1-1.9-9.4-9.4-1.9Z" fill="#414042"/><path fill="#414042" d="m71.836 117.29 64.13458505-64.13458505 1.979899 1.97989898L73.81589898 119.269899z"/><path d="M121.8 83.9v71.2H1.5V1.5h120.3v53.7M17.2 41.9H107M17.2 29H107M17.2 54.8H107M17.2 67.7h82.4M17.2 80.6h69.4M17.2 93.5h57.1M17.2 106.5h44.1M17.2 119.4h38M17.2 132.3h32.7" fill="none" stroke="#414042" stroke-miterlimit="10" stroke-width="3"/></g></svg>