<svg xmlns="http://www.w3.org/2000/svg" viewBox="0 0 186.28 182.01"><defs><style>.cls-1{fill:#fff;}.cls-2{fill:#8abfc6;}.cls-3{fill:#a0a437;}.cls-4{fill:#404041;}</style></defs><g id="Layer_2" data-name="Layer 2"><g id="Categories_and_Icons" data-name="Categories and Icons"><circle class="cls-1" cx="98.41" cy="94.15" r="87.87"/><path class="cls-2" d="M89.87,179.74a89.87,89.87,0,1,1,89.87-89.87A90,90,0,0,1,89.87,179.74ZM89.87,4a85.87,85.87,0,1,0,85.87,85.87A86,86,0,0,0,89.87,4Z"/></g><g id="Additional_Icons" data-name="Additional Icons"><g id="Design"><rect class="cls-3" x="62.13" y="83.99" width="13.6" height="6.89" transform="translate(-11.58 10.53) rotate(-8.06)"/><polygon class="cls-3" points="127.98 90.53 112.81 90.15 117.75 49.89 123.88 55.64 132.93 50.24 127.98 90.53"/><rect class="cls-2" x="87.71" y="28.62" width="15.81" height="61.92"/><path class="cls-4" d="M119,92.65h-9.35a1.71,1.71,0,0,1-1.7-1.92l6-47.59a1.71,1.71,0,0,1,2.86-1l8.37,7.74a1.71,1.71,0,0,1,.53,1.47l-5,39.85A1.71,1.71,0,0,1,119,92.65Zm-7.41-3.41h5.9l4.75-37.49L117,46.86Z"/><path class="cls-4" d="M128.38,92.65H119a1.71,1.71,0,0,1-1.7-1.92l5-39.85a1.7,1.7,0,0,1,.89-1.29l10-5.41a1.71,1.71,0,0,1,2.5,1.72l-5.73,45.26A1.72,1.72,0,0,1,128.38,92.65ZM121,89.24h5.89L132,48.77l-6.33,3.41Z"/><path class="cls-4" d="M59.86,60.94c-6.43,0-10.22-3.42-11.26-10.14C47.24,41.93,57,28.54,57.39,28a1.71,1.71,0,0,1,2.39-.36C60.34,28,73.66,37.86,75,46.72c1.82,11.86-8.12,13.39-11.39,13.9A25.24,25.24,0,0,1,59.86,60.94Zm-.72-29.51c-3,4.4-8,13.34-7.16,18.85.78,5.07,3.14,7.24,7.88,7.24a21,21,0,0,0,3.26-.28c7-1.08,9.46-4,8.53-10C70.8,41.73,63.29,34.74,59.14,31.43Z"/><rect class="cls-4" x="58.85" y="79.51" width="16.99" height="3.42" transform="translate(-11.59 11.21) rotate(-8.76)"/><path class="cls-4" d="M124.09,52.8a1.69,1.69,0,0,1-1.16-.45l-8.37-7.74a1.7,1.7,0,0,1-.17-2.32l11-13.75a1.71,1.71,0,0,1,2.89.36L135.57,45a1.71,1.71,0,0,1-.74,2.21l-9.92,5.41A1.72,1.72,0,0,1,124.09,52.8Zm-6-9.61,6.3,5.82,7.46-4.07-5.46-12.09Z"/><rect class="cls-4" x="123.99" y="32.9" width="3.42" height="10.92" transform="translate(71.84 158.24) rotate(-82.78)"/><rect class="cls-4" x="84.45" y="34.96" width="6.52" height="3.42"/><rect class="cls-4" x="84.45" y="45.89" width="6.52" height="3.42"/><rect class="cls-4" x="84.45" y="56.81" width="6.52" height="3.42"/><rect class="cls-4" x="84.45" y="67.74" width="6.52" height="3.42"/><rect class="cls-4" x="84.45" y="78.67" width="6.52" height="3.42"/><path class="cls-4" d="M76.91,92.65H59.73A1.7,1.7,0,0,1,58,91.19c-3.22-22.75-1.7-32.9,5.08-33.95a6.46,6.46,0,0,1,1-.07c4.57,0,9.87,4,14.49,33.51a1.7,1.7,0,0,1-1.68,2ZM61.22,89.24H74.9c-3.87-23.62-8-28.66-10.8-28.66a3.57,3.57,0,0,0-.46,0C60.81,61.06,58.13,66.42,61.22,89.24Z"/><path class="cls-4" d="M103.56,92.65H84.45A1.71,1.71,0,0,1,82.74,91V25.75A1.71,1.71,0,0,1,84.45,24h19.11a1.71,1.71,0,0,1,1.71,1.71V91A1.71,1.71,0,0,1,103.56,92.65Zm-17.4-3.41h15.69V27.45H86.16Z"/><path class="cls-4" d="M125.55,152.18H61.4a1.71,1.71,0,0,1-1.71-1.57l-3.67-47a1.72,1.72,0,0,1,.45-1.3,1.69,1.69,0,0,1,1.25-.54h71.51a1.69,1.69,0,0,1,1.25.54,1.72,1.72,0,0,1,.45,1.3l-3.67,47A1.71,1.71,0,0,1,125.55,152.18ZM63,148.77h61l3.41-43.63H59.57Z"/><path class="cls-4" d="M133.8,105.14H53.15a4.32,4.32,0,0,1-4.27-4.34V93.55a4.32,4.32,0,0,1,4.27-4.35H133.8a4.32,4.32,0,0,1,4.27,4.35v7.25A4.32,4.32,0,0,1,133.8,105.14ZM53.15,92.62a.89.89,0,0,0-.85.93v7.25a.89.89,0,0,0,.85.93H133.8a.89.89,0,0,0,.85-.93V93.55a.89.89,0,0,0-.85-.93Z"/></g></g></g></svg>