<svg xmlns="http://www.w3.org/2000/svg" viewBox="0 0 99.46 142.25" aria-hidden="true"><g id="Layer_2" data-name="Layer 2"><g id="Additional_Icons" data-name="Additional Icons"><rect class="cls-2" x="15.16" y="66.56" width="15.1" height="7.65" transform="translate(-9.65 3.88) rotate(-8.06)"/><polygon class="cls-2" points="88.26 73.82 71.42 73.39 76.9 28.7 83.71 35.08 93.75 29.09 88.26 73.82"/><rect class="cls-1" x="43.56" y="5.08" width="17.55" height="68.73"/><path class="cls-4" d="M78.33,76.17H68a1.9,1.9,0,0,1-1.43-.64A1.93,1.93,0,0,1,66.07,74l6.7-52.83a1.9,1.9,0,0,1,3.17-1.15l9.29,8.58a1.88,1.88,0,0,1,.59,1.63L80.21,74.51A1.89,1.89,0,0,1,78.33,76.17Zm-8.22-3.79h6.55l5.28-41.62-5.87-5.42Z"/><path class="cls-4" d="M88.7,76.17H78.33A1.89,1.89,0,0,1,76.45,74L82.06,29.8a1.93,1.93,0,0,1,1-1.44l11.13-6A1.89,1.89,0,0,1,97,24.27L90.59,74.51A1.9,1.9,0,0,1,88.7,76.17Zm-8.22-3.79H87l5.7-44.93-7,3.79Z"/><path class="cls-4" d="M12.64,41C5.5,41,1.3,37.17.15,29.71-1.37,19.86,9.44,5,9.9,4.37A1.9,1.9,0,0,1,12.55,4c.63.46,15.41,11.38,16.93,21.23,2,13.16-9,14.86-12.64,15.42A27.29,27.29,0,0,1,12.64,41ZM11.85,8.2C8.56,13.09,3,23,3.89,29.13c.87,5.63,3.49,8,8.75,8a23.48,23.48,0,0,0,3.62-.31c7.75-1.2,10.5-4.41,9.47-11.1C24.78,19.64,16.45,11.88,11.85,8.2Z"/><rect class="cls-4" x="11.52" y="61.58" width="18.86" height="3.79" transform="translate(-9.43 3.93) rotate(-8.76)"/><path class="cls-4" d="M83.94,31.93a1.9,1.9,0,0,1-1.29-.5l-9.29-8.59a1.9,1.9,0,0,1-.19-2.58L85.43,5a1.89,1.89,0,0,1,3.2.4l8.06,17.84a1.9,1.9,0,0,1-.82,2.45l-11,6A2,2,0,0,1,83.94,31.93Zm-6.7-10.67,7,6.46,8.28-4.52L86.45,9.78Z"/><rect class="cls-4" x="83.83" y="9.84" width="3.79" height="12.12" transform="matrix(0.13, -0.99, 0.99, 0.13, 59.18, 98.95)"/><rect class="cls-4" x="39.94" y="12.13" width="7.24" height="3.79"/><rect class="cls-4" x="39.94" y="24.26" width="7.24" height="3.79"/><rect class="cls-4" x="39.94" y="36.39" width="7.24" height="3.79"/><rect class="cls-4" x="39.94" y="48.51" width="7.24" height="3.79"/><rect class="cls-4" x="39.94" y="60.64" width="7.24" height="3.79"/><path class="cls-4" d="M31.56,76.17H12.5a1.9,1.9,0,0,1-1.88-1.63C7,49.29,8.73,38,16.26,36.86a6.58,6.58,0,0,1,1.09-.08c5.07,0,11,4.42,16.09,37.2A1.93,1.93,0,0,1,33,75.51,1.89,1.89,0,0,1,31.56,76.17ZM14.15,72.38H29.34c-4.3-26.22-8.88-31.81-12-31.81a2.92,2.92,0,0,0-.51,0C13.69,41.09,10.72,47.05,14.15,72.38Z"/><path class="cls-4" d="M61.15,76.17H39.94a1.9,1.9,0,0,1-1.9-1.9V1.9A1.9,1.9,0,0,1,39.94,0H61.15a1.9,1.9,0,0,1,1.9,1.9V74.27A1.9,1.9,0,0,1,61.15,76.17ZM41.84,72.38H59.26V3.79H41.84Z"/><path class="cls-4" d="M85.57,142.25H14.35a1.89,1.89,0,0,1-1.89-1.74L8.38,88.29a1.94,1.94,0,0,1,.49-1.44,1.91,1.91,0,0,1,1.4-.61H89.64a1.91,1.91,0,0,1,1.4.61,1.94,1.94,0,0,1,.49,1.44l-4.07,52.22A1.9,1.9,0,0,1,85.57,142.25ZM16.1,138.46H83.81L87.59,90H12.32Z"/><path class="cls-4" d="M94.72,90H5.19A4.79,4.79,0,0,1,.45,85.21v-8a4.79,4.79,0,0,1,4.74-4.82H94.72a4.79,4.79,0,0,1,4.74,4.82v8A4.79,4.79,0,0,1,94.72,90ZM5.19,76.13a1,1,0,0,0-.94,1v8a1,1,0,0,0,.94,1H94.72a1,1,0,0,0,.94-1v-8a1,1,0,0,0-.94-1Z"/></g></g></svg>