<svg id="Layer_1" data-name="Layer 1" xmlns="http://www.w3.org/2000/svg" xmlns:xlink="http://www.w3.org/1999/xlink" viewBox="0 0 63.13 63.59" aria-hidden="true"><defs><clipPath id="clip-path" transform="translate(-329.13 -328.53)"><rect class="cls-8" x="328.67" y="328.48" width="63.59" height="64.11"/></clipPath></defs><g id="DesignMockUp-icon"><g class="cls-9"><g id="Group_756" data-name="Group 756"><path id="Path_1731" data-name="Path 1731" class="cls-5" d="M387.67,342.78A7.55,7.55,0,0,1,377,343l-.23-.24a8.18,8.18,0,0,1,0-11.3,7.54,7.54,0,0,1,10.67-.24l.24.24a8.18,8.18,0,0,1,0,11.3" transform="translate(-329.13 -328.53)"/><path id="Path_1732" data-name="Path 1732" class="cls-5" d="M335.06,374.61,331,387.35l2.73,2.83L346,385.92Z" transform="translate(-329.13 -328.53)"/><path id="Path_1733" data-name="Path 1733" class="cls-2" d="M347.79,385.82l41.64-43.14-10.91-11.3-41.67,43.13Z" transform="translate(-329.13 -328.53)"/><path id="Path_1734" data-name="Path 1734" class="cls-4" d="M388.07,343.25l-.87-.9a7.54,7.54,0,0,0,0-10.41,7,7,0,0,0-9.82-.25l-.25.25-.87-.9a8.15,8.15,0,0,1,11.52-.25l.26.25a8.86,8.86,0,0,1,0,12.21" transform="translate(-329.13 -328.53)"/><path id="Path_1735" data-name="Path 1735" class="cls-1" d="M332.2,340.69l49.15,50.85,10.91-11.31L343.1,329.38Z" transform="translate(-329.13 -328.53)"/><path id="Path_1736" data-name="Path 1736" class="cls-4" d="M376.73,332.38l10.08,10.41-15.34,15.92.83.87,16.2-16.8-11.77-12.17-16.2,16.8.87.87Z" transform="translate(-329.13 -328.53)"/><path id="Path_1737" data-name="Path 1737" class="cls-4" d="M345.67,385.39l-15.1,5.22,5-15.67,13.17-13.6-.87-.9-13.37,13.84-5.35,16.8a.8.8,0,0,0,.53,1,.76.76,0,0,0,.47,0l16.13-5.59,13.34-13.83-.87-.9Z" transform="translate(-329.13 -328.53)"/><path id="Path_1738" data-name="Path 1738" class="cls-4" d="M382.62,337.6l-.83-.9L366,353.1l.83.86Z" transform="translate(-329.13 -328.53)"/><path id="Path_1739" data-name="Path 1739" class="cls-4" d="M340.11,379.83l.83.9L354.21,367l-.86-.9Z" transform="translate(-329.13 -328.53)"/><path id="Path_1740" data-name="Path 1740" class="cls-4" d="M349.59,360.44l-.83.9,4.59,4.76.86-.86Z" transform="translate(-329.13 -328.53)"/><path id="Path_1741" data-name="Path 1741" class="cls-4" d="M354.21,367l4.59,4.75.87-.86L355,366.1Z" transform="translate(-329.13 -328.53)"/><path id="Path_1742" data-name="Path 1742" class="cls-4" d="M354.21,365.23l-.86.87.86.9.83-.9Z" transform="translate(-329.13 -328.53)"/><path id="Path_1743" data-name="Path 1743" class="cls-4" d="M370.58,359.58l-10.05-10.41-.86.87,10.07,10.41Z" transform="translate(-329.13 -328.53)"/><path id="Path_1744" data-name="Path 1744" class="cls-4" d="M389.9,379.57l-18.46-19.13-.87.9,18.26,18.9-10,10.44-18.26-18.93-.86.9,18.39,19.06a1,1,0,0,0,1.41,0l0,0,10.41-10.78a1,1,0,0,0,0-1.4" transform="translate(-329.13 -328.53)"/><path id="Path_1745" data-name="Path 1745" class="cls-4" d="M330.47,340.69l10.07-10.44,18.26,18.92.87-.9-18.39-19a1,1,0,0,0-1.42,0v0L329.44,340a1,1,0,0,0,0,1.4l18.45,19.05.87-.9Z" transform="translate(-329.13 -328.53)"/><path id="Path_1746" data-name="Path 1746" class="cls-4" d="M359.67,370.89l-.87.86.87.9.86-.9Z" transform="translate(-329.13 -328.53)"/><path id="Path_1747" data-name="Path 1747" class="cls-4" d="M359.67,350l.86-.87-.86-.9-.87.9Z" transform="translate(-329.13 -328.53)"/><path id="Path_1748" data-name="Path 1748" class="cls-4" d="M349.59,360.44l-.83-.86-.86.86.86.9Z" transform="translate(-329.13 -328.53)"/><path id="Path_1749" data-name="Path 1749" class="cls-4" d="M369.74,360.44l.84.9.86-.9-.86-.86Z" transform="translate(-329.13 -328.53)"/><path id="Path_1750" data-name="Path 1750" class="cls-4" d="M341,335.47l-.87-.9,2.73-2.83.86.9Z" transform="translate(-329.13 -328.53)"/><path id="Path_1751" data-name="Path 1751" class="cls-4" d="M343.7,338.29l-.86-.9,2.76-2.82.83.9Z" transform="translate(-329.13 -328.53)"/><path id="Path_1752" data-name="Path 1752" class="cls-4" d="M346.43,341.12l-.83-.9,2.73-2.82.83.9Z" transform="translate(-329.13 -328.53)"/><path id="Path_1753" data-name="Path 1753" class="cls-4" d="M349.16,344l-.83-.9,2.72-2.83.83.9Z" transform="translate(-329.13 -328.53)"/><path id="Path_1754" data-name="Path 1754" class="cls-4" d="M351.88,346.78l-.83-.9,2.73-2.83.87.9Z" transform="translate(-329.13 -328.53)"/><path id="Path_1755" data-name="Path 1755" class="cls-4" d="M354.65,349.6l-.87-.9,2.73-2.82.86.9Z" transform="translate(-329.13 -328.53)"/><path id="Path_1756" data-name="Path 1756" class="cls-4" d="M357.37,352.43l-.86-.9,2.72-2.83.87.9Z" transform="translate(-329.13 -328.53)"/><path id="Path_1757" data-name="Path 1757" class="cls-4" d="M360.1,355.26l-.87-.9,2.73-2.83.87.9Z" transform="translate(-329.13 -328.53)"/><path id="Path_1758" data-name="Path 1758" class="cls-4" d="M362.83,358.08l-.87-.9,2.73-2.82.86.9Z" transform="translate(-329.13 -328.53)"/><path id="Path_1759" data-name="Path 1759" class="cls-4" d="M365.55,360.91l-.86-.9,2.73-2.83.86.9Z" transform="translate(-329.13 -328.53)"/><path id="Path_1760" data-name="Path 1760" class="cls-4" d="M368.28,363.74l-.86-.9,2.76-2.83.83.9Z" transform="translate(-329.13 -328.53)"/><path id="Path_1761" data-name="Path 1761" class="cls-4" d="M371,366.56l-.83-.9,2.72-2.82.83.9Z" transform="translate(-329.13 -328.53)"/><path id="Path_1762" data-name="Path 1762" class="cls-4" d="M373.73,369.39l-.83-.9,2.73-2.83.83.9Z" transform="translate(-329.13 -328.53)"/><path id="Path_1763" data-name="Path 1763" class="cls-4" d="M376.46,372.22l-.83-.9,2.73-2.83.86.9Z" transform="translate(-329.13 -328.53)"/><path id="Path_1764" data-name="Path 1764" class="cls-4" d="M379.22,375l-.86-.9,2.73-2.82.86.9Z" transform="translate(-329.13 -328.53)"/><path id="Path_1765" data-name="Path 1765" class="cls-4" d="M382,377.87l-.86-.9,2.72-2.83.87.9Z" transform="translate(-329.13 -328.53)"/><path id="Path_1766" data-name="Path 1766" class="cls-4" d="M384.68,380.7l-.87-.9,2.73-2.83.86.9Z" transform="translate(-329.13 -328.53)"/><path id="Path_1767" data-name="Path 1767" class="cls-4" d="M381.08,389.18,331.93,338.3l.86-.9L382,388.28Z" transform="translate(-329.13 -328.53)"/><path id="Path_1768" data-name="Path 1768" class="cls-4" d="M345.57,386.39l-10.95-11.31.87-.9,10.91,11.31Z" transform="translate(-329.13 -328.53)"/><path id="Path_1769" data-name="Path 1769" class="cls-4" d="M333.29,390.61l-2.72-2.79.83-.9,2.72,2.82Z" transform="translate(-329.13 -328.53)"/></g></g></g></svg>