<svg xmlns="http://www.w3.org/2000/svg" width="75.72" height="55.111" viewBox="0 0 75.72 55.111"><g transform="translate(-19.27 -27.58)"><rect width="24.14" height="27.55" transform="translate(31.09 35.87)" fill="#a0a437"/><rect width="13.48" height="13.48" transform="translate(78.62 57.92)" fill="#a0a437"/><path d="M54.36,63.42H52.79V35.11H30V63.42H28.46V34.32a.78.78,0,0,1,.78-.78H53.57a.78.78,0,0,1,.79.78Z" fill="#404041"/><path d="M70.33,46.91l-7.68-4.42v8.83l2.48-2.76,2.09,3.62,1.46-.85-2.07-3.58Z" fill="#8bc0c6"/><path d="M62,42.19l7.68,4.42L66,47.45,68.07,51l-1.46.85-2.09-3.62L62,51V42.19m0-1.08a1.06,1.06,0,0,0-.54.14,1.1,1.1,0,0,0-.54.94V51a1.08,1.08,0,0,0,.7,1,1,1,0,0,0,.38.07,1.06,1.06,0,0,0,.81-.36l1.48-1.64,1.34,2.32a1.1,1.1,0,0,0,1.48.4l1.5-.79a1.09,1.09,0,0,0,.51-.66,1.12,1.12,0,0,0-.11-.82l-1.34-2.31L70,47.66a1.09,1.09,0,0,0,.3-2l-7.68-4.41a1,1,0,0,0-.54-.14Z" fill="#404041"/><path d="M64.72,82.69H39.13a1.44,1.44,0,0,1-1.43-1,1.27,1.27,0,0,1,.7-1.42,5.75,5.75,0,0,0,3.2-3.81A18.25,18.25,0,0,0,41.83,72a.83.83,0,0,1,.21-.62.8.8,0,0,1,.6-.27H61.22a.8.8,0,0,1,.59.27A.79.79,0,0,1,62,72a18,18,0,0,0,.24,4.47,5.73,5.73,0,0,0,3.19,3.81,1.25,1.25,0,0,1,.7,1.42,1.43,1.43,0,0,1-1.41.99ZM40.13,81.07H63.72a7.07,7.07,0,0,1-3-4.34,18.539,18.539,0,0,1-.3-4H43.49a19.3,19.3,0,0,1-.31,4,7,7,0,0,1-3.05,4.34Z" fill="#404041"/><path d="M51.93,69.48a1.43,1.43,0,1,1,1.43-1.43,1.43,1.43,0,0,1-1.43,1.43Z" fill="#a0a437"/><path d="M73.38,72.68H23.21a4,4,0,0,1-3.94-4V64.22a.8.8,0,0,1,.8-.8H32.39a.81.81,0,1,1,0,1.61H20.88v3.7a2.33,2.33,0,0,0,2.33,2.33H73.38a.81.81,0,0,1,0,1.62Z" fill="#404041"/><path d="M73.33,65H20.07a.8.8,0,0,1-.8-.81V31.8a4.22,4.22,0,0,1,4.21-4.22H80.37a4.22,4.22,0,0,1,4.22,4.22V47.61a.81.81,0,1,1-1.62,0V31.8a2.59,2.59,0,0,0-2.6-2.6H23.48a2.6,2.6,0,0,0-2.6,2.6V63.42H73.33a.81.81,0,1,1,0,1.61Z" fill="#404041"/><rect width="16.63" height="1.61" transform="translate(75.46 74.23)" fill="#404041"/><path d="M92.59,82.69H75a2.41,2.41,0,0,1-2.4-2.41V49.21a2.41,2.41,0,0,1,2.4-2.4H92.59a2.4,2.4,0,0,1,2.4,2.4V80.28a2.4,2.4,0,0,1-2.4,2.41ZM75,48.42a.8.8,0,0,0-.79.79V80.28a.79.79,0,0,0,.79.79H92.59a.79.79,0,0,0,.79-.79V49.21a.79.79,0,0,0-.79-.79Z" fill="#404041"/><path d="M83.78,79.85a1.36,1.36,0,1,1,1.36-1.36A1.36,1.36,0,0,1,83.78,79.85Z" fill="#a0a437"/><path d="M85.84,51.89H81.72a.81.81,0,0,1,0-1.62h4.12a.81.81,0,0,1,0,1.62Z" fill="#404041"/><path d="M90.22,70.61H76.74a.76.76,0,0,1-.75-.75V56.38a.75.75,0,0,1,.75-.75H90.22a.74.74,0,0,1,.75.75V69.86A.75.75,0,0,1,90.22,70.61Zm-12.73-1.5h12v-12h-12Z" fill="#404041"/><rect width="1.57" height="37.92" transform="matrix(0.767, -0.641, 0.641, 0.767, 28.638, 34.83)" fill="#404041"/><rect width="37.92" height="1.57" transform="matrix(0.641, -0.767, 0.767, 0.641, 28.644, 62.914)" fill="#404041"/><rect width="1.57" height="19.06" transform="translate(76.185 56.933) rotate(-45)" fill="#404041"/><rect width="19.06" height="1.57" transform="translate(76.185 69.303) rotate(-45)" fill="#404041"/></g></svg>