<svg id="Layer_1" data-name="Layer 1" xmlns="http://www.w3.org/2000/svg" viewBox="0 0 78.09 56.84"><defs><clipPath id="clip-path" transform="translate(-321.4 -331.7)"><path fill="none" d="M321.4 331.7h78.13v56.84H321.4z"/></clipPath><style>.cls-1{fill:#78b3bb}.cls-3{fill:#313133}.cls-2{fill:#9c9200}</style></defs><g clip-path="url(#clip-path)" id="Digital_CMYK" data-name="Digital CMYK"><g id="Group_754" data-name="Group 754"><path id="Path_1695" data-name="Path 1695" class="cls-1" d="M326.27 368.86v-11.21a.7.7 0 01.7-.7h4.65a.7.7 0 01.7.7v11.21a.71.71 0 01-.7.7H327a.7.7 0 01-.7-.7" transform="translate(-321.4 -331.7)"/><path id="Path_1696" data-name="Path 1696" class="cls-1" d="M339.17 368.86v-21.55a.7.7 0 01.7-.7h4.65a.7.7 0 01.7.7v21.55a.7.7 0 01-.7.7h-4.65a.7.7 0 01-.7-.7" transform="translate(-321.4 -331.7)"/><path id="Path_1697" data-name="Path 1697" class="cls-1" d="M351.25 368.86V351.3a.71.71 0 01.7-.7h4.65a.7.7 0 01.7.7v17.56a.7.7 0 01-.7.7H352a.71.71 0 01-.7-.7" transform="translate(-321.4 -331.7)"/><path id="Path_1698" data-name="Path 1698" class="cls-1" d="M364.55 368.86v-22.47a.7.7 0 01.7-.7h4.65a.7.7 0 01.7.7v22.47a.7.7 0 01-.7.7h-4.65a.7.7 0 01-.7-.7" transform="translate(-321.4 -331.7)"/><path id="Path_1699" data-name="Path 1699" class="cls-3" d="M368.29 388.54h-26.38a1.46 1.46 0 01-1.48-1.08 1.3 1.3 0 01.74-1.48 6 6 0 003.3-3.91 18.27 18.27 0 00.26-4.61.83.83 0 01.74-.91h19.21a.83.83 0 01.83.82.28.28 0 010 .09 18.75 18.75 0 00.27 4.61 5.7 5.7 0 003.3 3.91 1.3 1.3 0 01.73 1.48 1.46 1.46 0 01-1.47 1.08m-25.42-1.65h24.33a7.26 7.26 0 01-3.12-4.48 18.19 18.19 0 01-.3-4.17h-17.44a19.39 19.39 0 01-.3 4.17 7.28 7.28 0 01-3.18 4.48" transform="translate(-321.4 -331.7)"/><path id="Path_1700" data-name="Path 1700" class="cls-2" d="M355.08 374.9a1.48 1.48 0 111.47-1.48 1.47 1.47 0 01-1.47 1.48" transform="translate(-321.4 -331.7)"/><path id="Path_1701" data-name="Path 1701" class="cls-3" d="M377.2 378.2h-51.72a4.08 4.08 0 01-4.08-4v-4.65a.83.83 0 01.82-.83H335a.83.83 0 01.85.8.81.81 0 01-.8.85h-12v3.83a2.39 2.39 0 002.39 2.39h51.76a.82.82 0 01.85.79.83.83 0 01-.79.86h-.06" transform="translate(-321.4 -331.7)"/><path id="Path_1702" data-name="Path 1702" class="cls-3" d="M377.15 370.33h-54.93a.82.82 0 01-.82-.82v-33.46a4.34 4.34 0 014.34-4.35h58.67a4.34 4.34 0 014.34 4.35v16.3a.81.81 0 01-.85.79.83.83 0 01-.8-.79v-16.3a2.69 2.69 0 00-2.69-2.7h-58.67a2.7 2.7 0 00-2.69 2.7v32.63h54.1a.84.84 0 01.8.86.83.83 0 01-.8.79" transform="translate(-321.4 -331.7)"/><path id="Rectangle_563" data-name="Rectangle 563" class="cls-3" d="M57.97 48.1h17.17v1.66H57.97z"/><path id="Path_1703" data-name="Path 1703" class="cls-3" d="M397 388.54h-18.15a2.48 2.48 0 01-2.48-2.48V354a2.48 2.48 0 012.48-2.47H397a2.48 2.48 0 012.48 2.47v32.07a2.48 2.48 0 01-2.48 2.48m-18.16-35.33a.83.83 0 00-.83.83v32.07a.83.83 0 00.83.82H397a.83.83 0 00.83-.82V354a.83.83 0 00-.83-.82z" transform="translate(-321.4 -331.7)"/><path id="Path_1704" data-name="Path 1704" class="cls-2" d="M387.93 385.63a1.39 1.39 0 111.39-1.39 1.39 1.39 0 01-1.39 1.39" transform="translate(-321.4 -331.7)"/><path id="Path_1705" data-name="Path 1705" class="cls-3" d="M390.06 356.78h-4.26a.83.83 0 01-.06-1.66h4.32a.83.83 0 010 1.66" transform="translate(-321.4 -331.7)"/><path id="Path_1706" data-name="Path 1706" class="cls-3" d="M334.31 370.29h-6.09a.74.74 0 01-.74-.74v-15a.74.74 0 01.74-.74h6.08a.75.75 0 01.79.69v15a.74.74 0 01-.7.78m-5.39-1.51h4.52v-13.43H329z" transform="translate(-321.4 -331.7)"/><path id="Path_1707" data-name="Path 1707" class="cls-3" d="M347.17 370.29h-6a.74.74 0 01-.74-.74v-24.64a.74.74 0 01.74-.74h6a.74.74 0 01.78.7v24.69a.74.74 0 01-.69.78h-.05m-5.34-1.57h4.56v-23.12h-4.56z" transform="translate(-321.4 -331.7)"/><path id="Path_1708" data-name="Path 1708" class="cls-3" d="M359.25 370.29h-6a.74.74 0 01-.74-.74v-20.9a.74.74 0 01.74-.74h6a.74.74 0 01.78.7v20.94a.73.73 0 01-.69.78m-5.34-1.56h4.56v-19.38H354z" transform="translate(-321.4 -331.7)"/><path id="Path_1709" data-name="Path 1709" class="cls-3" d="M372.55 370.29h-6a.74.74 0 01-.74-.74v-25.81a.74.74 0 01.73-.74h6.09a.74.74 0 01.78.69v25.86a.74.74 0 01-.69.78h-.05m-5.3-1.52h4.48v-24.29h-4.57z" transform="translate(-321.4 -331.7)"/><path id="Path_1710" data-name="Path 1710" class="cls-3" d="M331.26 350.69a.75.75 0 01-.8-.67.76.76 0 01.33-.68l12.86-11.16a.77.77 0 01.87-.09l11.73 6.74 12.95-6.78a.77.77 0 01.94.57.76.76 0 01-.24.77l-13.3 7a.75.75 0 01-.74 0l-11.6-6.7-12.52 10.87a.74.74 0 01-.48.17" transform="translate(-321.4 -331.7)"/><path id="Path_1711" data-name="Path 1711" class="cls-2" d="M386.54 370.07l4.87 5a7 7 0 112.13-5z" transform="translate(-321.4 -331.7)"/><path id="Path_1712" data-name="Path 1712" class="cls-3" d="M387.93 376.42a7.78 7.78 0 117.78-7.78.74.74 0 01-.7.78h-5.26l3.61 3.74a.74.74 0 010 1.05 7.79 7.79 0 01-5.39 2.17m0-14a6.26 6.26 0 103.78 11.21l-4.3-4.43a.78.78 0 01.07-1.11.76.76 0 01.5-.19h6.21a6.27 6.27 0 00-6.21-5.48" transform="translate(-321.4 -331.7)"/></g></g></svg>