<svg xmlns="http://www.w3.org/2000/svg" viewBox="0 0 186.28 182.01"><defs><style>.cls-1{fill:#fff;}.cls-2{fill:#8abfc6;}.cls-3{fill:#a0a437;}.cls-4{fill:#404041;}.cls-5{fill:#8bc0c6;}</style></defs><g id="Layer_2" data-name="Layer 2"><g id="Categories_and_Icons" data-name="Categories and Icons"><circle class="cls-1" cx="98.41" cy="94.15" r="87.87"/><path class="cls-2" d="M89.87,179.74a89.87,89.87,0,1,1,89.87-89.87A90,90,0,0,1,89.87,179.74ZM89.87,4a85.87,85.87,0,1,0,85.87,85.87A86,86,0,0,0,89.87,4Z"/></g><g id="Additional_Icons" data-name="Additional Icons"><rect class="cls-3" x="50.32" y="58.05" width="39.07" height="44.59"/><rect class="cls-3" x="127.25" y="93.75" width="21.82" height="21.82"/><path class="cls-4" d="M88,102.64H85.44V56.83H48.61v45.81H46.06V55.56a1.27,1.27,0,0,1,1.27-1.28H86.71A1.27,1.27,0,0,1,88,55.56Z"/><polygon class="cls-5" points="113.83 75.92 101.41 68.77 101.41 83.06 105.41 78.6 108.79 84.45 111.16 83.08 107.81 77.28 113.83 75.92"/><path class="cls-4" d="M100.42,68.29l12.42,7.14-6,1.36,3.35,5.81L107.81,84l-3.38-5.84-4,4.46V68.29m0-1.76a1.77,1.77,0,0,0-1.76,1.76V82.58a1.76,1.76,0,0,0,1.13,1.64,1.79,1.79,0,0,0,1.94-.47l2.39-2.66,2.16,3.75a1.76,1.76,0,0,0,1.53.88,1.73,1.73,0,0,0,.87-.24l2.37-1.36a1.8,1.8,0,0,0,.82-1.07,1.72,1.72,0,0,0-.18-1.33L109.53,78l3.7-.84a1.75,1.75,0,0,0,.49-3.23L101.3,66.76a1.86,1.86,0,0,0-.88-.23Z"/><g id="SocialMedia-icon"><path class="cls-4" d="M104.75,133.83H63.34A2.31,2.31,0,0,1,61,132.15a2,2,0,0,1,1.14-2.3,9.28,9.28,0,0,0,5.16-6.17,29.21,29.21,0,0,0,.39-7.23A1.3,1.3,0,0,1,69,115H99.08a1.29,1.29,0,0,1,1,.43,1.34,1.34,0,0,1,.33,1,28.94,28.94,0,0,0,.38,7.23,9.33,9.33,0,0,0,5.17,6.17,2,2,0,0,1,1.14,2.3A2.31,2.31,0,0,1,104.75,133.83ZM65,131.22h38.17a11.41,11.41,0,0,1-4.93-7,31,31,0,0,1-.5-6.57H70.38a30.22,30.22,0,0,1-.49,6.57A11.44,11.44,0,0,1,65,131.22Z"/><path class="cls-3" d="M84,112.45a2.31,2.31,0,1,1,2.32-2.31A2.32,2.32,0,0,1,84,112.45Z"/><path class="cls-4" d="M118.76,117.63H37.57a6.4,6.4,0,0,1-6.39-6.39V104a1.31,1.31,0,0,1,1.31-1.31H52.43a1.31,1.31,0,0,1,0,2.62H33.79v6A3.78,3.78,0,0,0,37.57,115h81.19a1.31,1.31,0,1,1,0,2.61Z"/><path class="cls-4" d="M118.69,105.26H32.49A1.31,1.31,0,0,1,31.18,104V51.46A6.83,6.83,0,0,1,38,44.64h92.09a6.83,6.83,0,0,1,6.82,6.82V77.07a1.31,1.31,0,0,1-2.61,0V51.46a4.22,4.22,0,0,0-4.21-4.21H38a4.22,4.22,0,0,0-4.21,4.21v51.18h84.9a1.31,1.31,0,0,1,0,2.62Z"/><rect class="cls-4" x="122.14" y="120.15" width="26.92" height="2.61"/><path class="cls-4" d="M149.86,133.83H121.34a3.89,3.89,0,0,1-3.89-3.89V79.65a3.9,3.9,0,0,1,3.89-3.89h28.52a3.9,3.9,0,0,1,3.89,3.89v50.29A3.89,3.89,0,0,1,149.86,133.83ZM121.34,78.37a1.28,1.28,0,0,0-1.27,1.28v50.29a1.27,1.27,0,0,0,1.27,1.28h28.52a1.28,1.28,0,0,0,1.28-1.28V79.65a1.29,1.29,0,0,0-1.28-1.28Z"/><path class="cls-3" d="M135.6,129.24a2.2,2.2,0,1,1,2.21-2.2A2.2,2.2,0,0,1,135.6,129.24Z"/><path class="cls-4" d="M138.94,84h-6.68a1.31,1.31,0,0,1,0-2.61h6.68a1.31,1.31,0,1,1,0,2.61Z"/></g><path class="cls-4" d="M146,114.28H124.21a1.21,1.21,0,0,1-1.22-1.21V91.25A1.22,1.22,0,0,1,124.21,90H146a1.22,1.22,0,0,1,1.22,1.22v21.82A1.21,1.21,0,0,1,146,114.28Zm-20.59-2.43h19.38V92.47H125.43Z"/><rect class="cls-4" x="65.75" y="48.41" width="2.55" height="61.38" transform="translate(-35.13 61.41) rotate(-39.9)"/><rect class="cls-4" x="36.33" y="77.83" width="61.38" height="2.55" transform="translate(-36.65 79.79) rotate(-50.1)"/><rect class="cls-4" x="133.84" y="86.73" width="2.54" height="30.85" transform="translate(-32.66 125.46) rotate(-45)"/><rect class="cls-4" x="119.69" y="100.89" width="30.85" height="2.54" transform="translate(-32.66 125.46) rotate(-45)"/></g></g></svg>