<svg xmlns="http://www.w3.org/2000/svg" viewBox="0 0 186.28 182.01" aria-hidden="true"><g id="Layer_2" data-name="Layer 2"><g id="Categories_and_Icons" data-name="Categories and Icons"><circle class="cls-5" cx="98.41" cy="94.15" r="87.87"/><path class="cls-1" d="M89.87,179.74a89.87,89.87,0,1,1,89.87-89.87A90,90,0,0,1,89.87,179.74ZM89.87,4a85.87,85.87,0,1,0,85.87,85.87A86,86,0,0,0,89.87,4Z"/></g><g id="Additional_Icons" data-name="Additional Icons"><rect class="cls-2" x="50.99" y="59.82" width="39.07" height="44.59"/><rect class="cls-2" x="127.92" y="95.52" width="21.82" height="21.82"/><path class="cls-4" d="M88.65,104.41H86.11V58.6H49.28v45.81H46.73V57.33A1.28,1.28,0,0,1,48,56.05H87.38a1.27,1.27,0,0,1,1.27,1.28Z"/><polygon class="cls-1" points="114.5 77.69 102.08 70.54 102.08 84.83 106.09 80.37 109.46 86.22 111.83 84.85 108.48 79.05 114.5 77.69"/><path class="cls-4" d="M101.09,70.06l12.42,7.14-6,1.36,3.36,5.81-2.37,1.36-3.38-5.84-4,4.46V70.06m0-1.76a1.77,1.77,0,0,0-.88.24,1.75,1.75,0,0,0-.87,1.52V84.35A1.77,1.77,0,0,0,100.46,86a1.79,1.79,0,0,0,1.94-.47l2.39-2.66L107,86.61a1.73,1.73,0,0,0,1.52.88,1.77,1.77,0,0,0,.88-.24l2.36-1.36a1.77,1.77,0,0,0,.65-2.4l-2.16-3.74,3.69-.84a1.75,1.75,0,0,0,.49-3.23L102,68.53a1.81,1.81,0,0,0-.88-.23Z"/><g id="SocialMedia-icon"><path class="cls-4" d="M105.43,135.6H64a2.3,2.3,0,0,1-2.31-1.68,2,2,0,0,1,1.13-2.3A9.3,9.3,0,0,0,68,125.45a28.94,28.94,0,0,0,.38-7.23,1.31,1.31,0,0,1,.34-1,1.25,1.25,0,0,1,1-.43H99.75a1.29,1.29,0,0,1,1,.43,1.26,1.26,0,0,1,.33,1,29.21,29.21,0,0,0,.39,7.23,9.27,9.27,0,0,0,5.17,6.17,2,2,0,0,1,1.13,2.3A2.31,2.31,0,0,1,105.43,135.6ZM65.63,133h38.18a11.33,11.33,0,0,1-4.93-7,29.7,29.7,0,0,1-.5-6.57H71.06a30.33,30.33,0,0,1-.5,6.57A11.4,11.4,0,0,1,65.63,133Z"/><path class="cls-2" d="M84.72,114.22A2.31,2.31,0,1,1,87,111.91,2.31,2.31,0,0,1,84.72,114.22Z"/><path class="cls-4" d="M119.43,119.4H38.25a6.4,6.4,0,0,1-6.4-6.39v-7.29a1.31,1.31,0,0,1,1.31-1.31H53.1a1.31,1.31,0,0,1,0,2.62H34.47v6a3.78,3.78,0,0,0,3.78,3.78h81.18a1.31,1.31,0,1,1,0,2.61Z"/><path class="cls-4" d="M119.36,107H33.16a1.31,1.31,0,0,1-1.31-1.31V53.23a6.83,6.83,0,0,1,6.83-6.82h92.08a6.83,6.83,0,0,1,6.82,6.82V78.84a1.31,1.31,0,0,1-2.61,0V53.23A4.22,4.22,0,0,0,130.76,49H38.68a4.21,4.21,0,0,0-4.21,4.21v51.18h84.89a1.31,1.31,0,0,1,0,2.62Z"/><rect class="cls-4" x="122.81" y="121.92" width="26.92" height="2.61"/><path class="cls-4" d="M150.53,135.6H122a3.89,3.89,0,0,1-3.89-3.89V81.42A3.89,3.89,0,0,1,122,77.53h28.51a3.89,3.89,0,0,1,3.89,3.89v50.29A3.89,3.89,0,0,1,150.53,135.6ZM122,80.14a1.28,1.28,0,0,0-1.28,1.28v50.29A1.28,1.28,0,0,0,122,133h28.51a1.28,1.28,0,0,0,1.28-1.28V81.42a1.28,1.28,0,0,0-1.28-1.28Z"/><path class="cls-2" d="M136.27,131a2.2,2.2,0,1,1,2.21-2.2A2.2,2.2,0,0,1,136.27,131Z"/><path class="cls-4" d="M139.61,85.75h-6.67a1.31,1.31,0,1,1,0-2.61h6.67a1.31,1.31,0,1,1,0,2.61Z"/></g><path class="cls-4" d="M146.7,116.05H124.88a1.22,1.22,0,0,1-1.22-1.21V93a1.22,1.22,0,0,1,1.22-1.22H146.7A1.22,1.22,0,0,1,147.92,93v21.82A1.22,1.22,0,0,1,146.7,116.05Zm-20.6-2.43h19.38V94.24H126.1Z"/><rect class="cls-4" x="66.42" y="50.18" width="2.55" height="61.38" transform="translate(-36.11 62.26) rotate(-39.9)"/><rect class="cls-4" x="37" y="79.6" width="61.38" height="2.55" transform="translate(-37.77 80.94) rotate(-50.1)"/><rect class="cls-4" x="134.52" y="88.5" width="2.54" height="30.85" transform="translate(-33.72 126.45) rotate(-45)"/><rect class="cls-4" x="120.36" y="102.66" width="30.85" height="2.54" transform="translate(-33.72 126.46) rotate(-45)"/></g></g></svg>