<svg xmlns="http://www.w3.org/2000/svg" viewBox="0 0 146.05 106.28" aria-hidden="true"><path style="fill:#a0a437" d="M22.8 15.98h46.55v53.14H22.8zM114.47 58.51h26v26h-26z"/><path d="M67.68 69.11h-3V14.52H20.76v54.59h-3V13a1.51 1.51 0 011.51-1.52h46.92A1.52 1.52 0 0167.71 13z" style="fill:#404041"/><path d="M98.52 37.26l-14.8-8.51v17l4.78-5.32 4 7 2.82-1.63-4-6.92z" style="fill:#8bc0c6"/><path d="M82.52 28.17l14.8 8.51-7.18 1.62 4 6.92-2.82 1.63-4-7-4.8 5.35v-17m0-2.09a2.09 2.09 0 00-2.1 2.09v17a2.1 2.1 0 002.1 2.09 2.08 2.08 0 001.55-.69l2.85-3.17 2.58 4.47a2.09 2.09 0 002.86.76l2.82-1.63a2.08 2.08 0 00.77-2.85l-2.57-4.46 4.4-1a2.11 2.11 0 001.58-2.51 2.08 2.08 0 00-1-1.35l-14.84-8.5a2 2 0 00-1-.28zM87.66 106.27H38.31a2.76 2.76 0 01-2.76-2 2.45 2.45 0 011.36-2.75c3.31-1.7 5.56-4.37 6.15-7.34a34.19 34.19 0 00.46-8.63 1.56 1.56 0 011.41-1.69h36a1.56 1.56 0 011.55 1.56v.14a34.66 34.66 0 00.45 8.63 11 11 0 006.16 7.34 2.45 2.45 0 011.35 2.75 2.75 2.75 0 01-2.78 1.99zm-47.42-3.11h45.49a13.58 13.58 0 01-5.87-8.37 36 36 0 01-.6-7.83H46.71a36.67 36.67 0 01-.6 7.83 13.54 13.54 0 01-5.87 8.37z" style="fill:#404041"/><path d="M62.98 80.79a2.76 2.76 0 112.76-2.75 2.75 2.75 0 01-2.76 2.75z" style="fill:#a0a437"/><path d="M104.35 86.97H7.61A7.62 7.62 0 010 79.35v-8.69a1.55 1.55 0 011.55-1.55h23.77a1.56 1.56 0 010 3.11H3.11v7.13a4.51 4.51 0 004.5 4.5h96.74a1.56 1.56 0 010 3.11z" style="fill:#404041"/><path d="M104.27 72.22H1.52a1.55 1.55 0 01-1.55-1.56V8.12A8.13 8.13 0 018.09 0h109.76a8.13 8.13 0 018.13 8.12v30.54a1.56 1.56 0 01-3.12 0V8.12a5 5 0 00-5-5H8.12a5 5 0 00-5 5v61h101.15a1.56 1.56 0 010 3.11zM108.38 89.97h32.08v3.11h-32.08z" style="fill:#404041"/><path d="M141.41 106.27h-34a4.65 4.65 0 01-4.64-4.64V41.71a4.66 4.66 0 014.64-4.64h34a4.64 4.64 0 014.63 4.64v59.95a4.63 4.63 0 01-4.63 4.61zm-34-66.08a1.52 1.52 0 00-1.52 1.52v59.95a1.52 1.52 0 001.52 1.53h34a1.52 1.52 0 001.52-1.53V41.71a1.52 1.52 0 00-1.52-1.52z" style="fill:#404041"/><path d="M124.42 100.8a2.63 2.63 0 112.63-2.62 2.63 2.63 0 01-2.63 2.62z" style="fill:#a0a437"/><path d="M128.4 46.87h-8a1.56 1.56 0 010-3.11h8a1.56 1.56 0 010 3.11zM136.84 82.98h-26a1.45 1.45 0 01-1.45-1.45v-26a1.45 1.45 0 011.45-1.45h26a1.45 1.45 0 011.45 1.45v26a1.45 1.45 0 01-1.45 1.45zm-24.55-2.9h23.1v-23.1h-23.1zM18.07456785 13.92915778l2.3248496-1.94318665 46.88659274 56.09562836-2.3248496 1.94318665z" style="fill:#404041"/><path style="fill:#404041" d="M18.07919223 68.13853465L65.03702824 12.0373115l2.32349243 1.94480923-46.95783601 56.10122313zM109.77119993 56.61387086l2.14253355-2.14253355 25.99324527 25.99324528-2.14253355 2.14253355z"/><path style="fill:#404041" d="M109.77119993 80.45751152l25.99324527-25.99324527 2.14253355 2.14253354-25.99324527 25.99324528z"/></svg>