<svg xmlns="http://www.w3.org/2000/svg" viewBox="0 0 248.66 242.97"><defs><clipPath id="a" transform="translate(-580.53 -230.53)"><path style="fill:none" d="M580.49 230.5h248.7v242.97h-248.7z"/></clipPath></defs><g style="clip-path:url(#a)"><path d="M248.66 125.67a117.3 117.3 0 11-117.3-117.3 117.3 117.3 0 01117.3 117.3" style="fill:#fff"/><circle cx="119.97" cy="119.97" r="117.3" style="fill:none;stroke:#8abfc6;stroke-miterlimit:9.99999982885729;stroke-width:5.340000061197681px"/></g><path d="M192.47 171.83H52.95a5.29 5.29 0 01-5.29-5.29v-6.31h150.11v6.31a5.29 5.29 0 01-5.29 5.29z" style="fill:none;stroke:#404041;stroke-linecap:round;stroke-linejoin:round;stroke-width:2.869999885559082px"/><path d="M183.04 71.08H62.47a5 5 0 00-5 5v84.17h130.52V76.06a5 5 0 00-4.95-4.98z" style="fill:none;stroke:#404041;stroke-miterlimit:10;stroke-width:2.869999885559082px"/><path style="fill:none;stroke:#86bec4;stroke-linecap:round;stroke-linejoin:round;stroke-width:1.5299999713897705px" d="M73.39 94.35h62.56M73.39 101.92h62.56M73.39 109.51h62.56M73.39 117.09h62.56M73.39 124.66h62.56M73.39 132.25h62.56M73.39 139.83h62.56M73.39 147.4h62.56"/><path style="fill:#a0a437" d="M145.9 95.82h26.94v56.72H145.9z"/><path d="M67.4 79.69a.82.82 0 00-.81-.82.83.83 0 00-.83.82.82.82 0 001.64 0zM73.14 79.69a.83.83 0 10-.83.82.83.83 0 00.83-.82zM78.86 79.69a.83.83 0 10-.82.82.81.81 0 00.81-.81z" style="fill:none;stroke:#404041;stroke-miterlimit:10;stroke-width:2.2899999618530273px"/><path style="fill:none;stroke:#404041;stroke-linejoin:round;stroke-width:2.569999933242798px" d="M142.9 93.03h26.94v56.72H142.9z"/></svg>