<svg viewBox="0 0 186.28 182.01" aria-hidden="true"><g data-name="Layer 2"><g data-name="Categories and Icons"><circle class="cls-5" cx="98.41" cy="94.15" r="87.87"/><path class="cls-1" d="M89.87,179.74a89.87,89.87,0,1,1,89.87-89.87A90,90,0,0,1,89.87,179.74ZM89.87,4a85.87,85.87,0,1,0,85.87,85.87A86,86,0,0,0,89.87,4Z"/></g><g data-name="Additional Icons"><circle class="cls-1" cx="94.9" cy="124.53" r="9.31"/><path class="cls-3" d="M130.68,87.58H107.81a1.52,1.52,0,0,1,0-3h22.87a7.18,7.18,0,0,0,7.17-7.17V63.26H132.2v12a3.59,3.59,0,0,1-3.59,3.59H59A3.59,3.59,0,0,1,55.4,75.3v-12H49.75V77.37a7.18,7.18,0,0,0,7.17,7.17H79.79a1.52,1.52,0,1,1,0,3H56.92A10.22,10.22,0,0,1,46.71,77.37V60.22H58.44V75.3a.55.55,0,0,0,.55.55h69.62a.55.55,0,0,0,.55-.55V60.22h11.73V77.37A10.22,10.22,0,0,1,130.68,87.58Z"/><path class="cls-3" d="M99.07,98.57H88.46a3.53,3.53,0,0,1-3.52-3.52v-9a1.52,1.52,0,0,1,3,0v9a.47.47,0,0,0,.48.48H99.07a.47.47,0,0,0,.48-.48v-9a1.52,1.52,0,0,1,3,0v9A3.53,3.53,0,0,1,99.07,98.57Z"/><path class="cls-3" d="M77.17,63.26H27.25a1.52,1.52,0,0,1,0-3H77.17a1.52,1.52,0,0,1,0,3Z"/><path class="cls-3" d="M160,63.26H110.07a1.52,1.52,0,1,1,0-3H160a1.52,1.52,0,1,1,0,3Z"/><path class="cls-3" d="M56.92,56.9a1.52,1.52,0,0,1-1.52-1.52V51.71a2.83,2.83,0,1,0-5.65,0v3.67a1.52,1.52,0,1,1-3,0V51.71a5.87,5.87,0,1,1,11.73,0v3.67A1.52,1.52,0,0,1,56.92,56.9Z"/><path class="cls-3" d="M139.37,56.9a1.52,1.52,0,0,1-1.52-1.52V51.71a2.83,2.83,0,1,0-5.65,0v3.67a1.52,1.52,0,1,1-3,0V51.71a5.87,5.87,0,1,1,11.73,0v3.67A1.52,1.52,0,0,1,139.37,56.9Z"/><path class="cls-3" d="M117.7,142.45H69.83a3.15,3.15,0,0,1-3.14-3.14v-31a3.14,3.14,0,0,1,3.14-3.13H117.7a3.14,3.14,0,0,1,3.14,3.13v31A3.15,3.15,0,0,1,117.7,142.45ZM69.83,108.22a.09.09,0,0,0-.1.09v31a.09.09,0,0,0,.1.1H117.7a.09.09,0,0,0,.1-.1v-31a.09.09,0,0,0-.1-.09Z"/><path class="cls-3" d="M93.77,108.22a1.52,1.52,0,0,1-1.52-1.52V97.05a1.52,1.52,0,0,1,3,0v9.65A1.52,1.52,0,0,1,93.77,108.22Z"/><path class="cls-3" d="M93.77,136.42a12.61,12.61,0,1,1,12.6-12.61A12.62,12.62,0,0,1,93.77,136.42Zm0-22.17a9.57,9.57,0,1,0,9.56,9.56A9.57,9.57,0,0,0,93.77,114.25Z"/><path class="cls-5" d="M98.83,125.33a1.53,1.53,0,0,1-1.53-1.52,3.54,3.54,0,0,0-3.53-3.54,1.52,1.52,0,1,1,0-3,6.6,6.6,0,0,1,6.58,6.58A1.52,1.52,0,0,1,98.83,125.33Z"/><path class="cls-3" d="M114.88,117.06H112a3,3,0,0,1-3-3v-2.9a1.52,1.52,0,0,1,3,0V114l2.88,0a1.53,1.53,0,0,1,0,3Z"/></g></g></svg>