<svg xmlns="http://www.w3.org/2000/svg" xmlns:xlink="http://www.w3.org/1999/xlink" width="74.02" height="63.67" viewBox="0 0 74.02 63.67"><defs><clipPath id="a"><rect width="74.02" height="63.67" transform="translate(22.27 25.99)" fill="none"/></clipPath></defs><g transform="translate(-22.27 -25.99)"><g clip-path="url(#a)"><rect width="70.76" height="25.02" transform="translate(25.23 34.37)" fill="#a2a637"/><path d="M79,89.66H39.53a.82.82,0,0,1-.81-.82.81.81,0,0,1,.81-.81H79a.81.81,0,0,1,.81.81.82.82,0,0,1-.81.82" fill="#404041"/><path d="M28,64.38a.82.82,0,1,1,0-1.63H90.6a.81.81,0,0,1,.81.81.82.82,0,0,1-.81.82Z" fill="#404041"/><path d="M55.12,89.66a.82.82,0,0,1-.81-.82V63.57a.815.815,0,1,1,1.63,0V88.84a.82.82,0,0,1-.82.82" fill="#404041"/><path d="M63.43,89.31a.82.82,0,0,1-.81-.82V63.56a.81.81,0,1,1,1.62,0V88.49a.82.82,0,0,1-.81.82" fill="#404041"/><path d="M81.43,33.1h-20a.82.82,0,0,1-.81-.82.81.81,0,0,1,.81-.81h20a.815.815,0,1,1,0,1.63" fill="#404041"/><path d="M58,33.1H38.31a.82.82,0,0,1-.81-.82.81.81,0,0,1,.81-.81H58a.815.815,0,1,1,0,1.63" fill="#404041"/><path d="M95.47,59.74H23.08a.81.81,0,0,1-.81-.81V32.28a.82.82,0,0,1,.81-.81H34.65a.815.815,0,1,1,0,1.63H23.9v25H94.66v-25H85.51a.82.82,0,0,1-.81-.82.81.81,0,0,1,.81-.81h10a.81.81,0,0,1,.81.81V58.93a.81.81,0,0,1-.81.81" fill="#404041"/><path d="M38,36.86a.81.81,0,0,1-.81-.81V30.23a2.38,2.38,0,0,0-.86-1.95,3.21,3.21,0,0,0-2-.66c-1.56,0-3.14.9-3.14,2.61v2.05a.815.815,0,1,1-1.63,0V30.23C29.54,27.48,32,26,34.31,26a4.86,4.86,0,0,1,3.08,1,4,4,0,0,1,1.46,3.22v5.82a.82.82,0,0,1-.82.81" fill="#404041"/><path d="M41.42,37.48H34.65a.81.81,0,0,1-.81-.81.82.82,0,0,1,.81-.82h6.77a.82.82,0,0,1,.81.82.81.81,0,0,1-.81.81" fill="#404041"/><path d="M61.42,36.86a.82.82,0,0,1-.81-.81V30.23a2.38,2.38,0,0,0-.86-1.95,3.21,3.21,0,0,0-2-.66c-1.56,0-3.14.9-3.14,2.61v2.05a.815.815,0,1,1-1.63,0V30.23c0-2.75,2.46-4.24,4.77-4.24a4.86,4.86,0,0,1,3.08,1,4,4,0,0,1,1.46,3.22v5.82a.82.82,0,0,1-.82.81" fill="#404041"/><path d="M64.81,37.48H58a.81.81,0,0,1-.81-.81.82.82,0,0,1,.81-.82h6.77a.82.82,0,0,1,.81.82.81.81,0,0,1-.81.81" fill="#404041"/><path d="M84.82,36.86a.82.82,0,0,1-.82-.81V30.23a2.38,2.38,0,0,0-.86-1.95,3.21,3.21,0,0,0-2-.66c-1.56,0-3.14.9-3.14,2.61v2.05a.815.815,0,1,1-1.63,0V30.23c0-2.75,2.46-4.24,4.77-4.24a4.86,4.86,0,0,1,3.08,1,4,4,0,0,1,1.46,3.22v5.82a.82.82,0,0,1-.81.81" fill="#404041"/><path d="M88.2,37.48H81.43a.81.81,0,0,1-.81-.81.82.82,0,0,1,.81-.82H88.2a.82.82,0,0,1,.81.82.81.81,0,0,1-.81.81" fill="#404041"/></g></g></svg>