<svg id="Layer_1" data-name="Layer 1" xmlns="http://www.w3.org/2000/svg" xmlns:xlink="http://www.w3.org/1999/xlink" viewBox="0 0 75.45 51.17"><defs><clipPath id="clip-path" transform="translate(-322.74 -334.55)"><rect class="cls-1" x="322.74" y="334.55" width="75.45" height="51.16"/></clipPath></defs><g id="MediaBuying-icon"><g class="cls-9"><g id="Group_764" data-name="Group 764"><path id="Path_1917" data-name="Path 1917" class="cls-4" d="M394.81,385.72H326.12a3.38,3.38,0,0,1-3.38-3.38v-3.91h75.45v3.88a3.38,3.38,0,0,1-3.38,3.38h0M324.33,380v2.33a1.82,1.82,0,0,0,1.82,1.83h68.66a1.82,1.82,0,0,0,1.82-1.83V380Z" transform="translate(-322.74 -334.55)"/><path id="Path_1918" data-name="Path 1918" class="cls-4" d="M393.38,380H327.55V337.77a3.23,3.23,0,0,1,3.23-3.22h59.37a3.23,3.23,0,0,1,3.23,3.22Zm-64.27-1.58h62.71V337.77a1.67,1.67,0,0,0-1.67-1.67H330.78a1.67,1.67,0,0,0-1.67,1.67Z" transform="translate(-322.74 -334.55)"/><path id="Path_1919" data-name="Path 1919" class="cls-1" d="M367,347.19H336.19a.42.42,0,0,1,0-.84H367a.42.42,0,0,1,0,.84" transform="translate(-322.74 -334.55)"/><path id="Path_1920" data-name="Path 1920" class="cls-1" d="M367,350.93H336.19a.42.42,0,0,1,0-.84H367a.42.42,0,0,1,0,.84" transform="translate(-322.74 -334.55)"/><path id="Path_1921" data-name="Path 1921" class="cls-1" d="M367,354.66H336.19a.42.42,0,1,1,0-.83H367a.42.42,0,1,1,0,.83" transform="translate(-322.74 -334.55)"/><path id="Path_1922" data-name="Path 1922" class="cls-1" d="M367,358.4H336.19a.42.42,0,0,1,0-.84H367a.42.42,0,0,1,0,.84" transform="translate(-322.74 -334.55)"/><path id="Path_1923" data-name="Path 1923" class="cls-1" d="M367,362.14H336.19a.42.42,0,0,1,0-.84H367a.42.42,0,0,1,0,.84" transform="translate(-322.74 -334.55)"/><path id="Path_1924" data-name="Path 1924" class="cls-1" d="M367,365.84H336.19a.42.42,0,1,1,0-.83H367a.42.42,0,1,1,0,.83" transform="translate(-322.74 -334.55)"/><path id="Path_1925" data-name="Path 1925" class="cls-1" d="M367,369.58H336.19a.42.42,0,0,1,0-.84H367a.42.42,0,0,1,0,.84" transform="translate(-322.74 -334.55)"/><path id="Path_1926" data-name="Path 1926" class="cls-1" d="M367,373.32H336.19a.42.42,0,0,1,0-.84H367a.42.42,0,0,1,0,.84" transform="translate(-322.74 -334.55)"/><rect id="Rectangle_581" data-name="Rectangle 581" class="cls-2" x="49.14" y="12.97" width="13.27" height="27.92"/><path id="Path_1927" data-name="Path 1927" class="cls-4" d="M332.84,340.61a1,1,0,0,1,0-2,1,1,0,0,1,1,1h0a1,1,0,0,1-1,1" transform="translate(-322.74 -334.55)"/><path id="Path_1928" data-name="Path 1928" class="cls-4" d="M335.65,340.61a1,1,0,0,1,0-2,1,1,0,0,1,1,1h0a1,1,0,0,1-1,1" transform="translate(-322.74 -334.55)"/><path id="Path_1929" data-name="Path 1929" class="cls-4" d="M338.49,340.61a1,1,0,0,1,0-2,1,1,0,0,1,1,1h0a1,1,0,0,1-1,1" transform="translate(-322.74 -334.55)"/><path id="Path_1930" data-name="Path 1930" class="cls-4" d="M384.38,374.75H369.7V345.43h14.68Zm-13.27-1.4H383V346.83H371.1Z" transform="translate(-322.74 -334.55)"/></g></g></g></svg>