<svg xmlns="http://www.w3.org/2000/svg" viewBox="0 0 142.29 122.36" aria-hidden="true"><path style="fill:#a2a637" d="M5.69 16.11h135.99v48.08H5.69z"/><path d="M109.07 122.36H33.19a1.56 1.56 0 110-3.12h75.88a1.56 1.56 0 110 3.12zM10.94 73.79a1.58 1.58 0 010-3.14h120.33a1.56 1.56 0 010 3.12z" style="fill:#404041"/><path d="M63.14 122.36a1.56 1.56 0 01-1.56-1.56V72.21a1.56 1.56 0 013.12 0v48.58a1.55 1.55 0 01-1.56 1.56zM79.11 121.66a1.56 1.56 0 01-1.57-1.55V72.22a1.57 1.57 0 013.13 0v47.91a1.56 1.56 0 01-1.56 1.53zM113.71 13.66H75.25a1.57 1.57 0 010-3.13h38.46a1.57 1.57 0 010 3.13zM68.75 13.66H30.84a1.57039008 1.57039008 0 01-.26-3.13h38.17a1.57039008 1.57039008 0 11.26 3.13z" style="fill:#404041"/><path d="M140.65 64.87H1.56A1.56 1.56 0 010 63.31V12.1a1.59 1.59 0 011.54-1.54H23.8a1.57 1.57 0 010 3.13H3.13v48h136V13.66h-17.54a1.58 1.58 0 01-1.43-1.7 1.56 1.56 0 011.43-1.43h19.14a1.57 1.57 0 011.57 1.57v51.21a1.56 1.56 0 01-1.56 1.56z" style="fill:#404041"/><path d="M30.3 20.89a1.58 1.58 0 01-1.57-1.52V8.16a4.59 4.59 0 00-1.64-3.77 6.33 6.33 0 00-3.94-1.26c-3 0-6 1.73-6 5v3.94a1.57 1.57 0 01-3.13 0V8.16c0-5.29 4.72-8.16 9.16-8.16a9.42 9.42 0 015.91 2 7.69 7.69 0 012.8 6.19V19.4a1.57 1.57 0 01-1.59 1.49z" style="fill:#404041"/><path d="M36.8 22.08h-13a1.57039008 1.57039008 0 01-.26-3.13 1.13 1.13 0 01.26 0h13a1.57 1.57 0 010 3.13zM75.25 20.89a1.55 1.55 0 01-1.56-1.52V8.16a4.59 4.59 0 00-1.59-3.77 6.38 6.38 0 00-4-1.26c-3 0-6 1.73-6 5v3.94a1.57 1.57 0 01-3.13 0V8.16C58.92 2.87 63.64 0 68.07 0A9.39 9.39 0 0174 2a7.66 7.66 0 012.8 6.19V19.4a1.56 1.56 0 01-1.55 1.49z" style="fill:#404041"/><path d="M81.78 22.08h-13a1.57 1.57 0 010-3.13h13a1.57039008 1.57039008 0 11.26 3.13zM120.21 20.89a1.55 1.55 0 01-1.56-1.52V8.16A4.69 4.69 0 00117 4.39a6.38 6.38 0 00-4-1.26c-3 0-6 1.73-6 5v3.94a1.56 1.56 0 01-3.12 0V8.16c0-5.29 4.72-8.16 9.16-8.16a9.39 9.39 0 015.92 2 7.73 7.73 0 012.81 6.19V19.4a1.58 1.58 0 01-1.56 1.49z" style="fill:#404041"/><path d="M126.7 22.08h-13a1.57 1.57 0 010-3.13h13a1.57 1.57 0 010 3.13z" style="fill:#404041"/></svg>