<svg xmlns="http://www.w3.org/2000/svg" xmlns:xlink="http://www.w3.org/1999/xlink" viewBox="0 0 186.28 182.01"><defs><style>.cls-1{fill:none;}.cls-2{fill:#fff;}.cls-3{fill:#8abfc6;}.cls-4{clip-path:url(#clip-path);}.cls-5{fill:#a2a637;}.cls-6{fill:#404041;}</style><clipPath id="clip-path"><rect class="cls-1" x="36.04" y="42.06" width="119.79" height="103.05"/></clipPath></defs><g id="Layer_2" data-name="Layer 2"><g id="Categories_and_Icons" data-name="Categories and Icons"><circle class="cls-2" cx="98.41" cy="94.15" r="87.87"/><path class="cls-3" d="M89.87,179.74a89.87,89.87,0,1,1,89.87-89.87A90,90,0,0,1,89.87,179.74ZM89.87,4a85.87,85.87,0,1,0,85.87,85.87A86,86,0,0,0,89.87,4Z"/><g id="Billboard"><g class="cls-4"><rect class="cls-5" x="40.84" y="55.63" width="114.53" height="40.49"/><g class="cls-4"><path class="cls-6" d="M127.89,145.11H64a1.32,1.32,0,1,1,0-2.63h63.9a1.32,1.32,0,1,1,0,2.63"/><path class="cls-6" d="M45.25,104.2a1.32,1.32,0,1,1,0-2.64H146.63a1.32,1.32,0,1,1,0,2.64Z"/><path class="cls-6" d="M89.22,145.11a1.32,1.32,0,0,1-1.32-1.32V102.88a1.32,1.32,0,0,1,2.64,0v40.91a1.32,1.32,0,0,1-1.32,1.32"/><path class="cls-6" d="M102.66,144.55a1.32,1.32,0,0,1-1.31-1.32V102.88a1.32,1.32,0,0,1,2.64,0v40.35a1.32,1.32,0,0,1-1.32,1.32"/><path class="cls-6" d="M131.8,53.57H99.42a1.32,1.32,0,0,1,0-2.64H131.8a1.32,1.32,0,0,1,0,2.64"/><path class="cls-6" d="M93.94,53.57H62a1.32,1.32,0,1,1,0-2.64H93.94a1.32,1.32,0,1,1,0,2.64"/><path class="cls-6" d="M154.52,96.69H37.36A1.32,1.32,0,0,1,36,95.37V52.25a1.29,1.29,0,0,1,.39-.93,1.31,1.31,0,0,1,.93-.39H56.09a1.32,1.32,0,0,1,0,2.64H38.68V94.06H153.2V53.57H138.41a1.32,1.32,0,1,1,0-2.64h16.11a1.32,1.32,0,0,1,1.32,1.32V95.37a1.32,1.32,0,0,1-1.32,1.32"/><path class="cls-6" d="M61.56,59.66a1.32,1.32,0,0,1-1.32-1.32V48.93a3.91,3.91,0,0,0-1.38-3.17,5.33,5.33,0,0,0-3.33-1.06c-2.52,0-5.08,1.45-5.08,4.23v3.32a1.32,1.32,0,1,1-2.63,0V48.93c0-4.46,4-6.87,7.71-6.87a7.91,7.91,0,0,1,5,1.66,6.49,6.49,0,0,1,2.36,5.21v9.41a1.32,1.32,0,0,1-1.32,1.32"/><path class="cls-6" d="M67,60.66H56.09a1.32,1.32,0,1,1,0-2.63H67a1.32,1.32,0,1,1,0,2.63"/><path class="cls-6" d="M99.42,59.66a1.32,1.32,0,0,1-1.32-1.32V48.93a3.88,3.88,0,0,0-1.39-3.17,5.28,5.28,0,0,0-3.32-1.06c-2.53,0-5.08,1.45-5.08,4.23v3.32a1.32,1.32,0,0,1-2.64,0V48.93c0-4.46,4-6.87,7.72-6.87a7.91,7.91,0,0,1,5,1.66,6.48,6.48,0,0,1,2.35,5.21v9.41a1.32,1.32,0,0,1-1.31,1.32"/><path class="cls-6" d="M104.89,60.66h-11a1.32,1.32,0,0,1,0-2.63h11a1.32,1.32,0,1,1,0,2.63"/><path class="cls-6" d="M137.27,59.66A1.32,1.32,0,0,1,136,58.34V48.93a3.88,3.88,0,0,0-1.39-3.17,5.28,5.28,0,0,0-3.32-1.06c-2.53,0-5.08,1.45-5.08,4.23v3.32a1.32,1.32,0,0,1-2.64,0V48.93c0-4.46,4-6.87,7.72-6.87a7.86,7.86,0,0,1,5,1.66,6.46,6.46,0,0,1,2.36,5.21v9.41a1.32,1.32,0,0,1-1.32,1.32"/><path class="cls-6" d="M142.75,60.66H131.8a1.32,1.32,0,1,1,0-2.63h10.95a1.32,1.32,0,0,1,0,2.63"/></g></g></g></g></g></svg>