<svg xmlns="http://www.w3.org/2000/svg" viewBox="0 0 186.28 182.01"><defs><style>.cls-1{fill:#fff;}.cls-2{fill:#8abfc6;}.cls-3{fill:#a0a437;}.cls-4{fill:#414042;}</style></defs><g id="Layer_2" data-name="Layer 2"><g id="Categories_and_Icons" data-name="Categories and Icons"><circle class="cls-1" cx="98.41" cy="94.15" r="87.87"/><path class="cls-2" d="M89.87,179.74a89.87,89.87,0,1,1,89.87-89.87A90,90,0,0,1,89.87,179.74ZM89.87,4a85.87,85.87,0,1,0,85.87,85.87A86,86,0,0,0,89.87,4Z"/></g><g id="Additional_Icons" data-name="Additional Icons"><rect class="cls-3" x="62.99" y="82.17" width="22" height="29.1"/><path class="cls-4" d="M134.48,142.41H60.16a20.78,20.78,0,0,1-20.75-20.75V43.07a1.85,1.85,0,0,1,1.85-1.85H127.4a1.85,1.85,0,0,1,1.85,1.85v12.4h15.28a1.85,1.85,0,0,1,1.85,1.85v73.19A11.92,11.92,0,0,1,134.48,142.41ZM43.11,44.92v76.74a17.06,17.06,0,0,0,17,17h74.32a8.2,8.2,0,0,0,8.2-8.19V59.17H129.25v55.44a9.24,9.24,0,0,0,6.54,8.87A1.85,1.85,0,1,1,134.7,127a12.93,12.93,0,0,1-9.15-12.41V44.92Z"/><path class="cls-4" d="M114.89,56.43H58a1.75,1.75,0,1,1,0-3.49h56.9a1.75,1.75,0,1,1,0,3.49Z"/><path class="cls-4" d="M114.89,67.82H58a1.75,1.75,0,0,1,0-3.5h56.9a1.75,1.75,0,0,1,0,3.5Z"/><path class="cls-4" d="M80,108H58a1.75,1.75,0,0,1-1.75-1.74V77.17A1.75,1.75,0,0,1,58,75.42H80a1.75,1.75,0,0,1,1.75,1.75v29.1A1.74,1.74,0,0,1,80,108Zm-20.25-3.49H78.24V78.91H59.73Z"/><path class="cls-4" d="M114.89,80.26h-22a1.85,1.85,0,0,1,0-3.7h22a1.85,1.85,0,0,1,0,3.7Z"/><path class="cls-4" d="M114.89,92.29h-22a1.85,1.85,0,1,1,0-3.7h22a1.85,1.85,0,0,1,0,3.7Z"/><path class="cls-4" d="M114.89,104.46h-22a1.85,1.85,0,1,1,0-3.7h22a1.85,1.85,0,0,1,0,3.7Z"/><path class="cls-4" d="M114.89,116.64h-22a1.85,1.85,0,1,1,0-3.7h22a1.85,1.85,0,0,1,0,3.7Z"/><path class="cls-4" d="M114.89,128.81h-22a1.85,1.85,0,1,1,0-3.7h22a1.85,1.85,0,0,1,0,3.7Z"/><path class="cls-4" d="M80,117.85H58a1.85,1.85,0,0,1,0-3.7H80a1.85,1.85,0,1,1,0,3.7Z"/><path class="cls-4" d="M80,127.59H58a1.85,1.85,0,1,1,0-3.7H80a1.85,1.85,0,0,1,0,3.7Z"/></g></g></svg>