<svg viewBox="0 0 186.28 182.01"><g id="Layer_2" data-name="Layer 2"><g id="Categories_and_Icons" data-name="Categories and Icons"><circle class="cls-5" cx="98.41" cy="94.15" r="87.87"/><path class="cls-1" d="M89.87,179.73a89.87,89.87,0,1,1,89.87-89.86A90,90,0,0,1,89.87,179.73ZM89.87,4a85.87,85.87,0,1,0,85.87,85.87A86,86,0,0,0,89.87,4Z"/><path class="cls-1" d="M115.13,114.8a19.14,19.14,0,1,1,19.13-19.14A19.17,19.17,0,0,1,115.13,114.8Z"/><path class="cls-3" d="M140.61,58.82h-4.33l-1-5.38a4.32,4.32,0,0,0-4.09-3.3H94a4.29,4.29,0,0,0-4.08,3.22l-1,5.46H67.49V51.7a1.55,1.55,0,0,0-1.55-1.56H56a1.57,1.57,0,0,0-1.56,1.56v7.12h-5.1a7.78,7.78,0,0,0-7.78,7.79v54a7.79,7.79,0,0,0,7.78,7.79h91.32a7.79,7.79,0,0,0,7.78-7.79v-54A7.78,7.78,0,0,0,140.61,58.82ZM92.94,54c0-.25.7-.8,1-.74H131.2a1.27,1.27,0,0,1,1,.82l.88,4.74H92.05Zm-35.43-.74h6.87v5.56H57.51Zm87.77,67.32a4.68,4.68,0,0,1-4.67,4.67H49.29a4.68,4.68,0,0,1-4.67-4.67v-54a4.69,4.69,0,0,1,4.67-4.68h91.32a4.69,4.69,0,0,1,4.67,4.68Zm-32.7-54.36A27.37,27.37,0,1,0,140,93.6,27.38,27.38,0,0,0,112.58,66.22Zm0,51.63A24.26,24.26,0,1,1,136.84,93.6,24.29,24.29,0,0,1,112.58,117.85Zm0-45.35a21.09,21.09,0,1,0,21.09,21.09A21.09,21.09,0,0,0,112.58,72.5Zm0,39.07a18,18,0,1,1,18-18A18,18,0,0,1,112.58,111.57Zm-33-45.35H51.15a1.55,1.55,0,0,0-1.56,1.56v10.3a1.55,1.55,0,0,0,1.56,1.56H79.54a1.58,1.58,0,0,0,1.1-.45,1.6,1.6,0,0,0,.45-1.11V67.78a1.54,1.54,0,0,0-.45-1.1A1.59,1.59,0,0,0,79.54,66.22ZM78,76.53H52.7v-7.2H78Z"/><path class="cls-5" d="M126.86,95.66h-2.11a13.57,13.57,0,0,0-8.39-12.57l.81-2A15.68,15.68,0,0,1,126.86,95.66Z"/></g></g></svg>