<svg xmlns="http://www.w3.org/2000/svg" xmlns:xlink="http://www.w3.org/1999/xlink" width="248.7" height="242.97" viewBox="0 0 248.7 242.97"><defs><clipPath id="a"><rect width="248.7" height="242.97" fill="none"/></clipPath></defs><g transform="translate(-196 -1720.015)"><g transform="translate(320.35 1841.5)"><g transform="translate(-124.35 -121.485)" clip-path="url(#a)"><path d="M248.7,125.7A117.3,117.3,0,1,1,131.4,8.4,117.3,117.3,0,0,1,248.7,125.7" fill="#fff"/><circle cx="117.3" cy="117.3" r="117.3" transform="translate(-45.882 120) rotate(-45)" fill="none" stroke="#8abfc6" stroke-miterlimit="10" stroke-width="5.34"/></g></g><g transform="translate(241.522 1783.762)"><path d="M82.621,82.837a28.169,28.169,0,1,1,28.316-28.316A28.169,28.169,0,0,1,82.621,82.837Z" transform="translate(25.924 12.582)" fill="#8abfc6"/><path d="M146.152,12.831h-6.342l-1.475-7.964A6.342,6.342,0,0,0,132.289,0H77.427A6.342,6.342,0,0,0,71.38,4.719l-1.475,8.111H38.345V2.36A2.36,2.36,0,0,0,35.985,0H21.237a2.36,2.36,0,0,0-1.622.737,2.36,2.36,0,0,0-.737,1.622V12.831H11.5A11.5,11.5,0,0,0,0,24.334v79.639a11.5,11.5,0,0,0,11.5,11.5H146.152a11.5,11.5,0,0,0,11.5-11.5V24.334A11.5,11.5,0,0,0,146.152,12.831ZM75.8,5.752a1.917,1.917,0,0,1,1.475-1.032h55.01a1.917,1.917,0,0,1,1.475,1.18l1.327,6.932H74.477ZM23.6,4.572H33.773v8.259H23.6Zm129.487,99.254a6.932,6.932,0,0,1-6.932,6.932H11.5a6.932,6.932,0,0,1-6.932-6.932V24.187A6.932,6.932,0,0,1,11.5,17.255H146.152a6.932,6.932,0,0,1,6.932,6.932ZM104.858,23.744A40.409,40.409,0,1,0,145.12,64.154a40.409,40.409,0,0,0-40.262-40.409Zm0,76.1a35.838,35.838,0,1,1,35.69-35.69A35.838,35.838,0,0,1,104.858,99.844Zm0-66.808a31.118,31.118,0,1,0,31.118,30.971,31.118,31.118,0,0,0-31.118-30.971Zm0,57.665a26.473,26.473,0,1,0,0-.147ZM56.042,23.744H14.158A2.212,2.212,0,0,0,11.8,26.1V41.147a2.36,2.36,0,0,0,2.36,2.36H56.042a2.36,2.36,0,0,0,2.36-2.36V25.956A2.36,2.36,0,0,0,56.042,23.744ZM53.83,38.935H16.518V28.316H53.83Z" transform="translate(0)" fill="#414042"/><path d="M75.3,32A21.679,21.679,0,0,1,88.573,52.057" transform="translate(35.752 15.193)" fill="none" stroke="#fff" stroke-miterlimit="10" stroke-width="1.596"/></g></g></svg>