<svg xmlns="http://www.w3.org/2000/svg" viewBox="0 0 186.28 182.01"><defs><style>.cls-1{fill:#fff;}.cls-2{fill:#8abfc6;}.cls-3{fill:#a0a437;}.cls-4{fill:#86bec4;}.cls-5{fill:#404041;}</style></defs><g id="Layer_2" data-name="Layer 2"><g id="Categories_and_Icons" data-name="Categories and Icons"><circle class="cls-1" cx="98.41" cy="94.15" r="87.87"/><path class="cls-2" d="M89.87,179.74a89.87,89.87,0,1,1,89.87-89.87A90,90,0,0,1,89.87,179.74ZM89.87,4a85.87,85.87,0,1,0,85.87,85.87A86,86,0,0,0,89.87,4Z"/><g id="PR-icon"><path class="cls-3" d="M110.44,112a89.64,89.64,0,0,0,3.5-23.62,99.17,99.17,0,0,0-3.17-26.84l4.76-2.69s4.51,17.59,4.38,27.44-4.58,28.3-4.58,28.3Z"/><rect class="cls-3" x="44.69" y="76.48" width="12.19" height="21.04"/><path class="cls-4" d="M132.15,100.13A1.71,1.71,0,0,1,131,97.18a15.69,15.69,0,0,0,.59-22.2A1.71,1.71,0,0,1,134,72.62a19.09,19.09,0,0,1-.71,27A1.66,1.66,0,0,1,132.15,100.13Z"/><path class="cls-4" d="M141.13,109.61a1.71,1.71,0,0,1-1.18-3A28.78,28.78,0,0,0,141.06,66a1.71,1.71,0,1,1,2.48-2.35,32.19,32.19,0,0,1-1.24,45.52A1.7,1.7,0,0,1,141.13,109.61Z"/><path class="cls-4" d="M150.61,119.63a1.71,1.71,0,0,1-1.18-2.95,42.59,42.59,0,0,0,1.64-60.19,1.71,1.71,0,0,1,2.49-2.35,46,46,0,0,1-1.77,65A1.67,1.67,0,0,1,150.61,119.63Z"/><path class="cls-5" d="M42,135H27.2a1.7,1.7,0,0,1-1.57-2.37L40.05,98.55l3.15,1.33L29.78,131.62h11L55,97.79l3.15,1.32L43.54,134A1.71,1.71,0,0,1,42,135Z"/><path class="cls-5" d="M59.41,113.09a14.62,14.62,0,0,1-2.1-.14,15.48,15.48,0,0,1-5-1.63l1.6-3a12.07,12.07,0,0,0,3.89,1.26,11.94,11.94,0,0,0,3.48,0c-1-4.57-.79-8.65.58-11.14l3,1.65c-.82,1.5-1.28,5.1.15,10.32a1.71,1.71,0,0,1-1.15,2.09A15.45,15.45,0,0,1,59.41,113.09Z"/><path class="cls-5" d="M113.21,116.67a3.48,3.48,0,0,1-1.79-.5,109.83,109.83,0,0,0-54.07-16l-21.44.53a14.31,14.31,0,0,1,0-28.61l21.86,0a107.94,107.94,0,0,0,27.34-4.21,108.33,108.33,0,0,0,26.43-11.67,3.33,3.33,0,0,1,4.94,1.92,100.14,100.14,0,0,1,4,29.28,100.37,100.37,0,0,1-4,26.78,3.45,3.45,0,0,1-2.06,2.25A3.41,3.41,0,0,1,113.21,116.67Zm-55.85-20a113.38,113.38,0,0,1,55.84,16.54,96.29,96.29,0,0,0,3.87-25.88,97.14,97.14,0,0,0-3.84-28.18,111.5,111.5,0,0,1-27.17,12,111.12,111.12,0,0,1-28.25,4.35l-21.9,0a10.89,10.89,0,0,0,0,21.77Z"/><rect class="cls-5" x="40.3" y="73.77" width="3.42" height="24.65"/><rect class="cls-5" x="55.17" y="73.77" width="3.42" height="24.65"/><path class="cls-5" d="M109.59,112.63l-3.3-.91a96.75,96.75,0,0,0,3.42-24.4,96.59,96.59,0,0,0-3.4-26.61l3.31-.89a100.47,100.47,0,0,1,0,52.81Z"/></g></g></g></svg>