<svg xmlns="http://www.w3.org/2000/svg" viewBox="0 0 186.28 182.01" aria-hidden="true"><g id="Layer_2" data-name="Layer 2"><g id="Categories_and_Icons" data-name="Categories and Icons"><circle class="cls-5" cx="98.41" cy="94.15" r="87.87"/><path class="cls-1" d="M89.87,179.74a89.87,89.87,0,1,1,89.87-89.87A90,90,0,0,1,89.87,179.74ZM89.87,4a85.87,85.87,0,1,0,85.87,85.87A86,86,0,0,0,89.87,4Z"/></g><g id="Additional_Icons" data-name="Additional Icons"><rect class="cls-2" x="67.19" y="94.12" width="79.75" height="37.81"/><rect class="cls-1" x="95.5" y="58.8" width="43.67" height="20.4"/><path class="cls-4" d="M56.18,55.21H39.39A1.5,1.5,0,0,1,38,54.28a1.48,1.48,0,0,1,.32-1.63L55.12,35.86a1.5,1.5,0,0,1,2.56,1.06V53.71A1.5,1.5,0,0,1,56.18,55.21ZM43,52.21H54.68V40.54Z"/><path class="cls-4" d="M146.89,133.42H63.3a1.5,1.5,0,0,1-1.5-1.5V90.13a1.5,1.5,0,0,1,1.5-1.5h83.59a1.5,1.5,0,0,1,1.5,1.5v41.79A1.5,1.5,0,0,1,146.89,133.42Zm-82.09-3h80.59V91.63H64.8Z"/><path class="cls-4" d="M105.09,118.3a1.47,1.47,0,0,1-.81-.24L63.15,91.39A1.5,1.5,0,0,1,64,88.63h82.26a1.5,1.5,0,0,1,.82,2.76l-41.13,26.67A1.53,1.53,0,0,1,105.09,118.3ZM69,91.63,105.09,115l36.06-23.38Z"/><rect class="cls-4" x="104.91" y="62.2" width="21.69" height="3"/><rect class="cls-4" x="99.41" y="68.36" width="32.69" height="3"/><path class="cls-4" d="M146.89,133.42H63.3a1.5,1.5,0,0,1-1.5-1.5V90.13a1.5,1.5,0,0,1,1.5-1.5h83.59a1.5,1.5,0,0,1,1.5,1.5v41.79A1.5,1.5,0,0,1,146.89,133.42Zm-82.09-3h80.59V91.63H64.8Z"/><path class="cls-4" d="M139.12,80.79H92.38a1.5,1.5,0,0,1-1.5-1.5V55.92a1.5,1.5,0,0,1,1.5-1.5h46.74a1.5,1.5,0,0,1,1.5,1.5V79.29A1.5,1.5,0,0,1,139.12,80.79Zm-45.24-3h43.74V57.42H93.88Z"/><path class="cls-4" d="M118.42,146.6h-79a1.5,1.5,0,0,1-1.5-1.5V53.71a1.5,1.5,0,0,1,.44-1.06L55.12,35.86a1.53,1.53,0,0,1,1.06-.44h62.24a1.5,1.5,0,0,1,1.5,1.5v19a1.5,1.5,0,0,1-1.5,1.5H93.88V77.79h24.54a1.5,1.5,0,0,1,1.5,1.5V90.13a1.5,1.5,0,0,1-1.5,1.5H64.8v38.79h53.62a1.5,1.5,0,0,1,1.5,1.5V145.1A1.5,1.5,0,0,1,118.42,146.6Zm-77.53-3h76V133.42H63.3a1.5,1.5,0,0,1-1.5-1.5V90.13a1.5,1.5,0,0,1,1.5-1.5h53.62V80.79H92.38a1.5,1.5,0,0,1-1.5-1.5V55.92a1.5,1.5,0,0,1,1.5-1.5h24.54v-16H56.81L40.89,54.33Z"/></g></g></svg>