<svg xmlns="http://www.w3.org/2000/svg" xmlns:xlink="http://www.w3.org/1999/xlink" width="248.7" height="242.97" viewBox="0 0 248.7 242.97"><defs><clipPath id="a"><rect width="248.7" height="242.97" fill="none"/></clipPath><clipPath id="b"><rect width="136.951" height="137.793" fill="none"/></clipPath></defs><g transform="translate(-196 -2384.015)"><g transform="translate(320.35 2505.5)"><g transform="translate(-124.35 -121.485)" clip-path="url(#a)"><path d="M248.7,125.7A117.3,117.3,0,1,1,131.4,8.4,117.3,117.3,0,0,1,248.7,125.7" fill="#fff"/><circle cx="117.3" cy="117.3" r="117.3" transform="translate(-45.882 120) rotate(-45)" fill="none" stroke="#8abfc6" stroke-miterlimit="10" stroke-width="5.34"/></g></g><g transform="translate(325.35 2505.5)"><g transform="translate(-68.475 -68.897)"><rect width="98.778" height="46.861" transform="translate(36.314 72.751)" fill="#a0a437"/><rect width="54.161" height="25.283" transform="translate(71.388 29.001)" fill="#8abfc6"/><g clip-path="url(#b)"><path d="M22.7,24.559H1.879A1.859,1.859,0,0,1,.516,21.337L21.337.516a1.859,1.859,0,0,1,3.222,1.363V22.7A1.859,1.859,0,0,1,22.7,24.559M6.341,20.841h14.5V6.341Z" transform="translate(-0.02 -0.02)" fill="#404041"/><path d="M129.371,108.724H25.759a1.859,1.859,0,0,1-1.859-1.859V55.059A1.859,1.859,0,0,1,25.759,53.2H129.371a1.859,1.859,0,0,1,1.859,1.859v51.806a1.859,1.859,0,0,1-1.859,1.859M27.618,105.006h99.893V56.918H27.618Z" transform="translate(5.721 12.735)" fill="#404041"/><path d="M77.41,90.01l-.992-.248L25.48,56.67a1.859,1.859,0,0,1,.992-3.47h102a1.859,1.859,0,0,1,.992,3.47L78.4,89.638l-.992.248M32.669,56.918l44.741,29,44.741-29Z" transform="translate(5.876 12.734)" fill="#404041"/><rect width="26.894" height="3.718" transform="translate(83.038 33.215)" fill="#404041"/><rect width="40.527" height="3.718" transform="translate(76.221 40.775)" fill="#404041"/><path d="M129.371,108.724H25.759a1.859,1.859,0,0,1-1.859-1.859V55.059A1.859,1.859,0,0,1,25.759,53.2H129.371a1.859,1.859,0,0,1,1.859,1.859v51.806a1.859,1.859,0,0,1-1.859,1.859M27.618,105.006h99.893V56.918H27.618Z" transform="translate(5.721 12.735)" fill="#404041"/><path d="M112.738,51.719H54.859A1.859,1.859,0,0,1,53,49.86v-29A1.859,1.859,0,0,1,54.859,19h57.879a1.859,1.859,0,0,1,1.859,1.859v29a1.859,1.859,0,0,1-1.859,1.859M56.718,48h54.161V22.718H56.718Z" transform="translate(12.687 4.548)" fill="#404041"/><path d="M99.77,137.819H1.86A1.859,1.859,0,0,1,0,135.96V22.681a1.859,1.859,0,0,1,.5-1.363L21.318.5A1.859,1.859,0,0,1,22.681,0H99.77a1.859,1.859,0,0,1,1.859,1.859V25.408a1.859,1.859,0,0,1-1.859,1.859H69.405V52.55H99.77a1.859,1.859,0,0,1,1.859,1.859V67.794a1.859,1.859,0,0,1-1.859,1.859H33.34v48.088H99.77a1.859,1.859,0,0,1,1.859,1.859v16.36a1.859,1.859,0,0,1-1.859,1.859M3.719,134.1H97.911V121.459H31.481a1.859,1.859,0,0,1-1.859-1.859V67.794a1.859,1.859,0,0,1,1.859-1.859h66.43V56.268H67.546a1.859,1.859,0,0,1-1.859-1.859v-29a1.859,1.859,0,0,1,1.859-1.859H97.911V3.719H23.425L3.719,23.425Z" transform="translate(0 0)" fill="#404041"/></g></g></g></g></svg>