<svg xmlns="http://www.w3.org/2000/svg" viewBox="0 0 186.28 182.01"><defs><style>.cls-1{fill:#fff;}.cls-2{fill:#8abfc6;}.cls-3{fill:#a2a637;}.cls-4{fill:#8bc0c6;}.cls-5{fill:#414042;}</style></defs><g id="Layer_2" data-name="Layer 2"><g id="Additional_Icons" data-name="Additional Icons"><circle class="cls-1" cx="98.41" cy="94.15" r="87.87"/><path class="cls-2" d="M89.87,179.74a89.87,89.87,0,1,1,89.87-89.87A90,90,0,0,1,89.87,179.74ZM89.87,4a85.87,85.87,0,1,0,85.87,85.87A86,86,0,0,0,89.87,4Z"/><path class="cls-3" d="M54.5,80.19A9.48,9.48,0,0,1,57.94,82L89.21,50.76l-2.64-2.65Z"/><path class="cls-3" d="M56.55,97.27,82,122.7a25.07,25.07,0,0,1,4.25-1L59.68,95.13A9.59,9.59,0,0,1,56.55,97.27Z"/><path class="cls-4" d="M68.65,145h42.44a21.27,21.27,0,0,0-42.44,0Z"/><path class="cls-4" d="M119.06,43.36A21.27,21.27,0,0,0,103,78.58l30-30A21.14,21.14,0,0,0,119.06,43.36Z"/><path class="cls-5" d="M79.59,125.93a1.49,1.49,0,0,1-1.06-.44L50.58,97.54A1.48,1.48,0,0,1,50.23,96a1.5,1.5,0,0,1,1.26-1,6.58,6.58,0,0,0,4.83-2.93,1.5,1.5,0,0,1,2.31-.23l30,30a1.5,1.5,0,0,1-1,2.56,21.22,21.22,0,0,0-7.48,1.41A1.44,1.44,0,0,1,79.59,125.93Zm-25-28.66L80,122.7a25.07,25.07,0,0,1,4.25-1L57.68,95.13A9.59,9.59,0,0,1,54.55,97.27Z"/><path class="cls-5" d="M57,84.64H56.9a1.46,1.46,0,0,1-1.08-.52,6.58,6.58,0,0,0-5.4-2.29A1.54,1.54,0,0,1,48.91,81a1.47,1.47,0,0,1,.27-1.68L84.51,43.93a1.53,1.53,0,0,1,1.06-.44h0a1.54,1.54,0,0,1,1.07.44l4.76,4.76a1.52,1.52,0,0,1,0,2.13L58,84.2A1.53,1.53,0,0,1,57,84.64ZM53.5,79.19A9.48,9.48,0,0,1,56.94,81L88.21,49.76l-2.64-2.65Z"/><path class="cls-5" d="M96.14,57.06a1.48,1.48,0,0,1-1.06-.44L83.44,45a1.51,1.51,0,0,1,0-2.13L95.31,31a1.5,1.5,0,0,1,2.13,0l11.64,11.64a1.51,1.51,0,0,1,0,2.13l-.13.13a1.57,1.57,0,0,1-.45.31A21,21,0,0,0,97.65,56a1.59,1.59,0,0,1-.32.46l-.13.13A1.48,1.48,0,0,1,96.14,57.06ZM86.62,43.92l9.15,9.14a23.85,23.85,0,0,1,9.75-9.75l-9.14-9.15Z"/><path class="cls-5" d="M50.8,98a9.62,9.62,0,1,1,9.61-9.62A9.63,9.63,0,0,1,50.8,98Zm0-16.23a6.62,6.62,0,1,0,6.61,6.61A6.62,6.62,0,0,0,50.8,81.8Zm0,11.39a4.78,4.78,0,1,1,4.78-4.78A4.79,4.79,0,0,1,50.8,93.19Zm0-6.55a1.78,1.78,0,1,0,1.78,1.77A1.78,1.78,0,0,0,50.8,86.64Z"/><path class="cls-5" d="M50.8,93.19a4.78,4.78,0,1,1,4.78-4.78A4.79,4.79,0,0,1,50.8,93.19Zm0-6.55a1.78,1.78,0,1,0,1.78,1.77A1.78,1.78,0,0,0,50.8,86.64Z"/><path class="cls-5" d="M117.09,76.47A11.8,11.8,0,0,1,108.72,73a1.51,1.51,0,0,1,0-2.12l14.62-14.62a1.51,1.51,0,0,1,2.12,0,11.84,11.84,0,0,1-8.37,20.21ZM112,71.85a8.84,8.84,0,0,0,12.32-12.32Z"/><path class="cls-5" d="M101,82.23h0a1.5,1.5,0,0,1-1.07-.44,24.27,24.27,0,0,1,34.33-34.32,1.5,1.5,0,0,1,.44,1.06,1.52,1.52,0,0,1-.44,1.06l-32.2,32.2A1.49,1.49,0,0,1,101,82.23Zm16.1-38.87A21.28,21.28,0,0,0,101,78.58l30-30A21.12,21.12,0,0,0,117.09,43.36Z"/><path class="cls-5" d="M89.32,52.77,87.2,50.65l7.41-7.41a1.49,1.49,0,0,1,2.12,0h0a1.49,1.49,0,0,1,0,2.12Z"/><rect class="cls-5" x="128.76" y="75.15" width="3" height="5.3" rx="1.5" transform="translate(-16.86 114.91) rotate(-45.01)"/><rect class="cls-5" x="119.38" y="80.79" width="3" height="5.3" rx="1.5"/><rect class="cls-5" x="133.25" y="66.92" width="5.3" height="3" rx="1.5"/><path class="cls-5" d="M110.55,147.18H65a1.5,1.5,0,0,1-1.5-1.5,24.28,24.28,0,0,1,48.55,0A1.5,1.5,0,0,1,110.55,147.18Zm-44-3H109a21.27,21.27,0,0,0-42.44,0Z"/><rect class="cls-5" x="94.41" y="136.75" width="6.25" height="3"/></g></g></svg>