<svg viewBox="0 0 248.66 242.97"><defs><clipPath id="clip-path" transform="translate(-575.41 -230.53)"><rect x="575.38" y="230.5" width="248.7" height="242.97" style="fill:none"/></clipPath><clipPath id="clip-path-2" transform="translate(-575.41 -230.53)"><rect x="603.29" y="291.27" width="217.64" height="121.44" transform="translate(-73.92 237.28) rotate(-18)" style="fill:none"/></clipPath></defs><g id="BG_circle" data-name="BG circle"><g><g id="Group_1735" data-name="Group 1735"><path id="Path_2498" data-name="Path 2498" d="M824.08,356.2a117.3,117.3,0,1,1-117.3-117.3h0a117.3,117.3,0,0,1,117.3,117.3" transform="translate(-575.41 -230.53)" style="fill:#fff"/><circle id="Ellipse_167" data-name="Ellipse 167" cx="119.97" cy="119.97" r="117.3" style="fill:none;stroke:#8abfc6;stroke-miterlimit:9.99999982885729;stroke-width:5.340000061197681px"/></g></g></g><g id="PR-icon"><g><g id="PR-icon-2"><path id="Path_2049" data-name="Path 2049" d="M743.17,370a137,137,0,0,0-6.13-36.1,152.24,152.24,0,0,0-17.33-37.58l5.68-6.16s14.91,23.48,19.37,38,6.75,43.42,6.75,43.42Z" transform="translate(-575.41 -230.53)" style="fill:#a2a637"/><rect id="Rectangle_808" data-name="Rectangle 808" x="636.13" y="344.31" width="20.01" height="34.5" transform="matrix(0.95, -0.31, 0.31, 0.95, -655.52, -13.17)" style="fill:#a2a637"/><path id="Path_2050" data-name="Path 2050" d="M758.49,303.88a26.4,26.4,0,0,1,10.58,35.77" transform="translate(-575.41 -230.53)" style="fill:none;stroke:#8bc0c6;stroke-miterlimit:9.999409701832377;stroke-width:3.308804685594222px"/><path id="Path_2051" data-name="Path 2051" d="M768,286.48a46.18,46.18,0,0,1,18.51,62.64" transform="translate(-575.41 -230.53)" style="fill:none;stroke:#8bc0c6;stroke-miterlimit:9.999409701832377;stroke-width:3.308804685594222px"/><path id="Path_2053" data-name="Path 2053" d="M639,383.18l-4.85,56,21.28-6.92,4.72-57.14" transform="translate(-575.41 -230.53)" style="fill:none;stroke:#414042;stroke-linejoin:round;stroke-width:3.308804685594222px"/><path id="Path_2054" data-name="Path 2054" d="M670.3,373c-.68,3.82,1,10,5.43,16.72a20.46,20.46,0,0,1-15.23,3.35" transform="translate(-575.41 -230.53)" style="fill:none;stroke:#414042;stroke-linejoin:round;stroke-width:3.308804685594222px"/><path id="Path_2055" data-name="Path 2055" d="M630.67,385.5a19.1,19.1,0,0,1-11.82-36.33h0l31.48-10.23a164.73,164.73,0,0,0,71.29-48.77,2.44,2.44,0,0,1,3.43-.31,2.63,2.63,0,0,1,.49.56,148.61,148.61,0,0,1,25.87,79.37,2.59,2.59,0,0,1-2.45,2.72,2.49,2.49,0,0,1-.77-.07,169.17,169.17,0,0,0-86.79,2.27Z" transform="translate(-575.41 -230.53)" style="fill:none;stroke:#414042;stroke-miterlimit:9.999409701832377;stroke-width:3.308804685594222px"/><line id="Line_126" data-name="Line 126" x1="52.23" y1="115.86" x2="63.78" y2="151.4" style="fill:none;stroke:#414042;stroke-miterlimit:9.999409701832377;stroke-width:3.308804685594222px"/><line id="Line_127" data-name="Line 127" x1="73.65" y1="108.9" x2="85.2" y2="144.44" style="fill:none;stroke:#414042;stroke-miterlimit:9.999409701832377;stroke-width:3.308804685594222px"/><path id="Path_2056" data-name="Path 2056" d="M716.41,296a149.74,149.74,0,0,1,24.32,74.83" transform="translate(-575.41 -230.53)" style="fill:none;stroke:#414042;stroke-miterlimit:9.999409701832377;stroke-width:3.308804685594222px"/></g></g></g></svg>