<svg xmlns="http://www.w3.org/2000/svg" xmlns:xlink="http://www.w3.org/1999/xlink" width="259" height="242.97" viewBox="0 0 259 242.97"><defs><clipPath id="a"><rect width="248.7" height="242.97" fill="none"/></clipPath><clipPath id="b"><rect width="217.651" height="121.443" fill="none"/></clipPath></defs><g transform="translate(-196 -2382.015)"><g transform="translate(320.35 2503.5)"><g transform="translate(-124.35 -121.485)" clip-path="url(#a)"><path d="M248.7,125.7A117.3,117.3,0,1,1,131.4,8.4,117.3,117.3,0,0,1,248.7,125.7" fill="#fff"/><circle cx="117.3" cy="117.3" r="117.3" transform="translate(-45.882 120) rotate(-45)" fill="none" stroke="#8abfc6" stroke-miterlimit="10" stroke-width="5.34"/></g></g><g transform="matrix(0.951, -0.309, 0.309, 0.951, 316.789, 2500.354)"><g transform="translate(-94.631 -52.801)" clip-path="url(#b)"><path d="M174.5,89.329A136.906,136.906,0,0,0,179.827,53.1a152.053,152.053,0,0,0-4.871-41.095L182.262,7.9s6.925,26.94,6.7,42.084-7,43.378-7,43.378Z" transform="translate(-41.702 -1.888)" fill="#a2a637"/><rect width="20.015" height="34.505" transform="translate(33.104 32.191)" fill="#a2a637"/><path d="M220.189,38.5a26.407,26.407,0,0,1-.989,37.29" transform="translate(-52.385 -9.201)" fill="none" stroke="#8bc0c6" stroke-miterlimit="10" stroke-width="3.309"/><path d="M238.85,20.6a46.194,46.194,0,0,1-1.75,65.3" transform="translate(-56.663 -4.923)" fill="none" stroke="#8bc0c6" stroke-miterlimit="10" stroke-width="3.309"/><path d="M32.117,88.742,10.2,140.491H32.574L54.72,87.6" transform="translate(-2.438 -20.935)" fill="none" stroke="#414042" stroke-linejoin="round" stroke-width="3.309"/><path d="M77.325,89.1c-1.826,3.425-2.131,9.817,0,17.58A20.471,20.471,0,0,1,61.8,105.157" transform="translate(-14.769 -21.293)" fill="none" stroke="#414042" stroke-linejoin="round" stroke-width="3.309"/><path d="M21.6,68.838a19.1,19.1,0,1,1,0-38.2h33.1a166.434,166.434,0,0,0,42.16-6.393,166.435,166.435,0,0,0,40.714-17.96,2.435,2.435,0,0,1,3.653,1.446,149.54,149.54,0,0,1,6.012,43.606,149.464,149.464,0,0,1-5.936,39.877,2.587,2.587,0,0,1-3.881,1.522A169.25,169.25,0,0,0,54.173,68.077Z" transform="translate(-0.597 -1.412)" fill="none" stroke="#414042" stroke-miterlimit="10" stroke-width="3.309"/><line y2="37.366" transform="translate(30.212 29.299)" fill="none" stroke="#414042" stroke-miterlimit="10" stroke-width="3.309"/><line y2="37.366" transform="translate(52.739 29.299)" fill="none" stroke="#414042" stroke-miterlimit="10" stroke-width="3.309"/><path d="M171.1,11.6a149.768,149.768,0,0,1,0,78.689" transform="translate(-40.89 -2.772)" fill="none" stroke="#414042" stroke-miterlimit="10" stroke-width="3.309"/></g></g></g></svg>