<svg id="Layer_1" data-name="Layer 1" xmlns="http://www.w3.org/2000/svg" xmlns:xlink="http://www.w3.org/1999/xlink" viewBox="0 0 77.99 63.54"><defs><style>.cls-8{stroke:#404041;stroke-linecap:round;stroke-linejoin:round;stroke-width:1.64px;}</style><clipPath id="clip-path" transform="translate(-321.48 -328.4)"><rect class="cls-8" x="311.96" y="313.63" width="97" height="93"/></clipPath><clipPath id="clip-path-2" transform="translate(-321.48 -328.4)"><rect class="cls-8" x="321.47" y="328.4" width="78" height="63.62"/></clipPath></defs><g class="cls-2"><g id="Mask_Group_12" data-name="Mask Group 12"><g id="Testimonial_Green" data-name="Testimonial Green"><g class="cls-3"><g id="Group_631" data-name="Group 631"><path id="Path_1171" data-name="Path 1171" class="cls-2" d="M356.48,339.82c-8,4.94-15.92,14.9-17.19,23.33a14.21,14.21,0,0,1,4-.51c7.48,0,13.19,6,13.19,14.15a15.08,15.08,0,0,1-15,15.15h-.13c-9.2,0-17.19-7.73-17.19-20.86,0-16.17,8.95-30.82,21.63-39.76Zm42.74,0c-8,4.94-15.67,14.9-16.93,23.33a12.42,12.42,0,0,1,3.74-.51c7.48,0,13.44,6,13.44,14.15a15.21,15.21,0,0,1-15.15,15.15c-9.2.07-17.19-7.61-17.19-20.8,0-16.17,8.94-30.82,21.37-39.76Z" transform="translate(-321.48 -328.4)"/><path id="Path_1172" data-name="Path 1172" class="cls-8" d="M354.64,337.66c-8,5-15.92,14.9-17.19,23.4a14.21,14.21,0,0,1,4-.51c7.49,0,13.19,6,13.19,14.14a15.09,15.09,0,0,1-15,15.22h-.26c-9.2,0-17.12-7.73-17.12-20.92,0-16.18,8.94-30.82,21.62-39.77Zm42.74,0c-7.93,5-15.66,14.9-16.93,23.4a12.11,12.11,0,0,1,3.74-.51c7.48,0,13.44,6,13.44,14.14a15.21,15.21,0,0,1-15.15,15.22c-9.2,0-17.19-7.73-17.19-20.92,0-16.17,8.94-30.82,21.37-39.76Z" transform="translate(-321.48 -328.4)"/></g></g></g></g></g></svg>