<svg xmlns="http://www.w3.org/2000/svg" width="56.577" height="46.157" viewBox="0 0 56.577 46.157"><g transform="translate(28.586 23.376)"><g transform="translate(-27.991 -22.781)"><g transform="translate(1.328 1.55)"><path d="M27.629,10.8C21.857,14.4,16.085,21.618,15.183,27.751a10.2,10.2,0,0,1,2.885-.361c5.412,0,9.56,4.329,9.56,10.282a10.931,10.931,0,0,1-11,11c-6.674,0-12.446-5.592-12.446-15.152,0-11.724,6.494-22.367,15.693-28.86Zm31.025,0C52.882,14.4,47.29,21.618,46.388,27.751a8.776,8.776,0,0,1,2.706-.361c5.411,0,9.74,4.329,9.74,10.282a11.047,11.047,0,0,1-11,11c-6.674,0-12.446-5.592-12.446-15.152,0-11.724,6.494-22.367,15.513-28.86Z" transform="translate(-4.18 -4.663)" fill="#8abfc6"/></g><path d="M24.742,7.426C18.97,11.033,13.2,18.248,12.3,24.381a10.22,10.22,0,0,1,2.886-.361c5.412,0,9.56,4.329,9.56,10.282a10.931,10.931,0,0,1-11,11c-6.674,0-12.446-5.592-12.446-15.152,0-11.724,6.494-22.367,15.693-28.86Zm31.025,0C50,11.033,44.4,18.248,43.5,24.381a8.79,8.79,0,0,1,2.706-.361c5.411,0,9.74,4.329,9.74,10.282a11.047,11.047,0,0,1-11,11c-6.674,0-12.446-5.592-12.446-15.152,0-11.724,6.494-22.367,15.513-28.86Z" transform="translate(-1.293 -1.293)" fill="none" stroke="#404041" stroke-linecap="round" stroke-linejoin="round" stroke-width="1.19"/></g></g></svg>