<svg xmlns="http://www.w3.org/2000/svg" xmlns:xlink="http://www.w3.org/1999/xlink" width="97" height="93" viewBox="0 0 97 93"><defs><clipPath id="a"><rect width="97" height="93" transform="translate(60 4454)" fill="#fff" stroke="#707070" stroke-width="1"/></clipPath><clipPath id="b"><rect width="78" height="63.624" fill="none"/></clipPath></defs><g transform="translate(-60 -4454)" clip-path="url(#a)"><g transform="translate(108.507 4500.579)"><g transform="translate(-39 -31.812)" clip-path="url(#b)"><path d="M36.542,13.1C28.551,18.044,20.624,28,19.356,36.434a14.078,14.078,0,0,1,4-.507c7.483,0,13.19,5.961,13.19,14.142A15.093,15.093,0,0,1,21.385,65.225c-9.2,0-17.185-7.737-17.185-20.864C4.2,28.19,13.142,13.542,25.825,4.6Zm42.742,0C71.293,18.044,63.62,28,62.352,36.434a12.112,12.112,0,0,1,3.741-.507c7.483,0,13.444,5.961,13.444,14.142A15.22,15.22,0,0,1,64.381,65.225c-9.2.063-17.185-7.61-17.185-20.8,0-16.171,8.942-30.82,21.371-39.761Z" transform="translate(-1.537 -1.683)" fill="#a2a637"/><path d="M33.642,9.734c-7.99,5.01-15.917,14.9-17.185,23.4a14.142,14.142,0,0,1,4-.507c7.483,0,13.19,5.961,13.19,14.142a15.093,15.093,0,0,1-15.22,15.22c-9.2,0-17.122-7.737-17.122-20.927C1.3,24.89,10.242,10.242,22.925,1.3Zm42.742,0c-7.927,5.01-15.664,14.9-16.932,23.4a12.112,12.112,0,0,1,3.741-.507c7.483,0,13.444,5.961,13.444,14.142a15.22,15.22,0,0,1-15.156,15.22c-9.2,0-17.185-7.737-17.185-20.927,0-16.171,8.942-30.82,21.371-39.761Z" transform="translate(-0.476 -0.476)" fill="none" stroke="#404041" stroke-linecap="round" stroke-linejoin="round" stroke-width="1.642"/></g></g></g></svg>