<svg xmlns="http://www.w3.org/2000/svg" viewBox="0 0 248.66 242.97"><defs><clipPath id="a" transform="translate(-580.53 -230.53)"><path style="fill:none" d="M580.49 230.5h248.7v242.97h-248.7z"/></clipPath><clipPath id="b" transform="translate(-580.53 -230.53)"><path style="fill:none" d="M629.44 270.15h160.81v163.68H629.44z"/></clipPath></defs><g style="clip-path:url(#a)"><path d="M248.66 125.67a117.3 117.3 0 11-117.3-117.3 117.3 117.3 0 01117.3 117.3" style="fill:#fff"/><circle cx="119.97" cy="119.97" r="117.3" style="fill:none;stroke:#8abfc6;stroke-miterlimit:9.99999982885729;stroke-width:5.340000061197681px"/></g><g style="clip-path:url(#b)"><path d="M121.27 156.71L79.9 198.08a17.64 17.64 0 01-24.95 0 13 13 0 010-18.33l44.73-44.65a1.56 1.56 0 012.19 0l19.43 19.43a1.56 1.56 0 010 2.19" style="fill:#a2a637"/><path d="M196.47 93.32a36.38 36.38 0 11-36.38-36.37 36.38 36.38 0 0136.38 36.37" style="fill:#8bc0c6"/><path d="M207.77 91.53a50 50 0 11-50-50 50 50 0 0150 50z" style="fill:none;stroke:#414042;stroke-miterlimit:10;stroke-width:3.9030001163482666px"/><path d="M196.13 91.53a38.33 38.33 0 11-38.32-38.33 38.32 38.32 0 0138.32 38.33zM131.19 134.07l-12.5 12.49-13.5-13.5 12.49-12.49M120.03 153.9l-42.39 42.39a15.69 15.69 0 01-22.17-22.17l42.38-42.39a4 4 0 015.62 0l16.56 16.55a4 4 0 010 5.62z" style="fill:none;stroke:#414042;stroke-miterlimit:10;stroke-width:3.9030001163482666px"/><path d="M168.19 66.55a27.08 27.08 0 0116.7 25.05" style="fill:none;stroke:#fff;stroke-miterlimit:10;stroke-width:3.9030001163482666px"/></g></svg>