<svg xmlns="http://www.w3.org/2000/svg" xmlns:xlink="http://www.w3.org/1999/xlink" width="248.7" height="242.97" viewBox="0 0 248.7 242.97"><defs><clipPath id="a"><rect width="248.7" height="242.97" fill="none"/></clipPath></defs><g transform="translate(-196 -2423.015)"><g transform="translate(320.35 2544.5)"><g transform="translate(-124.35 -121.485)" clip-path="url(#a)"><path d="M248.7,125.7A117.3,117.3,0,1,1,131.4,8.4,117.3,117.3,0,0,1,248.7,125.7" fill="#fff"/><circle cx="117.3" cy="117.3" r="117.3" transform="translate(-45.882 120) rotate(-45)" fill="none" stroke="#8abfc6" stroke-miterlimit="10" stroke-width="5.34"/></g></g><g transform="translate(317.278 2534.97)"><g transform="translate(-81.525 -73.97)"><g transform="translate(25.648 36.637)"><g transform="translate(0 0)"><path d="M152.358,98.79h-3.653V33.743H71.525V30.09h79.007a1.826,1.826,0,0,1,1.826,1.826Z" transform="translate(-14.957 -30.09)" fill="#404041"/><path d="M28.718,98.79H25.065V31.916a1.827,1.827,0,0,1,1.826-1.826H74.338v3.653H28.718Z" transform="translate(-25.065 -30.09)" fill="#404041"/><path d="M36.14,97.123H32.487V39.58a1.827,1.827,0,0,1,1.826-1.826h38.41v3.653H36.14Z" transform="translate(-23.45 -28.423)" fill="#404041"/><path d="M143.318,97.123h-3.653V41.407H71.525V37.754h69.967a1.827,1.827,0,0,1,1.826,1.826Z" transform="translate(-14.957 -28.423)" fill="#404041"/><path d="M102.558,119.916H67.36a1.826,1.826,0,0,1-1.792-2.182l3.52-17.759A1.826,1.826,0,0,1,70.879,98.5H99.038a1.828,1.828,0,0,1,1.792,1.471l3.519,17.759a1.826,1.826,0,0,1-1.791,2.182Zm-32.974-3.653h30.751l-2.8-14.107H72.379Z" transform="translate(-16.26 -15.205)" fill="#404041"/><path d="M123.8,123.335H52.565a1.827,1.827,0,0,1-1.826-1.826v-6.592a1.827,1.827,0,0,1,1.826-1.826H123.8a1.827,1.827,0,0,1,1.826,1.826v6.592A1.827,1.827,0,0,1,123.8,123.335Zm-69.4-3.653h67.578v-2.939H54.392Z" transform="translate(-19.479 -12.032)" fill="#404041"/><path d="M160.64,105.092H26.891a1.827,1.827,0,0,1-1.826-1.826V86.84a1.827,1.827,0,0,1,1.826-1.826H160.64a1.826,1.826,0,0,1,1.826,1.826v16.425A1.826,1.826,0,0,1,160.64,105.092ZM28.718,101.439h130.1V88.667H28.718Z" transform="translate(-25.065 -18.14)" fill="#404041"/><rect width="14.016" height="3.653" transform="translate(62.025 75.352)" fill="#404041"/><rect width="3.044" height="3.653" transform="translate(123.491 75.352)" fill="#404041"/><rect width="3.044" height="3.653" transform="translate(116.221 75.352)" fill="#404041"/></g></g><ellipse cx="48.029" cy="48.029" rx="48.029" ry="48.029" transform="translate(45.323)" fill="#fff"/><g transform="translate(0 6.006)"><g transform="translate(0 78.242)"><path d="M62.977,87.775l-34.8,34.8a14.839,14.839,0,0,1-20.989,0,10.9,10.9,0,0,1,0-15.41L44.778,69.576a1.31,1.31,0,0,1,1.851,0L62.977,85.925a1.308,1.308,0,0,1,0,1.851" transform="translate(-4 -69.194)" fill="none" stroke="#fff" stroke-miterlimit="10" stroke-width="9.741"/><path d="M65.979,87.775l-34.8,34.8a14.839,14.839,0,0,1-20.989,0,10.9,10.9,0,0,1,0-15.41L47.781,69.576a1.31,1.31,0,0,1,1.851,0L65.979,85.925a1.308,1.308,0,0,1,0,1.851" transform="translate(-3.346 -69.194)" fill="#a0a437"/></g><path d="M118.275,46.134a30.6,30.6,0,1,1-30.6-30.6,30.6,30.6,0,0,1,30.6,30.6" transform="translate(7.546 -2.628)" fill="#8abfc6"/><path d="M130.2,46.955A42.022,42.022,0,1,1,88.179,4.933,42.022,42.022,0,0,1,130.2,46.955Z" transform="translate(5.172 -4.933)" fill="none" stroke="#404041" stroke-miterlimit="10" stroke-width="3.281"/><path d="M118.662,45.206A32.232,32.232,0,1,1,86.43,12.974,32.232,32.232,0,0,1,118.662,45.206Z" transform="translate(6.922 -3.184)" fill="none" stroke="#404041" stroke-miterlimit="10" stroke-width="3.281"/><path d="M66.192,70.851,55.68,81.363,44.323,70.006,54.834,59.493" transform="translate(4.773 6.938)" fill="none" stroke="#404041" stroke-miterlimit="10" stroke-width="3.281"/><path d="M64.964,86.016l-35.638,35.64a13.18,13.18,0,0,1-18.639-18.64L46.325,67.378a3.362,3.362,0,0,1,4.752,0L64.964,81.264A3.36,3.36,0,0,1,64.964,86.016Z" transform="translate(-3.385 8.439)" fill="none" stroke="#404041" stroke-miterlimit="10" stroke-width="3.281"/><path d="M87.859,22.157A22.8,22.8,0,0,1,101.9,43.208" transform="translate(14.246 -1.186)" fill="none" stroke="#fff" stroke-miterlimit="10" stroke-width="3.281"/></g></g></g></g></svg>