<svg xmlns="http://www.w3.org/2000/svg" viewBox="0 0 248.66 242.97" aria-hidden="true"><defs><clipPath id="a" transform="translate(-580.53 -230.53)"><path style="fill:none" d="M580.49 230.5h248.7v242.97h-248.7z"/></clipPath></defs><g style="clip-path:url(#a)"><path d="M248.66 125.67a117.3 117.3 0 11-117.3-117.3 117.3 117.3 0 01117.3 117.3" style="fill:#fff"/><circle cx="119.97" cy="119.97" r="117.3" style="fill:none;stroke:#8abfc6;stroke-miterlimit:9.99999982885729;stroke-width:5.340000061197681px"/></g><path d="M202.77 143.29h-3.66v-65h-77.18v-3.66h79a1.83 1.83 0 011.84 1.84zM69.02 143.29h-3.65V76.47a1.82 1.82 0 011.82-1.83h47.45v3.66H69.02z" style="fill:#404041"/><path d="M78.06 143.29H74.4V85.75a1.83 1.83 0 011.83-1.83h38.41v3.66H78.06zM193.73 143.29h-3.66V87.58h-68.14v-3.66h70a1.83 1.83 0 011.83 1.83zM151.66 179.3h-35.19a1.82 1.82 0 01-1.83-1.82 2.19 2.19 0 010-.36l3.52-17.76a1.83 1.83 0 011.79-1.47h28.16a1.82 1.82 0 011.8 1.47l3.56 17.76a1.81 1.81 0 01-1.43 2.14 1.47 1.47 0 01-.36 0zm-33-3.65h30.81l-2.8-14.11h-25.2z" style="fill:#404041"/><path d="M169.69 185.9H98.47a1.83 1.83 0 01-1.82-1.83v-6.6a1.82 1.82 0 011.82-1.83h71.24a1.83 1.83 0 011.76 1.83v6.59a1.84 1.84 0 01-1.78 1.84zm-69.4-3.66h67.57v-2.94h-67.58zM200.94 161.54H67.19a1.81 1.81 0 01-1.82-1.82v-16.43a1.81 1.81 0 011.82-1.82h133.75a1.82 1.82 0 011.83 1.82v16.43a1.82 1.82 0 01-1.83 1.82zm-131.92-3.65h130.1v-12.77H69.02z" style="fill:#404041"/><path style="fill:#404041" d="M127.39 149.94h14.02v3.65h-14.02zM188.86 149.94h3.04v3.65h-3.04zM181.59 149.94h3.04v3.65h-3.04z"/><circle cx="133.07" cy="85.98" r="48.03" style="fill:#fff"/><path d="M98.69 140.78l-34.8 34.8a14.83 14.83 0 01-21 0 10.89 10.89 0 010-15.41l37.58-37.59a1.31 1.31 0 011.85 0l16.34 16.35a1.3 1.3 0 010 1.85" style="fill:none;stroke:#fff;stroke-miterlimit:10;stroke-width:9.741000175476074px"/><path d="M102.35 140.78l-34.8 34.8a14.83 14.83 0 01-21 0 10.91 10.91 0 010-15.41l37.59-37.59a1.31 1.31 0 011.85 0l16.35 16.35a1.31 1.31 0 010 1.85" style="fill:#a0a437"/><path d="M165.54 87.47a30.6 30.6 0 11-30.6-30.6 30.6 30.6 0 0130.6 30.6" style="fill:#8abfc6"/><path d="M175.09 85.98a42 42 0 11-42-42 42 42 0 0142 42z" style="fill:none;stroke:#404041;stroke-miterlimit:10;stroke-width:3.2809998989105225px"/><path d="M165.3 85.98a32.23 32.23 0 11-32.23-32.23 32.23 32.23 0 0132.23 32.23zM110.68 121.75l-10.51 10.51-11.36-11.36 10.51-10.51M101.3 138.47l-35.64 35.64a13.1804704 13.1804704 0 01-18.64-18.64l35.64-35.64a3.36 3.36 0 014.75 0l13.89 13.88a3.37 3.37 0 010 4.76z" style="fill:none;stroke:#404041;stroke-miterlimit:10;stroke-width:3.2809998989105225px"/><path d="M141.82 64.93a22.8 22.8 0 0114 21.05" style="fill:none;stroke:#fff;stroke-miterlimit:10;stroke-width:3.2809998989105225px"/></svg>