<svg xmlns="http://www.w3.org/2000/svg" viewBox="0 0 186.28 182.01"><defs><style>.cls-1{fill:#fff;}.cls-2{fill:#8abfc6;}.cls-3{fill:#a0a437;}.cls-4{fill:#404041;}</style></defs><g id="Layer_2" data-name="Layer 2"><g id="Categories_and_Icons" data-name="Categories and Icons"><circle class="cls-1" cx="98.41" cy="94.15" r="87.87"/><path class="cls-2" d="M89.87,179.74a89.87,89.87,0,1,1,89.87-89.87A90,90,0,0,1,89.87,179.74ZM89.87,4a85.87,85.87,0,1,0,85.87,85.87A86,86,0,0,0,89.87,4Z"/></g><g id="Additional_Icons" data-name="Additional Icons"><g id="SocialMedia-icon"><path class="cls-3" d="M67.53,78.52V74.87H63.89a1.5,1.5,0,0,0-1.5,1.5v9.22a2,2,0,0,0,2,2h2.35v3l3.86-3h8.67a2,2,0,0,0,2.05-2V82.07H71.08a3.56,3.56,0,0,1-3.55-3.55"/><path class="cls-2" d="M107.32,78a4.14,4.14,0,0,1-4.13,4.13H98.47v6l-7.77-6H73.23A4.14,4.14,0,0,1,69.09,78V60.58a4.15,4.15,0,0,1,4.13-4.14h30a4.15,4.15,0,0,1,4.13,4.14Z"/><path class="cls-2" d="M139,88.3a1,1,0,0,0-1.05,1v8.81a1,1,0,0,0,1.05,1h8.18a.82.82,0,0,1,.67.34l2.26,3V100a.85.85,0,0,1,.84-.84h2.52a1,1,0,0,0,1-1V89.35a1,1,0,0,0-1-1Z"/><path class="cls-4" d="M149.9,104.21a1.45,1.45,0,0,1-1.17-.6l-2.39-3.18h-7.76a2.74,2.74,0,0,1-2.73-2.73V88.89a2.74,2.74,0,0,1,2.73-2.74h14.48a2.74,2.74,0,0,1,2.73,2.74V97.7a2.74,2.74,0,0,1-2.73,2.73h-1.68v2.3a1.45,1.45,0,0,1-1,1.4,1.5,1.5,0,0,1-.47.08M138.58,87.84a1,1,0,0,0-1,1V97.7a1,1,0,0,0,1,1h8.18a.83.83,0,0,1,.68.34l2.25,3v-2.5a.85.85,0,0,1,.85-.84h2.52a1,1,0,0,0,1-1V88.89a1,1,0,0,0-1-1Z"/><path class="cls-4" d="M109.13,135.44H65.38a2.44,2.44,0,0,1-2.44-1.77,2.16,2.16,0,0,1,1.2-2.44,9.83,9.83,0,0,0,5.46-6.51,30.62,30.62,0,0,0,.4-7.65,1.37,1.37,0,0,1,1.37-1.5h31.77a1.37,1.37,0,0,1,1.37,1.5,30.89,30.89,0,0,0,.41,7.65,9.83,9.83,0,0,0,5.46,6.51,2.18,2.18,0,0,1,1.2,2.44A2.45,2.45,0,0,1,109.13,135.44Zm-42-2.76h40.32a12.06,12.06,0,0,1-5.21-7.42,31.94,31.94,0,0,1-.52-6.93H72.83a32,32,0,0,1-.53,6.93A12,12,0,0,1,67.1,132.68Z"/><path class="cls-3" d="M87.26,112.85a2.44,2.44,0,1,1,2.44-2.44A2.45,2.45,0,0,1,87.26,112.85Z"/><path class="cls-4" d="M123.93,118.33H38.17a6.76,6.76,0,0,1-6.75-6.76v-7.7a1.38,1.38,0,0,1,1.38-1.38H53.86a1.38,1.38,0,0,1,0,2.76H34.18v6.32a4,4,0,0,0,4,4h85.76a1.38,1.38,0,0,1,0,2.76Z"/><path class="cls-4" d="M123.85,105.25h-91a1.38,1.38,0,0,1-1.38-1.38V48.43a7.21,7.21,0,0,1,7.2-7.2h97.27a7.21,7.21,0,0,1,7.21,7.2V75.48a1.38,1.38,0,0,1-2.76,0V48.43A4.45,4.45,0,0,0,135.89,44H38.62a4.44,4.44,0,0,0-4.44,4.44v54.06h89.67a1.38,1.38,0,0,1,0,2.76Z"/><rect class="cls-4" x="127.5" y="120.98" width="28.44" height="2.76"/><path class="cls-4" d="M156.78,135.44H126.66a4.12,4.12,0,0,1-4.11-4.11V78.21a4.11,4.11,0,0,1,4.11-4.11h30.12a4.12,4.12,0,0,1,4.11,4.11v53.12A4.12,4.12,0,0,1,156.78,135.44ZM126.66,76.85a1.35,1.35,0,0,0-1.35,1.36v53.12a1.35,1.35,0,0,0,1.35,1.35h30.12a1.36,1.36,0,0,0,1.35-1.35V78.21a1.36,1.36,0,0,0-1.35-1.36Z"/><path class="cls-3" d="M141.72,130.59a2.33,2.33,0,1,1,2.33-2.33A2.33,2.33,0,0,1,141.72,130.59Z"/><path class="cls-4" d="M145.24,82.78h-7.05a1.38,1.38,0,1,1,0-2.76h7.05a1.38,1.38,0,0,1,0,2.76Z"/><path class="cls-4" d="M102.29,53.37h-30a6.61,6.61,0,0,0-6.6,6.6V71.74H63.5a4.17,4.17,0,0,0-4.16,4.17v9.55a4.16,4.16,0,0,0,4.16,4.16h.68v1.81a1.69,1.69,0,0,0,.93,1.51,1.82,1.82,0,0,0,.75.17,1.68,1.68,0,0,0,1-.35L71,89.62h8a4.16,4.16,0,0,0,4.16-4.16V84H89l7.77,6A2,2,0,0,0,98,90.4,2.05,2.05,0,0,0,100,88.35V84h2.25a6.61,6.61,0,0,0,6.6-6.6V60a6.61,6.61,0,0,0-6.6-6.6M80.63,85.46a1.7,1.7,0,0,1-1.7,1.7H70.14l-3.5,2.68V87.16H63.5a1.71,1.71,0,0,1-1.7-1.7V75.91a1.7,1.7,0,0,1,1.7-1.7h2.23v3.22a6.61,6.61,0,0,0,6.6,6.6h8.3Zm25.79-8a4.13,4.13,0,0,1-4.13,4.13H97.57v6l-7.77-6H72.33a4.13,4.13,0,0,1-4.13-4.13V60a4.13,4.13,0,0,1,4.13-4.13h30A4.13,4.13,0,0,1,106.42,60Z"/><path class="cls-1" d="M80.63,71.85a2.6,2.6,0,1,1,2.6-2.6A2.6,2.6,0,0,1,80.63,71.85Z"/><path class="cls-1" d="M87.26,71.85a2.6,2.6,0,1,1,2.6-2.6A2.6,2.6,0,0,1,87.26,71.85Z"/><path class="cls-1" d="M93.89,71.85a2.6,2.6,0,1,1,2.6-2.6A2.6,2.6,0,0,1,93.89,71.85Z"/><path class="cls-1" d="M142,94.51a1.4,1.4,0,1,1,1.4-1.4A1.4,1.4,0,0,1,142,94.51Z"/><path class="cls-1" d="M146,94.51a1.4,1.4,0,1,1,1.4-1.4A1.4,1.4,0,0,1,146,94.51Z"/><path class="cls-1" d="M150,94.51a1.4,1.4,0,1,1,1.4-1.4A1.4,1.4,0,0,1,150,94.51Z"/></g></g></g></svg>