<svg viewBox="0 0 248.66 242.97"><defs><clipPath id="clip-path" transform="translate(-580.53 -230.53)"><rect x="580.49" y="230.5" width="248.7" height="242.97" style="fill:none"/></clipPath><clipPath id="clip-path-2" transform="translate(-580.53 -230.53)"><rect x="621.02" y="298.52" width="167.66" height="121.98" style="fill:none"/></clipPath></defs><g id="BG_circle" data-name="BG circle"><g><g id="Group_1735" data-name="Group 1735"><path id="Path_2498" data-name="Path 2498" d="M829.19,356.2a117.3,117.3,0,1,1-117.3-117.3h0a117.3,117.3,0,0,1,117.3,117.3" transform="translate(-580.53 -230.53)" style="fill:#fff"/><circle id="Ellipse_167" data-name="Ellipse 167" cx="119.97" cy="119.97" r="117.3" style="fill:none;stroke:#8abfc6;stroke-miterlimit:9.99999982885729;stroke-width:5.340000061197681px"/></g></g></g><g id="SocialMedia-icon"><g><g id="Group_1736" data-name="Group 1736"><path id="Path_2499" data-name="Path 2499" d="M667.79,346.82v-4.76H663a1.92,1.92,0,0,0-1.92,1.92v12a2.68,2.68,0,0,0,2.68,2.69h3.08v3.84l5-3.84h11.21a2.68,2.68,0,0,0,2.69-2.69v-4.53H672.4a4.6,4.6,0,0,1-4.61-4.61h0" transform="translate(-580.53 -230.53)" style="fill:#a2a637"/><path id="Path_2500" data-name="Path 2500" d="M719.32,346.21a5.37,5.37,0,0,1-5.37,5.38H707.8v7.68l-10.06-7.76H675.16a5.37,5.37,0,0,1-5.37-5.38h0V323.55a5.36,5.36,0,0,1,5.37-5.37H714a5.37,5.37,0,0,1,5.37,5.37Z" transform="translate(-580.53 -230.53)" style="fill:#8bc0c6"/><path id="Path_2501" data-name="Path 2501" d="M760.33,359.5a1.38,1.38,0,0,0-1.38,1.38h0v11.37a1.38,1.38,0,0,0,1.38,1.38h10.6a1.08,1.08,0,0,1,.85.46L774.7,378v-3.3a1.07,1.07,0,0,1,1.07-1.08H779a1.38,1.38,0,0,0,1.38-1.38h0V360.8a1.38,1.38,0,0,0-1.38-1.38h0Z" transform="translate(-580.53 -230.53)" style="fill:#8bc0c6"/><path id="Path_2502" data-name="Path 2502" d="M774.39,380.08a1.93,1.93,0,0,1-1.54-.77l-3.07-4.15h-10a3.53,3.53,0,0,1-3.54-3.53V360.26a3.53,3.53,0,0,1,3.54-3.53h18.73a3.53,3.53,0,0,1,3.54,3.53h0v11.37a3.53,3.53,0,0,1-3.54,3.53h-2.15v3a1.91,1.91,0,0,1-1.3,1.85h-.62M759.8,358.88a1.38,1.38,0,0,0-1.39,1.38h0v11.37A1.38,1.38,0,0,0,759.8,373h10.6a1.12,1.12,0,0,1,.84.46l2.92,3.92v-3.3a1.07,1.07,0,0,1,1.07-1.07h3.23a1.38,1.38,0,0,0,1.38-1.39h0V360.26a1.37,1.37,0,0,0-1.38-1.38H759.8Z" transform="translate(-580.53 -230.53)" style="fill:#4d4d4d"/><path id="Path_2503" data-name="Path 2503" d="M693.29,396.59h20.58a40.68,40.68,0,0,0,.54,10.45c.77,3.91,3.68,7.45,8,9.67,1.23.62.62,2.08-.76,2.08H665c-1.46,0-2-1.46-.77-2.08,4.3-2.22,7.22-5.68,8-9.67a41.13,41.13,0,0,0,.53-10.45Z" transform="translate(-580.53 -230.53)" style="fill:none;stroke:#4d4d4d;stroke-linecap:round;stroke-linejoin:round;stroke-width:3.571000099182129px"/><circle id="Ellipse_168" data-name="Ellipse 168" cx="112.76" cy="157.54" r="1.38" style="fill:none;stroke:#a2a637;stroke-linecap:round;stroke-linejoin:round;stroke-width:3.571000099182129px"/><path id="Path_2504" data-name="Path 2504" d="M740.83,396.59H629.77a7,7,0,0,1-7-7v-10h27.27" transform="translate(-580.53 -230.53)" style="fill:none;stroke:#4d4d4d;stroke-linecap:round;stroke-linejoin:round;stroke-width:3.571000099182129px"/><path id="Path_2505" data-name="Path 2505" d="M740.67,379.62H622.78V307.81a7.53,7.53,0,0,1,7.53-7.53h126a7.53,7.53,0,0,1,7.53,7.53h0v35" transform="translate(-580.53 -230.53)" style="fill:none;stroke:#4d4d4d;stroke-linecap:round;stroke-linejoin:round;stroke-width:3.571000099182129px"/><line id="Line_169" data-name="Line 169" x1="201.69" y1="173.05" x2="164.9" y2="173.05" style="fill:none;stroke:#4d4d4d;stroke-miterlimit:10;stroke-width:3.571000099182129px"/><path id="Path_2506" data-name="Path 2506" d="M783.3,418.71H744.36a3.53,3.53,0,0,1-3.53-3.53V346.36a3.53,3.53,0,0,1,3.53-3.53h39a3.54,3.54,0,0,1,3.54,3.53h0v68.82a3.53,3.53,0,0,1-3.54,3.53Z" transform="translate(-580.53 -230.53)" style="fill:none;stroke:#4d4d4d;stroke-miterlimit:10;stroke-width:3.571000099182129px"/><path id="Path_2507" data-name="Path 2507" d="M765.1,411.18a1.23,1.23,0,1,0-1.23,1.23,1.22,1.22,0,0,0,1.23-1.23Z" transform="translate(-580.53 -230.53)" style="fill:none;stroke:#a2a637;stroke-miterlimit:10;stroke-width:3.571000099182129px"/><path id="Path_2508" data-name="Path 2508" d="M759.26,350.51h9.14" transform="translate(-580.53 -230.53)" style="fill:none;stroke:#4d4d4d;stroke-linecap:round;stroke-linejoin:round;stroke-width:3.571000099182129px"/><path id="Path_2509" data-name="Path 2509" d="M712.79,314.26H674a8.53,8.53,0,0,0-8.53,8.53h0V338h-2.91a5.38,5.38,0,0,0-5.38,5.38h0v12.44a5.38,5.38,0,0,0,5.38,5.38h.84v2.3a2.15,2.15,0,0,0,2,2.27,2.09,2.09,0,0,0,1.52-.5l5.3-4.07h10.29a5.38,5.38,0,0,0,5.38-5.38V354h7.6l10.06,7.68a2.59,2.59,0,0,0,1.61.53,2.68,2.68,0,0,0,2.69-2.68h0V354h2.92a8.54,8.54,0,0,0,8.53-8.53V322.79a8.52,8.52,0,0,0-8.52-8.53h0m-28,41.55a2.23,2.23,0,0,1-2.23,2.23H671.17l-4.53,3.45V358h-4.07a2.23,2.23,0,0,1-2.23-2.23h0V343.44a2.23,2.23,0,0,1,2.23-2.22h2.91v4.14a8.53,8.53,0,0,0,8.45,8.6h10.83Zm33.41-10.45a5.37,5.37,0,0,1-5.37,5.38h-6.15v7.68l-10.06-7.68H674a5.38,5.38,0,0,1-5.38-5.38h0V322.79a5.38,5.38,0,0,1,5.38-5.38h38.78a5.38,5.38,0,0,1,5.38,5.38Z" transform="translate(-580.53 -230.53)" style="fill:#4d4d4d"/><circle id="Ellipse_169" data-name="Ellipse 169" cx="104.23" cy="104.24" r="1.23" style="fill:none;stroke:#fff;stroke-miterlimit:10;stroke-width:4.2779998779296875px"/><path id="Path_2510" data-name="Path 2510" d="M694.52,334.77a1.23,1.23,0,1,0-1.23,1.23h0A1.23,1.23,0,0,0,694.52,334.77Z" transform="translate(-580.53 -230.53)" style="fill:none;stroke:#fff;stroke-miterlimit:10;stroke-width:4.2779998779296875px"/><circle id="Ellipse_170" data-name="Ellipse 170" cx="121.36" cy="104.24" r="1.23" style="fill:none;stroke:#fff;stroke-miterlimit:10;stroke-width:4.2779998779296875px"/><path id="Path_2511" data-name="Path 2511" d="M764.94,365.72a.77.77,0,1,0-.77.77.76.76,0,0,0,.77-.77Z" transform="translate(-580.53 -230.53)" style="fill:none;stroke:#fff;stroke-miterlimit:10;stroke-width:2.1500000953674316px"/><path id="Path_2512" data-name="Path 2512" d="M770.09,365.72a.77.77,0,1,0-.77.77.77.77,0,0,0,.77-.77Z" transform="translate(-580.53 -230.53)" style="fill:none;stroke:#fff;stroke-miterlimit:10;stroke-width:2.1500000953674316px"/><path id="Path_2513" data-name="Path 2513" d="M775.23,365.72a.77.77,0,1,0-.77.77.76.76,0,0,0,.77-.77Z" transform="translate(-580.53 -230.53)" style="fill:none;stroke:#fff;stroke-miterlimit:10;stroke-width:2.1500000953674316px"/></g></g></g></svg>