<svg xmlns="http://www.w3.org/2000/svg" viewBox="0 0 248.66 242.97"><defs><clipPath id="a" transform="translate(-580.53 -230.53)"><path style="fill:none" d="M580.49 230.5h248.7v242.97h-248.7z"/></clipPath></defs><g style="clip-path:url(#a)"><path d="M248.66 125.67a117.3 117.3 0 11-117.3-117.3 117.3 117.3 0 01117.3 117.3" style="fill:#fff"/><circle cx="119.97" cy="119.97" r="117.3" style="fill:none;stroke:#8abfc6;stroke-miterlimit:9.99999982885729;stroke-width:5.340000061197681px"/></g><path d="M155.13 53.34l-6 34H103.3l-6.14-34h8.5v12.82h16.3V53.34h8.39v12.82h16.29V53.34z" style="fill:#8bc0c6"/><path d="M159.07 177.79H92.61c8.81-24.51 10.36-59.38 10.5-79.63h45.44c.07 23.84 2.04 56.14 10.52 79.63z" style="fill:#a2a637"/><path d="M88.18 87.75v6.72a2.43 2.43 0 002.43 2.43h67.47a2.43 2.43 0 002.39-2.43v-6.7a2.43 2.43 0 00-2.43-2.43H90.61a2.43 2.43 0 00-2.43 2.43zm68.37 5.18H92.14v-3.65h64.41z" style="fill:#404041"/><path d="M101.63 94.9v2c-.08 20.24-1.68 55.12-10.5 79.61-.34.92-.67 1.83-1 2.71l-3.66-1.47c.17-.41.33-.83.49-1.29 9.07-24 10.67-59.27 10.76-79.62v-2zM162.24 177.75l-3.68 1.45c-.35-.88-.7-1.79-1-2.71-8.5-23.47-10.44-55.77-10.5-79.61v-1.36h3.88v1.36c.08 20 1.63 55.43 10.79 79.61a6.34 6.34 0 01.51 1.26zM154.47 47.33a3 3 0 013 3 2.56 2.56 0 010 .55l-6 34.45-.4 2.32-3.89-.68.29-1.64 5.94-34h-8.48v10.53a2.29 2.29 0 01-2.24 2.35h-11.8a2.29 2.29 0 01-2.31-2.28V51.28h-8.42v10.53a2.29 2.29 0 01-2.24 2.35H106.2a2.3 2.3 0 01-2.29-2.3V51.28h-8.54l6.13 34 .1.57-3.88.7-.22-1.3-6.21-34.41a3 3 0 012.4-3.5 3.43 3.43 0 01.56-.05h11.56a2 2 0 012 1.94v10.88h8.39v-10.8a2 2 0 012-2h12.31a2 2 0 011.93 2v10.84h8.39V49.31a2 2 0 012-2h11.64z" style="fill:#404041"/><path d="M76.79 179.16v13.83a2.65 2.65 0 002.66 2.59h89.8a2.66 2.66 0 002.59-2.59v-13.83a2.66 2.66 0 00-2.58-2.67H79.47a2.67 2.67 0 00-2.68 2.67zm91.17 12.53H80.73v-11.22h87.23z" style="fill:#404041"/></svg>