<svg xmlns="http://www.w3.org/2000/svg" viewBox="0 0 186.28 182.01"><defs><style>.cls-1{fill:#fff;}.cls-2{fill:#8abfc6;}.cls-3{fill:#8bc0c6;}.cls-4{fill:#a2a637;}.cls-5{fill:#404041;}</style></defs><g id="Layer_2" data-name="Layer 2"><g id="Categories_and_Icons" data-name="Categories and Icons"><circle class="cls-1" cx="98.41" cy="94.15" r="87.87"/><path class="cls-2" d="M89.87,179.74a89.87,89.87,0,1,1,89.87-89.87A90,90,0,0,1,89.87,179.74ZM89.87,4a85.87,85.87,0,1,0,85.87,85.87A86,86,0,0,0,89.87,4Z"/></g><g id="Additional_Icons" data-name="Additional Icons"><polygon class="cls-3" points="119.93 36.99 115.33 63.28 79.89 63.28 75.16 36.99 81.71 36.99 81.71 46.89 94.3 46.89 94.3 36.99 100.78 36.99 100.78 46.89 113.37 46.89 113.37 36.99 119.93 36.99"/><path class="cls-4" d="M123,133.1H71.63c6.82-18.92,8.05-45.86,8.12-61.49h35.1C114.9,90,116.4,115,123,133.1Z"/><path class="cls-5" d="M68.22,63.57v5.17a1.88,1.88,0,0,0,1.88,1.87h52.11a1.87,1.87,0,0,0,1.87-1.87V63.57a1.88,1.88,0,0,0-1.87-1.88H70.1A1.88,1.88,0,0,0,68.22,63.57Zm52.81,4H71.27V64.75H121Z"/><path class="cls-5" d="M78.61,69.09c0,.49,0,1,0,1.52-.07,15.64-1.3,42.58-8.11,61.5-.26.71-.52,1.41-.79,2.09l-2.84-1.12c.13-.32.25-.64.37-1,7-18.51,8.25-45.77,8.32-61.5V69.09Z"/><path class="cls-5" d="M125.45,133.08l-2.84,1.12c-.27-.68-.54-1.38-.79-2.09C115.25,114,113.75,89,113.7,70.61v-1h3v1c.06,15.48,1.25,42.82,8.32,61.5C125.19,132.44,125.32,132.76,125.45,133.08Z"/><path class="cls-5" d="M119.41,32.35a2.33,2.33,0,0,1,2.29,2.73L117,61.69l-.31,1.79-3-.52.22-1.27,4.6-26.29H112v8.13a1.77,1.77,0,0,1-1.77,1.77h-9a1.77,1.77,0,0,1-1.77-1.77V35.4H92.91v8.13a1.77,1.77,0,0,1-1.77,1.77h-9a1.78,1.78,0,0,1-1.78-1.77V35.4H73.77L78.5,61.69l.08.44-3,.54-.18-1-4.79-26.6a2.33,2.33,0,0,1,2.29-2.74h8.94a1.54,1.54,0,0,1,1.54,1.53v8.37h6.48V33.88a1.54,1.54,0,0,1,1.54-1.53h9.51a1.53,1.53,0,0,1,1.53,1.53v8.37h6.49V33.88a1.54,1.54,0,0,1,1.53-1.53Z"/><path class="cls-5" d="M59.42,134.17v10.67a2.05,2.05,0,0,0,2,2.06h69.36a2.06,2.06,0,0,0,2.06-2.06V134.17a2.06,2.06,0,0,0-2.06-2.06H61.47A2.05,2.05,0,0,0,59.42,134.17Zm70.42,9.68H62.47v-8.69h67.37Z"/></g></g></svg>