<svg id="Layer_1" data-name="Layer 1" xmlns="http://www.w3.org/2000/svg" xmlns:xlink="http://www.w3.org/1999/xlink" viewBox="0 0 106.9 78.3" aria-hidden="true"><defs><clipPath id="clip-path" transform="translate(-307.01 -320.98)"><rect class="cls-1" x="307.01" y="320.98" width="106.9" height="78.22"/></clipPath></defs><g id="Photography_CMYK" data-name="Photography CMYK"><g class="cls-2"><g id="Photography_CMYK-2" data-name="Photography CMYK-2"><path id="Path_2616" data-name="Path 2616" class="cls-1" d="M380.61,385.68a19.1,19.1,0,1,1,.21,0h-.21" transform="translate(-307.01 -320.98)"/><path id="Path_2617" data-name="Path 2617" class="cls-4" d="M406.11,329.68h-4.3l-1-5.4a4.3,4.3,0,0,0-4.1-3.3h-37.2a4.32,4.32,0,0,0-4.1,3.2l-1,5.5H333v-7.1a1.6,1.6,0,0,0-1.6-1.6h-10a1.72,1.72,0,0,0-1.6,1.6v7.1h-5a7.81,7.81,0,0,0-7.8,7.8v54a7.8,7.8,0,0,0,7.8,7.8h91.3a7.8,7.8,0,0,0,7.8-7.8h0v-54a7.8,7.8,0,0,0-7.8-7.8h0m-47.7-4.8a1.35,1.35,0,0,1,1-.7h37.3a1.31,1.31,0,0,1,1,.8l.9,4.7h-41.1Zm-35.4-.8h6.9v5.6H323Zm87.8,67.3a4.69,4.69,0,0,1-4.7,4.7h-91.3a4.7,4.7,0,0,1-4.7-4.7v-54a4.71,4.71,0,0,1,4.7-4.7h91.3a4.7,4.7,0,0,1,4.7,4.7Zm-32.7-54.3a27.4,27.4,0,1,0,27.3,27.5v-.1a27.4,27.4,0,0,0-27.3-27.4m0,51.6a24.3,24.3,0,1,1,24.2-24.4v.2a24.28,24.28,0,0,1-24.2,24.2m0-45.3a21.1,21.1,0,1,0,21.1,21.1v-.1a21.1,21.1,0,0,0-21.1-21m0,39.1a18,18,0,1,1,18-18h0a18,18,0,0,1-18,18M345,337.08h-28.4a1.51,1.51,0,0,0-1.6,1.4v10.4a1.6,1.6,0,0,0,1.6,1.6H345a1.59,1.59,0,0,0,1.6-1.6v-10.3a1.6,1.6,0,0,0-1.6-1.5m-1.5,10.3h-25.3v-7.2h25.3Z" transform="translate(-307.01 -320.98)"/><path id="Path_2618" data-name="Path 2618" class="cls-5" d="M382.31,353a14.7,14.7,0,0,1,9,13.6" transform="translate(-307.01 -320.98)"/></g></g></g></svg>