<svg xmlns="http://www.w3.org/2000/svg" xmlns:xlink="http://www.w3.org/1999/xlink" viewBox="0 0 186.28 182.01"><defs><style>.cls-1{fill:none;}.cls-2{fill:#fff;}.cls-3{fill:#8abfc6;}.cls-4{clip-path:url(#clip-path);}.cls-5{fill:#404041;}.cls-6{fill:#a2a637;}</style><clipPath id="clip-path"><circle class="cls-1" cx="91.48" cy="89.17" r="80.94"/></clipPath></defs><g id="Layer_2" data-name="Layer 2"><g id="Categories_and_Icons" data-name="Categories and Icons"><circle class="cls-2" cx="98.41" cy="94.15" r="87.87"/><path class="cls-3" d="M89.87,179.74a89.87,89.87,0,1,1,89.87-89.87A90,90,0,0,1,89.87,179.74ZM89.87,4a85.87,85.87,0,1,0,85.87,85.87A86,86,0,0,0,89.87,4Z"/><g class="cls-4"><g id="Studio"><path class="cls-3" d="M153.16,72.74a51.49,51.49,0,1,1-51.49-51.49,51.49,51.49,0,0,1,51.49,51.49"/><polyline class="cls-2" points="105.26 57.64 109.1 34.5 67.83 34.5 71.59 57.64"/><path class="cls-5" d="M105.26,59.77l-.35,0a2.14,2.14,0,0,1-1.76-2.45l3.44-20.66H70.34L73.7,57.29a2.13,2.13,0,1,1-4.21.69L65.72,34.84a2.14,2.14,0,0,1,2.11-2.48H109.1a2.15,2.15,0,0,1,2.11,2.49L107.36,58A2.12,2.12,0,0,1,105.26,59.77Z"/><polyline class="cls-2" points="105.11 89.77 128.24 95.61 128.24 54.33 105.34 57.63"/><path class="cls-5" d="M128.24,97.74a2.31,2.31,0,0,1-.52-.06l-23.14-5.85a2.13,2.13,0,0,1,1-4.13l20.48,5.17V56.79l-20.47,3a2.14,2.14,0,1,1-.61-4.23l22.91-3.3a2.14,2.14,0,0,1,2.44,2.11V95.61a2.14,2.14,0,0,1-.83,1.68A2.08,2.08,0,0,1,128.24,97.74Z"/><polyline class="cls-2" points="71.59 89.84 67.13 111.29 108.41 111.29 105.18 89.61"/><path class="cls-5" d="M108.41,113.42H67.13a2.12,2.12,0,0,1-1.65-.79,2.08,2.08,0,0,1-.43-1.78L69.5,89.41a2.13,2.13,0,1,1,4.18.87l-3.92,18.87h36.18l-2.87-19.22a2.13,2.13,0,1,1,4.22-.63L110.52,111a2.13,2.13,0,0,1-2.11,2.45Z"/><polyline class="cls-2" points="71.59 57.56 47.99 53.64 47.99 94.91 71.59 89.92"/><path class="cls-5" d="M48,97.05a2.16,2.16,0,0,1-1.35-.48,2.12,2.12,0,0,1-.79-1.66V53.64A2.14,2.14,0,0,1,46.62,52a2.11,2.11,0,0,1,1.72-.48l23.6,3.92a2.13,2.13,0,1,1-.7,4.21l-21.11-3.5V92.28l21-4.45A2.14,2.14,0,0,1,72,92l-23.6,5A2.28,2.28,0,0,1,48,97.05Z"/><rect class="cls-2" x="71.67" y="57.59" width="33.67" height="32.38"/><path class="cls-5" d="M105.34,92.1H71.67A2.13,2.13,0,0,1,69.53,90V57.59a2.14,2.14,0,0,1,2.14-2.14h33.67a2.13,2.13,0,0,1,2.13,2.14V90A2.13,2.13,0,0,1,105.34,92.1ZM73.8,87.83h29.41V59.72H73.8Z"/><rect class="cls-6" x="85.29" y="134.05" width="15.06" height="19.66"/><path class="cls-2" d="M96.71,73.78a8.21,8.21,0,1,1-8.21-8.21,8.21,8.21,0,0,1,8.21,8.21"/><path class="cls-5" d="M88.5,84.12A10.35,10.35,0,1,1,98.85,73.78,10.35,10.35,0,0,1,88.5,84.12Zm0-16.42a6.08,6.08,0,1,0,6.08,6.08A6.08,6.08,0,0,0,88.5,67.7Z"/><path class="cls-5" d="M67.36,176.86a2.08,2.08,0,0,1-1-.27,2.13,2.13,0,0,1-.84-2.9L79.1,149a2.13,2.13,0,1,1,3.74,2.06L69.23,175.75A2.12,2.12,0,0,1,67.36,176.86Z"/><path class="cls-5" d="M110.68,177.87a2.14,2.14,0,0,1-1.88-1.11L94.55,150.82a2.13,2.13,0,0,1,3.74-2l14.25,25.94a2.14,2.14,0,0,1-.84,2.9A2.24,2.24,0,0,1,110.68,177.87Z"/><path class="cls-5" d="M88.35,129.56h0a2.13,2.13,0,0,1-2.1-2.16l.23-15.68a2.13,2.13,0,1,1,4.26.06l-.23,15.68A2.13,2.13,0,0,1,88.35,129.56Z"/><path class="cls-5" d="M88.58,180.4a2.13,2.13,0,0,1-2.13-2.13v-28a2.13,2.13,0,1,1,4.26,0v28A2.13,2.13,0,0,1,88.58,180.4Z"/><path class="cls-5" d="M96.42,151.7H81.2a2.13,2.13,0,0,1-2.13-2.14V129.73a2.13,2.13,0,0,1,2.13-2.13H96.42a2.13,2.13,0,0,1,2.13,2.13v19.83A2.13,2.13,0,0,1,96.42,151.7Zm-13.08-4.27h11V131.87h-11Z"/></g></g></g></g></svg>