<svg viewBox="0 0 117.47 195.96" aria-hidden="true"><g data-name="Layer 2"><g data-name="Additional Icons"><circle class="cls-1" cx="70.66" cy="46.81" r="46.81"/><polyline class="cls-5" points="73.92 33.08 77.42 12.04 39.89 12.04 43.31 33.08"/><path class="cls-3" d="M43.31,35a1.94,1.94,0,0,1-1.91-1.63L38,12.35a2,2,0,0,1,1.92-2.25H77.42a1.93,1.93,0,0,1,1.48.69,2,2,0,0,1,.43,1.57l-3.49,21A1.94,1.94,0,0,1,72,32.76L75.13,14h-33l3.06,18.79A1.94,1.94,0,0,1,43.62,35,1.63,1.63,0,0,1,43.31,35Z"/><polyline class="cls-5" points="73.78 62.29 94.82 67.6 94.82 30.07 73.99 33.08"/><path class="cls-3" d="M94.82,69.54a2,2,0,0,1-.48-.06l-21-5.31a1.94,1.94,0,1,1,1-3.76l18.62,4.7V32.31L74.27,35a1.94,1.94,0,1,1-.56-3.84l20.83-3a1.95,1.95,0,0,1,2.22,1.92V67.6A1.93,1.93,0,0,1,96,69.13,1.91,1.91,0,0,1,94.82,69.54Z"/><polyline class="cls-5" points="43.31 62.36 39.26 81.86 76.79 81.86 73.85 62.15"/><path class="cls-3" d="M76.79,83.8H39.26a1.94,1.94,0,0,1-1.9-2.34l4-19.49a1.94,1.94,0,1,1,3.8.79L41.64,79.92h32.9L71.93,62.44a1.94,1.94,0,0,1,3.84-.58l2.94,19.71a1.95,1.95,0,0,1-1.92,2.23Z"/><polyline class="cls-5" points="43.31 33.01 21.86 29.44 21.86 66.97 43.31 62.43"/><path class="cls-3" d="M21.86,68.91A1.94,1.94,0,0,1,19.92,67V29.44A1.92,1.92,0,0,1,20.6,28a2,2,0,0,1,1.57-.44l21.46,3.56A1.94,1.94,0,1,1,43,34.92L23.8,31.73V64.58l19.11-4a1.94,1.94,0,1,1,.8,3.8L22.26,68.87A1.81,1.81,0,0,1,21.86,68.91Z"/><rect class="cls-5" x="43.38" y="33.03" width="30.62" height="29.44"/><path class="cls-3" d="M74,64.41H43.38a1.94,1.94,0,0,1-1.94-1.94V33a1.94,1.94,0,0,1,1.94-1.94H74A1.94,1.94,0,0,1,75.94,33V62.47A1.94,1.94,0,0,1,74,64.41ZM45.32,60.53H72.05V35H45.32Z"/><rect class="cls-2" x="55.76" y="102.56" width="13.69" height="17.88"/><circle class="cls-5" cx="58.69" cy="47.75" r="7.46"/><path class="cls-3" d="M58.69,57.16a9.41,9.41,0,1,1,9.4-9.41A9.42,9.42,0,0,1,58.69,57.16Zm0-14.93a5.53,5.53,0,1,0,5.52,5.52A5.53,5.53,0,0,0,58.69,42.23Z"/><path class="cls-3" d="M9.91,195.13a2,2,0,0,1-.94-.24,1.94,1.94,0,0,1-.76-2.64l41.93-76.11a1.94,1.94,0,0,1,3.4,1.88l-41.93,76.1A2,2,0,0,1,9.91,195.13Z"/><path class="cls-3" d="M107.82,195.13a1.94,1.94,0,0,1-1.7-1L64.18,117.81a2,2,0,0,1,.77-2.64,1.93,1.93,0,0,1,2.63.77l41.94,76.31a2,2,0,0,1-.77,2.64A2,2,0,0,1,107.82,195.13Z"/><path class="cls-3" d="M17.87,196H1.94a1.94,1.94,0,1,1,0-3.88H17.87a1.94,1.94,0,1,1,0,3.88Z"/><path class="cls-3" d="M66.51,196H50.58a1.94,1.94,0,0,1,0-3.88H66.51a1.94,1.94,0,1,1,0,3.88Z"/><path class="cls-3" d="M115.36,196H99.43a1.94,1.94,0,0,1,0-3.88h15.93a1.94,1.94,0,0,1,0,3.88Z"/><path class="cls-3" d="M58.55,98.48h0a1.93,1.93,0,0,1-1.91-2l.21-14.26a2,2,0,0,1,2-1.91,1.94,1.94,0,0,1,1.91,2l-.21,14.25A2,2,0,0,1,58.55,98.48Z"/><path class="cls-3" d="M58.76,194.92A1.94,1.94,0,0,1,56.82,193V117.29a1.94,1.94,0,1,1,3.88,0V193A1.94,1.94,0,0,1,58.76,194.92Z"/><path class="cls-3" d="M65.88,118.6H52.05a1.94,1.94,0,0,1-1.94-1.94v-18a1.94,1.94,0,0,1,1.94-1.94H65.88a1.94,1.94,0,0,1,2,1.94v18A1.94,1.94,0,0,1,65.88,118.6ZM54,114.72h9.95V100.57H54Z"/></g></g></svg>