<svg viewBox="0 0 857.31 76.15" aria-hidden="true"><defs><style>.cls-1{fill:#d21437;}.cls-2{fill:#fff;}</style></defs><rect class="cls-1" x="553.13" y="9.14" width="304.18" height="67.01"/><path class="cls-2" d="M32.67,63.36a21.82,21.82,0,0,1-10.44,2.47c-7.41,0-11.91-2.53-15.45-5.89A21,21,0,0,1,0,43.79,22.06,22.06,0,0,1,6.78,27.27c4.24-4,9.49-5.58,15.51-5.58a21.2,21.2,0,0,1,10.38,2.6v9.63a13.55,13.55,0,0,0-10.19-4.75c-8.48,0-14,7-14,14.75,0,9.37,7.21,14.44,14.31,14.44a12.77,12.77,0,0,0,9.87-4.62Z"/><path class="cls-2" d="M64.53,40.44a14.77,14.77,0,0,1,0,21.46c-2.34,2.16-5.89,3.87-11.08,3.87s-8.74-1.71-11.08-3.87a14.75,14.75,0,0,1,0-21.46c2.34-2.16,5.88-3.87,11.08-3.87S62.19,38.28,64.53,40.44ZM61.17,51.2a7.73,7.73,0,1,0-7.72,7.73A7.65,7.65,0,0,0,61.17,51.2Z"/><path class="cls-2" d="M75.11,37.46h7.72v3.1a10.09,10.09,0,0,1,8.17-4c5.76,0,8,3.61,8.68,5a10.07,10.07,0,0,1,8.8-5,8.72,8.72,0,0,1,7.41,3.36c1.77,2.34,1.9,4.69,1.9,7.73V64.88h-7.73V49.94c0-3.23-.7-4.69-1.27-5.39a3.88,3.88,0,0,0-3.16-1.39,4.52,4.52,0,0,0-4.24,2.41,10.35,10.35,0,0,0-1.08,5.32v14H92.58V49.94c0-3.23-.69-4.69-1.26-5.39a3.91,3.91,0,0,0-3.17-1.39,4.52,4.52,0,0,0-4.24,2.41,10.35,10.35,0,0,0-1.08,5.32v14H75.11Z"/><path class="cls-2" d="M125.13,37.46h7.73v3.1a10.09,10.09,0,0,1,8.17-4c5.76,0,8,3.61,8.67,5a10.1,10.1,0,0,1,8.81-5,8.72,8.72,0,0,1,7.41,3.36c1.77,2.34,1.89,4.69,1.89,7.73V64.88h-7.72V49.94c0-3.23-.7-4.69-1.27-5.39a3.88,3.88,0,0,0-3.16-1.39,4.55,4.55,0,0,0-4.25,2.41,10.43,10.43,0,0,0-1.07,5.32v14h-7.73V49.94c0-3.23-.69-4.69-1.27-5.39a3.88,3.88,0,0,0-3.16-1.39,4.52,4.52,0,0,0-4.24,2.41,10.35,10.35,0,0,0-1.08,5.32v14h-7.73Z"/><path class="cls-2" d="M182.89,37.46V53a6.14,6.14,0,0,0,1.65,4.81,6.24,6.24,0,0,0,7.85,0A6.17,6.17,0,0,0,194,53V37.46h7.73V54.24c0,2.47-.32,5.76-3.36,8.42-2.53,2.22-6.58,3.11-9.94,3.11s-7.41-.89-9.94-3.11c-3-2.66-3.36-5.95-3.36-8.42V37.46Z"/><path class="cls-2" d="M209.11,37.46h7.72V41a10.07,10.07,0,0,1,8.49-4.44c2.4,0,6,.7,8.1,3.36,1.9,2.34,2.16,5.07,2.16,7.73V64.88h-7.73V49.94c0-1.52-.06-3.93-1.46-5.39a5,5,0,0,0-3.61-1.39A5.25,5.25,0,0,0,218,45.57a9.43,9.43,0,0,0-1.21,5.32v14h-7.72Z"/><path class="cls-2" d="M246.79,21.25a4.63,4.63,0,1,1-4.63,4.62A4.65,4.65,0,0,1,246.79,21.25Zm3.86,16.21V64.88h-7.73V37.46Z"/><path class="cls-2" d="M278.64,45.82a8.91,8.91,0,0,0-6.33-2.41c-5.13,0-7.73,3.74-7.73,7.73a7.64,7.64,0,0,0,8,7.79,9,9,0,0,0,6.08-2.41v7.54a15.67,15.67,0,0,1-7.09,1.71,15.5,15.5,0,0,1-10.58-4,14.1,14.1,0,0,1-4.37-10.51,14.14,14.14,0,0,1,14.63-14.7,16.33,16.33,0,0,1,7.41,1.65Z"/><path class="cls-2" d="M305.49,37.46h7.72V64.88h-7.72V61.33a9.85,9.85,0,0,1-8.42,4.44c-8.42,0-14-6.59-14-14.63s5.51-14.57,13.62-14.57a9.92,9.92,0,0,1,8.8,4.44ZM291.05,51.14a7.6,7.6,0,1,0,15.2,0,7.6,7.6,0,1,0-15.2,0Z"/><path class="cls-2" d="M328.29,44.05V64.88h-7.73V44.05h-3V37.46h3V28.09h7.73v9.37h5.32v6.59Z"/><path class="cls-2" d="M341.52,21.25a4.63,4.63,0,1,1-4.62,4.62A4.65,4.65,0,0,1,341.52,21.25Zm3.87,16.21V64.88h-7.73V37.46Z"/><path class="cls-2" d="M378.12,40.44a14.75,14.75,0,0,1,0,21.46c-2.34,2.16-5.88,3.87-11.08,3.87S358.3,64.06,356,61.9a14.77,14.77,0,0,1,0-21.46c2.34-2.16,5.89-3.87,11.08-3.87S375.78,38.28,378.12,40.44ZM374.77,51.2A7.73,7.73,0,1,0,367,58.93,7.65,7.65,0,0,0,374.77,51.2Z"/><path class="cls-2" d="M388.7,37.46h7.73V41a10,10,0,0,1,8.48-4.44c2.41,0,6,.7,8.11,3.36,1.9,2.34,2.15,5.07,2.15,7.73V64.88h-7.72V49.94c0-1.52-.07-3.93-1.46-5.39a5,5,0,0,0-3.61-1.39,5.27,5.27,0,0,0-4.75,2.41,9.41,9.41,0,0,0-1.2,5.32v14H388.7Z"/><path class="cls-2" d="M438.82,58.48c.55-1.32,1.34-3.46,2.35-6.42s2.15-5.88,3.44-8.77,2.63-4.54,4-5H449c1.18,0,2.09,1.25,2.71,3.76q.84,5,1.57,8.46c.49,1.67,1,3.3,1.57,4.91a6.58,6.58,0,0,0,1.56,2.92c1.39-1.11,2.56-3.12,3.5-6a35.11,35.11,0,0,0,1.62-9.46q.21-5.12.31-9.19v-.31c0-1.11.28-1.81.84-2.09a3.19,3.19,0,0,1,1.25-.42h.21a3.08,3.08,0,0,1,.73.11c.49.35.8,1.25.94,2.71.07.7.11,1.47.11,2.3s0,1.57-.11,2.4Q465,50.24,462.11,56.5a12,12,0,0,1-1.94,3.19,5.18,5.18,0,0,1-3.29,1.72h-.52A3.51,3.51,0,0,1,453.75,60a15.13,15.13,0,0,1-2.24-3.71,19.19,19.19,0,0,1-1.41-4.65c-.35-1.46-.67-3.11-.94-5a29,29,0,0,0-.73-3.71q-.74.63-1.94,4.08t-2.19,6c-.66,1.74-1.24,3.21-1.72,4.39L442,59a24.46,24.46,0,0,1-1.36,2.71,3.75,3.75,0,0,1-2.92,1.78h-.21a3.44,3.44,0,0,1-2.72-1.88,14.66,14.66,0,0,1-2.08-8.25v-.94a52.19,52.19,0,0,1,.94-7.21,46,46,0,0,1,2.19-7.52c.21-.49.42-.94.63-1.36a3.75,3.75,0,0,1,.94-1.14,1.5,1.5,0,0,1,.93-.32H439A3,3,0,0,1,440.28,36a2.34,2.34,0,0,1,.21,1l-.11.62a37.55,37.55,0,0,1-1,5.75,60.94,60.94,0,0,0-1.78,9.29c-.07.7-.1,1.32-.1,1.88v1.05a11.36,11.36,0,0,0,.21,2.4c.14.69.31,1,.52,1S438.61,58.9,438.82,58.48Z"/><path class="cls-2" d="M475.06,57.65a27.14,27.14,0,0,0,4.17-4.75c1.6-2.2,3.14-4.37,4.6-6.53.83-1.32,1.67-2.54,2.5-3.66a1.76,1.76,0,0,1,1.26-.73,1.08,1.08,0,0,1,.62.21,1,1,0,0,1,.63.94,1.57,1.57,0,0,1-.42.94,36.64,36.64,0,0,0-2.09,3.24Q484.67,50,482.63,53a64.71,64.71,0,0,1-4,5.17,9.61,9.61,0,0,1-3.29,2.77,5,5,0,0,1-1.36.21A3.72,3.72,0,0,1,471.3,60a9.5,9.5,0,0,1-2.14-4.23,18,18,0,0,1-.68-4.34V49.19a17.15,17.15,0,0,1,.31-3.55,31.85,31.85,0,0,1,2-7.52c.35-.91.72-1.45,1.1-1.62a2.51,2.51,0,0,1,1-.26,3.65,3.65,0,0,1,1.15.21c.7.21,1.11.49,1.25.83a2.6,2.6,0,0,1,.21.94,5.87,5.87,0,0,1-.21,1.36,36.37,36.37,0,0,0-1.35,7.05c-.14,2-.21,3.46-.21,4.44a24.73,24.73,0,0,0,.21,3.45C474.18,56.26,474.57,57.3,475.06,57.65Zm-.74-30.18a12.37,12.37,0,0,1,.84-3.87,1.28,1.28,0,0,1,1.15-.83,1.67,1.67,0,0,1,.52.1c.63.21.94.56.94,1.05a2,2,0,0,1-.1.62c-.14.49-.28.94-.42,1.36q-.31,1.05-.63,2a1.6,1.6,0,0,1-.42.84,1.09,1.09,0,0,1-.83.31,1,1,0,0,1-.73-.47,1.52,1.52,0,0,1-.21-.78A.82.82,0,0,1,474.32,27.47Z"/><path class="cls-2" d="M491.76,68.51a36.92,36.92,0,0,0,6-7.26,57.52,57.52,0,0,0,5.06-9.61q2.1-5.05,3.66-9.24a1.08,1.08,0,0,1,1-.63h.32a1.47,1.47,0,0,1,1,.42,1,1,0,0,1,.21.52,2.3,2.3,0,0,1-.1.63,56.75,56.75,0,0,1-3.4,10,55.11,55.11,0,0,1-6.89,12.16q-4.12,5.49-7.16,6.22h-.31a3.61,3.61,0,0,1-3.13-1.67,11.38,11.38,0,0,1-1.78-4.23,29.88,29.88,0,0,1-.62-4.55c-.21-2.5-.32-5-.32-7.51a95.71,95.71,0,0,1,.73-11.7,116.92,116.92,0,0,1,3.66-18.8,5.52,5.52,0,0,0,.31-1.15,13.2,13.2,0,0,0,.84-3.55H475.37a4.5,4.5,0,0,1-1.78-.31,1.29,1.29,0,0,1-.83-.68,2.07,2.07,0,0,1-.21-.79,1.12,1.12,0,0,1,.21-.62,1.32,1.32,0,0,1,1-.84,44.72,44.72,0,0,1,7.26-.36q4.65,0,7.15.15h.73a4.09,4.09,0,0,0,3.66-1.56,14,14,0,0,0,1.67-3.66,12.13,12.13,0,0,1,.63-2.09,2,2,0,0,1,2-1.36h.31c1.33,0,2,.49,2,1.47a3.32,3.32,0,0,1-.11.83,21.63,21.63,0,0,1-1,3l-.42,1.25a1.61,1.61,0,0,0-.21.63c0,.77.56,1.19,1.67,1.25l12.75.21a37.52,37.52,0,0,1,4,.21,4.6,4.6,0,0,1,.84.11,23.16,23.16,0,0,1,2.51.15,8.88,8.88,0,0,1,2.35.58,1.35,1.35,0,0,1,1,1.25,1.44,1.44,0,0,1-1.05.89,5.36,5.36,0,0,1-1.56.26h-1.67q-7.43-.21-14.83-.21H498a2.51,2.51,0,0,0-2.72,2.3c-.69,2.23-1.55,5.32-2.55,9.29a98.47,98.47,0,0,0-2.3,12.33,98.24,98.24,0,0,0-.79,11.9c0,1.19,0,2.4.11,3.66Q490,65.16,491.76,68.51Z"/><path class="cls-2" d="M520.17,0h.21q1.77,0,3,2.19a7.81,7.81,0,0,1,.83,3.24l.11,1q0,8.57-9,26.53a78.86,78.86,0,0,1-4.08,7.31q-2.19,2.82-2.19,3.87Q509,49,509,52c0,2,0,3.45.1,4.28a64.92,64.92,0,0,1,4.18-7.94,25.52,25.52,0,0,1,3.34-4.59c2.85-3.27,5-4.91,6.37-4.91a2.67,2.67,0,0,1,2.61,2.09,6.5,6.5,0,0,1,.52,2.4c0,.63-.1,2.06-.31,4.28q-1.26,10.46-1.25,13.68v.84c.14,1.74.41,2.61.83,2.61s.8-.63,1.57-1.88q1.66-3,8.56-19.42a1.7,1.7,0,0,1,1.57-1.26c.69.14,1,.46,1,.94l.11.21a4.51,4.51,0,0,1-.73,2.09Q532.69,58,530.09,63a31,31,0,0,1-2.71,4,2.92,2.92,0,0,1-2.09,1.15,3.77,3.77,0,0,1-2.3-1.25c-1.11-1.32-1.78-3.48-2-6.48V58.28a103.21,103.21,0,0,1,1.35-14.21,7.54,7.54,0,0,0,.11-1.25c0-.35-.07-.52-.21-.52l-.21.1c-1.11.56-2.79,2.56-5,6a58.32,58.32,0,0,0-6,12.79c-.76,1.95-1.6,2.92-2.5,2.92h-.11q-1.77,0-3-4.38A15.43,15.43,0,0,1,505,56.5l-.11-1c-.07-1.33-.1-2.75-.1-4.29A145.41,145.41,0,0,1,506.38,32a112.17,112.17,0,0,1,3.76-15.88A83.87,83.87,0,0,1,514.63,4.7Q517.77,0,520.17,0ZM509.83,37.6q4.38-9,6.89-14.83,4.71-11.07,4.7-16.61l-.1-.83a9.56,9.56,0,0,0-.52-2.2,7.33,7.33,0,0,0-2.61,2.93q-2.72,4.59-5.33,14.41a106.18,106.18,0,0,0-2.61,11.8,38.9,38.9,0,0,0-.42,4.7Z"/><path class="cls-2" d="M579.44,44A6.38,6.38,0,0,0,575,42.15c-1.84,0-3,.88-3,2.21,0,.7.32,1.78,2.47,2.47l1.84.57c2.15.7,5.38,1.78,7,3.93a7.91,7.91,0,0,1,1.4,4.56,9.11,9.11,0,0,1-3,7,11.52,11.52,0,0,1-8.24,2.92,13.87,13.87,0,0,1-10.63-4.56l4-4.69a8.52,8.52,0,0,0,6.08,3.17c2.15,0,3.8-1.08,3.8-3,0-1.71-1.4-2.41-2.41-2.79l-1.77-.63A14.69,14.69,0,0,1,566.59,50a7.35,7.35,0,0,1-2.09-5.26,8.14,8.14,0,0,1,2.85-6.2c2.15-1.71,4.94-2,7.15-2a13.68,13.68,0,0,1,8.74,2.92Z"/><path class="cls-2" d="M597.81,37.46V53a6.18,6.18,0,0,0,1.65,4.81,6.24,6.24,0,0,0,7.85,0A6.17,6.17,0,0,0,609,53V37.46h7.73V54.24c0,2.47-.32,5.76-3.36,8.42-2.53,2.22-6.58,3.11-9.94,3.11s-7.41-.89-9.94-3.11c-3-2.66-3.36-5.95-3.36-8.42V37.46Z"/><path class="cls-2" d="M631.75,41a10.65,10.65,0,0,1,8.93-4.44c8.11,0,13.49,6.27,13.49,14.57s-5.57,14.63-13.68,14.63a10.37,10.37,0,0,1-8.74-4.44v3.55H624V18.72h7.72ZM631,51.14a7.6,7.6,0,1,0,15.2,0,7.6,7.6,0,1,0-15.2,0Z"/><path class="cls-2" d="M675.07,44a6.41,6.41,0,0,0-4.5-1.83c-1.83,0-3,.88-3,2.21,0,.7.32,1.78,2.47,2.47l1.84.57c2.15.7,5.38,1.78,7,3.93a8,8,0,0,1,1.39,4.56,9.08,9.08,0,0,1-3,7A11.51,11.51,0,0,1,669,65.77a13.88,13.88,0,0,1-10.64-4.56l4-4.69a8.52,8.52,0,0,0,6.08,3.17c2.15,0,3.8-1.08,3.8-3,0-1.71-1.39-2.41-2.4-2.79l-1.78-.63A14.75,14.75,0,0,1,662.21,50a7.39,7.39,0,0,1-2.09-5.26,8.14,8.14,0,0,1,2.85-6.2c2.16-1.71,4.94-2,7.16-2a13.71,13.71,0,0,1,8.74,2.92Z"/><path class="cls-2" d="M693.43,44.05V64.88h-7.72V44.05h-3V37.46h3V28.09h7.72v9.37h5.32v6.59Z"/><path class="cls-2" d="M723.83,37.46h7.72V64.88h-7.72V61.33a9.85,9.85,0,0,1-8.42,4.44c-8.43,0-14-6.59-14-14.63S706.92,36.57,715,36.57a9.92,9.92,0,0,1,8.8,4.44ZM709.39,51.14a7.6,7.6,0,1,0,15.2,0,7.6,7.6,0,1,0-15.2,0Z"/><path class="cls-2" d="M738.9,37.46h7.73V41a10,10,0,0,1,8.48-4.44c2.41,0,5.95.7,8.11,3.36,1.9,2.34,2.15,5.07,2.15,7.73V64.88h-7.73V49.94c0-1.52-.06-3.93-1.45-5.39a5,5,0,0,0-3.61-1.39,5.27,5.27,0,0,0-4.75,2.41,9.41,9.41,0,0,0-1.2,5.32v14H738.9Z"/><path class="cls-2" d="M793.36,45.82A8.91,8.91,0,0,0,787,43.41c-5.13,0-7.73,3.74-7.73,7.73a7.64,7.64,0,0,0,8,7.79,9,9,0,0,0,6.08-2.41v7.54a15.84,15.84,0,0,1-17.67-2.28,14.1,14.1,0,0,1-4.37-10.51A14.14,14.14,0,0,1,786,36.57a16.33,16.33,0,0,1,7.41,1.65Z"/><path class="cls-2" d="M826.1,57.22c-.82,2-3.93,8.55-13.49,8.55-4.43,0-7.79-1.27-10.51-3.87a13.81,13.81,0,0,1-4.31-10.7A14.61,14.61,0,0,1,802,40.44a14,14,0,0,1,10.33-3.87c5.57,0,8.8,2.22,10.7,4.5,2.91,3.48,3.29,7.79,3.29,10.76v.64H805.77a8.12,8.12,0,0,0,1.33,4.62,6.55,6.55,0,0,0,5.51,2.6,7.08,7.08,0,0,0,6.4-3.61ZM819,47.53a6.58,6.58,0,0,0-13,0Z"/><path class="cls-2" d="M838.51,55.83a4.94,4.94,0,1,1-4.93,4.93A4.86,4.86,0,0,1,838.51,55.83Z"/><path class="cls-2" d="M830.15,27.26a4.25,4.25,0,0,0,3.1,1.36c1.42,0,2-.7,2-1.34,0-.89-1.05-1.15-2.24-1.46-1.61-.4-3.49-.87-3.49-2.95,0-1.62,1.43-2.87,3.58-2.87a5.12,5.12,0,0,1,3.68,1.37l-1,1.28a4,4,0,0,0-2.84-1.12c-1,0-1.66.49-1.66,1.22s1,1,2.16,1.32c1.62.41,3.55.91,3.55,3,0,1.64-1.15,3-3.8,3a5.29,5.29,0,0,1-4-1.56Z"/><path class="cls-2" d="M847.05,22.53,844,30h-.73l-3-7.44V30h-1.72V20.15H841l2.66,6.61,2.68-6.61h2.43V30h-1.72Z"/></svg>