<svg xmlns="http://www.w3.org/2000/svg" viewBox="0 0 186.28 182.01"><defs><style>.cls-1{fill:#fff;}.cls-2{fill:#8abfc6;}.cls-3{fill:#a0a437;}.cls-4{fill:#404041;}</style></defs><g id="Layer_2" data-name="Layer 2"><g id="Categories_and_Icons" data-name="Categories and Icons"><circle class="cls-1" cx="98.41" cy="94.15" r="87.87"/><path class="cls-2" d="M89.87,179.74a89.87,89.87,0,1,1,89.87-89.87A90,90,0,0,1,89.87,179.74ZM89.87,4a85.87,85.87,0,1,0,85.87,85.87A86,86,0,0,0,89.87,4Z"/></g><g id="Additional_Icons" data-name="Additional Icons"><rect class="cls-2" x="85.82" y="92.72" width="17.12" height="9.62"/><path class="cls-3" d="M141,63.24H122.38a30.48,30.48,0,0,1-7.32,14.2,36.49,36.49,0,0,1-3.65,4c-3,2.91-4.53,4.6-4.52,8v3.38a4.7,4.7,0,0,1,0,7.62v1.62a4.79,4.79,0,0,1-4.8,4.79H82.29a4.79,4.79,0,0,1-4.8-4.79v-1.62a4.71,4.71,0,0,1,0-7.62V90.4a4.46,4.46,0,0,1,0-.82c0-3.52-1.51-5.22-4.51-8.16a36.94,36.94,0,0,1-3.67-4,31.43,31.43,0,0,1-2.68-3.39A30.73,30.73,0,0,1,62,63.24H51.6a1.37,1.37,0,0,0-1.37,1.38v52.72a1.37,1.37,0,0,0,1.37,1.38H141a1.38,1.38,0,0,0,1.38-1.38V64.62A1.38,1.38,0,0,0,141,63.24Z"/><path class="cls-4" d="M147.86,125.2a1.68,1.68,0,0,1-1.68-1.68V54.84a2.08,2.08,0,0,0-2.08-2.08H122.76a1.68,1.68,0,0,1,0-3.36H144.1a5.45,5.45,0,0,1,5.44,5.44v68.68A1.68,1.68,0,0,1,147.86,125.2Z"/><path class="cls-4" d="M37.73,125.36a1.68,1.68,0,0,1-1.68-1.68V54.84a5.45,5.45,0,0,1,5.44-5.44H61.73a1.68,1.68,0,0,1,0,3.36H41.49a2.08,2.08,0,0,0-2.08,2.08v68.84A1.68,1.68,0,0,1,37.73,125.36Z"/><path class="cls-4" d="M138.85,116.91H46.74a1.68,1.68,0,0,1-1.68-1.68V59.75a1.68,1.68,0,0,1,1.68-1.68H61.08a1.68,1.68,0,0,1,0,3.36H48.42v52.12h88.75V61.43H124.76a1.68,1.68,0,0,1,0-3.36h14.09a1.68,1.68,0,0,1,1.68,1.68v55.48A1.68,1.68,0,0,1,138.85,116.91Z"/><path class="cls-4" d="M148.5,136.36H37.08c-3.68,0-8.11-3.65-8.61-4.06a1.61,1.61,0,0,1-.56-1.21v-6.76a1.58,1.58,0,0,1,1.58-1.58H156.1a1.58,1.58,0,0,1,1.58,1.58v6.76a1.61,1.61,0,0,1-.56,1.21C156.62,132.71,152.19,136.36,148.5,136.36Zm-117.43-6c1.65,1.26,4.31,2.87,6,2.87H148.5c1.86,0,4.63-1.82,6-2.87v-4.42H31.07Z"/><path class="cls-4" d="M102.09,103.49H82.29a1.45,1.45,0,0,1-1.44-1.44V89.68a1.44,1.44,0,0,1,1.44-1.44h19.8a1.43,1.43,0,0,1,1.44,1.44v12.37A1.44,1.44,0,0,1,102.09,103.49Zm-18.36-2.88h16.92V91.12H83.73Z"/><path class="cls-4" d="M102.09,91.12H82.24a1.43,1.43,0,0,1-1-.44,1.4,1.4,0,0,1-.41-1c.08-5.15-2.64-7.81-5.53-10.64a33,33,0,0,1-3.43-3.72,29.09,29.09,0,0,1-2.49-3.14,27.57,27.57,0,0,1,22.81-43h.16a27.56,27.56,0,0,1,22.66,43,26.87,26.87,0,0,1-2.51,3.15A32.11,32.11,0,0,1,109,79c-2.87,2.83-5.59,5.49-5.51,10.64a1.4,1.4,0,0,1-.41,1A1.43,1.43,0,0,1,102.09,91.12ZM83.64,88.24h17c.4-5.46,3.54-8.54,6.34-11.28a30.79,30.79,0,0,0,3.18-3.45l.1-.12a25,25,0,0,0,2.28-2.87A24.67,24.67,0,0,0,92.2,32h-.13A24.69,24.69,0,0,0,71.73,70.53,26.23,26.23,0,0,0,74,73.39l.1.12A30.79,30.79,0,0,0,77.29,77C80.09,79.7,83.23,82.78,83.64,88.24Z"/><path class="cls-4" d="M103.88,98.06H80.51a1.52,1.52,0,0,1-1.6-1.44h0a1.53,1.53,0,0,1,1.6-1.44h23.37a1.53,1.53,0,0,1,1.6,1.44h0A1.53,1.53,0,0,1,103.88,98.06Z"/><path class="cls-4" d="M98.44,89.68H95.56V64.85h-6.8V89.68H85.88V64.85H84.31a4.45,4.45,0,1,1,4.45-4.45V62h6.8V60.4A4.45,4.45,0,1,1,100,64.85H98.44Zm0-27.71H100a1.57,1.57,0,1,0-1.57-1.57ZM84.31,58.84a1.57,1.57,0,1,0,0,3.13h1.57V60.4A1.56,1.56,0,0,0,84.31,58.84Z"/></g></g></svg>