<svg viewBox="0 0 186.28 182.01"><defs></defs><g id="Layer_2" data-name="Layer 2"><g id="Categories_and_Icons" data-name="Categories and Icons"><circle class="cls-5" cx="98.41" cy="94.15" r="87.87"/><path class="cls-1" d="M89.87,179.74a89.87,89.87,0,1,1,89.87-89.87A90,90,0,0,1,89.87,179.74ZM89.87,4a85.87,85.87,0,1,0,85.87,85.87A86,86,0,0,0,89.87,4Z"/><polygon class="cls-2" points="91 80.12 91 101.56 108.87 90.84 91 80.12"/><path class="cls-4" d="M145.57,116.48H47a2,2,0,0,1-2-2V56.63a2,2,0,0,1,2-2h98.55a2,2,0,0,1,2,2v57.85A2,2,0,0,1,145.57,116.48Zm-96.55-4h94.55V58.63H49Z"/><path class="cls-4" d="M87.73,101.48a2,2,0,0,1-2-2V73.77a2,2,0,0,1,3-1.71l21.43,12.86a2,2,0,0,1,0,3.42L88.75,101.2A2,2,0,0,1,87.73,101.48Zm2-24.17V96l15.53-9.32Z"/><path class="cls-4" d="M145.57,129.34H87.94a2,2,0,0,1,0-4h57.63a2,2,0,0,1,0,4Z"/><path class="cls-4" d="M72.73,135.76a8.43,8.43,0,1,1,8.43-8.42A8.44,8.44,0,0,1,72.73,135.76Zm0-12.85a4.43,4.43,0,1,0,4.43,4.43A4.44,4.44,0,0,0,72.73,122.91Z"/><path class="cls-4" d="M57.52,129.34H47a2,2,0,0,1,0-4h10.5a2,2,0,1,1,0,4Z"/></g></g></svg>