<svg xmlns="http://www.w3.org/2000/svg" xmlns:xlink="http://www.w3.org/1999/xlink" width="248.7" height="242.97" viewBox="0 0 248.7 242.97">
  <defs>
    <style>
      .cls-1, .cls-4 {
        fill: none;
      }

      .cls-2 {
        clip-path: url(#clip-path);
      }

      .cls-3 {
        fill: #fff;
      }

      .cls-4 {
        stroke: #8abfc6;
        stroke-miterlimit: 10;
        stroke-width: 5.34px;
      }

      .cls-5 {
        fill: #8abfc6;
      }

      .cls-6 {
        fill: #a0a437;
      }

      .cls-7 {
        fill: #404041;
      }
    </style>
    <clipPath id="clip-path">
      <rect id="Rectangle_1319" data-name="Rectangle 1319" class="cls-1" width="248.7" height="242.97"/>
    </clipPath>
  </defs>
  <g id="Group_2331" data-name="Group 2331" transform="translate(-201 -1851.001)">
    <g id="BG_circle" data-name="BG circle" transform="translate(325.35 1972.486)">
      <g id="Group_1735" data-name="Group 1735" class="cls-2" transform="translate(-124.35 -121.485)">
        <path id="Path_2498" data-name="Path 2498" class="cls-3" d="M248.7,125.7A117.3,117.3,0,1,1,131.4,8.4,117.3,117.3,0,0,1,248.7,125.7"/>
        <circle id="Ellipse_167" data-name="Ellipse 167" class="cls-4" cx="117.3" cy="117.3" r="117.3" transform="translate(-45.882 120) rotate(-45)"/>
      </g>
    </g>
    <g id="development_icon" data-name="development icon" transform="translate(325.35 1972.486)">
      <g id="Group_2329" data-name="Group 2329" transform="translate(-73.475 -59.07)">
        <rect id="Rectangle_1963" data-name="Rectangle 1963" class="cls-5" width="139.87" height="14.43" transform="translate(7.081 5.95)"/>
        <path id="Path_3809" data-name="Path 3809" class="cls-6" d="M131.48,31.29V98.534H18.99V31.29H131.48M145.17,17.6H5.3v94.624H145.17V17.6Z" transform="translate(1.781 5.915)"/>
        <g id="Group_2327" data-name="Group 2327" transform="translate(6.798 6.592)">
          <path id="Path_3810" data-name="Path 3810" class="cls-7" d="M7.407,4.934A2.319,2.319,0,1,0,9.727,7.253,2.322,2.322,0,0,0,7.407,4.934Z" transform="translate(-5.088 -4.934)"/>
          <path id="Path_3811" data-name="Path 3811" class="cls-7" d="M12.551,4.934a2.319,2.319,0,1,0,2.321,2.319A2.321,2.321,0,0,0,12.551,4.934Z" transform="translate(-3.359 -4.934)"/>
          <path id="Path_3812" data-name="Path 3812" class="cls-7" d="M17.7,4.934a2.319,2.319,0,1,0,2.319,2.319A2.322,2.322,0,0,0,17.7,4.934Z" transform="translate(-1.63 -4.934)"/>
        </g>
        <g id="Group_2328" data-name="Group 2328" transform="translate(28.763 43.102)">
          <path id="Path_3813" data-name="Path 3813" class="cls-7" d="M43.187,80.119,21.527,58.459,43.187,36.8l2.834,2.834L27.2,58.459,46.021,77.285Z" transform="translate(-21.527 -30.734)"/>
          <path id="Path_3814" data-name="Path 3814" class="cls-7" d="M70.078,80.119l-2.834-2.834L86.068,58.459,67.244,39.634,70.078,36.8,91.736,58.459Z" transform="translate(-6.162 -30.734)"/>
          <rect id="Rectangle_1964" data-name="Rectangle 1964" class="cls-7" width="55.804" height="4.009" transform="translate(35.14 54.634) rotate(-78.244)"/>
        </g>
        <path id="Path_3815" data-name="Path 3815" class="cls-7" d="M143.1,109.246H0V0H143.1ZM3.231,106.015H139.87V3.231H3.231Z"/>
        <rect id="Rectangle_1965" data-name="Rectangle 1965" class="cls-7" width="141.034" height="3.252" transform="translate(0.45 14.419)"/>
      </g>
    </g>
  </g>
</svg>
