<svg xmlns="http://www.w3.org/2000/svg" width="149.774" height="134.605" viewBox="0 0 149.774 134.605"><g transform="translate(74.887 67.302)"><g transform="translate(-74.887 -67.302)"><rect width="139.024" height="77.056" transform="translate(10.751 10.845)" fill="#a2a637"/><path d="M2.527,2.54H145.545V85.335H2.527ZM0,87.875H148.073V0H0Z" fill="#414042"/><path d="M2.527,130.572H145.545v17.779H2.527ZM0,150.889H148.073V128.032H0Z" transform="translate(0 -42.697)" fill="#414042"/><path d="M84.415,178.832h33.86V161.055H84.415Zm36.386,2.54H81.887V158.515H120.8Z" transform="translate(-27.308 -52.863)" fill="#414042"/><path d="M72.283,191.54h50.032V195.1H72.283Zm-2.528,6.093h55.087V189H69.755Z" transform="translate(-23.262 -63.029)" fill="#414042"/><path d="M11.626,82.544H142.517V11.685H11.626Zm133.416,2.539H9.1V9.146H145.042Z" transform="translate(-3.034 -3.05)" fill="#414042"/><path d="M105.907,142.24l2.257,2.266,2.257-2.266-2.257-2.268Zm2.257,5.858-5.829-5.858,5.829-5.861,5.831,5.861Z" transform="translate(-34.127 -45.481)" fill="#414042"/><rect width="40.429" height="2.54" transform="translate(17.183 18.032)" fill="#414042"/><rect width="72.773" height="2.54" transform="translate(33.355 26.158)" fill="#414042"/><rect width="16.172" height="2.54" transform="translate(114.212 26.158)" fill="#414042"/><rect width="72.773" height="2.54" transform="translate(49.525 34.286)" fill="#414042"/><rect width="40.429" height="2.54" transform="translate(17.183 50.541)" fill="#414042"/><rect width="40.429" height="2.54" transform="translate(33.355 58.667)" fill="#414042"/><rect width="8.086" height="2.54" transform="translate(81.87 58.667)" fill="#414042"/><rect width="24.258" height="2.54" transform="translate(98.04 58.667)" fill="#414042"/><rect width="80.859" height="2.54" transform="translate(49.525 66.795)" fill="#414042"/></g></g></svg>