<svg xmlns="http://www.w3.org/2000/svg" viewBox="0 0 149.78 134.6"><rect x="10.75" y="10.85" width="139.02" height="77.06" style="fill:#a2a637"/><path d="M628.14,285.74h143v82.79h-143Zm-2.53,85.33H773.69V283.2H625.61Z" transform="translate(-625.61 -283.2)" style="fill:#414042"/><path d="M628.14,371.07h143v17.78h-143Zm-2.53,20.32H773.69V368.53H625.61Z" transform="translate(-625.61 -283.2)" style="fill:#414042"/><path d="M682.72,409.17h33.86V391.39H682.72Zm36.39,2.54H680.19V388.85H719.1Z" transform="translate(-625.61 -283.2)" style="fill:#414042"/><path d="M674.63,411.71h50v3.56h-50Zm-2.52,6.09h55.08v-8.63H672.11Z" transform="translate(-625.61 -283.2)" style="fill:#414042"/><path d="M634.2,362.69H765.1V291.83H634.2Zm133.42,2.54H631.68V289.29H767.62Z" transform="translate(-625.61 -283.2)" style="fill:#414042"/><path d="M697.39,380l2.26,2.26,2.26-2.26-2.26-2.27Zm2.26,5.86L693.82,380l5.83-5.86,5.83,5.86Z" transform="translate(-625.61 -283.2)" style="fill:#414042"/><rect x="17.18" y="18.03" width="40.43" height="2.54" style="fill:#414042"/><rect x="33.35" y="26.16" width="72.77" height="2.54" style="fill:#414042"/><rect x="114.21" y="26.16" width="16.17" height="2.54" style="fill:#414042"/><rect x="49.53" y="34.29" width="72.77" height="2.54" style="fill:#414042"/><rect x="17.18" y="50.54" width="40.43" height="2.54" style="fill:#414042"/><rect x="33.35" y="58.67" width="40.43" height="2.54" style="fill:#414042"/><rect x="81.87" y="58.67" width="8.09" height="2.54" style="fill:#414042"/><rect x="98.04" y="58.67" width="24.26" height="2.54" style="fill:#414042"/><rect x="49.53" y="66.79" width="80.86" height="2.54" style="fill:#414042"/></svg>