<svg xmlns="http://www.w3.org/2000/svg" viewBox="0 0 186.28 182.01"><defs><style>.cls-1{fill:#fff;}.cls-2{fill:#8abfc6;}.cls-3{fill:#a2a637;}.cls-4{fill:#404041;}</style></defs><g id="Layer_2" data-name="Layer 2"><g id="Categories_and_Icons" data-name="Categories and Icons"><circle class="cls-1" cx="98.41" cy="94.15" r="87.87"/><path class="cls-2" d="M89.87,179.74a89.87,89.87,0,1,1,89.87-89.87A90,90,0,0,1,89.87,179.74ZM89.87,4a85.87,85.87,0,1,0,85.87,85.87A86,86,0,0,0,89.87,4Z"/><g id="WebDevelopment-icon"><rect class="cls-3" x="39.61" y="51.89" width="113.25" height="62.77"/><path class="cls-4" d="M32.91,45.12H149.42v67.45H32.91Zm-2.06,69.51H151.48V43.05H30.85Z"/><path class="cls-4" d="M32.91,114.63H149.42v14.49H32.91Zm-2.06,16.56H151.48V112.57H30.85Z"/><path class="cls-4" d="M77.37,145.67H105V131.19H77.37ZM107,147.74H75.32V129.12H107Z"/><path class="cls-4" d="M70.79,147.74h40.75v2.89H70.79Zm-2.06,5H113.6v-7H68.73Z"/><path class="cls-4" d="M37.85,107.81H144.48V50.08H37.85Zm108.69,2.07H35.79V48H146.54Z"/><path class="cls-4" d="M89.33,121.87l1.84,1.85L93,121.87,91.17,120Zm1.84,4.77-4.75-4.77,4.75-4.77,4.75,4.77Z"/><rect class="cls-4" x="44.85" y="57.74" width="32.93" height="2.07"/><rect class="cls-4" x="58.03" y="64.36" width="59.28" height="2.07"/><rect class="cls-4" x="123.89" y="64.36" width="13.17" height="2.07"/><rect class="cls-4" x="71.2" y="70.98" width="59.28" height="2.07"/><rect class="cls-4" x="44.85" y="84.22" width="32.93" height="2.07"/><rect class="cls-4" x="58.03" y="90.84" width="32.93" height="2.07"/><rect class="cls-4" x="97.55" y="90.84" width="6.59" height="2.07"/><rect class="cls-4" x="110.72" y="90.84" width="19.76" height="2.07"/><rect class="cls-4" x="71.2" y="97.46" width="65.87" height="2.07"/></g></g></g></svg>