<svg xmlns="http://www.w3.org/2000/svg" xmlns:xlink="http://www.w3.org/1999/xlink" width="248.7" height="242.97" viewBox="0 0 248.7 242.97"><defs><clipPath id="a"><rect width="248.7" height="242.97" fill="none"/></clipPath></defs><g transform="translate(-196 -2412)"><g transform="translate(320.35 2533.485)"><g transform="translate(-124.35 -121.485)" clip-path="url(#a)"><path d="M248.7,125.7A117.3,117.3,0,1,1,131.4,8.4,117.3,117.3,0,0,1,248.7,125.7" fill="#fff"/><circle cx="117.3" cy="117.3" r="117.3" transform="translate(-45.882 120) rotate(-45)" fill="none" stroke="#8abfc6" stroke-miterlimit="10" stroke-width="5.34"/></g></g><g transform="translate(325.35 2531.393)"><g transform="translate(-66.439 -76.408)"><rect width="93.361" height="106.748" transform="translate(18.2 39.283)" fill="#a2a637"/><path d="M62.073,12.318v6.645M85.3,15.641H75.344a13.272,13.272,0,1,0-26.543,0H38.847A9.958,9.958,0,0,0,28.9,25.607v9.966H95.252V25.607A9.96,9.96,0,0,0,85.3,15.641Zm16.59,16.611h6.634V88.726m0,36.544v16.608h-92.9V32.252H22.26m79.627-13.289h13.271a6.639,6.639,0,0,1,6.634,6.645V75.438m0,36.543v36.542a6.639,6.639,0,0,1-6.634,6.645H8.989a6.642,6.642,0,0,1-6.637-6.645V25.607a6.642,6.642,0,0,1,6.637-6.645H22.26" transform="translate(-2.352 -2.352)" fill="none" stroke="#414042" stroke-miterlimit="10" stroke-width="4.033"/><path d="M63.356,129.6H83.265M63.356,116.369h9.956M63.356,99.838H83.265M63.356,86.61h33.18M63.356,73.385H83.265M63.356,60.157h33.18M50.085,132.9H33.495V116.369h16.59Zm0-29.759H33.495V86.61h16.59Zm0-29.758H33.495V56.851h16.59ZM139.672,86.61l-36.5,42.572-16.59-16.533" transform="translate(-6.794 -10.125)" fill="none" stroke="#414042" stroke-linejoin="round" stroke-width="4.033"/></g></g></g></svg>