<svg id="Layer_1" data-name="Layer 1" xmlns="http://www.w3.org/2000/svg" viewBox="0 0 62.99 56.63" aria-hidden="true"><defs></defs><g id="Web_Dev_CMYK" data-name="Web Dev CMYK"><g id="Web_Dev_CMYK-2" data-name="Web Dev CMYK-2"><rect id="Rectangle_543" data-name="Rectangle 543" class="cls-1" x="4.51" y="4.57" width="58.48" height="32.41"/><path id="Path_1683" data-name="Path 1683" class="cls-3" d="M330,332.89h60.16V367.7H330ZM329,368.77h62.29V331.82H329Z" transform="translate(-328.97 -331.82)"/><path id="Path_1684" data-name="Path 1684" class="cls-3" d="M330,368.77h60.16v7.48H330ZM329,377.32h62.29V367.7H329Z" transform="translate(-328.97 -331.82)"/><path id="Path_1685" data-name="Path 1685" class="cls-3" d="M353,384.8h14.24v-7.48H353Zm15.31,1.07H351.93v-9.62H368.3Z" transform="translate(-328.97 -331.82)"/><path id="Path_1686" data-name="Path 1686" class="cls-3" d="M349.57,385.87h21.06v1.48H349.57Zm-1,2.58h23.18V384.8H348.54Z" transform="translate(-328.97 -331.82)"/><path id="Path_1687" data-name="Path 1687" class="cls-3" d="M332.59,365.26h55.05v-29.8H332.59Zm56.12,1.07H331.52v-32h57.19Z" transform="translate(-328.97 -331.82)"/><path id="Path_1688" data-name="Path 1688" class="cls-3" d="M359.16,372.53l.95,1,1-1-1-1Zm.95,2.46-2.43-2.46,2.43-2.47,2.47,2.47Z" transform="translate(-328.97 -331.82)"/><rect id="Rectangle_544" data-name="Rectangle 544" class="cls-3" x="7.23" y="7.6" width="17.02" height="1.07"/><rect id="Rectangle_545" data-name="Rectangle 545" class="cls-3" x="14.02" y="10.99" width="30.61" height="1.07"/><rect id="Rectangle_546" data-name="Rectangle 546" class="cls-3" x="48.05" y="10.99" width="6.81" height="1.07"/><rect id="Rectangle_547" data-name="Rectangle 547" class="cls-3" x="20.83" y="14.41" width="30.61" height="1.07"/><rect id="Rectangle_548" data-name="Rectangle 548" class="cls-3" x="7.23" y="21.25" width="17.02" height="1.07"/><rect id="Rectangle_549" data-name="Rectangle 549" class="cls-3" x="14.02" y="24.67" width="17.02" height="1.07"/><rect id="Rectangle_550" data-name="Rectangle 550" class="cls-3" x="34.42" y="24.67" width="3.39" height="1.07"/><rect id="Rectangle_551" data-name="Rectangle 551" class="cls-3" x="41.24" y="24.67" width="10.2" height="1.07"/><rect id="Rectangle_552" data-name="Rectangle 552" class="cls-3" x="20.83" y="28.09" width="34.01" height="1.07"/></g></g></svg>