<svg id="Layer_1" data-name="Layer 1" xmlns="http://www.w3.org/2000/svg" viewBox="0 0 213.4 70.28"><path d="M108,36.79a2.85,2.85,0,1,1,2.87,2.87A2.86,2.86,0,0,1,108,36.79Zm5,30h-4.28v-23h4.28Z" transform="translate(-24.94 -27.37)" style="fill:#fff"/><path d="M127.92,46.4H128a4.92,4.92,0,0,1,4.65-3c4.56,0,4.7,4.05,4.7,7.56V66.78h-4.29V50.87c0-1.59-.27-3.64-2.55-3.64-2.82,0-2.6,3.23-2.6,5.19V66.78h-4.28v-23h4.28Z" transform="translate(-24.94 -27.37)" style="fill:#fff"/><path d="M156.73,48.46a5.27,5.27,0,0,0-3.19-1.23c-1.6,0-2.92.91-2.92,2.46.09,3.87,7.2,4.05,7.2,10.62,0,4.06-2.51,6.84-6.61,6.84a6.4,6.4,0,0,1-3.74-1.1V61.86A5.47,5.47,0,0,0,151,63.32a2.65,2.65,0,0,0,2.87-2.92c0-4.06-7.2-4.33-7.2-10.71a6,6,0,0,1,6.15-6.29,7.14,7.14,0,0,1,3.88,1Z" transform="translate(-24.94 -27.37)" style="fill:#fff"/><path d="M166.66,36.79A2.85,2.85,0,0,1,169.53,34a2.85,2.85,0,1,1-2.87,2.83Zm5,30h-4.29v-23h4.29Z" transform="translate(-24.94 -27.37)" style="fill:#fff"/><path d="M195.78,67c0,8.21-2.46,9.62-7,9.62-4.15,0-6.79-2.37-6.79-6.65v-.64h4.15c-.09,1.64.59,3.46,2.73,3.46,2.87,0,2.6-2.78,2.6-4.87V64.05h-.09a4,4,0,0,1-4.1,3.1c-5.47,0-5.61-7.8-5.61-11.72,0-3.69-.09-12,5.51-12,2.28,0,3.29,1.27,4.2,3.1l.09-.1V43.76h4.33Zm-7.06-19.73c-3,0-2.69,6.29-2.69,7.93s-.28,8.16,2.82,8.16,2.65-6.07,2.65-7.93S191.5,47.23,188.72,47.23Z" transform="translate(-24.94 -27.37)" style="fill:#fff"/><path d="M210.77,28.94V46.4h.09a4.91,4.91,0,0,1,4.65-3c4.61,0,4.7,4.05,4.7,7.56V66.78h-4.29V50.87c0-1.59-.27-3.64-2.55-3.64-2.83,0-2.6,3.23-2.6,5.19V66.78h-4.28V28.94Z" transform="translate(-24.94 -27.37)" style="fill:#fff"/><path d="M236.06,37.24v6.52h2.28v3.37h-2.28V66.78h-4.28V47.13h-2.33V43.76h2.33V37.24Z" transform="translate(-24.94 -27.37)" style="fill:#fff"/><path d="M113.38,84.21h0a1.2,1.2,0,0,0-1-.55c-1.86,0-1.91,2.62-1.91,3.86s0,4.07,1.87,4.07a1.67,1.67,0,0,0,1.1-.44v2a3.32,3.32,0,0,1-1.75.46c-3,0-3.42-3.58-3.42-5.88s.27-6.09,3.45-6.09a3.67,3.67,0,0,1,1.72.39Z" transform="translate(-24.94 -27.37)" style="fill:#fff"/><path d="M120.5,83.25h0A2.57,2.57,0,0,1,123,81.64v2.14l-.36,0c-1.61,0-2.12.9-2.12,2.37v7.31h-2.18V81.82h2.16Z" transform="translate(-24.94 -27.37)" style="fill:#fff"/><path d="M129.78,88.05c0,1-.05,3.63,1.36,3.63,1.15,0,1.35-1.26,1.35-2.16h2c0,2.14-.94,4.09-3.38,4.09-3.24,0-3.54-3.44-3.54-5.9s.28-6.07,3.47-6.07,3.52,3.68,3.52,6.07v.34Zm2.57-1.54c0-.89,0-2.94-1.31-2.94s-1.26,2.05-1.26,2.94Z" transform="translate(-24.94 -27.37)" style="fill:#fff"/><path d="M144.19,91.94h-.05c-.44,1-.9,1.67-2.14,1.67-2.69,0-2.73-4.25-2.73-6.13s.07-5.84,2.8-5.84a2.24,2.24,0,0,1,2.07,1.47h.05V81.82h2.16V93.43h-2.16Zm.06-4.33c0-.91.1-4-1.35-4-1.61,0-1.43,3.1-1.43,4s-.18,4.07,1.43,4.07C144.35,91.68,144.25,88.53,144.25,87.61Z" transform="translate(-24.94 -27.37)" style="fill:#fff"/><path d="M154.34,78.54v3.28h1.15v1.7h-1.15v9.91h-2.16V83.52H151v-1.7h1.17V78.54Z" transform="translate(-24.94 -27.37)" style="fill:#fff"/><path d="M159.85,78.31a1.44,1.44,0,1,1,1.45,1.45A1.45,1.45,0,0,1,159.85,78.31Zm2.51,15.12H160.2V81.82h2.16Z" transform="translate(-24.94 -27.37)" style="fill:#fff"/><path d="M169.34,81.82l1.56,8.78h0l.07-.69.85-4.69.71-3.4h2.09l-3.06,11.61h-1.42L167,81.82Z" transform="translate(-24.94 -27.37)" style="fill:#fff"/><path d="M181.24,88.05c0,1-.05,3.63,1.36,3.63,1.14,0,1.35-1.26,1.35-2.16h2c0,2.14-.94,4.09-3.38,4.09-3.24,0-3.54-3.44-3.54-5.9s.28-6.07,3.47-6.07S186,85.32,186,87.71v.34Zm2.57-1.54c0-.89,0-2.94-1.31-2.94s-1.26,2.05-1.26,2.94Z" transform="translate(-24.94 -27.37)" style="fill:#fff"/><path d="M192.47,91.57l-2.23,6.09-1.17-.32L190.61,91Z" transform="translate(-24.94 -27.37)" style="fill:#fff"/><path d="M203.93,78.31a1.44,1.44,0,0,1,2.87,0,1.44,1.44,0,1,1-2.87,0Zm2.5,15.12h-2.16V81.82h2.16Z" transform="translate(-24.94 -27.37)" style="fill:#fff"/><path d="M214,83.16h0a2.45,2.45,0,0,1,2.34-1.52c2.3,0,2.37,2,2.37,3.81v8h-2.16v-8c0-.81-.14-1.84-1.29-1.84-1.42,0-1.31,1.63-1.31,2.62v7.24h-2.16V81.82H214Z" transform="translate(-24.94 -27.37)" style="fill:#fff"/><path d="M229,84.21h-.05a1.17,1.17,0,0,0-1-.55c-1.86,0-1.9,2.62-1.9,3.86s0,4.07,1.86,4.07a1.65,1.65,0,0,0,1.1-.44v2a3.32,3.32,0,0,1-1.75.46c-3.05,0-3.42-3.58-3.42-5.88s.28-6.09,3.45-6.09A3.65,3.65,0,0,1,229,82Z" transform="translate(-24.94 -27.37)" style="fill:#fff"/><path d="M233.91,92.21a1.38,1.38,0,1,1,1.38,1.4A1.39,1.39,0,0,1,233.91,92.21Z" transform="translate(-24.94 -27.37)" style="fill:#fff"/><path d="M95.13,62c0,25.09-22.29,33-22.29,33l-.07-10L41.57,85v3.61s4,.59,6,2.06A6.2,6.2,0,0,1,50,96C36.86,92.64,25,79,24.94,62.4s13.39-35,35-35C76.52,27.37,95.13,40.32,95.13,62Zm-35-15.39A15.89,15.89,0,1,0,76,62.53,15.89,15.89,0,0,0,60.12,46.64Z" transform="translate(-24.94 -27.37)" style="fill:#d31245"/></svg>