<svg width="70" height="70" viewBox="0 0 70 70" fill="none" xmlns="http://www.w3.org/2000/svg">
<rect width="70" height="70" fill="#292929"/>
<path d="M34.9342 11C19.5366 11 9.94371 24.1549 10.0002 35.9339C10.0568 47.7318 18.4812 57.4755 27.8102 59.8878C27.8102 59.8878 28.074 57.4189 26.1328 56.062C24.644 55.0254 21.8358 54.5919 21.8358 54.5919V52.0288L44.0559 52.0854L44.1124 59.2093C44.1124 59.2093 60 53.5554 60 35.6701C59.9812 20.2159 46.7321 11 34.9342 11V11ZM35.0472 47.3549C28.7902 47.3549 23.7393 42.2852 23.7393 36.047C23.7393 29.79 28.8091 24.7391 35.0472 24.7391C41.3043 24.7391 46.3551 29.8088 46.3551 36.047C46.3551 42.2852 41.3043 47.3549 35.0472 47.3549Z" fill="#1D1D1D"/>
</svg>
