<svg xmlns="http://www.w3.org/2000/svg" xmlns:xlink="http://www.w3.org/1999/xlink" width="248.7" height="242.97" viewBox="0 0 248.7 242.97"><defs><clipPath id="a"><rect width="248.7" height="242.97" fill="none"/></clipPath></defs><g transform="translate(-196 -2310.015)"><g transform="translate(320.35 2431.5)"><g transform="translate(-124.35 -121.485)" clip-path="url(#a)"><path d="M248.7,125.7A117.3,117.3,0,1,1,131.4,8.4,117.3,117.3,0,0,1,248.7,125.7" fill="#fff"/><circle cx="117.3" cy="117.3" r="117.3" transform="translate(-45.882 120) rotate(-45)" fill="none" stroke="#8abfc6" stroke-miterlimit="10" stroke-width="5.34"/></g></g><g transform="translate(320.35 2431.5)"><g transform="translate(-82.484 -60.022)"><rect width="12.791" height="26.63" rx="1.486" transform="translate(10.292 53.285)" fill="#8bc0c6"/><rect width="12.791" height="48.456" rx="1.486" transform="translate(37.528 31.459)" fill="#8bc0c6"/><rect width="12.791" height="40.034" rx="1.486" transform="translate(63.02 39.881)" fill="#8bc0c6"/><rect width="12.791" height="50.34" rx="1.486" transform="translate(91.11 29.575)" fill="#8bc0c6"/><path d="M102.613,128.531H46.872a3.109,3.109,0,0,1-3.117-2.258,2.757,2.757,0,0,1,1.528-3.1c3.745-1.918,6.281-4.944,6.956-8.3a38.877,38.877,0,0,0,.514-9.738,1.758,1.758,0,0,1,1.751-1.919H94.98a1.757,1.757,0,0,1,1.75,1.918,38.941,38.941,0,0,0,.516,9.74c.675,3.355,3.21,6.381,6.956,8.3a2.757,2.757,0,0,1,1.528,3.1A3.11,3.11,0,0,1,102.613,128.531Zm-53.562-3.518,51.385,0a15.3,15.3,0,0,1-6.637-9.453,40.706,40.706,0,0,1-.672-8.836H56.357a40.685,40.685,0,0,1-.671,8.835A15.3,15.3,0,0,1,49.052,125.013Z" transform="translate(-3.592 -8.488)" fill="#414042"/><path d="M77.246,98.885a3.113,3.113,0,1,1,3.113-3.112A3.115,3.115,0,0,1,77.246,98.885Z" transform="translate(-6.097 -7.62)" fill="#a2a637"/><path d="M117.876,105.234H8.6a8.611,8.611,0,0,1-8.6-8.6V86.82a1.757,1.757,0,0,1,1.758-1.758H28.6a1.758,1.758,0,0,1,0,3.515H3.515v8.055A5.093,5.093,0,0,0,8.6,101.719H117.876a1.758,1.758,0,1,1,0,3.515Z" transform="translate(0 -6.995)" fill="#414042"/><path d="M117.779,81.582H1.758A1.758,1.758,0,0,1,0,79.824V9.179A9.189,9.189,0,0,1,9.18,0H133.121A9.189,9.189,0,0,1,142.3,9.179V43.64a1.758,1.758,0,0,1-3.515,0V9.179a5.671,5.671,0,0,0-5.664-5.664H9.18A5.672,5.672,0,0,0,3.515,9.179V78.067H117.779a1.758,1.758,0,1,1,0,3.515Z" fill="#414042"/><rect width="36.238" height="3.515" rx="1.758" transform="translate(122.424 101.625)" fill="#414042"/><path d="M170.138,123.8H131.759a5.243,5.243,0,0,1-5.238-5.237V50.872a5.243,5.243,0,0,1,5.238-5.237h38.379a5.242,5.242,0,0,1,5.236,5.237V118.56A5.242,5.242,0,0,1,170.138,123.8ZM131.759,49.15a1.724,1.724,0,0,0-1.722,1.722V118.56a1.724,1.724,0,0,0,1.722,1.722h38.379a1.724,1.724,0,0,0,1.721-1.722V50.872a1.724,1.724,0,0,0-1.721-1.722Z" transform="translate(-10.405 -3.753)" fill="#414042"/><path d="M152.87,123.54a2.966,2.966,0,1,1,2.967-2.965A2.968,2.968,0,0,1,152.87,123.54Z" transform="translate(-12.328 -9.672)" fill="#a2a637"/><path d="M157.07,57.376h-8.987a1.758,1.758,0,1,1,0-3.515h8.987a1.758,1.758,0,0,1,0,3.515Z" transform="translate(-12.033 -4.429)" fill="#414042"/><path d="M28.362,85.706H15.57A1.606,1.606,0,0,1,13.964,84.1V52.5A1.606,1.606,0,0,1,15.57,50.9H28.362A1.607,1.607,0,0,1,29.968,52.5V84.1A1.606,1.606,0,0,1,28.362,85.706ZM17.176,82.494h9.58V54.108h-9.58Z" transform="translate(-1.148 -4.186)" fill="#414042"/><path d="M58.037,83.874H45.247a1.605,1.605,0,0,1-1.606-1.606V30.223a1.605,1.605,0,0,1,1.606-1.606h12.79a1.605,1.605,0,0,1,1.606,1.606V82.268A1.605,1.605,0,0,1,58.037,83.874ZM46.853,80.661h9.578V31.829H46.853Z" transform="translate(-3.589 -2.353)" fill="#414042"/><path d="M85.815,84.58H73.023a1.605,1.605,0,0,1-1.606-1.606V38.81A1.605,1.605,0,0,1,73.023,37.2H85.815a1.605,1.605,0,0,1,1.606,1.606V82.974A1.605,1.605,0,0,1,85.815,84.58ZM74.629,81.368h9.58V40.416h-9.58Z" transform="translate(-5.873 -3.06)" fill="#414042"/><path d="M116.421,83.656H103.63a1.605,1.605,0,0,1-1.606-1.606V27.581a1.605,1.605,0,0,1,1.606-1.606h12.791a1.605,1.605,0,0,1,1.606,1.606V82.05A1.605,1.605,0,0,1,116.421,83.656Zm-11.185-3.212h9.579V29.187h-9.579Z" transform="translate(-8.39 -2.136)" fill="#414042"/><path d="M22.54,41.282a1.606,1.606,0,0,1-1.055-2.818L48.722,14.82a1.607,1.607,0,0,1,1.857-.178L75.3,28.928,102.611,14.61a1.606,1.606,0,0,1,1.491,2.845L76.013,32.183a1.6,1.6,0,0,1-1.548-.031L49.964,18,23.592,40.889A1.6,1.6,0,0,1,22.54,41.282Z" transform="translate(-1.721 -1.186)" fill="#414042"/><path d="M149.085,87.411l9.5,9.8a.46.46,0,0,1-.017.656,14.792,14.792,0,1,1,4.832-11.41.459.459,0,0,1-.459.467H149.288A.284.284,0,0,0,149.085,87.411Z" transform="translate(-11.005 -5.932)" fill="#a2a637"/><path d="M151.667,99.991a16.4,16.4,0,1,1,16.4-16.4,1.605,1.605,0,0,1-1.606,1.606h-11l7.656,7.9a1.607,1.607,0,0,1-.036,2.271A16.32,16.32,0,0,1,151.667,99.991Zm0-29.586a13.187,13.187,0,1,0,7.957,23.7l-9.111-9.4a1.607,1.607,0,0,1,1.154-2.724h13.089A13.206,13.206,0,0,0,151.667,70.405Z" transform="translate(-11.124 -5.526)" fill="#414042"/></g></g></g></svg>