<svg xmlns="http://www.w3.org/2000/svg" width="168.306" height="126.653"><defs><clipPath id="a"><path fill="none" d="M0 0h168.306v126.653H0z"/></clipPath></defs><path fill="#a2a637" d="M127.39 14.154h20.863v27.402H127.39zM29.714 14.154l8.183 11.058-9.883 13.123v3.244h19.684l.074-3.244h17.987V14.154Z"/><g clip-path="url(#a)" fill="#414042"><path d="M65.538 26.466H32.806a1.917 1.917 0 0 1-1.548-.811l-9.436-13.27a1.917 1.917 0 0 1 1.547-2.949h42.169v3.76H26.982l6.782 9.51h31.774ZM145.599 26.466H126.21v-3.76h17.472v-9.51h-17.619v-3.76h19.536a1.917 1.917 0 0 1 1.917 1.917v13.27a1.917 1.917 0 0 1-1.917 1.917"/><path d="M65.538 39.736H23.369a1.917 1.917 0 0 1-1.548-2.949l9.436-13.27a1.917 1.917 0 0 1 1.548-.811h32.733v3.76H33.764l-6.782 9.51h38.556ZM145.6 39.736h-19.389v-3.76h17.546v-9.51h-17.546v-3.76H145.6a1.917 1.917 0 0 1 1.917 1.917v13.27a1.917 1.917 0 0 1-1.917 1.917"/><path d="M147.517 35.828h4.792V13.196h-4.792Zm6.635 3.76H145.6a1.917 1.917 0 0 1-1.917-1.917V11.353a1.917 1.917 0 0 1 1.917-1.917h8.552a1.917 1.917 0 0 1 1.917 1.917v26.318a1.917 1.917 0 0 1-1.917 1.917"/><path d="M155.994 35.829h4.567a3.833 3.833 0 0 0 3.981-3.686V16.882a3.833 3.833 0 0 0-3.981-3.686h-4.571Zm4.571 3.76h-6.488a1.917 1.917 0 0 1-1.917-1.917V11.353a1.917 1.917 0 0 1 1.917-1.917h6.484a7.593 7.593 0 0 1 7.741 7.446v15.26a7.593 7.593 0 0 1-7.741 7.446M5.456 24.623l17.4 10.69 7.593-10.69-7.595-10.616ZM23.37 39.736a1.843 1.843 0 0 1-.958-.295L.885 26.245a1.917 1.917 0 0 1 0-3.244L22.338 9.879a1.917 1.917 0 0 1 2.507.516l9.51 13.122a1.843 1.843 0 0 1 0 2.212l-9.436 13.27a1.917 1.917 0 0 1-1.548.811"/><path d="M12.606 16.808h3.76V32.4h-3.76zM68.118 126.653h-3.76V71.215L49.246 58.682l-.295-.295a9.436 9.436 0 0 1-2.949-6.782V39.441h3.76v12.164a5.6 5.6 0 0 0 1.917 4.2l.147.147 15.629 12.9a1.917 1.917 0 0 1 .663 1.474ZM110.729 126.653h-3.76V69.74a1.843 1.843 0 0 1 .811-1.548c2.285-1.548 13.638-9.584 16.514-20.126V12.828a5.677 5.677 0 1 0-11.353 0v14.154a1.917 1.917 0 0 1-3.76 0V9.731a5.677 5.677 0 0 0-11.353 0v17.251a1.917 1.917 0 0 1-3.76 0V9.731a5.7135 5.7135 0 1 0-11.427 0v17.251a1.917 1.917 0 0 1-3.76 0V9.436a5.677 5.677 0 0 0-11.353 0v34.8a1.917 1.917 0 0 1-1.916 1.912H60.82v-3.76h2.8V9.436a9.436 9.436 0 0 1 17.177-5.529 9.436 9.436 0 0 1 15.113.147 9.436 9.436 0 0 1 16.22 1.844 9.436 9.436 0 0 1 16 6.856v35.607a1.917 1.917 0 0 1-.074.442c-2.8 10.911-13.565 19.315-17.251 21.969Z"/></g></svg>