<svg xmlns="http://www.w3.org/2000/svg" xmlns:xlink="http://www.w3.org/1999/xlink" width="99.5" height="142.26" viewBox="0 0 99.5 142.26"><defs><clipPath id="a"><rect width="99.5" height="142.26" fill="none"/></clipPath></defs><g transform="translate(49.75 71.13)"><g transform="translate(-49.75 -71.13)"><rect width="15.1" height="7.65" transform="matrix(0.99, -0.141, 0.141, 0.99, 14.832, 67.694)" fill="#a0a437"/><path d="M88.3,73.8l-16.9-.4,5.5-44.7,6.8,6.4,10.1-6Z" fill="#a0a437"/><rect width="17.5" height="68.73" transform="translate(43.6 5.1)" fill="#8abfc6"/><g><path d="M78.3,76.2H68A1.9,1.9,0,0,1,66.1,74l6.7-52.8A1.9,1.9,0,0,1,76,20l9.3,8.6a1.9,1.9,0,0,1,.6,1.6L80.2,74.5a1.9,1.9,0,0,1-1.9,1.7m-8.2-3.8h6.6L82,30.8l-5.9-5.4Z" fill="#404041"/><path d="M88.7,76.2H78.3A1.9,1.9,0,0,1,76.5,74l5.6-44.2a1.9,1.9,0,0,1,1-1.4l11.1-6A1.9,1.9,0,0,1,97,24.3L90.6,74.5a1.9,1.9,0,0,1-1.9,1.7m-8.2-3.8H87l5.7-44.9-7,3.8Z" fill="#404041"/><path d="M12.6,41C5.5,41,1.3,37.2.1,29.7-1.4,19.9,9.4,5,9.9,4.4A1.9,1.9,0,0,1,12.5,4c.6.5,15.4,11.4,16.9,21.2,2,13.2-9,14.9-12.6,15.4a27.4,27.4,0,0,1-4.2.4M11.8,8.2C8.6,13.1,3,23,3.9,29.1s3.5,8,8.7,8l3.6-.3c7.8-1.2,10.5-4.4,9.5-11.1S16.5,11.9,11.8,8.2" fill="#404041"/><rect width="18.9" height="3.79" transform="translate(11.389 63.016) rotate(-8.8)" fill="#404041"/><path d="M83.9,31.9a1.9,1.9,0,0,1-1.3-.5l-9.3-8.6a1.9,1.9,0,0,1-.2-2.6L85.4,5a1.9,1.9,0,0,1,3.2.4l8.1,17.8a1.9,1.9,0,0,1-.8,2.4l-11,6-.9.2M77.2,21.3l7,6.5,8.3-4.5L86.4,9.8Z" fill="#404041"/><rect width="3.8" height="12.12" transform="matrix(0.125, -0.992, 0.992, 0.125, 79.425, 17.089)" fill="#404041"/><rect width="7.2" height="3.79" transform="translate(39.9 12.1)" fill="#404041"/><rect width="7.2" height="3.79" transform="translate(39.9 24.3)" fill="#404041"/><rect width="7.2" height="3.79" transform="translate(39.9 36.4)" fill="#404041"/><rect width="7.2" height="3.79" transform="translate(39.9 48.5)" fill="#404041"/><rect width="7.2" height="3.79" transform="translate(39.9 60.6)" fill="#404041"/><path d="M31.6,76.2H12.5a1.9,1.9,0,0,1-1.9-1.6C7,49.3,8.7,38,16.3,36.9h1.1c5.1,0,11,4.4,16.1,37.2a1.9,1.9,0,0,1-1.9,2.2M14.2,72.4H29.3c-4.3-26.2-8.9-31.8-12-31.8h-.5c-3.1.5-6.1,6.4-2.7,31.8" fill="#404041"/><path d="M61.2,76.2H39.9A1.9,1.9,0,0,1,38,74.3V1.9A1.9,1.9,0,0,1,39.9,0H61.2A1.9,1.9,0,0,1,63,1.9V74.3a1.9,1.9,0,0,1-1.9,1.9M41.8,72.4H59.3V3.8H41.8Z" fill="#404041"/><path d="M85.6,142.3H14.3a1.9,1.9,0,0,1-1.9-1.7l-4-52.3a1.9,1.9,0,0,1,1.9-2H89.6a1.9,1.9,0,0,1,1.9,2l-4.1,52.2a1.9,1.9,0,0,1-1.9,1.7M16,138.4H83.8L87.6,90H12.3Z" fill="#404041"/><path d="M94.7,90H5.2A4.8,4.8,0,0,1,.5,85.2v-8a4.8,4.8,0,0,1,4.7-4.8H94.7a4.8,4.8,0,0,1,4.7,4.8v8A4.8,4.8,0,0,1,94.7,90M5.2,76.1a1,1,0,0,0-.9,1v8a1,1,0,0,0,.9,1H94.7a1,1,0,0,0,.9-1v-8a1,1,0,0,0-.9-1Z" fill="#404041"/></g></g></g></svg>