<svg xmlns="http://www.w3.org/2000/svg" xmlns:xlink="http://www.w3.org/1999/xlink" width="248.7" height="242.97" viewBox="0 0 248.7 242.97"><defs><clipPath id="a"><rect width="248.7" height="242.97" fill="none"/></clipPath></defs><g transform="translate(-201 -1851.001)"><g transform="translate(325.35 1972.486)"><g transform="translate(-124.35 -121.485)" clip-path="url(#a)"><path d="M248.7,125.7A117.3,117.3,0,1,1,131.4,8.4,117.3,117.3,0,0,1,248.7,125.7" fill="#fff"/><circle cx="117.3" cy="117.3" r="117.3" transform="translate(-45.882 120) rotate(-45)" fill="none" stroke="#8abfc6" stroke-miterlimit="10" stroke-width="5.34"/></g></g><g transform="translate(325.35 1972.486)"><g transform="translate(-73.475 -59.07)"><rect width="139.87" height="14.43" transform="translate(7.081 5.95)" fill="#8abfc6"/><path d="M131.48,31.29V98.534H18.99V31.29H131.48M145.17,17.6H5.3v94.624H145.17V17.6Z" transform="translate(1.781 5.915)" fill="#a0a437"/><g transform="translate(6.798 6.592)"><path d="M7.407,4.934A2.319,2.319,0,1,0,9.727,7.253,2.322,2.322,0,0,0,7.407,4.934Z" transform="translate(-5.088 -4.934)" fill="#404041"/><path d="M12.551,4.934a2.319,2.319,0,1,0,2.321,2.319A2.321,2.321,0,0,0,12.551,4.934Z" transform="translate(-3.359 -4.934)" fill="#404041"/><path d="M17.7,4.934a2.319,2.319,0,1,0,2.319,2.319A2.322,2.322,0,0,0,17.7,4.934Z" transform="translate(-1.63 -4.934)" fill="#404041"/></g><g transform="translate(28.763 43.102)"><path d="M43.187,80.119,21.527,58.459,43.187,36.8l2.834,2.834L27.2,58.459,46.021,77.285Z" transform="translate(-21.527 -30.734)" fill="#404041"/><path d="M70.078,80.119l-2.834-2.834L86.068,58.459,67.244,39.634,70.078,36.8,91.736,58.459Z" transform="translate(-6.162 -30.734)" fill="#404041"/><rect width="55.804" height="4.009" transform="translate(35.14 54.634) rotate(-78.244)" fill="#404041"/></g><path d="M143.1,109.246H0V0H143.1ZM3.231,106.015H139.87V3.231H3.231Z" fill="#404041"/><rect width="141.034" height="3.252" transform="translate(0.45 14.419)" fill="#404041"/></g></g></g></svg>