<svg width="187" height="183" viewBox="0 0 187 183" fill="none" xmlns="http://www.w3.org/2000/svg">
<g clip-path="url(#clip0_2_45)">
<path d="M98.41 182.02C146.939 182.02 186.28 142.679 186.28 94.15C186.28 45.6207 146.939 6.28 98.41 6.28C49.8807 6.28 10.54 45.6207 10.54 94.15C10.54 142.679 49.8807 182.02 98.41 182.02Z" fill="white"/>
<path d="M89.87 179.74C72.0954 179.74 54.7199 174.469 39.9409 164.594C25.1619 154.719 13.643 140.683 6.84094 124.262C0.0388932 107.84 -1.74083 89.7703 1.72682 72.3372C5.19448 54.9042 13.7538 38.8909 26.3223 26.3223C38.8909 13.7538 54.9042 5.19449 72.3372 1.72684C89.7703 -1.74082 107.84 0.0389085 124.262 6.84096C140.683 13.643 154.719 25.1619 164.594 39.9409C174.469 54.72 179.74 72.0954 179.74 89.87C179.706 113.694 170.226 136.533 153.38 153.38C136.533 170.226 113.694 179.706 89.87 179.74ZM89.87 4.00001C72.8865 4.00001 56.2844 9.0362 42.1632 18.4717C28.0419 27.9072 17.0358 41.3183 10.5365 57.009C4.03716 72.6997 2.33665 89.9653 5.64996 106.622C8.96328 123.28 17.1416 138.58 29.1507 150.589C41.1599 162.598 56.4604 170.777 73.1176 174.09C89.7747 177.403 107.04 175.703 122.731 169.204C138.422 162.704 151.833 151.698 161.268 137.577C170.704 123.456 175.74 106.853 175.74 89.87C175.706 67.1064 166.648 45.285 150.551 29.1887C134.455 13.0924 112.634 4.03439 89.87 4.00001V4.00001Z" fill="#8ABFC6"/>
<path d="M50.32 58.05H89.39V102.64H50.32V58.05ZM127.25 93.75H149.07V115.57H127.25V93.75Z" fill="#A0A437"/>
<path d="M88 102.64H85.44V56.83H48.61V102.64H46.06V55.56C46.0587 55.3924 46.0905 55.2262 46.1538 55.0709C46.217 54.9157 46.3103 54.7745 46.4284 54.6555C46.5465 54.5365 46.6869 54.4421 46.8417 54.3776C46.9964 54.3132 47.1624 54.28 47.33 54.28H86.71C86.8793 54.2773 87.0474 54.3085 87.2045 54.3718C87.3615 54.4351 87.5044 54.5291 87.6246 54.6483C87.7447 54.7676 87.8399 54.9097 87.9044 55.0663C87.9688 55.2228 88.0013 55.3907 88 55.56V102.64Z" fill="#404041"/>
<path d="M113.83 75.92L101.41 68.77V83.06L105.41 78.6L108.79 84.45L111.16 83.08L107.81 77.28L113.83 75.92Z" fill="#8BC0C6"/>
<path d="M100.42 68.29L112.84 75.43L106.84 76.79L110.19 82.6L107.81 84L104.43 78.16L100.43 82.62V68.29H100.42ZM100.43 66.53C99.964 66.5327 99.5179 66.7189 99.1884 67.0484C98.8589 67.3779 98.6726 67.8241 98.67 68.29V82.58C98.6707 82.9355 98.779 83.2825 98.9807 83.5752C99.1824 83.868 99.468 84.0928 99.8 84.22C100.133 84.3432 100.496 84.3643 100.842 84.2806C101.187 84.1969 101.5 84.0122 101.74 83.75L104.13 81.09L106.29 84.84C106.445 85.1084 106.668 85.3312 106.937 85.4857C107.205 85.6402 107.51 85.7211 107.82 85.72C108.126 85.7184 108.426 85.6356 108.69 85.48L111.06 84.12C111.462 83.883 111.756 83.4995 111.88 83.05C111.941 82.8276 111.956 82.5952 111.925 82.3668C111.894 82.1383 111.818 81.9183 111.7 81.72L109.53 78L113.23 77.16C113.576 77.0841 113.89 76.9051 114.132 76.6469C114.374 76.3886 114.531 76.0631 114.584 75.7133C114.637 75.3635 114.583 75.0059 114.429 74.6875C114.275 74.3692 114.027 74.1051 113.72 73.93L101.3 66.76C101.03 66.6117 100.728 66.5327 100.42 66.53H100.43Z" fill="#404041"/>
<path d="M104.75 133.83H63.34C62.8173 133.856 62.3012 133.705 61.876 133.399C61.4509 133.094 61.1421 132.654 61 132.15C60.89 131.694 60.9439 131.213 61.1523 130.793C61.3607 130.373 61.7103 130.039 62.14 129.85C63.4078 129.275 64.53 128.421 65.4232 127.353C66.3164 126.285 66.9579 125.03 67.3 123.68C67.7293 121.296 67.8603 118.867 67.69 116.45C67.6686 116.266 67.6867 116.08 67.7431 115.904C67.7994 115.728 67.8927 115.566 68.0167 115.428C68.1407 115.291 68.2925 115.182 68.4621 115.108C68.6317 115.034 68.815 114.997 69 115H99.08C99.2679 114.994 99.4548 115.03 99.6276 115.104C99.8003 115.179 99.9547 115.29 100.08 115.43C100.2 115.566 100.291 115.724 100.347 115.896C100.404 116.068 100.425 116.25 100.41 116.43C100.234 118.846 100.361 121.275 100.79 123.66C101.137 125.009 101.781 126.264 102.675 127.331C103.57 128.399 104.692 129.253 105.96 129.83C106.39 130.019 106.739 130.353 106.948 130.773C107.156 131.193 107.21 131.674 107.1 132.13C106.961 132.639 106.653 133.086 106.225 133.395C105.798 133.704 105.277 133.858 104.75 133.83V133.83ZM65 131.22H103.17C100.68 129.615 98.9124 127.105 98.24 124.22C97.8404 122.054 97.6728 119.852 97.74 117.65H70.38C70.4566 119.851 70.2923 122.054 69.89 124.22C69.2245 127.097 67.4723 129.605 65 131.22V131.22Z" fill="#404041"/>
<path d="M84 112.45C83.5435 112.448 83.0979 112.311 82.7194 112.056C82.3408 111.801 82.0463 111.439 81.873 111.017C81.6997 110.595 81.6553 110.131 81.7456 109.683C81.8359 109.236 82.0566 108.825 82.3801 108.503C82.7035 108.181 83.1152 107.962 83.563 107.874C84.0108 107.785 84.4748 107.832 84.8963 108.007C85.3178 108.182 85.678 108.478 85.9314 108.858C86.1848 109.237 86.32 109.684 86.32 110.14C86.3173 110.754 86.0717 111.341 85.6369 111.774C85.2021 112.207 84.6136 112.45 84 112.45V112.45Z" fill="#A0A437"/>
<path d="M118.76 117.63H37.57C35.8761 117.627 34.2523 116.953 33.0545 115.756C31.8567 114.558 31.1826 112.934 31.18 111.24V104C31.18 103.653 31.318 103.319 31.5637 103.074C31.8094 102.828 32.1426 102.69 32.49 102.69H52.43C52.7774 102.69 53.1106 102.828 53.3563 103.074C53.602 103.319 53.74 103.653 53.74 104C53.74 104.347 53.602 104.681 53.3563 104.926C53.1106 105.172 52.7774 105.31 52.43 105.31H33.79V111.31C33.8135 112.297 34.2221 113.235 34.9285 113.925C35.6348 114.614 36.5829 115 37.57 115H118.76C118.941 114.984 119.123 115.006 119.295 115.064C119.467 115.123 119.625 115.216 119.759 115.339C119.893 115.462 120 115.611 120.073 115.777C120.147 115.944 120.184 116.123 120.184 116.305C120.184 116.487 120.147 116.666 120.073 116.833C120 116.999 119.893 117.148 119.759 117.271C119.625 117.394 119.467 117.487 119.295 117.546C119.123 117.604 118.941 117.626 118.76 117.61V117.63Z" fill="#404041"/>
<path d="M118.69 105.26H32.49C32.1511 105.26 31.8252 105.129 31.5809 104.894C31.3366 104.659 31.1929 104.339 31.18 104V51.46C31.1826 49.6521 31.902 47.9189 33.1804 46.6405C34.4589 45.362 36.192 44.6427 38 44.64H130.09C131.898 44.6427 133.631 45.362 134.91 46.6405C136.188 47.9189 136.907 49.6521 136.91 51.46V77.07C136.881 77.3964 136.732 77.7002 136.49 77.9216C136.248 78.1429 135.933 78.2657 135.605 78.2657C135.277 78.2657 134.962 78.1429 134.72 77.9216C134.478 77.7002 134.329 77.3964 134.3 77.07V51.46C134.297 50.3443 133.853 49.275 133.064 48.486C132.275 47.6971 131.206 47.2527 130.09 47.25H38C36.8842 47.2527 35.8149 47.6971 35.026 48.486C34.237 49.275 33.7926 50.3443 33.79 51.46V102.64H118.69C119.037 102.64 119.371 102.778 119.616 103.024C119.862 103.269 120 103.603 120 103.95C120 104.297 119.862 104.631 119.616 104.876C119.371 105.122 119.037 105.26 118.69 105.26V105.26ZM122.14 120.15H149.06V122.76H122.14V120.15Z" fill="#404041"/>
<path d="M149.86 133.83H121.34C120.308 133.83 119.319 133.42 118.589 132.691C117.86 131.961 117.45 130.972 117.45 129.94V79.65C117.453 78.6191 117.863 77.6312 118.592 76.9023C119.321 76.1733 120.309 75.7626 121.34 75.76H149.86C150.891 75.7626 151.879 76.1733 152.608 76.9023C153.337 77.6312 153.747 78.6191 153.75 79.65V129.94C153.75 130.972 153.34 131.961 152.611 132.691C151.881 133.42 150.892 133.83 149.86 133.83V133.83ZM121.34 78.37C121.002 78.3726 120.679 78.5087 120.441 78.7484C120.203 78.9882 120.07 79.3123 120.07 79.65V129.94C120.069 130.108 120.101 130.274 120.164 130.429C120.227 130.584 120.32 130.726 120.438 130.845C120.556 130.963 120.697 131.058 120.852 131.122C121.006 131.187 121.172 131.22 121.34 131.22H149.86C150.199 131.22 150.525 131.085 150.765 130.845C151.005 130.605 151.14 130.279 151.14 129.94V79.65C151.137 79.3113 151.002 78.9873 150.762 78.7478C150.523 78.5083 150.199 78.3726 149.86 78.37H121.34Z" fill="#404041"/>
<path d="M135.6 129.24C135.165 129.238 134.741 129.107 134.38 128.864C134.02 128.621 133.74 128.277 133.575 127.875C133.41 127.473 133.367 127.031 133.453 126.605C133.539 126.179 133.75 125.788 134.058 125.481C134.366 125.174 134.758 124.966 135.184 124.882C135.611 124.797 136.053 124.842 136.454 125.008C136.856 125.175 137.199 125.457 137.44 125.819C137.681 126.18 137.81 126.605 137.81 127.04C137.81 127.33 137.753 127.617 137.642 127.884C137.53 128.152 137.367 128.395 137.162 128.599C136.957 128.804 136.713 128.965 136.445 129.075C136.177 129.185 135.89 129.241 135.6 129.24V129.24Z" fill="#A0A437"/>
<path d="M138.94 84H132.26C131.934 83.9714 131.63 83.8215 131.408 83.58C131.187 83.3384 131.064 83.0226 131.064 82.695C131.064 82.3674 131.187 82.0516 131.408 81.8101C131.63 81.5685 131.934 81.4186 132.26 81.39H138.94C139.121 81.3742 139.303 81.3961 139.475 81.4545C139.647 81.5129 139.805 81.6064 139.939 81.7291C140.073 81.8518 140.18 82.0011 140.253 82.1674C140.327 82.3337 140.364 82.5133 140.364 82.695C140.364 82.8767 140.327 83.0564 140.253 83.2227C140.18 83.3889 140.073 83.5382 139.939 83.6609C139.805 83.7836 139.647 83.8771 139.475 83.9355C139.303 83.9939 139.121 84.0159 138.94 84V84Z" fill="#404041"/>
<path d="M146 114.28H124.21C124.05 114.281 123.892 114.251 123.744 114.191C123.596 114.131 123.461 114.042 123.348 113.929C123.235 113.817 123.144 113.683 123.083 113.535C123.022 113.388 122.99 113.23 122.99 113.07V91.25C122.986 91.0873 123.015 90.9254 123.074 90.7739C123.134 90.6224 123.223 90.4844 123.337 90.3679C123.45 90.2514 123.586 90.1588 123.736 90.0956C123.886 90.0325 124.047 90 124.21 90H146C146.324 90 146.634 90.1285 146.863 90.3573C147.091 90.5861 147.22 90.8964 147.22 91.22V113.04C147.224 113.202 147.195 113.364 147.136 113.515C147.076 113.666 146.987 113.803 146.873 113.919C146.759 114.034 146.623 114.126 146.473 114.188C146.323 114.25 146.162 114.281 146 114.28V114.28ZM125.41 111.85H144.79V92.47H125.43L125.41 111.85Z" fill="#404041"/>
<path d="M46.3637 56.3732L48.32 54.7375L87.6921 101.826L85.7359 103.462L46.3637 56.3732Z" fill="#404041"/>
<path d="M46.3623 101.843L85.7345 54.7543L87.6908 56.39L48.3186 103.479L46.3623 101.843Z" fill="#404041"/>
<path d="M123.307 92.1482L125.103 90.3522L146.917 112.166L145.121 113.962L123.307 92.1482Z" fill="#404041"/>
<path d="M123.314 112.166L145.128 90.3522L146.924 92.1482L125.11 113.962L123.314 112.166Z" fill="#404041"/>
</g>
<defs>
<clipPath id="clip0_2_45">
<rect width="186.28" height="182.01" fill="white"/>
</clipPath>
</defs>
</svg>
