<svg xmlns="http://www.w3.org/2000/svg" xmlns:xlink="http://www.w3.org/1999/xlink" width="248.7" height="242.97" viewBox="0 0 248.7 242.97"><defs><clipPath id="a"><rect width="248.7" height="242.97" fill="none"/></clipPath></defs><g transform="translate(-201 -1827.001)"><g transform="translate(325.35 1948.486)"><g transform="translate(-124.35 -121.485)" clip-path="url(#a)"><path d="M248.7,125.7A117.3,117.3,0,1,1,131.4,8.4,117.3,117.3,0,0,1,248.7,125.7" fill="#fff"/><circle cx="117.3" cy="117.3" r="117.3" transform="translate(-45.882 120) rotate(-45)" fill="none" stroke="#8abfc6" stroke-miterlimit="10" stroke-width="5.34"/></g></g><g transform="translate(247.266 1896.678)"><g transform="translate(1.43 1.43)"><path d="M146.249,93.093H6.719A5.289,5.289,0,0,1,1.43,87.8V81.49H151.538V87.8a5.289,5.289,0,0,1-5.289,5.289Z" transform="translate(-1.43 7.662)" fill="none" stroke="#404041" stroke-linecap="round" stroke-linejoin="round" stroke-width="2.87"/><path d="M135.809,1.43H15.2A4.989,4.989,0,0,0,10.21,6.408V90.582H140.764V6.408a4.989,4.989,0,0,0-4.955-4.978Z" transform="translate(-0.433 -1.43)" fill="none" stroke="#404041" stroke-miterlimit="10" stroke-width="2.87"/><line x2="62.56" transform="translate(25.734 23.273)" fill="none" stroke="#86bec4" stroke-linecap="round" stroke-linejoin="round" stroke-width="1.53"/><line x2="62.56" transform="translate(25.734 30.846)" fill="none" stroke="#86bec4" stroke-linecap="round" stroke-linejoin="round" stroke-width="1.53"/><line x2="62.56" transform="translate(25.734 38.429)" fill="none" stroke="#86bec4" stroke-linecap="round" stroke-linejoin="round" stroke-width="1.53"/><line x2="62.56" transform="translate(25.734 46.012)" fill="none" stroke="#86bec4" stroke-linecap="round" stroke-linejoin="round" stroke-width="1.53"/><line x2="62.56" transform="translate(25.734 53.585)" fill="none" stroke="#86bec4" stroke-linecap="round" stroke-linejoin="round" stroke-width="1.53"/><line x2="62.56" transform="translate(25.734 61.168)" fill="none" stroke="#86bec4" stroke-linecap="round" stroke-linejoin="round" stroke-width="1.53"/><line x2="62.56" transform="translate(25.734 68.751)" fill="none" stroke="#86bec4" stroke-linecap="round" stroke-linejoin="round" stroke-width="1.53"/><line x2="62.56" transform="translate(25.734 76.324)" fill="none" stroke="#86bec4" stroke-linecap="round" stroke-linejoin="round" stroke-width="1.53"/><rect width="26.937" height="56.725" transform="translate(98.238 24.743)" fill="#a0a437"/><path d="M19.328,9.243a.813.813,0,0,0-.813-.813.824.824,0,1,0,.813.813Z" transform="translate(0.415 -0.635)" fill="none" stroke="#404041" stroke-miterlimit="10" stroke-width="2.29"/><path d="M24.478,9.244a.824.824,0,1,0-.824.824.824.824,0,0,0,.824-.824Z" transform="translate(1 -0.636)" fill="none" stroke="#404041" stroke-miterlimit="10" stroke-width="2.29"/><path d="M29.618,9.244a.824.824,0,1,0-.813.824.813.813,0,0,0,.813-.824Z" transform="translate(1.584 -0.636)" fill="none" stroke="#404041" stroke-miterlimit="10" stroke-width="2.29"/><rect width="26.937" height="56.725" transform="translate(95.243 21.948)" fill="none" stroke="#404041" stroke-linejoin="round" stroke-width="2.57"/></g></g></g></svg>