<svg xmlns="http://www.w3.org/2000/svg" xmlns:xlink="http://www.w3.org/1999/xlink" width="248.7" height="242.97" viewBox="0 0 248.7 242.97"><defs><clipPath id="a"><rect width="248.7" height="242.97" fill="none"/></clipPath><clipPath id="b"><rect width="173.4" height="123.39" fill="none"/></clipPath></defs><g transform="translate(-196 -2617.015)"><g transform="translate(320.35 2738.5)"><g transform="translate(-124.35 -121.485)" clip-path="url(#a)"><path d="M248.7,125.7A117.3,117.3,0,1,1,131.4,8.4,117.3,117.3,0,0,1,248.7,125.7" fill="#fff"/><circle cx="117.3" cy="117.3" r="117.3" transform="translate(-45.882 120) rotate(-45)" fill="none" stroke="#8abfc6" stroke-miterlimit="10" stroke-width="5.34"/></g></g><g transform="translate(320.351 2743.695)"><g transform="translate(-86.7 -61.695)" clip-path="url(#b)"><path d="M100.2,100.5A11.9,11.9,0,1,1,88.3,88.6a11.9,11.9,0,0,1,11.9,11.9" fill="#8abfc6"/><path d="M104.8,51.4H134a11.1,11.1,0,0,0,11.1-11.1v-20H134V37.6a2.6,2.6,0,0,1-2.6,2.6H42.5a2.6,2.6,0,0,1-2.6-2.6V20.3H28.7v20A11.1,11.1,0,0,0,39.8,51.4H69" fill="none" stroke="#404041" stroke-linecap="round" stroke-miterlimit="10" stroke-width="3.88"/><path d="M77.6,51.4V62.9a2.6,2.6,0,0,0,2.6,2.5H93.7a2.6,2.6,0,0,0,2.6-2.5V51.4" fill="none" stroke="#404041" stroke-linecap="round" stroke-miterlimit="10" stroke-width="3.88"/><line x2="63.8" transform="translate(1.9 20.3)" fill="none" stroke="#404041" stroke-linecap="round" stroke-miterlimit="10" stroke-width="3.88"/><line x2="63.8" transform="translate(107.7 20.3)" fill="none" stroke="#404041" stroke-linecap="round" stroke-miterlimit="10" stroke-width="3.88"/><path d="M28.7,12.2V7.5a5.55,5.55,0,1,1,11.1,0v4.7" fill="none" stroke="#404041" stroke-linecap="round" stroke-miterlimit="10" stroke-width="3.88"/><path d="M134,12.2V7.5a5.55,5.55,0,0,1,11.1,0v4.7" fill="none" stroke="#404041" stroke-linecap="round" stroke-miterlimit="10" stroke-width="3.88"/><rect width="65.3" height="43.72" rx="2.1" transform="translate(54.3 77.7)" fill="none" stroke="#404041" stroke-linecap="round" stroke-miterlimit="10" stroke-width="3.88"/><line y2="12.3" transform="translate(86.9 65.4)" fill="none" stroke="#404041" stroke-linecap="round" stroke-miterlimit="10" stroke-width="3.88"/><circle cx="14.2" cy="14.2" r="14.2" transform="translate(72.7 85.4)" fill="none" stroke="#404041" stroke-linecap="round" stroke-miterlimit="10" stroke-width="3.88"/><path d="M93.4,99.6a6.5,6.5,0,0,0-6.5-6.5" fill="none" stroke="#fff" stroke-linecap="round" stroke-miterlimit="10" stroke-width="3.88"/><path d="M108.2,83.4v3.7a1.9,1.9,0,0,0,1.9,1.9h3.7" fill="none" stroke="#404041" stroke-linecap="round" stroke-miterlimit="10" stroke-width="3.88"/></g></g></g></svg>