<svg xmlns="http://www.w3.org/2000/svg" xmlns:xlink="http://www.w3.org/1999/xlink" width="248.7" height="242.97" viewBox="0 0 248.7 242.97"><defs><clipPath id="a"><rect width="248.7" height="242.97" fill="none"/></clipPath><clipPath id="b"><rect width="160.807" height="163.68" fill="none"/></clipPath></defs><g transform="translate(-196 -1419.015)"><g transform="translate(320.35 1540.5)"><g transform="translate(-124.35 -121.485)" clip-path="url(#a)"><path d="M248.7,125.7A117.3,117.3,0,1,1,131.4,8.4,117.3,117.3,0,0,1,248.7,125.7" fill="#fff"/><circle cx="117.3" cy="117.3" r="117.3" transform="translate(-45.882 120) rotate(-45)" fill="none" stroke="#8abfc6" stroke-miterlimit="10" stroke-width="5.34"/></g></g><g transform="translate(325.35 1540.5)"><g transform="translate(-80.404 -81.84)" clip-path="url(#b)"><path d="M72.983,143.8,31.61,185.17a17.642,17.642,0,0,1-24.98,0,12.958,12.958,0,0,1,0-18.345L51.36,122.175a1.561,1.561,0,0,1,2.186,0l19.437,19.437a1.561,1.561,0,0,1,0,2.186" transform="translate(-0.62 -26.705)" fill="#a2a637"/><path d="M168.554,58.577A36.377,36.377,0,1,1,132.177,22.2a36.377,36.377,0,0,1,36.377,36.377" transform="translate(-21.017 -4.87)" fill="#8bc0c6"/><path d="M175.419,52.46A49.96,49.96,0,1,1,125.46,2.5,49.96,49.96,0,0,1,175.419,52.46Z" transform="translate(-16.563 -0.548)" fill="none" stroke="#414042" stroke-miterlimit="10" stroke-width="3.903"/><path d="M167.057,55.728A38.328,38.328,0,1,1,128.728,17.4a38.328,38.328,0,0,1,38.328,38.328Z" transform="translate(-19.832 -3.817)" fill="none" stroke="#414042" stroke-miterlimit="10" stroke-width="3.903"/><path d="M98.095,117.2,85.6,129.695l-13.5-13.5L84.59,103.7" transform="translate(-15.817 -22.75)" fill="none" stroke="#414042" stroke-miterlimit="10" stroke-width="3.903"/><path d="M71.8,139.843,29.408,182.231a15.69,15.69,0,0,1-22.17-22.17l42.388-42.388a3.981,3.981,0,0,1,5.62,0L71.8,134.223A3.981,3.981,0,0,1,71.8,139.843Z" transform="translate(-0.681 -25.561)" fill="none" stroke="#414042" stroke-miterlimit="10" stroke-width="3.903"/><path d="M152.8,34.5a27.087,27.087,0,0,1,16.705,25.058" transform="translate(-33.522 -7.569)" fill="none" stroke="#fff" stroke-miterlimit="10" stroke-width="3.903"/></g></g></g></svg>