<svg width="332" height="332" viewBox="0 0 332 332" fill="none" xmlns="http://www.w3.org/2000/svg">
<path d="M294.582 171.587C294.582 194.787 287.702 217.466 274.813 236.756C261.924 256.046 243.605 271.08 222.171 279.958C200.737 288.836 177.152 291.159 154.398 286.633C131.644 282.107 110.743 270.936 94.3384 254.531C77.9337 238.126 66.7619 217.225 62.2359 194.471C57.7098 171.717 60.0328 148.132 68.9109 126.698C77.7891 105.265 92.8237 86.945 112.114 74.0559C131.403 61.1668 154.082 54.2872 177.282 54.2872C208.392 54.2872 238.228 66.6456 260.226 88.6436C282.224 110.642 294.582 140.477 294.582 171.587" fill="white"/>
<path d="M248.831 248.831C294.639 203.022 294.639 128.752 248.831 82.9436C203.022 37.1351 128.752 37.1351 82.9436 82.9436C37.1351 128.752 37.1351 203.022 82.9436 248.831C128.752 294.639 203.022 294.639 248.831 248.831Z" stroke="#8ABFC6" stroke-width="5.34" stroke-miterlimit="10"/>
<path d="M133.176 162.212V157.45H128.414C127.905 157.45 127.416 157.653 127.056 158.013C126.696 158.373 126.494 158.861 126.494 159.37V171.35C126.494 171.703 126.563 172.053 126.699 172.379C126.834 172.705 127.032 173.001 127.281 173.251C127.531 173.501 127.827 173.699 128.153 173.834C128.479 173.969 128.829 174.038 129.182 174.038H132.254V177.878L137.246 174.038H148.459C149.172 174.038 149.856 173.755 150.36 173.251C150.864 172.747 151.147 172.063 151.147 171.35V166.82H137.784C136.562 166.82 135.39 166.335 134.526 165.471C133.661 164.606 133.176 163.434 133.176 162.212" fill="#A2A637"/>
<path d="M184.71 161.597C184.71 163.023 184.144 164.39 183.135 165.399C182.127 166.407 180.76 166.973 179.334 166.973H173.19V174.653L163.128 166.897H140.549C139.843 166.897 139.144 166.758 138.491 166.488C137.839 166.218 137.246 165.822 136.747 165.322C136.248 164.823 135.852 164.23 135.582 163.578C135.312 162.926 135.173 162.226 135.173 161.52V138.941C135.173 137.515 135.739 136.148 136.748 135.14C137.756 134.132 139.123 133.565 140.549 133.565H179.333C180.759 133.565 182.126 134.132 183.134 135.14C184.143 136.148 184.709 137.515 184.709 138.941L184.71 161.597Z" fill="#8BC0C6"/>
<path d="M225.72 174.884C225.353 174.884 225.002 175.03 224.743 175.289C224.484 175.548 224.338 175.9 224.338 176.266V187.633C224.338 188 224.484 188.351 224.743 188.61C225.002 188.87 225.353 189.015 225.72 189.015H236.32C236.487 189.021 236.65 189.066 236.797 189.146C236.944 189.226 237.07 189.339 237.165 189.476L240.083 193.393V190.093C240.083 189.808 240.196 189.535 240.398 189.333C240.599 189.132 240.873 189.018 241.158 189.018H244.384C244.751 189.018 245.102 188.873 245.361 188.614C245.62 188.354 245.766 188.003 245.766 187.636V176.189C245.766 176.008 245.73 175.828 245.661 175.66C245.591 175.493 245.49 175.34 245.361 175.212C245.233 175.084 245.081 174.982 244.913 174.912C244.745 174.843 244.565 174.807 244.384 174.807L225.72 174.884Z" fill="#8BC0C6"/>
<path d="M239.775 195.466C239.477 195.466 239.183 195.397 238.916 195.264C238.65 195.13 238.418 194.937 238.239 194.698L235.167 190.551H225.183C224.246 190.551 223.348 190.179 222.685 189.517C222.023 188.855 221.65 187.956 221.65 187.019V175.652C221.65 174.715 222.022 173.817 222.685 173.154C223.347 172.492 224.246 172.119 225.183 172.119H243.922C244.859 172.119 245.758 172.492 246.42 173.154C247.083 173.817 247.455 174.715 247.455 175.652V187.019C247.455 187.956 247.083 188.855 246.42 189.518C245.758 190.18 244.859 190.552 243.922 190.552H241.772V193.552C241.777 193.958 241.653 194.355 241.419 194.686C241.184 195.017 240.851 195.266 240.466 195.395H239.85L239.775 195.466ZM225.183 174.269C225.002 174.269 224.822 174.305 224.654 174.374C224.486 174.444 224.334 174.546 224.206 174.674C224.077 174.802 223.976 174.955 223.906 175.122C223.837 175.29 223.801 175.47 223.801 175.651V187.019C223.801 187.201 223.837 187.38 223.906 187.548C223.976 187.716 224.077 187.868 224.206 187.997C224.334 188.125 224.486 188.227 224.654 188.296C224.822 188.366 225.002 188.401 225.183 188.401H235.783C235.95 188.407 236.113 188.452 236.26 188.532C236.407 188.612 236.533 188.725 236.628 188.862L239.546 192.779V189.479C239.546 189.194 239.659 188.921 239.861 188.719C240.062 188.518 240.336 188.404 240.621 188.404H243.85C244.032 188.404 244.211 188.369 244.379 188.299C244.547 188.23 244.699 188.128 244.827 188C244.956 187.871 245.057 187.719 245.127 187.551C245.196 187.383 245.232 187.204 245.232 187.022V175.652C245.232 175.471 245.196 175.291 245.127 175.123C245.058 174.955 244.956 174.803 244.828 174.674C244.699 174.546 244.547 174.444 244.379 174.375C244.211 174.305 244.032 174.269 243.85 174.269H225.183Z" fill="#4D4D4D"/>
<path d="M158.674 211.979H179.257C178.991 215.47 179.171 218.98 179.795 222.424C180.563 226.341 183.481 229.874 187.782 232.101C189.011 232.715 188.396 234.175 187.014 234.175H130.414C128.955 234.175 128.414 232.716 129.646 232.101C133.946 229.874 136.865 226.418 137.633 222.424C138.257 218.98 138.437 215.47 138.171 211.979H158.674Z" stroke="#4D4D4D" stroke-width="3.571" stroke-linecap="round" stroke-linejoin="round"/>
<path d="M158.673 204.835C159.436 204.835 160.055 204.217 160.055 203.453C160.055 202.69 159.436 202.071 158.673 202.071C157.91 202.071 157.291 202.69 157.291 203.453C157.291 204.217 157.91 204.835 158.673 204.835Z" stroke="#A2A637" stroke-width="3.571" stroke-linecap="round" stroke-linejoin="round"/>
<path d="M206.213 211.979H95.159C93.3054 211.979 91.5277 211.243 90.217 209.932C88.9063 208.622 88.17 206.844 88.17 204.99V195.006H115.434" stroke="#4D4D4D" stroke-width="3.571" stroke-linecap="round" stroke-linejoin="round"/>
<path d="M206.059 195.005H88.17V123.196C88.17 121.2 88.9629 119.286 90.3743 117.875C91.7857 116.463 93.7 115.67 95.696 115.67H221.65C223.646 115.67 225.56 116.463 226.972 117.875C228.383 119.286 229.176 121.2 229.176 123.196V158.218" stroke="#4D4D4D" stroke-width="3.571" stroke-linecap="round" stroke-linejoin="round"/>
<path d="M247.609 218.968H210.821" stroke="#4D4D4D" stroke-width="3.571" stroke-miterlimit="10"/>
<path d="M248.684 234.097H209.746C208.809 234.097 207.91 233.725 207.248 233.062C206.585 232.4 206.213 231.501 206.213 230.564V161.751C206.213 160.814 206.585 159.916 207.248 159.253C207.91 158.591 208.809 158.218 209.746 158.218H248.761C249.698 158.218 250.597 158.591 251.259 159.253C251.922 159.916 252.294 160.814 252.294 161.751V230.564C252.294 231.035 252.2 231.501 252.018 231.934C251.836 232.368 251.568 232.761 251.232 233.09C250.896 233.419 250.497 233.678 250.06 233.851C249.622 234.024 249.154 234.108 248.684 234.097V234.097Z" stroke="#4D4D4D" stroke-width="3.571" stroke-miterlimit="10"/>
<path d="M230.483 226.571C230.483 226.328 230.411 226.091 230.276 225.888C230.141 225.686 229.949 225.529 229.724 225.436C229.5 225.343 229.253 225.318 229.014 225.366C228.776 225.413 228.557 225.53 228.385 225.702C228.213 225.874 228.096 226.093 228.049 226.332C228.001 226.57 228.025 226.817 228.118 227.042C228.211 227.266 228.369 227.458 228.571 227.593C228.773 227.728 229.011 227.8 229.254 227.8C229.58 227.8 229.892 227.671 230.123 227.44C230.353 227.21 230.483 226.897 230.483 226.571V226.571Z" stroke="#A2A637" stroke-width="3.571" stroke-miterlimit="10"/>
<path d="M224.645 165.898H233.784" stroke="#4D4D4D" stroke-width="3.571" stroke-linecap="round" stroke-linejoin="round"/>
<path d="M178.177 129.648H139.396C137.135 129.648 134.967 130.546 133.368 132.145C131.769 133.744 130.871 135.912 130.871 138.173V153.379H127.953C127.247 153.379 126.548 153.518 125.895 153.789C125.243 154.059 124.65 154.455 124.151 154.954C123.652 155.454 123.256 156.046 122.986 156.699C122.716 157.351 122.577 158.05 122.577 158.756V171.197C122.577 172.623 123.143 173.99 124.152 174.999C125.16 176.007 126.527 176.573 127.953 176.573H128.798V178.873C128.772 179.294 128.87 179.712 129.08 180.077C129.29 180.442 129.602 180.738 129.979 180.927C130.355 181.116 130.778 181.19 131.197 181.141C131.615 181.091 132.009 180.92 132.331 180.648L137.631 176.578H147.921C149.347 176.578 150.714 176.012 151.722 175.004C152.731 173.995 153.297 172.628 153.297 171.202V169.354H160.897L170.958 177.034C171.421 177.389 171.988 177.578 172.571 177.572C172.924 177.572 173.273 177.503 173.6 177.368C173.926 177.233 174.222 177.035 174.472 176.785C174.721 176.535 174.919 176.239 175.054 175.913C175.189 175.587 175.259 175.237 175.259 174.884V169.354H178.177C179.303 169.354 180.418 169.131 181.457 168.698C182.496 168.265 183.439 167.63 184.232 166.831C185.024 166.031 185.651 165.083 186.075 164.04C186.499 162.997 186.712 161.88 186.702 160.754V138.173C186.702 135.912 185.804 133.744 184.205 132.145C182.606 130.546 180.438 129.648 178.177 129.648V129.648ZM150.148 171.197C150.148 171.788 149.913 172.354 149.496 172.772C149.078 173.19 148.512 173.424 147.921 173.424H136.555L132.024 176.88V173.348H127.954C127.363 173.348 126.797 173.114 126.379 172.696C125.962 172.278 125.727 171.712 125.727 171.121V158.832C125.727 158.242 125.962 157.675 126.379 157.258C126.797 156.84 127.363 156.605 127.954 156.605H130.872V160.748C130.862 161.874 131.075 162.991 131.499 164.034C131.923 165.077 132.55 166.025 133.342 166.825C134.135 167.624 135.078 168.259 136.117 168.692C137.156 169.125 138.271 169.348 139.397 169.348H150.148V171.197ZM183.557 160.748C183.557 161.455 183.419 162.155 183.149 162.808C182.878 163.461 182.482 164.054 181.982 164.554C181.483 165.053 180.889 165.45 180.236 165.72C179.583 165.99 178.884 166.129 178.177 166.128H172.037V173.808L161.977 166.128H139.396C138.69 166.128 137.99 165.989 137.338 165.719C136.685 165.448 136.092 165.052 135.593 164.552C135.094 164.053 134.698 163.46 134.428 162.807C134.158 162.154 134.019 161.455 134.02 160.748V138.173C134.02 136.747 134.586 135.38 135.595 134.372C136.603 133.364 137.97 132.797 139.396 132.797H178.177C179.603 132.797 180.97 133.364 181.978 134.372C182.987 135.38 183.553 136.747 183.553 138.173L183.557 160.748Z" fill="#4D4D4D"/>
<path d="M150.149 151.383C150.828 151.383 151.378 150.833 151.378 150.154C151.378 149.476 150.828 148.925 150.149 148.925C149.47 148.925 148.92 149.476 148.92 150.154C148.92 150.833 149.47 151.383 150.149 151.383Z" stroke="white" stroke-width="4.278" stroke-miterlimit="10"/>
<path d="M159.903 150.154C159.903 149.911 159.831 149.674 159.696 149.471C159.561 149.269 159.369 149.112 159.144 149.019C158.92 148.926 158.673 148.901 158.434 148.949C158.196 148.996 157.977 149.113 157.805 149.285C157.633 149.457 157.516 149.676 157.469 149.915C157.421 150.153 157.446 150.4 157.539 150.625C157.632 150.849 157.789 151.041 157.991 151.176C158.193 151.311 158.431 151.383 158.674 151.383C159 151.383 159.313 151.254 159.543 151.023C159.774 150.793 159.903 150.48 159.903 150.154Z" stroke="white" stroke-width="4.278" stroke-miterlimit="10"/>
<path d="M167.275 151.383C167.954 151.383 168.504 150.833 168.504 150.154C168.504 149.476 167.954 148.925 167.275 148.925C166.596 148.925 166.046 149.476 166.046 150.154C166.046 150.833 166.596 151.383 167.275 151.383Z" stroke="white" stroke-width="4.278" stroke-miterlimit="10"/>
<path d="M230.329 181.105C230.329 180.953 230.284 180.805 230.2 180.679C230.115 180.552 229.995 180.454 229.855 180.396C229.715 180.338 229.56 180.322 229.411 180.352C229.262 180.382 229.125 180.455 229.018 180.562C228.91 180.67 228.837 180.806 228.808 180.955C228.778 181.104 228.793 181.259 228.851 181.399C228.91 181.54 229.008 181.659 229.134 181.744C229.261 181.828 229.409 181.873 229.561 181.873C229.765 181.873 229.96 181.792 230.104 181.648C230.248 181.504 230.329 181.309 230.329 181.105V181.105Z" stroke="white" stroke-width="2.15" stroke-miterlimit="10"/>
<path d="M235.474 181.105C235.474 180.953 235.429 180.805 235.345 180.679C235.26 180.552 235.14 180.454 235 180.396C234.86 180.338 234.705 180.322 234.556 180.352C234.407 180.382 234.27 180.455 234.163 180.562C234.056 180.67 233.982 180.806 233.953 180.955C233.923 181.104 233.938 181.259 233.996 181.399C234.055 181.54 234.153 181.659 234.279 181.744C234.406 181.828 234.554 181.873 234.706 181.873C234.91 181.873 235.105 181.792 235.249 181.648C235.393 181.504 235.474 181.309 235.474 181.105V181.105Z" stroke="white" stroke-width="2.15" stroke-miterlimit="10"/>
<path d="M240.62 181.105C240.62 180.953 240.575 180.805 240.491 180.679C240.406 180.552 240.286 180.454 240.146 180.396C240.006 180.338 239.851 180.322 239.702 180.352C239.553 180.382 239.416 180.455 239.309 180.562C239.202 180.67 239.128 180.806 239.099 180.955C239.069 181.104 239.084 181.259 239.142 181.399C239.201 181.54 239.299 181.659 239.425 181.744C239.552 181.828 239.7 181.873 239.852 181.873C240.056 181.873 240.251 181.792 240.395 181.648C240.539 181.504 240.62 181.309 240.62 181.105V181.105Z" stroke="white" stroke-width="2.15" stroke-miterlimit="10"/>
</svg>
