<svg xmlns="http://www.w3.org/2000/svg" xmlns:xlink="http://www.w3.org/1999/xlink" width="118.1" height="196.39" viewBox="0 0 118.1 196.39"><defs><clipPath id="a"><rect width="118.1" height="196.39" fill="none"/></clipPath></defs><g transform="translate(59.05 98.195)"><g transform="translate(-59.05 -98.195)" clip-path="url(#a)"><path d="M117.9,46.8A46.8,46.8,0,1,1,71.1,0a46.8,46.8,0,0,1,46.8,46.8" fill="#8abfc6"/><path d="M74.3,33.1,77.8,12H40.3l3.4,21.1" fill="#fff"/><path d="M74.3,33.1,77.8,12H40.3l3.4,21.1" fill="none" stroke="#404041" stroke-linecap="round" stroke-linejoin="round" stroke-width="3.88"/><path d="M74.2,62.3l21,5.3V30.1l-20.8,3" fill="#fff"/><path d="M74.2,62.3l21,5.3V30.1l-20.8,3" fill="none" stroke="#404041" stroke-linecap="round" stroke-linejoin="round" stroke-width="3.88"/><path d="M43.7,62.4l-4,19.5H77.2L74.3,62.2" fill="#fff"/><path d="M43.7,62.4l-4,19.5H77.2L74.3,62.2" fill="none" stroke="#404041" stroke-linecap="round" stroke-linejoin="round" stroke-width="3.88"/><path d="M43.7,33,22.3,29.4V67l21.4-4.6" fill="#fff"/><path d="M43.7,33,22.3,29.4V67l21.4-4.6" fill="none" stroke="#404041" stroke-linecap="round" stroke-linejoin="round" stroke-width="3.88"/><rect width="30.6" height="29.44" transform="translate(43.8 33)" fill="#fff"/><rect width="30.6" height="29.44" transform="translate(43.8 33)" fill="none" stroke="#404041" stroke-linecap="round" stroke-linejoin="round" stroke-width="3.88"/><rect width="13.7" height="17.88" transform="translate(56.2 102.6)" fill="#a2a637"/><path d="M66.6,47.8a7.5,7.5,0,1,1-7.5-7.5,7.5,7.5,0,0,1,7.5,7.5" fill="#fff"/><path d="M66.6,47.8a7.5,7.5,0,1,1-7.5-7.5,7.5,7.5,0,0,1,7.5,7.5Z" fill="none" stroke="#404041" stroke-linecap="round" stroke-linejoin="round" stroke-width="3.88"/><line x1="42" y2="76.1" transform="translate(10.3 117.1)" fill="none" stroke="#404041" stroke-linecap="round" stroke-linejoin="round" stroke-width="3.88"/><line x2="41.9" y2="76.3" transform="translate(66.3 116.9)" fill="none" stroke="#404041" stroke-linecap="round" stroke-linejoin="round" stroke-width="3.88"/><line x2="15.9" transform="translate(2.4 194)" fill="none" stroke="#404041" stroke-linecap="round" stroke-linejoin="round" stroke-width="3.88"/><line x2="15.9" transform="translate(51 194)" fill="none" stroke="#404041" stroke-linecap="round" stroke-linejoin="round" stroke-width="3.88"/><line x2="15.9" transform="translate(99.9 194)" fill="none" stroke="#404041" stroke-linecap="round" stroke-linejoin="round" stroke-width="3.88"/><line y1="14.2" x2="0.2" transform="translate(59 82.3)" fill="none" stroke="#404041" stroke-linecap="round" stroke-linejoin="round" stroke-width="3.88"/><line y2="75.7" transform="translate(59.2 117.3)" fill="none" stroke="#404041" stroke-linecap="round" stroke-linejoin="round" stroke-width="3.88"/><rect width="13.8" height="18.03" transform="translate(52.5 98.6)" fill="none" stroke="#404041" stroke-linecap="round" stroke-linejoin="round" stroke-width="3.88"/></g></g></svg>