<svg width="109" height="160" viewBox="0 0 109 160" fill="none" xmlns="http://www.w3.org/2000/svg">
<path d="M108.16 51.74C108.16 61.9238 105.14 71.8788 99.4824 80.3463C93.8246 88.8138 85.7829 95.4134 76.3744 99.3106C66.9658 103.208 56.6129 104.227 46.6248 102.241C36.6367 100.254 27.4621 95.3499 20.2611 88.1489C13.0601 80.9479 8.15613 71.7733 6.16938 61.7852C4.18263 51.7971 5.2023 41.4442 9.09946 32.0356C12.9966 22.6271 19.5962 14.5854 28.0637 8.92763C36.5312 3.26984 46.4863 0.25 56.67 0.25C63.4318 0.25 70.1273 1.58183 76.3744 4.16944C82.6214 6.75706 88.2977 10.5498 93.0789 15.3311C97.8602 20.1124 101.653 25.7886 104.241 32.0356C106.828 38.2827 108.16 44.9782 108.16 51.74" fill="#8ABFC6"/>
<path d="M60.26 36.64L64.1 13.5H22.83L26.59 36.64" fill="white"/>
<path d="M60.26 38.77H59.91C59.3526 38.6768 58.8546 38.3669 58.5249 37.9078C58.1952 37.4488 58.0604 36.878 58.15 36.32L61.59 15.66H25.34L28.7 36.29C28.7453 36.5664 28.7357 36.8491 28.6718 37.1218C28.6079 37.3945 28.4908 37.652 28.3274 37.8795C28.164 38.107 27.9573 38.3001 27.7193 38.4477C27.4812 38.5954 27.2164 38.6947 26.94 38.74C26.6636 38.7853 26.3809 38.7757 26.1082 38.7118C25.8355 38.6479 25.578 38.5308 25.3505 38.3674C25.123 38.204 24.9299 37.9973 24.7822 37.7593C24.6346 37.5212 24.5353 37.2564 24.49 36.98L20.72 13.84C20.6708 13.5344 20.6885 13.2217 20.7719 12.9236C20.8553 12.6255 21.0023 12.349 21.2029 12.1133C21.4035 11.8775 21.6528 11.6881 21.9338 11.558C22.2147 11.428 22.5204 11.3604 22.83 11.36H64.1C64.41 11.3619 64.7159 11.4307 64.9968 11.5619C65.2777 11.6931 65.5269 11.8835 65.7273 12.12C65.9278 12.3565 66.0747 12.6336 66.158 12.9322C66.2413 13.2308 66.259 13.5439 66.21 13.85L62.36 37C62.2769 37.4962 62.0201 37.9468 61.6354 38.271C61.2506 38.5953 60.7631 38.7722 60.26 38.77V38.77Z" fill="#404041"/>
<path d="M60.11 68.77L83.24 74.61V33.33L60.34 36.63" fill="white"/>
<path d="M83.24 76.74C83.065 76.7398 82.8905 76.7196 82.72 76.68L59.58 70.83C59.0666 70.6665 58.6342 70.3144 58.37 69.8448C58.1058 69.3752 58.0294 68.8229 58.1562 68.2992C58.283 67.7755 58.6036 67.3193 59.0533 67.0225C59.5031 66.7258 60.0486 66.6105 60.58 66.7L81.06 71.87V35.79L60.59 38.79C60.3049 38.847 60.0111 38.8453 59.7267 38.7849C59.4423 38.7246 59.1731 38.607 58.9357 38.4392C58.6982 38.2714 58.4974 38.057 58.3456 37.809C58.1938 37.561 58.0941 37.2847 58.0525 36.9969C58.011 36.7092 58.0286 36.4159 58.1042 36.1352C58.1798 35.8544 58.3118 35.592 58.4922 35.3639C58.6726 35.1359 58.8975 34.947 59.1533 34.8088C59.4091 34.6705 59.6904 34.5859 59.98 34.56L82.89 31.26C83.1926 31.2171 83.5009 31.2396 83.7941 31.3259C84.0873 31.4122 84.3586 31.5602 84.5898 31.7602C84.821 31.9601 85.0067 32.2072 85.1343 32.4849C85.262 32.7626 85.3287 33.0644 85.33 33.37V74.61C85.3281 74.9346 85.2525 75.2546 85.1087 75.5457C84.9649 75.8367 84.7567 76.0913 84.5 76.29C84.141 76.5747 83.6981 76.7329 83.24 76.74V76.74Z" fill="#404041"/>
<path d="M26.59 68.84L22.13 90.29H63.41L60.18 68.61" fill="white"/>
<path d="M63.41 92.42H22.13C21.8134 92.4199 21.5009 92.3488 21.2154 92.2121C20.9299 92.0754 20.6786 91.8765 20.48 91.63C20.2773 91.3858 20.1331 91.0984 20.0586 90.7899C19.9841 90.4813 19.9811 90.1598 20.05 89.85L24.5 68.41C24.5571 68.1355 24.6678 67.875 24.8256 67.6433C24.9834 67.4116 25.1853 67.2132 25.4197 67.0596C25.6542 66.9059 25.9167 66.7999 26.1921 66.7476C26.4675 66.6954 26.7505 66.6979 27.025 66.755C27.2995 66.8121 27.56 66.9227 27.7917 67.0806C28.0234 67.2384 28.2218 67.4403 28.3754 67.6747C28.5291 67.9092 28.6351 68.1717 28.6874 68.4471C28.7396 68.7225 28.7371 69.0055 28.68 69.28L24.76 88.15H60.94L58.07 68.93C58.0286 68.6529 58.0423 68.3704 58.1101 68.0986C58.1779 67.8267 58.2986 67.5709 58.4653 67.3457C58.632 67.1206 58.8414 66.9304 59.0815 66.7862C59.3217 66.6419 59.5879 66.5464 59.865 66.505C60.1421 66.4636 60.4246 66.4772 60.6964 66.5451C60.9683 66.6129 61.2241 66.7336 61.4493 66.9003C61.6744 67.0669 61.8646 67.2764 62.0089 67.5165C62.1531 67.7567 62.2486 68.0229 62.29 68.3L65.52 90C65.5661 90.3036 65.5461 90.6137 65.4612 90.9088C65.3763 91.204 65.2286 91.4773 65.0281 91.71C64.8277 91.9427 64.5793 92.1293 64.3 92.257C64.0207 92.3848 63.7171 92.4506 63.41 92.45V92.42Z" fill="#404041"/>
<path d="M26.59 36.56L2.98999 32.64V73.91L26.59 68.92" fill="white"/>
<path d="M3 76.05C2.5085 76.0483 2.03229 75.8789 1.65001 75.57C1.40217 75.3703 1.20247 75.1175 1.06571 74.8301C0.928949 74.5427 0.858642 74.2283 0.860005 73.91V32.64C0.859364 32.3277 0.927063 32.0191 1.05835 31.7358C1.18964 31.4525 1.38135 31.2014 1.62 31C1.85417 30.7991 2.12955 30.652 2.42672 30.5691C2.7239 30.4861 3.03565 30.4694 3.34 30.52L26.94 34.44C27.4983 34.5328 27.9968 34.8436 28.326 35.304C28.6551 35.7644 28.7878 36.3367 28.695 36.895C28.6022 37.4533 28.2914 37.9518 27.831 38.2809C27.3706 38.6101 26.7983 38.7428 26.24 38.65L5.13001 35.15V71.28L26.13 66.83C26.6585 66.7725 27.1895 66.9137 27.6195 67.2261C28.0496 67.5386 28.348 68 28.4565 68.5204C28.5651 69.0408 28.4761 69.5829 28.2069 70.0413C27.9376 70.4997 27.5074 70.8414 27 71L3.40001 76C3.26841 76.0284 3.13455 76.0452 3 76.05V76.05Z" fill="#404041"/>
<path d="M60.34 36.59H26.67V68.97H60.34V36.59Z" fill="white"/>
<path d="M60.34 71.1H26.67C26.1085 71.1027 25.5687 70.8836 25.1679 70.4903C24.7672 70.097 24.5379 69.5614 24.53 69V36.59C24.53 36.309 24.5854 36.0307 24.6929 35.7711C24.8004 35.5114 24.9581 35.2755 25.1568 35.0768C25.3555 34.8781 25.5914 34.7204 25.8511 34.6129C26.1107 34.5053 26.389 34.45 26.67 34.45H60.34C60.6206 34.45 60.8984 34.5054 61.1574 34.6131C61.4165 34.7208 61.6518 34.8785 61.8497 35.0774C62.0476 35.2762 62.2043 35.5122 62.3107 35.7718C62.4172 36.0314 62.4713 36.3094 62.47 36.59V69C62.4621 69.5597 62.2342 70.0938 61.8356 70.4868C61.437 70.8798 60.8997 71.1001 60.34 71.1V71.1ZM28.8 66.83H58.21V38.72H28.8V66.83Z" fill="#404041"/>
<path d="M55.35 113.05H40.29V132.71H55.35V113.05Z" fill="#A2A637"/>
<path d="M51.71 52.78C51.71 54.4038 51.2285 55.9911 50.3264 57.3412C49.4242 58.6914 48.142 59.7437 46.6418 60.3651C45.1417 60.9864 43.4909 61.149 41.8983 60.8322C40.3057 60.5155 38.8429 59.7335 37.6947 58.5854C36.5465 57.4372 35.7646 55.9743 35.4478 54.3817C35.131 52.7891 35.2936 51.1383 35.915 49.6382C36.5364 48.138 37.5887 46.8558 38.9388 45.9536C40.2889 45.0515 41.8762 44.57 43.5 44.57C45.6774 44.57 47.7657 45.435 49.3054 46.9747C50.845 48.5143 51.71 50.6026 51.71 52.78" fill="white"/>
<path d="M43.5 63.12C41.4525 63.12 39.4511 62.5127 37.7488 61.375C36.0465 60.2373 34.72 58.6203 33.9369 56.7285C33.1538 54.8367 32.9494 52.7551 33.3496 50.7471C33.7498 48.7392 34.7365 46.895 36.185 45.4479C37.6335 44.0008 39.4786 43.0159 41.4869 42.6177C43.4953 42.2194 45.5767 42.4258 47.4677 43.2107C49.3587 43.9956 50.9745 45.3238 52.1106 47.0271C53.2466 48.7305 53.852 50.7325 53.85 52.78C53.8473 55.5233 52.7557 58.1533 50.815 60.0921C48.8743 62.0309 46.2433 63.12 43.5 63.12ZM43.5 46.7C42.2975 46.7 41.122 47.0566 40.1221 47.7247C39.1223 48.3927 38.343 49.3423 37.8828 50.4533C37.4226 51.5643 37.3022 52.7867 37.5368 53.9662C37.7714 55.1456 38.3505 56.2289 39.2008 57.0792C40.0511 57.9295 41.1344 58.5086 42.3138 58.7432C43.4932 58.9778 44.7157 58.8574 45.8267 58.3972C46.9377 57.937 47.8873 57.1577 48.5553 56.1579C49.2234 55.158 49.58 53.9825 49.58 52.78C49.58 51.1675 48.9394 49.621 47.7992 48.4808C46.659 47.3406 45.1125 46.7 43.5 46.7Z" fill="#404041"/>
<path d="M22.36 155.86C22.0092 155.856 21.6652 155.763 21.36 155.59C21.1139 155.455 20.897 155.273 20.7215 155.054C20.546 154.835 20.4155 154.584 20.3374 154.315C20.2594 154.045 20.2353 153.763 20.2667 153.484C20.298 153.205 20.3841 152.935 20.52 152.69L34.1 128C34.2352 127.754 34.4176 127.538 34.6365 127.363C34.8554 127.188 35.1067 127.057 35.376 126.979C35.6453 126.901 35.9273 126.877 36.206 126.908C36.4846 126.939 36.7544 127.025 37 127.16C37.2456 127.295 37.4621 127.478 37.6372 127.697C37.8123 127.915 37.9426 128.167 38.0206 128.436C38.0986 128.705 38.1228 128.987 38.0918 129.266C38.0608 129.545 37.9752 129.814 37.84 130.06L24.23 154.75C24.0476 155.087 23.7774 155.368 23.4482 155.563C23.1189 155.758 22.7429 155.861 22.36 155.86V155.86Z" fill="#404041"/>
<path d="M65.68 156.87C65.2959 156.871 64.9186 156.768 64.5878 156.573C64.257 156.377 63.9849 156.097 63.8 155.76L49.55 129.82C49.3449 129.331 49.3297 128.783 49.5072 128.283C49.6847 127.784 50.0422 127.368 50.5099 127.118C50.9775 126.868 51.5216 126.801 52.0357 126.931C52.5499 127.061 52.9971 127.378 53.29 127.82L67.54 153.76C67.8118 154.256 67.876 154.84 67.7186 155.383C67.5612 155.927 67.1949 156.386 66.7 156.66C66.3812 156.809 66.0318 156.881 65.68 156.87V156.87Z" fill="#404041"/>
<path d="M43.35 108.56C43.0703 108.556 42.7941 108.497 42.5371 108.386C42.2802 108.276 42.0476 108.116 41.8526 107.915C41.6576 107.714 41.504 107.477 41.4006 107.217C41.2972 106.957 41.246 106.68 41.25 106.4L41.48 90.72C41.4839 90.4403 41.5429 90.1641 41.6536 89.9072C41.7643 89.6502 41.9245 89.4176 42.1251 89.2226C42.3257 89.0276 42.5627 88.8741 42.8226 88.7707C43.0825 88.6672 43.3603 88.6161 43.64 88.62C43.9197 88.6239 44.1959 88.6829 44.4528 88.7936C44.7098 88.9043 44.9423 89.0645 45.1374 89.2651C45.3324 89.4656 45.4859 89.7027 45.5893 89.9626C45.6927 90.2225 45.7439 90.5003 45.74 90.78L45.51 106.46C45.5061 106.74 45.4471 107.016 45.3364 107.273C45.2258 107.53 45.0656 107.762 44.865 107.957C44.6644 108.152 44.4274 108.306 44.1674 108.409C43.9075 108.513 43.6297 108.564 43.35 108.56Z" fill="#404041"/>
<path d="M43.58 159.4C43.0151 159.4 42.4733 159.176 42.0739 158.776C41.6744 158.377 41.45 157.835 41.45 157.27V129.27C41.45 128.705 41.6744 128.163 42.0739 127.764C42.4733 127.364 43.0151 127.14 43.58 127.14C44.1449 127.14 44.6867 127.364 45.0862 127.764C45.4856 128.163 45.71 128.705 45.71 129.27V157.27C45.71 157.55 45.6549 157.827 45.5479 158.085C45.4408 158.344 45.2839 158.578 45.0862 158.776C44.8884 158.974 44.6536 159.131 44.3951 159.238C44.1367 159.345 43.8597 159.4 43.58 159.4Z" fill="#404041"/>
<path d="M51.42 130.7H36.2C35.9194 130.7 35.6416 130.645 35.3826 130.537C35.1235 130.429 34.8882 130.271 34.6903 130.073C34.4924 129.874 34.3357 129.638 34.2293 129.378C34.1228 129.119 34.0687 128.841 34.07 128.56V108.73C34.07 108.165 34.2944 107.623 34.6939 107.224C35.0933 106.824 35.6351 106.6 36.2 106.6H51.42C51.9849 106.6 52.5267 106.824 52.9261 107.224C53.3256 107.623 53.55 108.165 53.55 108.73V128.56C53.5513 128.841 53.4972 129.119 53.3907 129.378C53.2843 129.638 53.1276 129.874 52.9297 130.073C52.7318 130.271 52.4965 130.429 52.2374 130.537C51.9784 130.645 51.7006 130.7 51.42 130.7V130.7ZM38.34 126.43H49.34V110.87H38.34V126.43Z" fill="#404041"/>
</svg>
