<svg xmlns="http://www.w3.org/2000/svg" xmlns:xlink="http://www.w3.org/1999/xlink" width="248.7" height="242.97" viewBox="0 0 248.7 242.97"><defs><clipPath id="a"><rect width="248.7" height="242.97" fill="none"/></clipPath></defs><g transform="translate(-201 -2109)"><g transform="translate(325.35 2230.486)"><g transform="translate(-124.35 -121.485)" clip-path="url(#a)"><path d="M248.7,125.7A117.3,117.3,0,1,1,131.4,8.4,117.3,117.3,0,0,1,248.7,125.7" fill="#fff"/><circle cx="117.3" cy="117.3" r="117.3" transform="translate(-45.882 120) rotate(-45)" fill="none" stroke="#8abfc6" stroke-miterlimit="10" stroke-width="5.34"/></g></g><g transform="translate(325.35 2239.329)"><g transform="translate(-63.119 -49.171)"><path d="M46,25.5V52.8L68.789,39.148Z" transform="translate(10.333 4.475)" fill="#989424"/><rect width="126.238" height="73.789" fill="none" stroke="#313133" stroke-linecap="round" stroke-linejoin="round" stroke-width="5.112"/><path d="M42.7,19.1V52.009L70.1,35.554Z" transform="translate(9.408 2.711)" fill="none" stroke="#313133" stroke-linecap="round" stroke-linejoin="round" stroke-width="5.112"/><line x2="73.874" transform="translate(52.365 90.18)" fill="none" stroke="#313133" stroke-linecap="round" stroke-linejoin="round" stroke-width="5.121"/><ellipse cx="8.194" cy="8.163" rx="8.194" ry="8.163" transform="translate(24.71 82.016)" fill="none" stroke="#313133" stroke-linecap="round" stroke-linejoin="round" stroke-width="5.112"/><line x1="13.443" transform="translate(0 90.18)" fill="none" stroke="#313133" stroke-linecap="round" stroke-linejoin="round" stroke-width="5.121"/></g></g></g></svg>