<svg width="1159" height="965" viewBox="0 0 1159 965" fill="none" xmlns="http://www.w3.org/2000/svg">
<path d="M360.4 808.3C351.4 808.3 346.9 796.3 346.9 772.2V177.1C346.9 165.6 344.6 160.2 339.9 160.9C311.5 168.1 297.2 171.7 296.8 171.7C288.9 172.4 285 164.5 285 148V96.3C285 82 289.3 73.9 297.9 72.1L440.1 35.5C441.2 35.2 442.8 35 444.9 35C452.8 35 456.7 43.4 456.7 60.3V772.3C456.7 796.4 452 808.4 442.7 808.4L360.4 808.3ZM728.7 809.4C714.3 809.4 701.9 808.4 691.3 806.4C680.7 804.4 669.7 799.9 658.2 792.9C646.7 785.9 637.3 776.3 629.9 764.1C622.5 751.9 616.5 734.8 611.9 712.9C607.3 691 604.9 665 604.9 634.8V358.6C604.9 351.4 602.9 347.8 599 347.8H565.6C556.6 347.8 552.1 339.2 552.1 322V292.9C552.1 275.3 556.6 266.5 565.6 266.5H599C602.9 266.5 604.9 261.7 604.9 252L614.6 42.5C615.7 23.5 620.3 14 628.6 14H682.5C691.5 14 696 23.5 696 42.5V252C696 261.7 698.1 266.5 702.5 266.5H771.2C780.2 266.5 784.7 275.3 784.7 292.9V322C784.7 339.2 780.2 347.8 771.2 347.8H702.3C699.8 347.8 698.1 348.4 697.2 349.7C696.3 350.9 695.9 353.9 695.9 358.6V636.5C695.9 657.3 697.2 674.7 699.9 688.5C702.6 702.3 706.5 712.5 711.7 718.9C716.9 725.3 722.1 729.7 727.3 731.8C732.5 734 738.9 735 746.4 735H784.6C794.3 735 799.1 741.7 799.1 754.9V787.2C799.1 801.9 793.9 809.3 783.5 809.3L728.7 809.4ZM935.4 874C943.6 874 950.8 867.3 956.9 853.8C963 840.3 966.1 821.2 966.1 796.4C966.1 790.6 962.5 770.7 955.3 736.6L849.7 297.7C849 292.7 848.6 288.7 848.6 285.8C848.6 272.9 851.3 266.4 856.7 266.4H921.9C926.9 266.4 931 268.1 934.3 271.5C937.6 274.9 940.1 281.8 941.8 292.2L1011.8 662.7C1013.2 667 1014.1 669.2 1014.5 669.2C1015.9 669.2 1016.7 667.2 1016.7 663.3L1071.6 293.8C1073 283 1075.3 275.8 1078.3 272C1081.3 268.2 1085.2 266.3 1089.9 266.3H1135.1C1141.2 266.3 1144.3 273.3 1144.3 287.3C1144.3 290.5 1143.9 294.7 1143.2 299.7L1047.3 799C1039.8 840.3 1031.5 871.9 1022.5 893.8C1013.5 915.7 1003.5 930.6 992.3 938.5C981.2 946.4 966.5 950.5 948.1 950.9H942.7C913.6 950.9 893.9 943.2 883.5 927.7C880.6 924.5 879.2 916.2 879.2 902.9C879.2 876.3 883.5 863 892.1 863C892.8 863 899.3 864.8 911.5 868.4C923.9 872.2 931.8 874 935.4 874Z" fill="#F6F6F6" stroke="#F6F6F6" stroke-width="28" stroke-miterlimit="10"/>
<path d="M89.4001 809.3C80.4001 809.3 75.9001 797.3 75.9001 773.2V178.1C75.9001 166.6 73.6001 161.2 68.9001 161.9C40.5001 169.1 26.2001 172.7 25.8001 172.7C17.9001 173.4 14 165.5 14 149V97.3C14 83 18.3 74.9 26.9 73.1L169.2 36.4C170.3 36.1 171.9 35.9 174 35.9C181.9 35.9 185.8 44.3 185.8 61.2V773.2C185.8 797.3 181.1 809.3 171.8 809.3H89.4001Z" fill="#F6F6F6" stroke="#F6F6F6" stroke-width="28" stroke-miterlimit="10"/>
</svg>
