<svg width="194" height="26" viewBox="0 0 194 26" fill="none" xmlns="http://www.w3.org/2000/svg">
<path d="M43.282 13.5599C43.282 10.0119 46.197 7.09588 49.873 7.09588C53.422 7.09588 55.07 9.63088 55.07 9.63088L52.915 11.7859C52.915 11.7859 51.775 10.2659 49.873 10.2659C48.099 10.2659 46.703 11.6589 46.703 13.5609C46.703 15.4629 48.097 16.8559 49.873 16.8559C51.775 16.8559 52.915 15.3359 52.915 15.3359L55.07 17.4899C55.07 17.4899 53.422 20.0259 49.873 20.0259C46.197 20.0259 43.283 17.1089 43.283 13.5609L43.282 13.5599ZM57.353 2.02588H60.776V19.7729H57.353V2.02588ZM63.436 13.5599C63.436 10.0119 66.35 7.09588 70.026 7.09588C73.703 7.09588 76.617 10.0099 76.617 13.5609C76.617 17.1109 73.703 20.0259 70.027 20.0259C66.35 20.0259 63.436 17.1089 63.436 13.5609V13.5599ZM73.196 13.5599C73.196 11.6589 71.802 10.2649 70.026 10.2649C68.251 10.2649 66.856 11.6589 66.856 13.5609C66.856 15.4629 68.251 16.8559 70.026 16.8559C71.802 16.8559 73.196 15.4619 73.196 13.5609V13.5599ZM79.155 14.8289V7.34988H82.578V14.3209C82.578 15.8419 83.465 16.7289 84.858 16.7289C86.38 16.7289 87.52 15.5889 87.52 13.9399V7.34988H90.943V19.7719H87.52V17.9969H87.393C87.393 17.9969 86.125 20.0249 83.716 20.0249C81.182 20.0249 79.155 17.9969 79.155 14.8279V14.8289ZM93.477 13.5599C93.477 9.75888 96.138 7.09588 99.055 7.09588C101.716 7.09588 102.984 9.12288 102.984 9.12288H103.112V2.02588H106.535V19.7729H103.112V17.9979H102.984C102.984 17.9979 101.716 20.0259 99.054 20.0259C96.138 20.0259 93.477 17.3639 93.477 13.5609V13.5599ZM103.238 13.5599C103.238 11.6589 101.844 10.2649 100.068 10.2649C98.292 10.2649 96.898 11.6589 96.898 13.5609C96.898 15.4629 98.292 16.8559 100.068 16.8559C101.844 16.8559 103.238 15.4619 103.238 13.5609V13.5599ZM109.194 13.5599C109.194 10.0119 112.109 7.09588 115.785 7.09588C119.334 7.09588 120.983 9.63088 120.983 9.63088L118.828 11.7859C118.828 11.7859 117.687 10.2659 115.785 10.2659C114.011 10.2659 112.616 11.6589 112.616 13.5609C112.616 15.4629 114.009 16.8559 115.785 16.8559C117.687 16.8559 118.828 15.3359 118.828 15.3359L120.983 17.4899C120.983 17.4899 119.334 20.0259 115.785 20.0259C112.111 20.0259 109.194 17.1089 109.194 13.5609V13.5599ZM122.504 16.4769C122.504 14.4499 123.897 12.9019 126.18 12.4969L130.109 11.7869C129.982 10.8989 129.222 10.1369 127.954 10.1369C126.18 10.1369 125.165 11.5309 125.165 11.5309L123.138 9.50388C123.138 9.50388 124.912 7.09588 128.207 7.09588C131.377 7.09588 133.532 9.25088 133.532 12.0399V19.7729H130.109V18.2519H129.982C129.982 18.2519 128.714 20.0259 126.306 20.0259C124.025 20.0259 122.504 18.5049 122.504 16.4769V16.4769ZM130.109 14.4469V14.1949L127.32 14.7009C126.433 14.8529 125.927 15.3349 125.927 15.9689C125.927 16.7299 126.433 17.2369 127.448 17.2369C128.969 17.2369 130.109 16.0969 130.109 14.4469V14.4469ZM136.828 7.34988H140.25V9.12488H140.378C140.378 9.12488 141.646 7.09688 144.054 7.09688C146.59 7.09688 148.617 9.12488 148.617 12.2939V19.7729H145.194V12.7999C145.194 11.2789 144.307 10.3919 142.912 10.3919C141.391 10.3919 140.25 11.5319 140.25 13.1809V19.7709H136.828V7.34988V7.34988ZM151.911 7.34988H155.334V9.12488H155.462C155.462 9.12488 156.729 7.09688 159.138 7.09688C161.673 7.09688 163.701 9.12488 163.701 12.2939V19.7729H160.278V12.7999C160.278 11.2789 159.391 10.3919 157.996 10.3919C156.474 10.3919 155.334 11.5319 155.334 13.1809V19.7709H151.911V7.34988V7.34988ZM166.235 13.5599C166.235 10.0119 169.15 7.09588 172.826 7.09588C176.502 7.09588 179.417 10.0099 179.417 13.5609C179.417 17.1109 176.502 20.0259 172.826 20.0259C169.15 20.0259 166.235 17.1089 166.235 13.5609V13.5599ZM175.996 13.5599C175.996 11.6589 174.602 10.2649 172.826 10.2649C171.05 10.2649 169.656 11.6589 169.656 13.5609C169.656 15.4629 171.05 16.8559 172.826 16.8559C174.602 16.8559 175.996 15.4619 175.996 13.5609V13.5599ZM181.953 7.34988H185.375V9.12488H185.503C185.503 9.12488 186.771 7.09688 189.179 7.09688C191.715 7.09688 193.742 9.12488 193.742 12.2939V19.7729H190.319V12.7999C190.319 11.2789 189.432 10.3919 188.037 10.3919C186.516 10.3919 185.375 11.5319 185.375 13.1809V19.7709H181.953V7.34988V7.34988Z" fill="white"/>
<path fill-rule="evenodd" clip-rule="evenodd" d="M14.813 21.342C14.993 21.445 15.187 21.548 15.381 21.639C16.826 22.309 17.497 22.749 17.497 23.677C17.497 24.671 16.684 25.484 15.69 25.484C14.916 25.484 14.271 24.994 14.013 24.31C13.5342 24.8004 12.9622 25.19 12.3305 25.4558C11.6988 25.7217 11.0203 25.8584 10.335 25.858C9.6573 25.858 8.98623 25.7245 8.36012 25.4651C7.73402 25.2057 7.16514 24.8256 6.68598 24.3463C6.20681 23.8671 5.82675 23.2981 5.56749 22.672C5.30824 22.0458 5.17487 21.3747 5.175 20.697C5.175 20.426 5.213 20.155 5.252 19.884C2.606 19.11 0.568 16.904 0.103 14.142C0.039 13.742 0 13.342 0 12.929C0 12.516 0.039 12.116 0.103 11.716C0.581 8.968 2.606 6.748 5.252 5.974L5.247 5.94C5.21 5.682 5.174 5.433 5.174 5.161C5.17387 4.48321 5.30727 3.81204 5.56659 3.18582C5.82591 2.55959 6.20606 1.9906 6.68533 1.51133C7.1646 1.03206 7.73359 0.651908 8.35982 0.39259C8.98604 0.133272 9.65721 -0.00013127 10.335 9.69269e-08C11.768 9.69269e-08 13.071 0.594 14.013 1.548C14.1393 1.20457 14.3677 0.908009 14.6675 0.698149C14.9673 0.48829 15.3241 0.375177 15.69 0.374C16.684 0.374 17.497 1.187 17.497 2.181C17.497 3.187 16.826 3.626 15.381 4.297C15.2388 4.36472 15.0988 4.43675 14.961 4.513L14.813 4.593C14.697 4.658 14.581 4.723 14.477 4.787C14.387 4.839 14.31 4.89 14.232 4.942C14.2075 4.95515 14.1841 4.9702 14.162 4.987C14.1392 5.00389 14.1152 5.01894 14.09 5.032C13.652 5.316 13.252 5.652 12.864 6C12.852 6.00684 12.8412 6.01562 12.832 6.026C12.822 6.036 12.812 6.046 12.8 6.052C12.645 6.206 12.49 6.362 12.348 6.516L12.29 6.581C12.271 6.603 12.252 6.626 12.232 6.645C12.1711 6.72055 12.1091 6.79522 12.046 6.869C11.949 6.983 11.854 7.096 11.768 7.213C10.5166 8.87111 9.83719 10.8906 9.832 12.968C9.83114 15.0463 10.5111 17.0678 11.768 18.723C11.9283 18.9446 12.1026 19.1557 12.29 19.355C12.31 19.377 12.329 19.4 12.348 19.419C12.455 19.545 12.568 19.656 12.683 19.769L12.8 19.884C12.812 19.8908 12.8228 19.8996 12.832 19.91C12.842 19.92 12.852 19.929 12.864 19.936C13.2464 20.2903 13.6564 20.6136 14.09 20.903C14.116 20.916 14.139 20.933 14.161 20.948C14.1834 20.9652 14.2072 20.9806 14.232 20.994L14.355 21.071L14.477 21.148L14.645 21.245C14.7 21.277 14.755 21.31 14.813 21.342V21.342ZM32.748 6.026C35.394 6.8 37.432 9.006 37.897 11.768C38.0337 12.5967 38.0337 13.4423 37.897 14.271C37.419 17.019 35.394 19.239 32.748 20.013L32.753 20.047C32.79 20.305 32.826 20.554 32.826 20.826C32.8261 21.5039 32.6927 22.1751 32.4333 22.8014C32.1739 23.4277 31.7937 23.9967 31.3143 24.476C30.8349 24.9553 30.2658 25.3354 29.6395 25.5947C29.0132 25.854 28.3419 25.9873 27.664 25.987C26.979 25.9861 26.3011 25.8487 25.6698 25.5829C25.0385 25.3171 24.4664 24.9283 23.987 24.439C23.8607 24.7824 23.6323 25.079 23.3325 25.2889C23.0327 25.4987 22.6759 25.6118 22.31 25.613C21.8313 25.6117 21.3726 25.421 21.0341 25.0826C20.6955 24.7443 20.5046 24.2857 20.503 23.807C20.503 22.8 21.174 22.361 22.619 21.69C22.762 21.624 22.899 21.55 23.039 21.474L23.187 21.394C23.303 21.329 23.419 21.264 23.523 21.2C23.613 21.148 23.69 21.097 23.768 21.045C23.7925 21.0318 23.8159 21.0168 23.838 21C23.8607 20.9831 23.8848 20.968 23.91 20.955C24.3436 20.6653 24.7536 20.3416 25.136 19.987C25.1481 19.9802 25.1589 19.9714 25.168 19.961C25.178 19.951 25.188 19.942 25.2 19.936C25.355 19.781 25.51 19.626 25.652 19.471L25.71 19.407C25.729 19.384 25.748 19.361 25.768 19.342C25.828 19.266 25.892 19.192 25.954 19.118C26.051 19.004 26.146 18.892 26.232 18.774C27.432 17.174 28.168 15.174 28.168 13.019C28.1686 10.941 27.4886 8.91997 26.232 7.265C26.0718 7.04302 25.8974 6.83158 25.71 6.632C25.69 6.61 25.671 6.587 25.652 6.568C25.5113 6.40364 25.3603 6.24833 25.2 6.103C25.188 6.09613 25.1772 6.08735 25.168 6.077C25.1588 6.06698 25.148 6.05853 25.136 6.052C24.7503 5.70127 24.3406 5.37782 23.91 5.084C23.8852 5.0709 23.8614 5.05585 23.839 5.039C23.816 5.023 23.794 5.007 23.768 4.994C23.729 4.968 23.688 4.942 23.645 4.916C23.6039 4.89107 23.5632 4.8654 23.523 4.839L23.355 4.742C23.1171 4.59775 22.8718 4.46623 22.62 4.348C21.187 3.665 20.503 3.226 20.503 2.232C20.503 1.239 21.316 0.426 22.31 0.426C23.084 0.426 23.729 0.916 23.987 1.6C24.4658 1.10963 25.0378 0.720046 25.6695 0.454189C26.3012 0.188333 26.9797 0.0515841 27.665 0.0520001C28.3427 0.0520001 29.0138 0.185501 29.6399 0.444877C30.266 0.704254 30.8349 1.08443 31.314 1.56368C31.7932 2.04294 32.1733 2.61189 32.4325 3.23805C32.6918 3.8642 32.8251 4.53529 32.825 5.213C32.825 5.483 32.787 5.755 32.748 6.026V6.026Z" fill="white"/>
<path d="M24.632 12.98C24.6324 12.2411 24.4871 11.5094 24.2045 10.8267C23.9219 10.144 23.5075 9.52369 22.985 9.00127C22.4625 8.47885 21.8421 8.06455 21.1594 7.78207C20.4766 7.49959 19.7449 7.35446 19.006 7.35498C18.2671 7.35459 17.5354 7.49985 16.8527 7.78245C16.17 8.06506 15.5497 8.47947 15.0273 9.00198C14.5049 9.52449 14.0906 10.1449 13.8081 10.8276C13.5256 11.5104 13.3805 12.2421 13.381 12.981C13.3806 13.7198 13.5258 14.4514 13.8084 15.134C14.0909 15.8167 14.5053 16.4369 15.0277 16.9593C15.5501 17.4817 16.1703 17.8961 16.853 18.1786C17.5356 18.4612 18.2672 18.6064 19.006 18.606C19.7449 18.6065 20.4766 18.4614 21.1594 18.1789C21.8421 17.8964 22.4625 17.4821 22.985 16.9597C23.5075 16.4373 23.9219 15.817 24.2045 15.1343C24.4871 14.4516 24.6324 13.7199 24.632 12.981V12.98Z" fill="white"/>
</svg>
