<svg width="182" height="47" viewBox="0 0 182 47" fill="none" xmlns="http://www.w3.org/2000/svg">
<path d="M10.7443 26.727C10.7443 26.7463 10.7249 26.7665 10.6855 26.806L5.32228 29.0899H5.30292C5.30292 29.0899 5.28278 29.0899 5.26265 29.0697L0.944988 24.7745C0.924852 24.7552 0.90549 24.7157 0.924852 24.6971C0.944988 24.6777 0.965124 24.6576 0.984486 24.6576H1.00385L10.6855 26.6689C10.7249 26.6689 10.7443 26.6882 10.7443 26.727ZM11.257 25.3802C11.2376 25.3802 11.2376 25.3802 11.257 25.3802L0.0969454 23.0374C0.0574476 23.0374 0.0380859 23.0173 0.0380859 22.9979C0.0380859 22.9785 0.0380859 22.9592 0.0574476 22.9398L6.28882 16.7696C6.28882 16.7503 6.30818 16.7503 6.32754 16.7503C6.36704 16.7696 6.36704 16.7696 6.38717 16.789C6.38717 16.8091 11.7302 24.5406 11.7898 24.6181C11.8092 24.6382 11.8092 24.6777 11.7898 24.6971C11.6125 24.8923 11.4344 25.1068 11.3166 25.3414C11.2965 25.36 11.2764 25.3802 11.257 25.3802ZM13.5843 9.66315C13.5641 9.64301 13.544 9.64301 13.5641 9.60429C13.5641 9.58492 13.5641 9.56556 13.5843 9.54543L22.9693 0.213088C22.9693 0.193726 22.9894 0.193726 23.0088 0.193726C23.0281 0.193726 23.0281 0.193726 23.0483 0.213088L27.0902 4.21554C27.1096 4.2349 27.1096 4.2744 27.0902 4.29376L22.2196 11.8502C22.2002 11.8688 22.1809 11.8889 22.1607 11.8889H22.1414C21.885 11.8107 21.6287 11.7712 21.3723 11.7712C20.8403 11.7712 20.3074 11.9664 19.8931 12.2986C19.8737 12.3188 19.8737 12.3188 19.8544 12.3188H19.8342C19.5779 12.201 13.5843 9.66315 13.5843 9.66315ZM13.012 23.9544L7.41257 15.7737C7.39243 15.7551 7.39243 15.7156 7.41257 15.6962L12.4404 10.6978C12.4404 10.6784 12.4598 10.6784 12.4799 10.6784H12.4993C12.4993 10.6978 18.434 13.197 19.1047 13.4898C19.1241 13.5091 19.1442 13.5285 19.1442 13.568C19.1047 13.7438 19.0853 13.9188 19.0853 14.0946C19.0853 14.7003 19.3215 15.2664 19.7359 15.6962C19.7552 15.7156 19.7552 15.7551 19.7359 15.7737L14.4517 23.9745C14.4316 23.9939 14.4122 24.0132 14.3921 24.0132H14.3727C14.1558 23.9544 13.9189 23.9157 13.702 23.9157C13.5045 23.9157 13.2884 23.9544 13.0909 23.9939H13.0708C13.0515 23.9939 13.0321 23.9745 13.012 23.9544ZM14.8459 29.0504L25.2958 44.2408C25.3159 44.2602 25.3159 44.2989 25.2958 44.319L23.0088 46.6029C23.0088 46.6223 22.9894 46.6223 22.9693 46.6223C22.9693 46.6223 22.9499 46.6223 22.9298 46.6029L9.87693 33.6585C9.85679 33.6391 9.85679 33.5996 9.87693 33.5802L9.89629 33.5609L12.7362 29.148C12.7556 29.1294 12.7757 29.1092 12.7951 29.1092H12.8145C13.1103 29.2068 13.3868 29.2463 13.6819 29.2463C14.0567 29.2463 14.4122 29.1673 14.7669 29.0117H14.7863C14.8064 29.0117 14.8265 29.0318 14.8459 29.0504ZM11.6125 28.2898C11.6319 28.3084 11.6319 28.3278 11.6319 28.3278L8.93053 32.5254C8.91039 32.5455 8.89103 32.5649 8.87167 32.5649C8.87167 32.5649 8.85153 32.5649 8.83217 32.5456L6.44603 30.1834C6.42667 30.1633 6.42667 30.1439 6.42667 30.1246C6.42667 30.1044 6.44603 30.0858 6.46617 30.0858L11.3561 27.9963H11.3755C11.3949 27.9963 11.415 28.0157 11.4344 28.035C11.494 28.1326 11.5529 28.2109 11.6125 28.2898ZM16.3639 26.3955C16.3639 26.2391 16.3244 26.102 16.305 25.9463C16.305 25.9068 16.305 25.8874 16.3437 25.8689L30.3639 19.8745H30.3833C30.3833 19.8745 30.4026 19.8745 30.4228 19.8938C30.5211 19.9914 30.6001 20.0495 30.6791 20.1084C30.7186 20.1084 30.7186 20.1471 30.7186 20.1672L29.4957 27.6834C29.4957 27.7229 29.4764 27.7431 29.4369 27.7431C28.7662 27.781 28.1745 28.1721 27.8399 28.7576C27.8198 28.777 27.7996 28.7971 27.7803 28.7971H27.7609L16.4235 26.4536C16.384 26.4536 16.3639 26.4342 16.3639 26.3955ZM28.8057 31.5697C28.8452 31.5883 28.8452 31.6278 28.8057 31.6278L27.0314 42.561C27.0314 42.5811 27.0112 42.5811 27.0112 42.6005L26.38 43.2255C26.38 43.2448 26.3607 43.2448 26.3413 43.2448C26.3212 43.2448 26.3212 43.2448 26.3018 43.2255L15.8907 28.1528C15.8713 28.1326 15.8713 28.0939 15.8907 28.0745C15.9503 27.9963 15.989 27.9181 16.0486 27.8205C16.068 27.8012 16.0881 27.781 16.1075 27.781H16.1276L27.5634 30.1439C27.6029 30.1633 27.6223 30.1834 27.6223 30.202C27.7803 30.8084 28.214 31.3351 28.8057 31.5697ZM37.4224 32.1947C37.4418 32.1947 37.4619 32.2133 37.4619 32.2722C37.4619 32.2923 37.4619 32.3117 37.4418 32.3302L28.8847 40.8238C28.8847 40.844 28.8645 40.844 28.8452 40.844H28.8057C28.7855 40.8238 28.7662 40.8045 28.7662 40.765L30.2454 31.6673C30.2454 31.6479 30.2648 31.6084 30.2841 31.6084C30.6396 31.4714 30.9355 31.2375 31.1717 30.9439C31.191 30.9439 31.2112 30.9254 31.2313 30.9254H31.2507L37.4224 32.1947ZM29.7714 18.0196C29.7916 18.039 29.8117 18.0583 29.8117 18.0971C29.7916 18.1947 29.7714 18.3124 29.7714 18.4293V18.5269V18.6051C29.7714 18.6245 29.7521 18.6438 29.7327 18.6632L15.7923 24.6181H15.7722C15.7528 24.6181 15.7327 24.6181 15.7133 24.5995C15.6939 24.5801 15.6939 24.5406 15.7133 24.5205L20.9386 16.418C20.958 16.3987 20.9781 16.3793 20.9975 16.3793H21.0176C21.1555 16.3987 21.274 16.418 21.3917 16.418C22.1809 16.418 22.9104 16.0277 23.3441 15.364C23.3635 15.3446 23.3836 15.3253 23.403 15.3253H23.4231L29.7714 18.0196ZM45.1516 24.5406C45.171 24.56 45.171 24.5801 45.171 24.5995C45.171 24.6181 45.171 24.6382 45.1516 24.6576L38.7235 31.0423C38.7235 31.0617 38.7042 31.0617 38.684 31.0617H38.6647L31.6449 29.5971C31.6054 29.5971 31.586 29.5778 31.586 29.5391C31.5264 28.9923 31.27 28.5044 30.8363 28.1721C30.817 28.1528 30.817 28.1326 30.817 28.1133L32.0592 20.4793C32.0592 20.4406 32.0987 20.4205 32.1181 20.4205C32.6703 20.343 33.1435 20.0696 33.4595 19.6398C33.4788 19.6205 33.4982 19.6205 33.5183 19.6205H33.5377L45.1516 24.5406ZM46.3544 23.3689C46.3938 23.3882 46.3938 23.4471 46.3544 23.4471L46.3149 23.4858C46.3149 23.506 46.2947 23.506 46.2754 23.506H46.256L34.1495 18.3705C34.1294 18.3705 34.1092 18.3317 34.1092 18.3124C34.1092 18.293 34.1294 18.2729 34.1495 18.2535L39.0589 16.1648H39.0782C39.0782 16.1648 39.0984 16.1648 39.1177 16.1841L46.3544 23.3689ZM23.324 12.8059C23.3046 12.7865 23.3046 12.7478 23.324 12.7083L28.0761 5.32845C28.0761 5.30909 28.0955 5.28973 28.1156 5.28973C28.1358 5.28973 28.1358 5.28973 28.1551 5.30909L32.3744 9.5067C32.3946 9.52684 32.3946 9.54543 32.3946 9.56556L31.2902 16.418C31.2902 16.4575 31.27 16.4769 31.2507 16.4769C30.9943 16.5551 30.7573 16.6721 30.5606 16.8285C30.5606 16.8479 30.5413 16.8479 30.5211 16.8479H30.5018L23.7577 13.9777C23.7383 13.9583 23.7182 13.939 23.7182 13.9188C23.6795 13.5285 23.5408 13.1382 23.324 12.8059ZM32.7291 16.6132C32.7098 16.6132 32.6896 16.5745 32.6703 16.5551L33.5973 10.8736C33.5973 10.8341 33.6167 10.8148 33.6368 10.8148H33.6562C33.6562 10.8148 33.6755 10.8148 33.6957 10.8341L37.9351 15.0317C37.9545 15.0519 37.9545 15.0712 37.9545 15.0906C37.9545 15.11 37.9351 15.1293 37.9157 15.1494L33.3805 17.0817H33.3603C33.341 17.0817 33.341 17.0817 33.3208 17.0624C33.1636 16.8866 32.9661 16.7309 32.7291 16.6132Z" fill="#F6F6F6"/>
<path d="M102.392 14.3684H105.546V11.5571H102.392V14.3684ZM111.737 12.8652C110.87 13.724 110.436 14.9539 110.436 16.5547V17.8636H108.287V20.2451H110.436V32.1943H113.591V20.2451H116.45V17.8636H113.591V16.5942C113.591 15.0128 114.34 14.2313 115.858 14.2313C116.312 14.2313 116.725 14.2708 117.061 14.3297L117.14 11.8103C116.509 11.6547 115.937 11.5764 115.365 11.5764C113.827 11.5571 112.604 12.0063 111.737 12.8652ZM123.449 27.5862L120.472 17.8636H117.061L122.01 32.1161L121.557 33.346C121.32 34.0492 121.004 34.5371 120.591 34.8298C120.197 35.1226 119.585 35.279 118.796 35.279L118.205 35.2403V37.7387C118.757 37.8952 119.27 37.9734 119.723 37.9734C121.773 37.9734 123.232 36.7629 124.101 34.3613L129.7 17.8636H126.328L123.449 27.5862ZM102.392 32.1943H105.546V17.8636H102.392V32.1943ZM88.826 29.4217C88.6092 29.1871 88.5101 28.7774 88.5101 28.2306V20.2257H90.9946V17.8434H88.5101V14.3684H85.3557V17.8434H83.0485V20.2257H85.3557V28.3475C85.3557 31.0814 86.5785 32.4476 89.0034 32.4476C89.6741 32.4476 90.3634 32.35 91.0937 32.1355V29.6363C90.7181 29.7338 90.344 29.7733 89.9893 29.7733C89.4177 29.7927 89.0421 29.675 88.826 29.4217ZM78.5729 23.6814H72.5583C72.697 22.5685 73.0517 21.7096 73.5837 21.1039C74.1166 20.4797 74.8268 20.187 75.6942 20.187C76.5616 20.187 77.2516 20.4596 77.7442 21.0064C78.2375 21.5531 78.514 22.3733 78.5922 23.4475V23.6814H78.5729ZM75.6942 17.5902C74.4906 17.5902 73.4064 17.9023 72.4205 18.5273C71.4346 19.1515 70.6857 20.0305 70.1335 21.1628C69.6014 22.2951 69.3249 23.5644 69.3249 24.9895V25.3798C69.3249 27.508 69.9561 29.2266 71.1984 30.5153C72.4406 31.8032 74.0577 32.4476 76.0682 32.4476C77.2315 32.4476 78.2964 32.2137 79.2428 31.7451C80.19 31.2766 80.9381 30.6129 81.4903 29.754L79.795 28.0935C78.8881 29.2846 77.7055 29.8903 76.2657 29.8903C75.2403 29.8903 74.3729 29.5387 73.703 28.8556C73.0122 28.1725 72.6381 27.2354 72.539 26.0443H81.7273V24.7556C81.7273 22.4709 81.1952 20.7136 80.1698 19.4644C79.0856 18.2144 77.6063 17.5902 75.6942 17.5902ZM62.0689 17.5902C60.3736 17.5902 59.0129 18.2345 57.9681 19.5031L57.869 17.8434H54.9121V32.175H58.0665V21.983C58.6977 20.8112 59.6441 20.2257 60.9057 20.2257C61.7731 20.2257 62.4043 20.4402 62.7985 20.8894C63.1927 21.3192 63.3701 22.0023 63.3701 22.9007V32.175H66.5252V22.7055C66.4857 19.308 65.0073 17.5902 62.0689 17.5902ZM94.3465 32.1943H97.5016V11.8498H94.3465V32.1943Z" fill="#F6F6F6"/>
<path d="M139.256 29.6514C140.059 29.6514 140.725 29.4176 141.254 28.9499C141.784 28.4822 142.066 27.9043 142.101 27.216H145.132C145.097 28.1072 144.819 28.9389 144.298 29.7109C143.778 30.483 143.072 31.0941 142.181 31.5441C141.289 31.9941 140.328 32.2191 139.295 32.2191C137.292 32.2191 135.704 31.5705 134.531 30.2735C133.357 28.9764 132.77 27.1852 132.77 24.8998V24.5689C132.77 22.3895 133.353 20.6446 134.517 19.3343C135.682 18.024 137.27 17.3688 139.282 17.3688C140.985 17.3688 142.373 17.8651 143.445 18.8578C144.517 19.8505 145.079 21.1542 145.132 22.7689H142.101C142.066 21.9483 141.786 21.2733 141.261 20.7439C140.736 20.2144 140.067 19.9497 139.256 19.9497C138.214 19.9497 137.411 20.3269 136.847 21.0814C136.282 21.8358 135.995 22.9807 135.986 24.516V25.0322C135.986 26.5852 136.267 27.7433 136.827 28.5065C137.387 29.2698 138.197 29.6514 139.256 29.6514ZM150.361 17.6335L150.454 19.1291C151.459 17.9556 152.836 17.3688 154.583 17.3688C156.498 17.3688 157.808 18.1012 158.514 19.5659C159.555 18.1012 161.02 17.3688 162.908 17.3688C164.488 17.3688 165.663 17.8056 166.435 18.6791C167.208 19.5527 167.602 20.8409 167.62 22.5439V31.9544H164.404V22.6365C164.404 21.7277 164.205 21.0615 163.808 20.638C163.411 20.2144 162.754 20.0027 161.836 20.0027C161.104 20.0027 160.506 20.199 160.043 20.5917C159.579 20.9843 159.255 21.4983 159.07 22.1336L159.083 31.9544H155.867V22.5307C155.823 20.8453 154.962 20.0027 153.286 20.0027C151.998 20.0027 151.084 20.5277 150.546 21.5777V31.9544H147.33V17.6335H150.361ZM178.725 28.0631C178.725 27.4896 178.489 27.0528 178.017 26.7528C177.545 26.4528 176.762 26.1881 175.668 25.9587C174.574 25.7293 173.661 25.4381 172.928 25.0851C171.322 24.3086 170.519 23.1836 170.519 21.7101C170.519 20.4747 171.04 19.4424 172.081 18.6129C173.122 17.7835 174.446 17.3688 176.052 17.3688C177.764 17.3688 179.147 17.7923 180.201 18.6394C181.256 19.4865 181.783 20.585 181.783 21.9351H178.567C178.567 21.3174 178.337 20.8034 177.878 20.3931C177.419 19.9828 176.811 19.7777 176.052 19.7777C175.346 19.7777 174.77 19.9409 174.325 20.2674C173.879 20.5939 173.656 21.0306 173.656 21.5777C173.656 22.0718 173.863 22.4557 174.278 22.7292C174.693 23.0027 175.531 23.2785 176.793 23.5564C178.055 23.8344 179.045 24.1653 179.764 24.5491C180.483 24.9329 181.017 25.3939 181.366 25.9322C181.714 26.4704 181.889 27.1234 181.889 27.8911C181.889 29.1793 181.355 30.2227 180.287 31.0213C179.219 31.8198 177.821 32.2191 176.091 32.2191C174.918 32.2191 173.872 32.0073 172.955 31.5838C172.037 31.1602 171.322 30.5779 170.811 29.8367C170.299 29.0955 170.043 28.297 170.043 27.441H173.166C173.211 28.1999 173.497 28.7845 174.027 29.1948C174.556 29.6051 175.258 29.8102 176.131 29.8102C176.978 29.8102 177.622 29.6492 178.064 29.3271C178.505 29.005 178.725 28.5837 178.725 28.0631Z" fill="#F6F6F6"/>
</svg>
