<svg width="187" height="183" viewBox="0 0 187 183" fill="none" xmlns="http://www.w3.org/2000/svg">
<g clip-path="url(#clip0_2_276)">
<path d="M98.41 182.02C146.939 182.02 186.28 142.679 186.28 94.15C186.28 45.6207 146.939 6.28 98.41 6.28C49.8807 6.28 10.54 45.6207 10.54 94.15C10.54 142.679 49.8807 182.02 98.41 182.02Z" fill="white"/>
<path d="M89.87 179.74C72.0954 179.74 54.72 174.469 39.9409 164.594C25.1619 154.719 13.643 140.683 6.84095 124.262C0.0389009 107.84 -1.74082 89.7703 1.72683 72.3372C5.19448 54.9042 13.7538 38.8909 26.3223 26.3223C38.8909 13.7538 54.9042 5.19448 72.3372 1.72683C89.7703 -1.74082 107.84 0.0389009 124.262 6.84095C140.683 13.643 154.719 25.1619 164.594 39.9409C174.469 54.72 179.74 72.0954 179.74 89.87C179.706 113.694 170.226 136.533 153.38 153.38C136.533 170.226 113.694 179.706 89.87 179.74ZM89.87 4C72.8865 4 56.2844 9.03619 42.1632 18.4717C28.0419 27.9072 17.0358 41.3183 10.5365 57.009C4.03717 72.6997 2.33666 89.9653 5.64997 106.622C8.96328 123.28 17.1416 138.58 29.1507 150.589C41.1599 162.598 56.4604 170.777 73.1176 174.09C89.7747 177.403 107.04 175.703 122.731 169.204C138.422 162.704 151.833 151.698 161.268 137.577C170.704 123.456 175.74 106.853 175.74 89.87C175.706 67.1064 166.648 45.285 150.551 29.1887C134.455 13.0924 112.634 4.03439 89.87 4V4Z" fill="#8ABFC6"/>
<path d="M85.82 92.72H102.94V102.34H85.82V92.72Z" fill="#8ABFC6"/>
<path d="M141 63.24H122.38C121.246 68.54 118.719 73.4417 115.06 77.44C113.944 78.8619 112.724 80.1989 111.41 81.44C108.41 84.35 106.88 86.04 106.89 89.44V92.82C107.493 93.2556 107.984 93.8281 108.323 94.4905C108.661 95.1528 108.838 95.8861 108.838 96.63C108.838 97.3739 108.661 98.1072 108.323 98.7695C107.984 99.4319 107.493 100.004 106.89 100.44V102.06C106.89 102.69 106.766 103.314 106.524 103.895C106.283 104.477 105.929 105.006 105.484 105.451C105.038 105.896 104.508 106.248 103.926 106.488C103.344 106.728 102.72 106.851 102.09 106.85H82.29C81.6601 106.851 81.0362 106.728 80.4539 106.488C79.8716 106.248 79.3423 105.896 78.8965 105.451C78.4506 105.006 78.0969 104.477 77.8556 103.895C77.6142 103.314 77.49 102.69 77.49 102.06V100.44C76.8889 100.003 76.3996 99.4301 76.0623 98.7679C75.725 98.1058 75.5491 97.3731 75.5491 96.63C75.5491 95.8868 75.725 95.1542 76.0623 94.4921C76.3996 93.8299 76.8889 93.2569 77.49 92.82V90.4C77.4648 90.1272 77.4648 89.8528 77.49 89.58C77.49 86.06 75.98 84.36 72.98 81.42C71.6602 80.1785 70.4336 78.8415 69.31 77.42C68.3399 76.3528 67.4445 75.2201 66.63 74.03C64.4075 70.7643 62.8355 67.1008 62 63.24H51.6C51.4192 63.24 51.2403 63.2758 51.0734 63.3452C50.9065 63.4147 50.7551 63.5165 50.6277 63.6448C50.5004 63.7731 50.3997 63.9253 50.3314 64.0927C50.2631 64.26 50.2287 64.4393 50.23 64.62V117.34C50.2287 117.521 50.2631 117.7 50.3314 117.867C50.3997 118.035 50.5004 118.187 50.6277 118.315C50.7551 118.443 50.9065 118.545 51.0734 118.615C51.2403 118.684 51.4192 118.72 51.6 118.72H141C141.366 118.72 141.717 118.575 141.976 118.316C142.235 118.057 142.38 117.706 142.38 117.34V64.62C142.38 64.254 142.235 63.903 141.976 63.6442C141.717 63.3854 141.366 63.24 141 63.24V63.24Z" fill="#A0A437"/>
<path d="M147.86 125.2C147.639 125.2 147.421 125.157 147.217 125.072C147.013 124.988 146.828 124.864 146.672 124.708C146.516 124.552 146.392 124.367 146.308 124.163C146.223 123.959 146.18 123.741 146.18 123.52V54.84C146.18 54.2883 145.961 53.7593 145.571 53.3692C145.181 52.9791 144.652 52.76 144.1 52.76H122.76C122.314 52.76 121.887 52.583 121.572 52.2679C121.257 51.9529 121.08 51.5256 121.08 51.08C121.08 50.6344 121.257 50.2071 121.572 49.8921C121.887 49.577 122.314 49.4 122.76 49.4H144.1C145.542 49.4026 146.924 49.9766 147.944 50.9963C148.963 52.0159 149.537 53.398 149.54 54.84V123.52C149.54 123.966 149.363 124.393 149.048 124.708C148.733 125.023 148.306 125.2 147.86 125.2V125.2ZM37.73 125.36C37.2844 125.36 36.8571 125.183 36.5421 124.868C36.227 124.553 36.05 124.126 36.05 123.68V54.84C36.0526 53.398 36.6266 52.0159 37.6463 50.9963C38.6659 49.9766 40.048 49.4026 41.49 49.4H61.73C62.1756 49.4 62.6029 49.577 62.9179 49.8921C63.233 50.2071 63.41 50.6344 63.41 51.08C63.41 51.5256 63.233 51.9529 62.9179 52.2679C62.6029 52.583 62.1756 52.76 61.73 52.76H41.49C40.9384 52.76 40.4093 52.9791 40.0192 53.3692C39.6291 53.7593 39.41 54.2883 39.41 54.84V123.68C39.41 124.126 39.233 124.553 38.9179 124.868C38.6029 125.183 38.1756 125.36 37.73 125.36V125.36Z" fill="#404041"/>
<path d="M138.85 116.91H46.74C46.2944 116.91 45.8671 116.733 45.5521 116.418C45.237 116.103 45.06 115.676 45.06 115.23V59.75C45.06 59.3044 45.237 58.8771 45.5521 58.5621C45.8671 58.247 46.2944 58.07 46.74 58.07H61.08C61.5256 58.07 61.9529 58.247 62.2679 58.5621C62.583 58.8771 62.76 59.3044 62.76 59.75C62.76 60.1956 62.583 60.6229 62.2679 60.9379C61.9529 61.253 61.5256 61.43 61.08 61.43H48.42V113.55H137.17V61.43H124.76C124.314 61.43 123.887 61.253 123.572 60.9379C123.257 60.6229 123.08 60.1956 123.08 59.75C123.08 59.3044 123.257 58.8771 123.572 58.5621C123.887 58.247 124.314 58.07 124.76 58.07H138.85C139.071 58.07 139.289 58.1135 139.493 58.1979C139.697 58.2823 139.882 58.4061 140.038 58.5621C140.194 58.7181 140.318 58.9033 140.402 59.1071C140.487 59.3109 140.53 59.5294 140.53 59.75V115.23C140.53 115.451 140.487 115.669 140.402 115.873C140.318 116.077 140.194 116.262 140.038 116.418C139.882 116.574 139.697 116.698 139.493 116.782C139.289 116.867 139.071 116.91 138.85 116.91V116.91ZM148.5 136.36H37.08C33.4 136.36 28.97 132.71 28.47 132.3C28.2957 132.15 28.1555 131.964 28.0589 131.756C27.9623 131.547 27.9115 131.32 27.91 131.09V124.33C27.91 123.911 28.0765 123.509 28.3728 123.213C28.6691 122.916 29.071 122.75 29.49 122.75H156.1C156.307 122.75 156.513 122.791 156.705 122.87C156.896 122.95 157.071 123.066 157.217 123.213C157.364 123.359 157.48 123.534 157.56 123.725C157.639 123.917 157.68 124.123 157.68 124.33V131.09C157.678 131.32 157.628 131.547 157.531 131.756C157.435 131.964 157.294 132.15 157.12 132.3C156.62 132.71 152.19 136.36 148.5 136.36ZM31.07 130.36C32.72 131.62 35.38 133.23 37.07 133.23H148.5C150.36 133.23 153.13 131.41 154.5 130.36V125.94H31.07V130.36Z" fill="#404041"/>
<path d="M102.09 103.49H82.29C81.9089 103.487 81.5442 103.335 81.2747 103.065C81.0052 102.796 80.8526 102.431 80.85 102.05V89.68C80.85 89.2981 81.0017 88.9318 81.2718 88.6618C81.5418 88.3917 81.9081 88.24 82.29 88.24H102.09C102.279 88.2387 102.467 88.275 102.643 88.3469C102.818 88.4188 102.977 88.5248 103.111 88.6588C103.245 88.7928 103.351 88.9521 103.423 89.1274C103.495 89.3027 103.531 89.4905 103.53 89.68V102.05C103.53 102.432 103.378 102.798 103.108 103.068C102.838 103.338 102.472 103.49 102.09 103.49V103.49ZM83.73 100.61H100.65V91.12H83.73V100.61Z" fill="#404041"/>
<path d="M102.09 91.12H82.24C81.8616 91.1115 81.502 90.9532 81.24 90.68C81.1088 90.5488 81.005 90.3928 80.9346 90.2212C80.8642 90.0495 80.8287 89.8655 80.83 89.68C80.91 84.53 78.19 81.87 75.3 79.04C74.0632 77.8896 72.9165 76.646 71.87 75.32C70.9688 74.3318 70.1368 73.2827 69.38 72.18C66.5811 68.0356 64.9622 63.208 64.6967 58.2141C64.4311 53.2202 65.5288 48.2481 67.8723 43.8303C70.2158 39.4124 73.7169 35.7152 78.0005 33.1345C82.2842 30.5538 87.1891 29.1868 92.19 29.18H92.35C97.3396 29.2105 102.227 30.5951 106.492 33.1859C110.756 35.7767 114.237 39.4766 116.563 43.8909C118.889 48.3052 119.974 53.2681 119.7 58.2503C119.426 63.2325 117.805 68.0469 115.01 72.18C114.253 73.2913 113.414 74.3443 112.5 75.33C111.432 76.6437 110.262 77.8709 109 79C106.13 81.83 103.41 84.49 103.49 89.64C103.491 89.8255 103.456 90.0095 103.385 90.1812C103.315 90.3528 103.211 90.5088 103.08 90.64C102.955 90.7814 102.803 90.8966 102.633 90.979C102.463 91.0614 102.279 91.1093 102.09 91.12ZM83.64 88.24H100.64C101.04 82.78 104.18 79.7 106.98 76.96C108.126 75.8926 109.189 74.7392 110.16 73.51L110.26 73.39C111.089 72.4904 111.851 71.5312 112.54 70.52C115.053 66.8161 116.511 62.4984 116.757 58.0294C117.004 53.5604 116.03 49.1084 113.94 45.1505C111.85 41.1926 108.723 37.8778 104.893 35.5613C101.064 33.2447 96.6758 32.0137 92.2 32H92.07C87.5954 32.0192 83.2101 33.2541 79.383 35.5727C75.5558 37.8912 72.4308 41.2063 70.3418 45.1634C68.2528 49.1205 67.2785 53.571 67.523 58.039C67.7675 62.5069 69.2217 66.8245 71.73 70.53C72.4193 71.5349 73.1778 72.4906 74 73.39L74.1 73.51C75.0723 74.7534 76.1388 75.9202 77.29 77C80.09 79.7 83.23 82.78 83.64 88.24V88.24ZM103.88 98.06H80.51C80.3103 98.0708 80.1105 98.0421 79.9219 97.9755C79.7334 97.9089 79.5598 97.8058 79.4112 97.672C79.2626 97.5383 79.1418 97.3765 79.0558 97.1959C78.9698 97.0154 78.9202 96.8197 78.91 96.62C78.9333 96.2176 79.1144 95.8407 79.4139 95.571C79.7135 95.3014 80.1074 95.1609 80.51 95.18H103.88C104.283 95.1609 104.676 95.3014 104.976 95.571C105.276 95.8407 105.457 96.2176 105.48 96.62C105.457 97.0224 105.276 97.3993 104.976 97.669C104.676 97.9386 104.283 98.0791 103.88 98.06V98.06Z" fill="#404041"/>
<path d="M98.44 89.68H95.56V64.85H88.76V89.68H85.88V64.85H84.31C83.4299 64.85 82.5695 64.589 81.8377 64.1C81.1059 63.6111 80.5356 62.9161 80.1987 62.1029C79.8619 61.2898 79.7738 60.3951 79.9455 59.5318C80.1172 58.6686 80.541 57.8757 81.1634 57.2534C81.7857 56.631 82.5786 56.2072 83.4419 56.0355C84.3051 55.8638 85.1998 55.9519 86.0129 56.2887C86.8261 56.6255 87.5211 57.1959 88.01 57.9277C88.499 58.6595 88.76 59.5199 88.76 60.4V62H95.56V60.4C95.56 59.5194 95.8212 58.6587 96.3107 57.9267C96.8001 57.1947 97.4957 56.6243 98.3094 56.2878C99.1231 55.9513 100.018 55.8637 100.882 56.0362C101.745 56.2088 102.538 56.6336 103.16 57.2569C103.782 57.8803 104.205 58.6741 104.376 59.538C104.546 60.4019 104.457 61.2969 104.118 62.1099C103.78 62.9228 103.208 63.6171 102.475 64.1049C101.742 64.5927 100.881 64.852 100 64.85H98.44V89.68ZM98.44 61.97H100C100.311 61.97 100.614 61.8779 100.872 61.7054C101.13 61.5329 101.332 61.2877 101.45 61.0008C101.569 60.7139 101.6 60.3983 101.54 60.0937C101.479 59.7892 101.33 59.5094 101.11 59.2898C100.891 59.0703 100.611 58.9207 100.306 58.8602C100.002 58.7996 99.6861 58.8307 99.3992 58.9495C99.1123 59.0683 98.8671 59.2696 98.6946 59.5278C98.5221 59.7859 98.43 60.0895 98.43 60.4L98.44 61.97ZM84.31 58.84C84.094 58.8227 83.8767 58.8503 83.6719 58.9212C83.467 58.992 83.2791 59.1044 83.1198 59.2514C82.9606 59.3984 82.8335 59.5768 82.7466 59.7754C82.6597 59.9739 82.6148 60.1883 82.6148 60.405C82.6148 60.6217 82.6597 60.8361 82.7466 61.0346C82.8335 61.2332 82.9606 61.4116 83.1198 61.5586C83.2791 61.7056 83.467 61.818 83.6719 61.8888C83.8767 61.9596 84.094 61.9873 84.31 61.97H85.88V60.4C85.88 60.1943 85.8393 59.9906 85.7603 59.8007C85.6813 59.6108 85.5655 59.4384 85.4196 59.2934C85.2736 59.1484 85.1005 59.0337 84.9101 58.9559C84.7196 58.8781 84.5157 58.8387 84.31 58.84V58.84Z" fill="#404041"/>
</g>
<defs>
<clipPath id="clip0_2_276">
<rect width="186.28" height="182.01" fill="white"/>
</clipPath>
</defs>
</svg>
