<svg width="187" height="183" viewBox="0 0 187 183" fill="none" xmlns="http://www.w3.org/2000/svg">
<g clip-path="url(#clip0_104_2)">
<path d="M98.41 182.02C146.939 182.02 186.28 142.679 186.28 94.15C186.28 45.6207 146.939 6.28 98.41 6.28C49.8808 6.28 10.54 45.6207 10.54 94.15C10.54 142.679 49.8808 182.02 98.41 182.02Z" fill="white"/>
<path d="M89.87 179.74C72.0954 179.74 54.72 174.469 39.9409 164.594C25.1619 154.719 13.643 140.683 6.84099 124.262C0.038939 107.84 -1.74079 89.7703 1.72687 72.3372C5.19452 54.9042 13.7538 38.8909 26.3224 26.3223C38.8909 13.7538 54.9042 5.19449 72.3373 1.72684C89.7703 -1.74082 107.84 0.0389085 124.262 6.84096C140.683 13.643 154.719 25.1619 164.594 39.9409C174.469 54.72 179.74 72.0954 179.74 89.87C179.706 113.694 170.226 136.533 153.38 153.38C136.533 170.226 113.694 179.706 89.87 179.74ZM89.87 4.00001C72.8866 4.00001 56.2845 9.0362 42.1632 18.4717C28.042 27.9072 17.0358 41.3183 10.5365 57.009C4.03721 72.6997 2.3367 89.9653 5.65001 106.622C8.96332 123.28 17.1416 138.58 29.1508 150.589C41.1599 162.598 56.4605 170.777 73.1176 174.09C89.7748 177.403 107.04 175.703 122.731 169.204C138.422 162.704 151.833 151.698 161.268 137.577C170.704 123.456 175.74 106.853 175.74 89.87C175.706 67.1064 166.648 45.285 150.551 29.1887C134.455 13.0924 112.634 4.03439 89.87 4.00001V4.00001Z" fill="#8ABFC6"/>
<path d="M148 107.48V136.08C148 136.324 147.903 136.558 147.731 136.731C147.558 136.903 147.324 137 147.08 137H135.9V106.56H147.12C147.364 106.56 147.598 106.657 147.771 106.829C147.943 107.002 148.04 107.236 148.04 107.48" fill="#7A7D29"/>
<path d="M119.75 106.56H132.9V137H119.75V106.56Z" fill="#A2A637"/>
<path d="M103.6 106.56H116.75V137H103.6V106.56Z" fill="#B5B85F"/>
<path d="M87.4501 106.56H100.6V137H87.4501V106.56Z" fill="#C7CA87"/>
<path d="M71.3 106.56H84.45V137H71.3V106.56Z" fill="#DADBAF"/>
<path d="M58.96 104.2H45.29L55.99 98.56L58.96 104.2V104.2Z" fill="#F5D2D9"/>
<path d="M77.22 104.2H62.35L58.64 97.16L70.27 91.03H70.28L77.22 104.2Z" fill="#EBA5B3"/>
<path d="M95.4801 104.2H80.6101L72.9301 89.63L84.5601 83.5L95.4801 104.2Z" fill="#E1798C"/>
<path d="M113.05 102.9L110.58 104.2H98.8601L87.2201 82.1L98.1001 76.36H98.1101L98.8501 75.96L113.05 102.9V102.9Z" fill="#D74C66"/>
<path d="M127.33 95.37L115.7 101.5L101.5 74.57L113.14 68.43L127.33 95.37V95.37Z" fill="#CD1F40"/>
<path d="M140.86 87.93C140.827 88.0464 140.769 88.1545 140.692 88.2475C140.615 88.3405 140.518 88.4163 140.41 88.47L130 94L115.79 67L126.21 61.5C126.428 61.3897 126.681 61.3687 126.914 61.4416C127.147 61.5144 127.343 61.6752 127.46 61.89L140.8 87.19C140.856 87.2967 140.891 87.4137 140.901 87.5339C140.911 87.6542 140.897 87.7753 140.86 87.89" fill="#9A1730"/>
<path d="M48.71 99.89L43.79 102.49L46.36 98.41L48.71 99.89Z" fill="#E8F2F4"/>
<path d="M65.2001 91.21L51.7701 98.28L47.9601 95.88L54.9901 84.76L65.2001 91.21Z" fill="#D1E6E8"/>
<path d="M81.5801 82.57L68.2501 89.59L56.5901 82.22L63.6101 71.11L81.5801 82.57Z" fill="#B9D9DD"/>
<path d="M97.9801 73.7L97.7601 74.04L84.6501 80.96H84.6401L65.2101 68.57L72.2301 57.45L97.9801 73.7Z" fill="#A2CDD1"/>
<path d="M73.832 54.9026L80.851 43.7825L106.601 60.0355L99.5816 71.1556L73.832 54.9026Z" fill="#8BC0C6"/>
<path d="M114.19 48L108.19 57.48L82.4601 41.26L88.4601 31.77C88.5423 31.6375 88.6573 31.5283 88.7939 31.453C88.9305 31.3777 89.0841 31.3388 89.2401 31.34C89.4128 31.3436 89.5816 31.3918 89.7301 31.48L113.92 46.75C114.124 46.885 114.268 47.0942 114.32 47.3332C114.372 47.5722 114.329 47.8222 114.2 48.03" fill="#689095"/>
<path d="M51.9801 96.46L50.3801 98.99L48.1901 97.61L48.1801 97.6L45.8301 96.12L44.5601 95.32L46.1701 92.79L47.4301 93.59L51.2401 95.99L51.2501 96L51.9801 96.46V96.46ZM68.4601 87.77L66.8601 90.3L64.6701 88.92L54.4601 82.47L53.1901 81.67L54.7901 79.13L56.0601 79.93L67.7201 87.3L67.7301 87.31L68.4601 87.77V87.77ZM84.8501 79.14L83.2401 81.67L81.0601 80.28H81.0501L63.0801 68.82L61.8101 68.01L63.4201 65.48L64.6801 66.28L84.1101 78.67H84.1201L84.8501 79.14V79.14ZM100.32 69.68L99.8901 70.36L98.7201 72.21L97.6501 71.54L97.4501 71.41L71.7001 55.16L70.4301 54.36L72.0401 51.82L73.3101 52.62L99.0501 68.88L100.32 69.68V69.68ZM108.94 56.02L107.34 58.56L106.07 57.76L80.3301 41.5L79.0601 40.7L80.6601 38.17L81.9301 38.97L107.67 55.22L108.94 56.02V56.02ZM63.6601 102.86L61.0101 104.25L59.8501 102.06L56.8801 96.42L56.2601 95.25L58.9101 93.85L59.5301 95.02L63.2401 102.06L63.6601 102.86V102.86ZM81.9201 102.86L79.2601 104.25L78.1101 102.06L71.1701 88.89H71.1601L70.5501 87.72L73.2001 86.32L73.8201 87.49L81.5001 102.06L81.9201 102.86ZM100.17 102.86L97.5201 104.25L96.3701 102.06L85.4501 81.36L84.8301 80.18L87.4901 78.79L88.1001 79.96H88.1101L99.7501 102.06L100.17 102.86V102.86ZM117.37 100.84L115.06 102.06L114.72 102.24L114.63 102.06L113.94 100.76L99.7401 73.82L99.6201 73.59L99.1201 72.65L100.76 71.79V71.78L101.77 71.25L102.39 72.43L116.59 99.36L117.37 100.84V100.84ZM131.66 93.31L129 94.71L128.22 93.23L114.03 66.29L113.41 65.12L116.06 63.73L116.67 64.9H116.68L130.88 91.83L131.66 93.31V93.31Z" fill="#404041"/>
<path d="M145.57 102.06H35.3401C34.824 102.061 34.3132 102.164 33.8369 102.363C33.3606 102.562 32.9281 102.852 32.5641 103.218C32.2 103.584 31.9117 104.018 31.7154 104.495C31.5191 104.973 31.4187 105.484 31.4201 106V134.6C31.4227 135.639 31.8365 136.634 32.5711 137.369C33.3057 138.104 34.3012 138.517 35.3401 138.52H145.57C146.609 138.517 147.604 138.104 148.339 137.369C149.074 136.634 149.487 135.639 149.49 134.6V106C149.487 104.961 149.074 103.966 148.339 103.231C147.604 102.496 146.609 102.083 145.57 102.08V102.06ZM146.49 134.6C146.49 134.844 146.393 135.078 146.221 135.251C146.048 135.423 145.814 135.52 145.57 135.52H35.3401C35.0961 135.52 34.8621 135.423 34.6895 135.251C34.517 135.078 34.4201 134.844 34.4201 134.6V106C34.4201 105.756 34.517 105.522 34.6895 105.349C34.8621 105.177 35.0961 105.08 35.3401 105.08H145.57C145.814 105.08 146.048 105.177 146.221 105.349C146.393 105.522 146.49 105.756 146.49 106V134.6Z" fill="#404041"/>
<path d="M144.34 83.69L131 58.39C130.661 57.761 130.159 57.2344 129.547 56.8651C128.935 56.4957 128.235 56.2972 127.52 56.29C126.885 56.2916 126.26 56.4496 125.7 56.75L102.55 69L99.9001 70.4L97.6601 71.58L84.1201 78.67L81.1201 80.28L67.8001 87.28L64.7401 88.89L51.2501 96L48.1901 97.61L43.2601 100.2L39.7401 102.06L39.4201 102.23C39.1219 102.385 38.8846 102.637 38.7464 102.943C38.6081 103.25 38.5768 103.594 38.6575 103.92C38.7383 104.247 38.9264 104.536 39.1916 104.743C39.4568 104.95 39.7838 105.061 40.1201 105.06H111.85C112.095 105.06 112.336 104.998 112.55 104.88L117.9 102.06L142.7 89C143.156 88.76 143.56 88.4324 143.889 88.036C144.219 87.6397 144.467 87.1823 144.619 86.69C144.771 86.1978 144.825 85.6803 144.777 85.1673C144.729 84.6542 144.581 84.1556 144.34 83.7V83.69ZM141.75 85.8C141.717 85.9164 141.66 86.0245 141.582 86.1175C141.505 86.2105 141.409 86.2862 141.3 86.34L130.88 91.84L128.22 93.24L116.59 99.37L113.94 100.77L111.47 102.07H46.1801L56.8801 96.43L59.5301 95L71.1601 88.87L73.8101 87.47L85.4401 81.34L88.1001 80L99.0001 74.22L99.7401 73.82L102.39 72.43L114 66.29L116.64 64.9L127.06 59.4C127.278 59.2897 127.531 59.2687 127.764 59.3416C127.998 59.4144 128.193 59.5752 128.31 59.79L141.65 85.09C141.706 85.1967 141.741 85.3137 141.751 85.4339C141.761 85.5542 141.748 85.6753 141.71 85.79L141.75 85.8ZM47.8601 125.41C46.8435 125.41 45.8497 125.109 45.0044 124.544C44.1592 123.979 43.5004 123.176 43.1113 122.237C42.7223 121.298 42.6205 120.264 42.8188 119.267C43.0172 118.27 43.5067 117.354 44.2255 116.635C44.9444 115.917 45.8602 115.427 46.8573 115.229C47.8544 115.03 48.8878 115.132 49.8271 115.521C50.7663 115.91 51.569 116.569 52.1338 117.414C52.6986 118.26 53.0001 119.253 53.0001 120.27C53.0001 121.631 52.4599 122.937 51.4981 123.901C50.5364 124.865 49.2315 125.407 47.8701 125.41H47.8601ZM47.8701 118.14C47.446 118.138 47.0308 118.262 46.6774 118.496C46.3239 118.731 46.0481 119.065 45.8849 119.456C45.7217 119.848 45.6785 120.279 45.7607 120.695C45.843 121.111 46.047 121.493 46.3469 121.793C46.6468 122.093 47.029 122.297 47.445 122.379C47.8611 122.462 48.2922 122.418 48.6836 122.255C49.0751 122.092 49.4092 121.816 49.6436 121.463C49.878 121.109 50.002 120.694 50.0001 120.27C49.9974 119.706 49.7722 119.166 49.3733 118.767C48.9744 118.368 48.4342 118.143 47.8701 118.14Z" fill="#404041"/>
<path d="M66.7501 103.56H69.7501V137H66.7501V103.56ZM82.9001 103.56H85.9001V137H82.9001V103.56ZM99.0501 103.56H102.05V137H99.0501V103.56ZM115.2 103.56H118.2V137H115.2V103.56ZM131.35 103.56H134.35V137H131.35V103.56ZM116.71 44.38C116.487 43.3692 115.872 42.4881 115 41.93L90.7901 26.66C90.3552 26.3834 89.8699 26.1955 89.3622 26.107C88.8544 26.0186 88.3341 26.0315 87.8314 26.1449C87.3286 26.2583 86.8532 26.4699 86.4325 26.7677C86.0118 27.0655 85.6541 27.4435 85.3801 27.88L38.5401 102.06L38.1001 102.75C37.9578 102.978 37.8788 103.239 37.8713 103.508C37.8638 103.776 37.9281 104.042 38.0575 104.278C38.1869 104.513 38.3768 104.71 38.6075 104.847C38.8382 104.985 39.1015 105.058 39.3701 105.06H40.1201C40.3648 105.06 40.6055 104.998 40.8201 104.88L46.1701 102.06L56.8701 96.42L59.5301 95L71.1601 88.87L73.8101 87.47L85.4401 81.34L88.1001 80L99.0001 74.22C99.2243 74.0958 99.4135 73.9169 99.5501 73.7L99.6201 73.59L100.76 71.79L102.54 69L116.2 47.34C116.481 46.8994 116.671 46.4069 116.759 45.8917C116.847 45.3764 116.83 44.8488 116.71 44.34V44.38ZM113.71 45.7L107.71 55.18L106.11 57.72L99.1101 68.84L97.5101 71.37L97.2901 71.71L84.1201 78.67L81.1201 80.28L67.7901 87.28L64.7901 88.9L51.2401 96L48.1801 97.6L43.2601 100.2L45.8301 96.12L47.4301 93.59L54.4301 82.47L56.0301 79.93L63.0301 68.82L64.6301 66.28L71.6301 55.16L73.2401 52.62L80.2401 41.5L81.9301 39L87.9301 29.51C88.0124 29.3775 88.1273 29.2684 88.2639 29.1931C88.4005 29.1178 88.5541 29.0788 88.7101 29.08C88.8828 29.0836 89.0516 29.1318 89.2001 29.22L113.39 44.49C113.594 44.625 113.738 44.8342 113.79 45.0732C113.842 45.3122 113.799 45.5622 113.67 45.77" fill="#404041"/>
</g>
<defs>
<clipPath id="clip0_104_2">
<rect width="186.28" height="182.01" fill="white"/>
</clipPath>
</defs>
</svg>
