<svg width="187" height="183" viewBox="0 0 187 183" fill="none" xmlns="http://www.w3.org/2000/svg">
<g clip-path="url(#clip0_2_155)">
<path d="M98.41 182.02C146.939 182.02 186.28 142.679 186.28 94.15C186.28 45.6207 146.939 6.28 98.41 6.28C49.8807 6.28 10.54 45.6207 10.54 94.15C10.54 142.679 49.8807 182.02 98.41 182.02Z" fill="white"/>
<path d="M89.87 179.74C72.0954 179.74 54.72 174.469 39.9409 164.594C25.1619 154.719 13.643 140.683 6.84096 124.262C0.0389085 107.84 -1.74082 89.7703 1.72684 72.3372C5.19449 54.9042 13.7538 38.8909 26.3223 26.3223C38.8909 13.7538 54.9042 5.19448 72.3372 1.72683C89.7703 -1.74082 107.84 0.0389009 124.262 6.84095C140.683 13.643 154.719 25.1619 164.594 39.9409C174.469 54.72 179.74 72.0954 179.74 89.87C179.706 113.694 170.226 136.533 153.38 153.38C136.533 170.226 113.694 179.706 89.87 179.74ZM89.87 4C72.8865 4 56.2844 9.03619 42.1632 18.4717C28.0419 27.9072 17.0358 41.3183 10.5365 57.009C4.03718 72.6997 2.33667 89.9653 5.64998 106.622C8.96329 123.28 17.1416 138.58 29.1508 150.589C41.1599 162.598 56.4605 170.777 73.1176 174.09C89.7747 177.403 107.04 175.703 122.731 169.204C138.422 162.704 151.833 151.698 161.268 137.577C170.704 123.456 175.74 106.853 175.74 89.87C175.706 67.1064 166.648 45.285 150.551 29.1887C134.455 13.0924 112.634 4.03439 89.87 4V4Z" fill="#8ABFC6"/>
<path d="M119.93 36.99L115.33 63.28H79.89L75.16 36.99H81.71V46.89H94.3V36.99H100.78V46.89H113.37V36.99H119.93Z" fill="#8BC0C6"/>
<path d="M123 133.1H71.63C78.45 114.18 79.68 87.24 79.75 71.61H114.85C114.9 90 116.4 115 123 133.1Z" fill="#A2A637"/>
<path d="M68.22 63.57V68.74C68.2226 69.2369 68.4219 69.7125 68.7742 70.0629C69.1264 70.4133 69.6031 70.61 70.1 70.61H122.21C122.706 70.61 123.182 70.413 123.532 70.0623C123.883 69.7116 124.08 69.236 124.08 68.74V63.57C124.08 63.0731 123.883 62.5964 123.533 62.2442C123.182 61.8919 122.707 61.6926 122.21 61.69H70.1C69.6014 61.69 69.1232 61.8881 68.7706 62.2406C68.4181 62.5932 68.22 63.0714 68.22 63.57V63.57ZM121.03 67.57H71.27V64.75H121L121.03 67.57Z" fill="#404041"/>
<path d="M78.61 69.09V70.61C78.54 86.25 77.31 113.19 70.5 132.11C70.24 132.82 69.98 133.52 69.71 134.2L66.87 133.08C67 132.76 67.12 132.44 67.24 132.08C74.24 113.57 75.49 86.31 75.56 70.58V69.09H78.61ZM125.45 133.08L122.61 134.2C122.34 133.52 122.07 132.82 121.82 132.11C115.25 114 113.75 89 113.7 70.61V69.61H116.7V70.61C116.76 86.09 117.95 113.43 125.02 132.11C125.19 132.44 125.32 132.76 125.45 133.08V133.08ZM119.41 32.35C119.749 32.3508 120.085 32.4257 120.392 32.5695C120.699 32.7133 120.972 32.9226 121.19 33.1826C121.408 33.4426 121.567 33.7471 121.655 34.0749C121.743 34.4026 121.758 34.7457 121.7 35.08L117 61.69L116.69 63.48L113.69 62.96L113.91 61.69L118.51 35.4H112V43.53C112 43.9994 111.814 44.4496 111.482 44.7816C111.15 45.1135 110.699 45.3 110.23 45.3H101.23C100.761 45.3 100.31 45.1135 99.9784 44.7816C99.6465 44.4496 99.46 43.9994 99.46 43.53V35.4H92.91V43.53C92.91 43.9994 92.7235 44.4496 92.3916 44.7816C92.0597 45.1135 91.6095 45.3 91.14 45.3H82.14C81.6697 45.3 81.2184 45.1138 80.8849 44.7822C80.5514 44.4505 80.3627 44.0003 80.36 43.53V35.4H73.77L78.5 61.69L78.58 62.13L75.58 62.67L75.4 61.67L70.61 35.07C70.5501 34.7349 70.5644 34.3908 70.6518 34.0618C70.7392 33.7328 70.8976 33.427 71.1159 33.1658C71.3341 32.9046 71.607 32.6944 71.9152 32.55C72.2235 32.4056 72.5596 32.3305 72.9 32.33H81.84C82.2467 32.33 82.6369 32.4909 82.9254 32.7775C83.214 33.0642 83.3774 33.4533 83.38 33.86V42.23H89.86V33.88C89.8627 33.4733 90.0261 33.0842 90.3146 32.7975C90.6031 32.5109 90.9933 32.35 91.4 32.35H100.91C101.316 32.35 101.705 32.5112 101.992 32.7981C102.279 33.0851 102.44 33.4742 102.44 33.88V42.25H108.93V33.88C108.933 33.475 109.095 33.0874 109.381 32.801C109.667 32.5147 110.055 32.3526 110.46 32.35H119.41Z" fill="#404041"/>
<path d="M59.42 134.17V144.84C59.4172 145.377 59.6252 145.893 59.9992 146.279C60.3731 146.664 60.8833 146.887 61.42 146.9H130.78C131.326 146.9 131.85 146.683 132.237 146.297C132.623 145.91 132.84 145.386 132.84 144.84V134.17C132.84 133.624 132.623 133.1 132.237 132.713C131.85 132.327 131.326 132.11 130.78 132.11H61.47C61.2 132.11 60.9326 132.163 60.6832 132.267C60.4338 132.371 60.2074 132.523 60.0169 132.714C59.8264 132.905 59.6756 133.133 59.5732 133.382C59.4707 133.632 59.4187 133.9 59.42 134.17ZM129.84 143.85H62.47V135.16H129.84V143.85Z" fill="#404041"/>
</g>
<defs>
<clipPath id="clip0_2_155">
<rect width="186.28" height="182.01" fill="white"/>
</clipPath>
</defs>
</svg>
