<svg xmlns="http://www.w3.org/2000/svg" viewBox="0 0 186.28 182.01"><defs><style>.cls-1{fill:#fff;}.cls-2{fill:#8abfc6;}.cls-3{fill:#a0a437;}.cls-4{fill:#404041;}</style></defs><g id="Layer_2" data-name="Layer 2"><g id="Categories_and_Icons" data-name="Categories and Icons"><circle class="cls-1" cx="98.41" cy="94.15" r="87.87"/><path class="cls-2" d="M89.87 179.74a89.87 89.87 0 1 1 89.87-89.87 90 90 0 0 1-89.87 89.87ZM89.87 4a85.87 85.87 0 1 0 85.87 85.87A86 86 0 0 0 89.87 4Z"/><g id="ContentDevelopment-icon"><path class="cls-3" d="M123 63.2h15.75v20.7H123zM49.2 63.2l6.19 8.32-7.42 9.91v2.48h14.86l.04-2.48h13.59V63.2H49.2z"/><path class="cls-4" d="M76.29 72.49H51.57a1.4 1.4 0 0 1-1.16-.6l-7.15-10a1.43 1.43 0 0 1 1.16-2.25h31.87v2.85h-29.1l5.11 7.15h24ZM136.78 72.49h-14.64v-2.85h13.21v-7.15H122v-2.85h14.76a1.42 1.42 0 0 1 1 .42 1.45 1.45 0 0 1 .41 1v10a1.43 1.43 0 0 1-1.42 1.42"/><path class="cls-4" d="M76.29 82.49H44.42a1.43 1.43 0 0 1-1.16-2.25l7.15-10a1.43 1.43 0 0 1 1.15-.6h24.73v2.85h-24l-5.11 7.16h29.1ZM136.78 82.49h-14.65v-2.84h13.23v-7.16h-13.22v-2.85h14.64a1.43 1.43 0 0 1 1.42 1.43v10a1.4 1.4 0 0 1-1.42 1.42"/><path class="cls-4" d="M138.2 79.54h3.61V62.49h-3.61Zm5 2.85h-6.45a1.42 1.42 0 0 1-1.39-1.39V61.07a1.42 1.42 0 0 1 1.42-1.43h6.45a1.42 1.42 0 0 1 1.42 1.42V81a1.43 1.43 0 0 1-1.43 1.43"/><path class="cls-4" d="M144.65 79.54h3.47a2.89 2.89 0 0 0 3-2.76V65.26a2.91 2.91 0 0 0-3-2.78h-3.47Zm3.47 2.85h-4.89a1.43 1.43 0 0 1-1.42-1.39V61.06a1.43 1.43 0 0 1 1.42-1.42h4.89a5.74 5.74 0 0 1 5.88 5.62v11.52a5.74 5.74 0 0 1-5.84 5.61M30.93 71.12l13.11 8 5.77-8.09-5.77-8Zm13.49 11.37a1.43 1.43 0 0 1-.74-.21l-16.22-10a1.42 1.42 0 0 1 0-2.42L43.68 60a1.43 1.43 0 0 1 1.9.38l7.14 9.89a1.41 1.41 0 0 1 0 1.66l-7.14 10a1.44 1.44 0 0 1-1.16.59"/><path class="cls-4" d="M36.3 65.18h2.85v11.78H36.3zM78.25 148.17h-2.84v-41.88L64 96.83a1.19 1.19 0 0 1-.19-.2 7.12 7.12 0 0 1-2.22-5.15v-9.19h2.81v9.19a4.26 4.26 0 0 0 1.44 3.19l.1.09 11.8 9.76a1.45 1.45 0 0 1 .51 1.1ZM110.46 148.17h-2.84v-43a1.4 1.4 0 0 1 .63-1.18c1.71-1.15 10.3-7.24 12.46-15.19V62.16a4.31 4.31 0 0 0-8.61 0v10.7a1.42 1.42 0 0 1-1.42 1.42 1.44 1.44 0 0 1-1.44-1.42v-13a4.3 4.3 0 1 0-8.6 0v13a1.43 1.43 0 0 1-2.86 0v-13a4.31 4.31 0 1 0-8.61 0v13a1.42 1.42 0 0 1-1.42 1.42 1.43 1.43 0 0 1-1.43-1.42V59.64a4.31 4.31 0 0 0-8.61 0v26.29a1.42 1.42 0 0 1-1.42 1.42h-3.55V84.5h2.13V59.64a7.14 7.14 0 0 1 12.95-4.16 7.14 7.14 0 0 1 11.39.09A7.15 7.15 0 0 1 111.49 57a7.14 7.14 0 0 1 12.06 5.19V89a1.47 1.47 0 0 1 0 .36c-2.14 8.27-10.25 14.6-13.05 16.58Z"/></g></g></g></svg>