<svg width="187" height="183" viewBox="0 0 187 183" fill="none" xmlns="http://www.w3.org/2000/svg">
<g clip-path="url(#clip0_2_20)">
<path d="M98.41 182.02C146.939 182.02 186.28 142.679 186.28 94.15C186.28 45.6207 146.939 6.28 98.41 6.28C49.8807 6.28 10.54 45.6207 10.54 94.15C10.54 142.679 49.8807 182.02 98.41 182.02Z" fill="white"/>
<path d="M89.87 179.74C72.0954 179.74 54.72 174.469 39.9409 164.594C25.1619 154.719 13.643 140.683 6.84096 124.262C0.0389085 107.84 -1.74082 89.7703 1.72684 72.3372C5.19449 54.9042 13.7538 38.8909 26.3223 26.3223C38.8909 13.7538 54.9042 5.19448 72.3372 1.72683C89.7703 -1.74082 107.84 0.0389009 124.262 6.84095C140.683 13.643 154.719 25.1619 164.594 39.9409C174.469 54.72 179.74 72.0954 179.74 89.87C179.706 113.694 170.226 136.533 153.38 153.38C136.533 170.226 113.694 179.706 89.87 179.74ZM89.87 4C72.8865 4 56.2844 9.03619 42.1632 18.4717C28.0419 27.9072 17.0358 41.3183 10.5365 57.009C4.03718 72.6997 2.33667 89.9653 5.64998 106.622C8.96329 123.28 17.1416 138.58 29.1508 150.589C41.1599 162.598 56.4605 170.777 73.1176 174.09C89.7747 177.403 107.04 175.703 122.731 169.204C138.422 162.704 151.833 151.698 161.268 137.577C170.704 123.456 175.74 106.853 175.74 89.87C175.706 67.1064 166.648 45.285 150.551 29.1887C134.455 13.0924 112.634 4.03439 89.87 4V4Z" fill="#8ABFC6"/>
<path d="M75.1782 83.0722L61.7125 84.9791L62.6786 91.801L76.1442 89.8942L75.1782 83.0722Z" fill="#A0A437"/>
<path d="M127.98 90.53L112.81 90.15L117.75 49.89L123.88 55.64L132.93 50.24L127.98 90.53Z" fill="#A0A437"/>
<path d="M103.52 28.62H87.71V90.54H103.52V28.62Z" fill="#8ABFC6"/>
<path d="M119 92.65H109.65C109.407 92.6504 109.168 92.5992 108.946 92.4999C108.725 92.4005 108.528 92.2552 108.367 92.0736C108.206 91.892 108.086 91.6783 108.014 91.4466C107.942 91.215 107.92 90.9707 107.95 90.73L113.95 43.14C113.995 42.8312 114.124 42.5407 114.323 42.3C114.522 42.0593 114.783 41.8776 115.077 41.7746C115.372 41.6716 115.689 41.6512 115.995 41.7156C116.3 41.78 116.582 41.9268 116.81 42.14L125.18 49.88C125.379 50.0653 125.531 50.2953 125.623 50.5509C125.715 50.8066 125.745 51.0805 125.71 51.35L120.71 91.2C120.647 91.6071 120.44 91.978 120.126 92.2444C119.812 92.5107 119.412 92.6548 119 92.65V92.65ZM111.59 89.24H117.49L122.24 51.75L117 46.86L111.59 89.24Z" fill="#404041"/>
<path d="M128.38 92.65H119C118.757 92.6504 118.518 92.5992 118.296 92.4999C118.075 92.4005 117.878 92.2552 117.717 92.0736C117.556 91.892 117.436 91.6783 117.364 91.4466C117.292 91.215 117.27 90.9707 117.3 90.73L122.3 50.88C122.334 50.6093 122.433 50.3508 122.587 50.1263C122.742 49.9018 122.949 49.7178 123.19 49.59L133.19 44.18C133.466 44.033 133.778 43.9647 134.09 43.9825C134.403 44.0003 134.704 44.1035 134.962 44.281C135.22 44.4584 135.424 44.7032 135.553 44.9887C135.681 45.2741 135.728 45.5894 135.69 45.9L129.96 91.16C129.908 91.5522 129.723 91.9145 129.435 92.1859C129.147 92.4573 128.775 92.6212 128.38 92.65V92.65ZM121 89.24H126.89L132 48.77L125.67 52.18L121 89.24Z" fill="#404041"/>
<path d="M59.86 60.94C53.43 60.94 49.64 57.52 48.6 50.8C47.24 41.93 57 28.54 57.39 28C57.6594 27.6355 58.0624 27.3929 58.5105 27.3254C58.9586 27.2579 59.4152 27.3711 59.78 27.64C60.34 28 73.66 37.86 75 46.72C76.82 58.58 66.88 60.11 63.61 60.62C62.3697 60.8198 61.1162 60.9268 59.86 60.94ZM59.14 31.43C56.14 35.83 51.14 44.77 51.98 50.28C52.76 55.35 55.12 57.52 59.86 57.52C60.9523 57.5116 62.0423 57.418 63.12 57.24C70.12 56.16 72.58 53.24 71.65 47.24C70.8 41.73 63.29 34.74 59.14 31.43V31.43Z" fill="#404041"/>
<path d="M75.4744 78.2424L58.6826 80.8299L59.2034 84.21L75.9952 81.6225L75.4744 78.2424Z" fill="#404041"/>
<path d="M124.09 52.8C123.66 52.803 123.245 52.6421 122.93 52.35L114.56 44.61C114.242 44.3173 114.048 43.9146 114.016 43.4836C113.985 43.0527 114.118 42.6259 114.39 42.29L125.39 28.54C125.573 28.3122 125.811 28.1349 126.081 28.0251C126.352 27.9153 126.646 27.8766 126.936 27.9127C127.225 27.9488 127.501 28.0585 127.736 28.2313C127.972 28.4041 128.159 28.6343 128.28 28.9L135.57 45C135.749 45.3937 135.772 45.8405 135.635 46.2506C135.498 46.6607 135.21 47.0035 134.83 47.21L124.91 52.62C124.656 52.7468 124.374 52.8087 124.09 52.8V52.8ZM118.09 43.19L124.39 49.01L131.85 44.94L126.39 32.85L118.09 43.19Z" fill="#404041"/>
<path d="M120.492 35.9751L120.062 39.368L130.896 40.7404L131.325 37.3475L120.492 35.9751Z" fill="#404041"/>
<path d="M90.97 34.96H84.45V38.38H90.97V34.96Z" fill="#404041"/>
<path d="M90.97 45.89H84.45V49.31H90.97V45.89Z" fill="#404041"/>
<path d="M90.97 56.81H84.45V60.23H90.97V56.81Z" fill="#404041"/>
<path d="M90.97 67.74H84.45V71.16H90.97V67.74Z" fill="#404041"/>
<path d="M90.97 78.67H84.45V82.09H90.97V78.67Z" fill="#404041"/>
<path d="M76.91 92.65H59.73C59.3127 92.6615 58.9057 92.5191 58.5867 92.2498C58.2676 91.9806 58.0588 91.6033 58 91.19C54.78 68.44 56.3 58.29 63.08 57.24C63.411 57.1908 63.7454 57.1674 64.08 57.17C68.65 57.17 73.95 61.17 78.57 90.68C78.614 90.9253 78.6035 91.1773 78.5393 91.4181C78.4751 91.6589 78.3587 91.8826 78.1984 92.0734C78.0381 92.2643 77.8378 92.4175 77.6117 92.5223C77.3856 92.6272 77.1392 92.681 76.89 92.68L76.91 92.65ZM61.22 89.24H74.9C71.03 65.62 66.9 60.58 64.1 60.58C63.9468 60.5701 63.7932 60.5701 63.64 60.58C60.81 61.06 58.13 66.42 61.22 89.24Z" fill="#404041"/>
<path d="M103.56 92.65H84.45C84.0067 92.6503 83.5806 92.4784 83.2616 92.1705C82.9426 91.8627 82.7556 91.443 82.74 91V25.75C82.7347 25.5221 82.775 25.2954 82.8585 25.0833C82.9421 24.8712 83.0672 24.678 83.2265 24.5149C83.3858 24.3519 83.5761 24.2223 83.7862 24.1339C83.9964 24.0455 84.222 23.9999 84.45 24H103.56C104.014 24 104.448 24.1802 104.769 24.5008C105.09 24.8215 105.27 25.2565 105.27 25.71V91C105.254 91.443 105.067 91.8627 104.748 92.1705C104.429 92.4784 104.003 92.6503 103.56 92.65V92.65ZM86.16 89.24H101.85V27.45H86.16V89.24Z" fill="#404041"/>
<path d="M125.55 152.18H61.4C60.9697 152.181 60.5547 152.021 60.2378 151.73C59.9208 151.439 59.7252 151.039 59.69 150.61L56.02 103.61C56.0015 103.374 56.032 103.137 56.1094 102.913C56.1868 102.689 56.3096 102.484 56.47 102.31C56.6295 102.138 56.823 102.002 57.0382 101.909C57.2534 101.816 57.4856 101.768 57.72 101.77H129.23C129.464 101.768 129.697 101.816 129.912 101.909C130.127 102.002 130.321 102.138 130.48 102.31C130.64 102.484 130.763 102.689 130.841 102.913C130.918 103.137 130.949 103.374 130.93 103.61L127.26 150.61C127.225 151.039 127.029 151.439 126.712 151.73C126.395 152.021 125.98 152.181 125.55 152.18ZM63 148.77H124L127.41 105.14H59.57L63 148.77Z" fill="#404041"/>
<path d="M133.8 105.14H53.15C52.0095 105.127 50.9205 104.663 50.1205 103.85C49.3206 103.037 48.8747 101.941 48.88 100.8V93.55C48.872 92.4077 49.3168 91.3087 50.117 90.4935C50.9172 89.6783 52.0078 89.2132 53.15 89.2H133.8C134.942 89.2132 136.033 89.6783 136.833 90.4935C137.633 91.3087 138.078 92.4077 138.07 93.55V100.8C138.075 101.941 137.629 103.037 136.829 103.85C136.03 104.663 134.941 105.127 133.8 105.14ZM53.15 92.62C53.0331 92.6251 52.9183 92.6533 52.8123 92.7028C52.7063 92.7524 52.6111 92.8223 52.5321 92.9087C52.4532 92.9951 52.392 93.0962 52.3522 93.2062C52.3124 93.3163 52.2946 93.4331 52.3 93.55V100.8C52.2946 100.917 52.3124 101.034 52.3522 101.144C52.392 101.254 52.4532 101.355 52.5321 101.441C52.6111 101.528 52.7063 101.598 52.8123 101.647C52.9183 101.697 53.0331 101.725 53.15 101.73H133.8C133.917 101.725 134.032 101.697 134.138 101.647C134.244 101.598 134.339 101.528 134.418 101.441C134.497 101.355 134.558 101.254 134.598 101.144C134.638 101.034 134.655 100.917 134.65 100.8V93.55C134.655 93.4331 134.638 93.3163 134.598 93.2062C134.558 93.0962 134.497 92.9951 134.418 92.9087C134.339 92.8223 134.244 92.7524 134.138 92.7028C134.032 92.6533 133.917 92.6251 133.8 92.62H53.15Z" fill="#404041"/>
</g>
<defs>
<clipPath id="clip0_2_20">
<rect width="186.28" height="182.01" fill="white"/>
</clipPath>
</defs>
</svg>
