<svg width="187" height="183" viewBox="0 0 187 183" fill="none" xmlns="http://www.w3.org/2000/svg">
<g clip-path="url(#clip0_2_68)">
<path d="M98.41 182.02C146.939 182.02 186.28 142.679 186.28 94.15C186.28 45.6207 146.939 6.28 98.41 6.28C49.8807 6.28 10.54 45.6207 10.54 94.15C10.54 142.679 49.8807 182.02 98.41 182.02Z" fill="white"/>
<path d="M89.87 179.74C72.0954 179.74 54.72 174.469 39.9409 164.594C25.1619 154.719 13.643 140.683 6.84096 124.262C0.0389085 107.84 -1.74082 89.7703 1.72684 72.3372C5.19449 54.9042 13.7538 38.8909 26.3223 26.3223C38.8909 13.7538 54.9042 5.19448 72.3372 1.72682C89.7703 -1.74083 107.84 0.0388932 124.262 6.84094C140.683 13.643 154.719 25.1619 164.594 39.9409C174.469 54.7199 179.74 72.0954 179.74 89.87C179.706 113.694 170.226 136.533 153.38 153.38C136.533 170.226 113.694 179.706 89.87 179.74ZM89.87 3.99999C72.8865 3.99999 56.2844 9.03618 42.1632 18.4717C28.0419 27.9072 17.0358 41.3183 10.5365 57.009C4.03718 72.6997 2.33667 89.9653 5.64998 106.622C8.96329 123.28 17.1416 138.58 29.1508 150.589C41.1599 162.598 56.4605 170.777 73.1176 174.09C89.7747 177.403 107.04 175.703 122.731 169.204C138.422 162.704 151.833 151.698 161.268 137.577C170.704 123.456 175.74 106.853 175.74 89.87C175.706 67.1064 166.648 45.285 150.551 29.1887C134.455 13.0924 112.634 4.03438 89.87 3.99999V3.99999Z" fill="#8ABFC6"/>
<path d="M155.37 55.63H40.84V96.12H155.37V55.63Z" fill="#A2A637"/>
<path d="M127.89 145.11H64C63.8177 145.126 63.634 145.104 63.4607 145.045C63.2874 144.986 63.1283 144.892 62.9934 144.768C62.8584 144.644 62.7507 144.494 62.677 144.327C62.6033 144.159 62.5652 143.978 62.5652 143.795C62.5652 143.612 62.6033 143.431 62.677 143.263C62.7507 143.096 62.8584 142.946 62.9934 142.822C63.1283 142.698 63.2874 142.604 63.4607 142.545C63.634 142.486 63.8177 142.464 64 142.48H127.9C128.082 142.464 128.266 142.486 128.439 142.545C128.613 142.604 128.772 142.698 128.907 142.822C129.042 142.946 129.149 143.096 129.223 143.263C129.297 143.431 129.335 143.612 129.335 143.795C129.335 143.978 129.297 144.159 129.223 144.327C129.149 144.494 129.042 144.644 128.907 144.768C128.772 144.892 128.613 144.986 128.439 145.045C128.266 145.104 128.082 145.126 127.9 145.11" fill="#404041"/>
<path d="M45.25 104.2C44.8999 104.2 44.5642 104.061 44.3166 103.813C44.0691 103.566 43.93 103.23 43.93 102.88C43.93 102.53 44.0691 102.194 44.3166 101.947C44.5642 101.699 44.8999 101.56 45.25 101.56H146.63C146.98 101.56 147.316 101.699 147.563 101.947C147.811 102.194 147.95 102.53 147.95 102.88C147.95 103.23 147.811 103.566 147.563 103.813C147.316 104.061 146.98 104.2 146.63 104.2H45.25Z" fill="#404041"/>
<path d="M89.22 145.11C88.8699 145.11 88.5342 144.971 88.2866 144.723C88.0391 144.476 87.9 144.14 87.9 143.79V102.88C87.9 102.53 88.0391 102.194 88.2866 101.947C88.5342 101.699 88.8699 101.56 89.22 101.56C89.5701 101.56 89.9058 101.699 90.1534 101.947C90.4009 102.194 90.54 102.53 90.54 102.88V143.79C90.54 144.14 90.4009 144.476 90.1534 144.723C89.9058 144.971 89.5701 145.11 89.22 145.11" fill="#404041"/>
<path d="M102.66 144.55C102.312 144.547 101.978 144.407 101.733 144.16C101.488 143.913 101.35 143.578 101.35 143.23V102.88C101.35 102.53 101.489 102.194 101.737 101.947C101.984 101.699 102.32 101.56 102.67 101.56C103.02 101.56 103.356 101.699 103.603 101.947C103.851 102.194 103.99 102.53 103.99 102.88V143.23C103.99 143.58 103.851 143.916 103.603 144.163C103.356 144.411 103.02 144.55 102.67 144.55" fill="#404041"/>
<path d="M131.8 53.57H99.42C99.0699 53.57 98.7342 53.4309 98.4866 53.1834C98.2391 52.9358 98.1 52.6001 98.1 52.25C98.1 51.8999 98.2391 51.5642 98.4866 51.3166C98.7342 51.0691 99.0699 50.93 99.42 50.93H131.8C132.15 50.93 132.486 51.0691 132.733 51.3166C132.981 51.5642 133.12 51.8999 133.12 52.25C133.12 52.6001 132.981 52.9358 132.733 53.1834C132.486 53.4309 132.15 53.57 131.8 53.57" fill="#404041"/>
<path d="M93.94 53.57H62C61.6499 53.57 61.3142 53.4309 61.0666 53.1834C60.8191 52.9358 60.68 52.6001 60.68 52.25C60.68 51.8999 60.8191 51.5642 61.0666 51.3166C61.3142 51.0691 61.6499 50.93 62 50.93H93.94C94.2901 50.93 94.6259 51.0691 94.8734 51.3166C95.121 51.5642 95.26 51.8999 95.26 52.25C95.26 52.6001 95.121 52.9358 94.8734 53.1834C94.6259 53.4309 94.2901 53.57 93.94 53.57" fill="#404041"/>
<path d="M154.52 96.69H37.36C37.1833 96.6954 37.0074 96.6652 36.8426 96.6012C36.6778 96.5373 36.5275 96.4409 36.4007 96.3178C36.2738 96.1947 36.173 96.0474 36.1042 95.8846C36.0354 95.7217 35.9999 95.5468 36 95.37V52.25C35.9992 52.0767 36.0334 51.9051 36.1004 51.7453C36.1674 51.5855 36.2659 51.4409 36.39 51.32C36.5116 51.1968 36.6564 51.0989 36.816 51.0319C36.9756 50.965 37.1469 50.9303 37.32 50.93H56.09C56.4401 50.93 56.7758 51.0691 57.0234 51.3166C57.2709 51.5642 57.41 51.8999 57.41 52.25C57.41 52.6001 57.2709 52.9358 57.0234 53.1834C56.7758 53.4309 56.4401 53.57 56.09 53.57H38.68V94.06H153.2V53.57H138.41C138.06 53.57 137.724 53.4309 137.477 53.1834C137.229 52.9358 137.09 52.6001 137.09 52.25C137.09 51.8999 137.229 51.5642 137.477 51.3166C137.724 51.0691 138.06 50.93 138.41 50.93H154.52C154.87 50.93 155.206 51.0691 155.453 51.3166C155.701 51.5642 155.84 51.8999 155.84 52.25V95.37C155.84 95.7201 155.701 96.0558 155.453 96.3034C155.206 96.5509 154.87 96.69 154.52 96.69Z" fill="#404041"/>
<path d="M61.56 59.66C61.2099 59.66 60.8742 59.5209 60.6266 59.2734C60.3791 59.0258 60.24 58.6901 60.24 58.34V48.93C60.2684 48.3312 60.1587 47.7339 59.9194 47.1842C59.6801 46.6345 59.3177 46.1472 58.86 45.76C57.9007 45.0425 56.7276 44.6691 55.53 44.7C53.01 44.7 50.45 46.15 50.45 48.93V52.25C50.4659 52.4323 50.4437 52.616 50.3849 52.7893C50.326 52.9626 50.2318 53.1217 50.1081 53.2567C49.9845 53.3916 49.8341 53.4993 49.6666 53.573C49.499 53.6467 49.318 53.6848 49.135 53.6848C48.952 53.6848 48.771 53.6467 48.6034 53.573C48.4359 53.4993 48.2855 53.3916 48.1619 53.2567C48.0382 53.1217 47.944 52.9626 47.8851 52.7893C47.8263 52.616 47.8041 52.4323 47.82 52.25V48.93C47.82 44.47 51.82 42.06 55.53 42.06C57.3374 42.0257 59.102 42.6116 60.53 43.72C61.2952 44.3505 61.9058 45.1479 62.3149 46.051C62.724 46.9541 62.9207 47.939 62.89 48.93V58.34C62.89 58.6901 62.7509 59.0258 62.5034 59.2734C62.2558 59.5209 61.9201 59.66 61.57 59.66" fill="#404041"/>
<path d="M67 60.66H56.09C55.9077 60.6759 55.724 60.6537 55.5507 60.5949C55.3774 60.536 55.2183 60.4418 55.0833 60.3181C54.9484 60.1945 54.8407 60.0441 54.767 59.8766C54.6933 59.709 54.6552 59.528 54.6552 59.345C54.6552 59.162 54.6933 58.981 54.767 58.8134C54.8407 58.6459 54.9484 58.4955 55.0833 58.3719C55.2183 58.2482 55.3774 58.154 55.5507 58.0951C55.724 58.0363 55.9077 58.0141 56.09 58.03H67C67.1823 58.0141 67.366 58.0363 67.5393 58.0951C67.7126 58.154 67.8717 58.2482 68.0067 58.3719C68.1416 58.4955 68.2493 58.6459 68.323 58.8134C68.3967 58.981 68.4348 59.162 68.4348 59.345C68.4348 59.528 68.3967 59.709 68.323 59.8766C68.2493 60.0441 68.1416 60.1945 68.0067 60.3181C67.8717 60.4418 67.7126 60.536 67.5393 60.5949C67.366 60.6537 67.1823 60.6759 67 60.66" fill="#404041"/>
<path d="M99.42 59.66C99.0699 59.66 98.7342 59.5209 98.4866 59.2734C98.2391 59.0258 98.1 58.6901 98.1 58.34V48.93C98.1295 48.3301 98.0193 47.7315 97.7781 47.1814C97.5369 46.6313 97.1713 46.1447 96.71 45.76C95.7552 45.0411 94.5848 44.6674 93.39 44.7C90.86 44.7 88.31 46.15 88.31 48.93V52.25C88.31 52.6001 88.1709 52.9358 87.9234 53.1834C87.6758 53.4309 87.3401 53.57 86.99 53.57C86.6399 53.57 86.3042 53.4309 86.0566 53.1834C85.8091 52.9358 85.67 52.6001 85.67 52.25V48.93C85.67 44.47 89.67 42.06 93.39 42.06C95.1974 42.0257 96.962 42.6116 98.39 43.72C99.154 44.351 99.7631 45.1487 100.17 46.0519C100.578 46.9551 100.773 47.9397 100.74 48.93V58.34C100.74 58.6884 100.602 59.0226 100.357 59.2699C100.112 59.5171 99.7784 59.6574 99.43 59.66" fill="#404041"/>
<path d="M104.89 60.66H93.89C93.561 60.6313 93.2548 60.4803 93.0317 60.2369C92.8086 59.9934 92.6848 59.6752 92.6848 59.345C92.6848 59.0148 92.8086 58.6966 93.0317 58.4531C93.2548 58.2097 93.561 58.0587 93.89 58.03H104.89C105.072 58.0141 105.256 58.0363 105.429 58.0951C105.603 58.154 105.762 58.2482 105.897 58.3719C106.032 58.4955 106.139 58.6459 106.213 58.8134C106.287 58.981 106.325 59.162 106.325 59.345C106.325 59.528 106.287 59.709 106.213 59.8766C106.139 60.0441 106.032 60.1945 105.897 60.3181C105.762 60.4418 105.603 60.536 105.429 60.5949C105.256 60.6537 105.072 60.6759 104.89 60.66" fill="#404041"/>
<path d="M137.27 59.66C136.929 59.6471 136.606 59.5023 136.369 59.2561C136.132 59.01 136 58.6816 136 58.34V48.93C136.029 48.3301 135.919 47.7315 135.678 47.1814C135.437 46.6313 135.071 46.1447 134.61 45.76C133.655 45.0411 132.485 44.6674 131.29 44.7C128.76 44.7 126.21 46.15 126.21 48.93V52.25C126.21 52.6001 126.071 52.9358 125.823 53.1834C125.576 53.4309 125.24 53.57 124.89 53.57C124.54 53.57 124.204 53.4309 123.957 53.1834C123.709 52.9358 123.57 52.6001 123.57 52.25V48.93C123.57 44.47 127.57 42.06 131.29 42.06C133.098 42.0217 134.864 42.608 136.29 43.72C137.057 44.349 137.669 45.1461 138.078 46.0496C138.487 46.9531 138.683 47.9387 138.65 48.93V58.34C138.65 58.6901 138.511 59.0258 138.263 59.2734C138.016 59.5209 137.68 59.66 137.33 59.66" fill="#404041"/>
<path d="M142.75 60.66H131.8C131.618 60.6759 131.434 60.6537 131.261 60.5949C131.087 60.536 130.928 60.4418 130.793 60.3181C130.658 60.1945 130.551 60.0441 130.477 59.8766C130.403 59.709 130.365 59.528 130.365 59.345C130.365 59.162 130.403 58.981 130.477 58.8134C130.551 58.6459 130.658 58.4955 130.793 58.3719C130.928 58.2482 131.087 58.154 131.261 58.0951C131.434 58.0363 131.618 58.0141 131.8 58.03H142.75C143.079 58.0587 143.385 58.2097 143.608 58.4531C143.831 58.6966 143.955 59.0148 143.955 59.345C143.955 59.6752 143.831 59.9934 143.608 60.2369C143.385 60.4803 143.079 60.6313 142.75 60.66Z" fill="#404041"/>
</g>
<defs>
<clipPath id="clip0_2_68">
<rect width="186.28" height="182.01" fill="white"/>
</clipPath>
</defs>
</svg>
