<svg width="187" height="183" viewBox="0 0 187 183" fill="none" xmlns="http://www.w3.org/2000/svg">
<g clip-path="url(#clip0_2_90)">
<path d="M98.41 182.02C146.939 182.02 186.28 142.679 186.28 94.15C186.28 45.6207 146.939 6.28 98.41 6.28C49.8807 6.28 10.54 45.6207 10.54 94.15C10.54 142.679 49.8807 182.02 98.41 182.02Z" fill="white"/>
<path d="M89.87 179.74C72.0954 179.74 54.72 174.469 39.9409 164.594C25.1619 154.719 13.643 140.683 6.84096 124.262C0.0389085 107.84 -1.74082 89.7703 1.72684 72.3372C5.19449 54.9042 13.7538 38.8909 26.3223 26.3223C38.8909 13.7538 54.9042 5.19448 72.3372 1.72682C89.7703 -1.74083 107.84 0.0388932 124.262 6.84094C140.683 13.643 154.719 25.1619 164.594 39.9409C174.469 54.7199 179.74 72.0954 179.74 89.87C179.706 113.694 170.226 136.533 153.38 153.38C136.533 170.226 113.694 179.706 89.87 179.74ZM89.87 3.99999C72.8865 3.99999 56.2844 9.03618 42.1632 18.4717C28.0419 27.9072 17.0358 41.3183 10.5365 57.009C4.03718 72.6997 2.33667 89.9653 5.64998 106.622C8.96329 123.28 17.1416 138.58 29.1508 150.589C41.1599 162.598 56.4605 170.777 73.1176 174.09C89.7747 177.403 107.04 175.703 122.731 169.204C138.422 162.704 151.833 151.698 161.268 137.577C170.704 123.456 175.74 106.853 175.74 89.87C175.706 67.1064 166.648 45.285 150.551 29.1887C134.455 13.0924 112.634 4.03438 89.87 3.99999V3.99999Z" fill="#8ABFC6"/>
<path d="M84.99 82.17H62.99V111.27H84.99V82.17Z" fill="#A0A437"/>
<path d="M134.48 142.41H60.16C54.6592 142.402 49.386 140.213 45.4963 136.324C41.6066 132.434 39.4179 127.161 39.41 121.66V43.07C39.41 42.8271 39.4579 42.5865 39.5508 42.362C39.6438 42.1376 39.7801 41.9336 39.9519 41.7619C40.1236 41.5901 40.3276 41.4538 40.552 41.3608C40.7765 41.2679 41.0171 41.22 41.26 41.22H127.4C127.891 41.22 128.361 41.4149 128.708 41.7619C129.055 42.1088 129.25 42.5793 129.25 43.07V55.47H144.53C145.021 55.47 145.491 55.6649 145.838 56.0119C146.185 56.3588 146.38 56.8293 146.38 57.32V130.51C146.375 133.664 145.119 136.688 142.889 138.919C140.658 141.149 137.634 142.405 134.48 142.41ZM43.11 44.92V121.66C43.1258 126.164 44.922 130.479 48.1067 133.663C51.2914 136.848 55.6062 138.644 60.11 138.66H134.43C136.603 138.66 138.687 137.797 140.225 136.262C141.762 134.726 142.627 132.643 142.63 130.47V59.17H129.25V114.61C129.243 116.595 129.875 118.529 131.053 120.127C132.231 121.724 133.892 122.9 135.79 123.48C136.041 123.534 136.279 123.639 136.487 123.789C136.696 123.94 136.87 124.132 137 124.354C137.13 124.575 137.213 124.822 137.242 125.077C137.272 125.332 137.248 125.591 137.172 125.837C137.096 126.082 136.969 126.309 136.801 126.503C136.632 126.697 136.425 126.854 136.192 126.963C135.96 127.073 135.707 127.132 135.45 127.139C135.193 127.145 134.938 127.098 134.7 127C132.044 126.188 129.721 124.543 128.073 122.308C126.425 120.073 125.54 117.367 125.55 114.59V44.92H43.11Z" fill="#414042"/>
<path d="M114.89 56.43H58C57.7597 56.4482 57.5183 56.4166 57.2908 56.3371C57.0633 56.2577 56.8547 56.1321 56.678 55.9683C56.5013 55.8045 56.3604 55.606 56.264 55.3851C56.1676 55.1643 56.1178 54.926 56.1178 54.685C56.1178 54.444 56.1676 54.2057 56.264 53.9849C56.3604 53.764 56.5013 53.5655 56.678 53.4017C56.8547 53.2379 57.0633 53.1123 57.2908 53.0329C57.5183 52.9534 57.7597 52.9218 58 52.94H114.9C115.14 52.9218 115.382 52.9534 115.609 53.0329C115.837 53.1123 116.045 53.2379 116.222 53.4017C116.399 53.5655 116.54 53.764 116.636 53.9849C116.732 54.2057 116.782 54.444 116.782 54.685C116.782 54.926 116.732 55.1643 116.636 55.3851C116.54 55.606 116.399 55.8045 116.222 55.9683C116.045 56.1321 115.837 56.2577 115.609 56.3371C115.382 56.4166 115.14 56.4482 114.9 56.43H114.89Z" fill="#414042"/>
<path d="M114.89 67.82H58C57.5359 67.82 57.0908 67.6356 56.7626 67.3074C56.4344 66.9793 56.25 66.5341 56.25 66.07C56.25 65.6059 56.4344 65.1608 56.7626 64.8326C57.0908 64.5044 57.5359 64.32 58 64.32H114.9C115.364 64.32 115.809 64.5044 116.137 64.8326C116.466 65.1608 116.65 65.6059 116.65 66.07C116.65 66.5341 116.466 66.9793 116.137 67.3074C115.809 67.6356 115.364 67.82 114.9 67.82H114.89Z" fill="#414042"/>
<path d="M80 108H58C57.5376 108 57.094 107.817 56.7661 107.491C56.4382 107.165 56.2526 106.722 56.25 106.26V77.17C56.25 76.7059 56.4344 76.2608 56.7626 75.9326C57.0908 75.6044 57.5359 75.42 58 75.42H80C80.4641 75.42 80.9092 75.6044 81.2374 75.9326C81.5656 76.2608 81.75 76.7059 81.75 77.17V106.27C81.7487 106.498 81.7024 106.725 81.6137 106.935C81.5251 107.146 81.3958 107.337 81.2333 107.497C81.0708 107.658 80.8782 107.785 80.6666 107.871C80.455 107.958 80.2285 108.001 80 108V108ZM59.75 104.51H78.24V78.91H59.73L59.75 104.51Z" fill="#414042"/>
<path d="M114.89 80.26H92.89C92.3994 80.26 91.9288 80.0651 91.5819 79.7181C91.2349 79.3712 91.04 78.9007 91.04 78.41C91.04 77.9194 91.2349 77.4488 91.5819 77.1019C91.9288 76.7549 92.3994 76.56 92.89 76.56H114.89C115.381 76.56 115.851 76.7549 116.198 77.1019C116.545 77.4488 116.74 77.9194 116.74 78.41C116.74 78.9007 116.545 79.3712 116.198 79.7181C115.851 80.0651 115.381 80.26 114.89 80.26V80.26Z" fill="#414042"/>
<path d="M114.89 92.29H92.89C92.3994 92.29 91.9288 92.0951 91.5819 91.7481C91.2349 91.4012 91.04 90.9307 91.04 90.44C91.04 89.9494 91.2349 89.4788 91.5819 89.1319C91.9288 88.7849 92.3994 88.59 92.89 88.59H114.89C115.381 88.59 115.851 88.7849 116.198 89.1319C116.545 89.4788 116.74 89.9494 116.74 90.44C116.74 90.9307 116.545 91.4012 116.198 91.7481C115.851 92.0951 115.381 92.29 114.89 92.29V92.29Z" fill="#414042"/>
<path d="M114.89 104.46H92.89C92.3994 104.46 91.9288 104.265 91.5819 103.918C91.2349 103.571 91.04 103.101 91.04 102.61C91.04 102.119 91.2349 101.649 91.5819 101.302C91.9288 100.955 92.3994 100.76 92.89 100.76H114.89C115.381 100.76 115.851 100.955 116.198 101.302C116.545 101.649 116.74 102.119 116.74 102.61C116.74 103.101 116.545 103.571 116.198 103.918C115.851 104.265 115.381 104.46 114.89 104.46V104.46Z" fill="#414042"/>
<path d="M114.89 116.64H92.89C92.3994 116.64 91.9288 116.445 91.5819 116.098C91.2349 115.751 91.04 115.281 91.04 114.79C91.04 114.299 91.2349 113.829 91.5819 113.482C91.9288 113.135 92.3994 112.94 92.89 112.94H114.89C115.381 112.94 115.851 113.135 116.198 113.482C116.545 113.829 116.74 114.299 116.74 114.79C116.74 115.281 116.545 115.751 116.198 116.098C115.851 116.445 115.381 116.64 114.89 116.64V116.64Z" fill="#414042"/>
<path d="M114.89 128.81H92.89C92.3994 128.81 91.9288 128.615 91.5819 128.268C91.2349 127.921 91.04 127.451 91.04 126.96C91.04 126.469 91.2349 125.999 91.5819 125.652C91.9288 125.305 92.3994 125.11 92.89 125.11H114.89C115.381 125.11 115.851 125.305 116.198 125.652C116.545 125.999 116.74 126.469 116.74 126.96C116.74 127.451 116.545 127.921 116.198 128.268C115.851 128.615 115.381 128.81 114.89 128.81V128.81Z" fill="#414042"/>
<path d="M80 117.85H58C57.5093 117.85 57.0388 117.655 56.6918 117.308C56.3449 116.961 56.15 116.491 56.15 116C56.15 115.509 56.3449 115.039 56.6918 114.692C57.0388 114.345 57.5093 114.15 58 114.15H80C80.4906 114.15 80.9612 114.345 81.3081 114.692C81.6551 115.039 81.85 115.509 81.85 116C81.85 116.491 81.6551 116.961 81.3081 117.308C80.9612 117.655 80.4906 117.85 80 117.85V117.85Z" fill="#414042"/>
<path d="M80 127.59H58C57.5093 127.59 57.0388 127.395 56.6918 127.048C56.3449 126.701 56.15 126.231 56.15 125.74C56.15 125.249 56.3449 124.779 56.6918 124.432C57.0388 124.085 57.5093 123.89 58 123.89H80C80.4906 123.89 80.9612 124.085 81.3081 124.432C81.6551 124.779 81.85 125.249 81.85 125.74C81.85 126.231 81.6551 126.701 81.3081 127.048C80.9612 127.395 80.4906 127.59 80 127.59V127.59Z" fill="#414042"/>
</g>
<defs>
<clipPath id="clip0_2_90">
<rect width="186.28" height="182.01" fill="white"/>
</clipPath>
</defs>
</svg>
