<svg width="187" height="183" viewBox="0 0 187 183" fill="none" xmlns="http://www.w3.org/2000/svg">
<g clip-path="url(#clip0_2_122)">
<path d="M98.41 182.02C146.939 182.02 186.28 142.679 186.28 94.15C186.28 45.6207 146.939 6.28 98.41 6.28C49.8807 6.28 10.54 45.6207 10.54 94.15C10.54 142.679 49.8807 182.02 98.41 182.02Z" fill="white"/>
<path d="M89.87 179.74C72.0954 179.74 54.72 174.469 39.9409 164.594C25.1619 154.719 13.643 140.683 6.84096 124.262C0.0389085 107.84 -1.74082 89.7703 1.72684 72.3372C5.19449 54.9042 13.7538 38.8909 26.3223 26.3223C38.8909 13.7538 54.9042 5.19449 72.3372 1.72684C89.7703 -1.74082 107.84 0.0389085 124.262 6.84096C140.683 13.643 154.719 25.1619 164.594 39.9409C174.469 54.72 179.74 72.0954 179.74 89.87C179.706 113.694 170.226 136.533 153.38 153.38C136.533 170.226 113.694 179.706 89.87 179.74ZM89.87 4.00001C72.8865 4.00001 56.2844 9.0362 42.1632 18.4717C28.0419 27.9072 17.0358 41.3183 10.5365 57.009C4.03718 72.6997 2.33667 89.9653 5.64998 106.622C8.96329 123.28 17.1416 138.58 29.1508 150.589C41.1599 162.598 56.4605 170.777 73.1176 174.09C89.7747 177.403 107.04 175.703 122.731 169.204C138.422 162.704 151.833 151.698 161.268 137.577C170.704 123.456 175.74 106.853 175.74 89.87C175.706 67.1064 166.648 45.285 150.551 29.1887C134.455 13.0924 112.634 4.03439 89.87 4.00001V4.00001Z" fill="#8ABFC6"/>
<path d="M54.5 80.19C55.7594 80.5492 56.9307 81.1655 57.94 82L89.21 50.76L86.57 48.11L54.5 80.19ZM56.55 97.27L82 122.7C83.3849 122.244 84.8069 121.909 86.25 121.7L59.68 95.13C58.7895 96.0445 57.7254 96.7721 56.55 97.27V97.27Z" fill="#A2A637"/>
<path d="M68.65 145H111.09C110.721 139.624 108.325 134.588 104.386 130.911C100.447 127.233 95.2588 125.188 89.87 125.188C84.4812 125.188 79.2932 127.233 75.3543 130.911C71.4154 134.588 69.0193 139.624 68.65 145ZM119.06 43.36C114.98 43.3593 110.985 44.5323 107.553 46.7389C104.121 48.9455 101.396 52.0928 99.7035 55.8052C98.0107 59.5177 97.4213 63.6388 98.0058 67.6769C98.5903 71.7151 100.324 75.4999 103 78.58L133 48.58C129.14 45.2075 124.186 43.3524 119.06 43.36V43.36Z" fill="#8BC0C6"/>
<path d="M79.59 125.93C79.393 125.93 79.1979 125.892 79.0159 125.816C78.834 125.741 78.6688 125.63 78.53 125.49L50.58 97.54C50.3822 97.3425 50.2444 97.0931 50.1824 96.8206C50.1205 96.548 50.137 96.2635 50.23 96C50.3234 95.7309 50.4915 95.4939 50.7146 95.3168C50.9377 95.1397 51.2067 95.0298 51.49 95C52.4621 94.9009 53.4 94.5865 54.2354 94.0797C55.0709 93.5729 55.783 92.8864 56.32 92.07C56.443 91.885 56.6055 91.7297 56.7958 91.6152C56.9861 91.5006 57.1995 91.4298 57.4205 91.4078C57.6415 91.3858 57.8647 91.4132 58.0739 91.4879C58.283 91.5626 58.473 91.6829 58.63 91.84L88.63 121.84C88.8363 122.046 88.9781 122.308 89.0379 122.593C89.0978 122.879 89.0732 123.175 88.9671 123.447C88.861 123.719 88.678 123.953 88.4405 124.123C88.203 124.292 87.9214 124.388 87.63 124.4C85.0721 124.415 82.538 124.893 80.15 125.81C79.9733 125.887 79.7828 125.928 79.59 125.93V125.93ZM54.59 97.27L80 122.7C81.3849 122.244 82.8069 121.909 84.25 121.7L57.68 95.13C56.7895 96.0445 55.7254 96.7721 54.55 97.27H54.59ZM57 84.64H56.9C56.6934 84.6347 56.4904 84.5856 56.3042 84.4959C56.118 84.4063 55.953 84.2782 55.82 84.12C55.1583 83.3467 54.3263 82.7374 53.3893 82.34C52.4523 81.9427 51.4359 81.7681 50.42 81.83C50.1142 81.8579 49.8071 81.7938 49.5381 81.6459C49.269 81.498 49.0503 81.2731 48.91 81C48.7752 80.7265 48.7288 80.4179 48.7772 80.117C48.8256 79.816 48.9663 79.5375 49.18 79.32L84.51 43.93C84.7929 43.6513 85.173 43.4936 85.57 43.49C85.9703 43.492 86.3541 43.6498 86.64 43.93L91.4 48.69C91.6791 48.9742 91.8355 49.3566 91.8355 49.755C91.8355 50.1533 91.6791 50.5358 91.4 50.82L58 84.2C57.7322 84.4647 57.3761 84.6214 57 84.64V84.64ZM53.5 79.19C54.7594 79.5492 55.9307 80.1655 56.94 81L88.21 49.76L85.57 47.11L53.5 79.19Z" fill="#414042"/>
<path d="M96.14 57.06C95.9429 57.0609 95.7476 57.0225 95.5656 56.9469C95.3836 56.8714 95.2185 56.7602 95.08 56.62L83.44 45C83.1585 44.717 83.0005 44.3341 83.0005 43.935C83.0005 43.5359 83.1585 43.153 83.44 42.87L95.31 31C95.4494 30.8594 95.6153 30.7478 95.7981 30.6717C95.9809 30.5955 96.177 30.5563 96.375 30.5563C96.573 30.5563 96.7691 30.5955 96.9519 30.6717C97.1347 30.7478 97.3006 30.8594 97.44 31L109.08 42.64C109.362 42.923 109.52 43.3059 109.52 43.705C109.52 44.1041 109.362 44.487 109.08 44.77L108.95 44.9C108.819 45.0288 108.667 45.1338 108.5 45.21C103.655 47.3141 99.781 51.1668 97.65 56C97.5714 56.1711 97.4631 56.3268 97.33 56.46L97.2 56.59C97.0641 56.7357 96.9001 56.8524 96.7179 56.9331C96.5358 57.0139 96.3392 57.057 96.14 57.06V57.06ZM86.62 43.92L95.77 53.06C97.9891 48.9209 101.381 45.5292 105.52 43.31L96.38 34.16L86.62 43.92ZM50.8 98C48.8969 98.002 47.036 97.4395 45.4527 96.3836C43.8694 95.3277 42.6348 93.826 41.9052 92.0684C41.1755 90.3107 40.9836 88.3761 41.3536 86.5094C41.7237 84.6426 42.6391 82.9276 43.9841 81.5812C45.3291 80.2348 47.0432 79.3176 48.9096 78.9456C50.7759 78.5736 52.7107 78.7635 54.4691 79.4913C56.2275 80.2191 57.7305 81.4522 58.788 83.0344C59.8455 84.6166 60.41 86.4769 60.41 88.38C60.4074 90.9288 59.3944 93.3727 57.593 95.1759C55.7916 96.9792 53.3488 97.9947 50.8 98ZM50.8 81.77C49.4898 81.768 48.2086 82.1548 47.1184 82.8815C46.0282 83.6082 45.1781 84.642 44.6758 85.852C44.1736 87.0621 44.0416 88.394 44.2967 89.679C44.5518 90.9641 45.1825 92.1446 46.109 93.071C47.0354 93.9975 48.2159 94.6282 49.501 94.8833C50.7861 95.1384 52.1179 95.0064 53.328 94.5042C54.538 94.0019 55.5718 93.1518 56.2985 92.0616C57.0252 90.9714 57.412 89.6902 57.41 88.38C57.3994 86.6329 56.6987 84.9609 55.4605 83.7283C54.2223 82.4957 52.5471 81.8026 50.8 81.8V81.77ZM50.8 93.16C49.8546 93.16 48.9304 92.8797 48.1444 92.3544C47.3583 91.8292 46.7456 91.0827 46.3839 90.2092C46.0221 89.3358 45.9274 88.3747 46.1119 87.4475C46.2963 86.5202 46.7515 85.6685 47.42 85C48.0885 84.3315 48.9402 83.8763 49.8675 83.6918C50.7947 83.5074 51.7558 83.6021 52.6292 83.9639C53.5027 84.3256 54.2492 84.9383 54.7744 85.7244C55.2997 86.5104 55.58 87.4346 55.58 88.38C55.5826 89.0099 55.461 89.6341 55.2221 90.2169C54.9832 90.7997 54.6317 91.3297 54.1877 91.7764C53.7437 92.2232 53.2159 92.578 52.6346 92.8206C52.0533 93.0632 51.4299 93.1887 50.8 93.19V93.16ZM50.8 86.61C50.4475 86.61 50.103 86.7147 49.8101 86.9107C49.5171 87.1067 49.289 87.3853 49.1546 87.7112C49.0201 88.037 48.9855 88.3954 49.055 88.741C49.1245 89.0865 49.295 89.4037 49.5449 89.6522C49.7949 89.9007 50.113 90.0695 50.4589 90.137C50.8049 90.2046 51.1631 90.1679 51.4881 90.0316C51.8132 89.8954 52.0905 89.6657 52.2849 89.3716C52.4793 89.0776 52.582 88.7325 52.58 88.38C52.5696 87.9149 52.3774 87.4723 52.0447 87.1471C51.712 86.8219 51.2652 86.6399 50.8 86.64V86.61Z" fill="#414042"/>
<path d="M50.8 93.19C49.8546 93.19 48.9304 92.9097 48.1444 92.3844C47.3583 91.8592 46.7457 91.1127 46.3839 90.2392C46.0221 89.3658 45.9274 88.4047 46.1119 87.4775C46.2963 86.5502 46.7515 85.6985 47.42 85.03C48.0885 84.3615 48.9402 83.9063 49.8675 83.7219C50.7947 83.5374 51.7558 83.6321 52.6292 83.9939C53.5027 84.3556 54.2492 84.9683 54.7744 85.7544C55.2997 86.5404 55.58 87.4646 55.58 88.41C55.5774 89.6769 55.0729 90.8912 54.1771 91.7871C53.2812 92.6829 52.0669 93.1874 50.8 93.19V93.19ZM50.8 86.64C50.4475 86.64 50.103 86.7447 49.8101 86.9407C49.5171 87.1367 49.289 87.4153 49.1546 87.7412C49.0201 88.067 48.9855 88.4254 49.055 88.771C49.1245 89.1165 49.295 89.4337 49.5449 89.6822C49.7949 89.9307 50.113 90.0995 50.4589 90.167C50.8049 90.2346 51.1631 90.1979 51.4881 90.0616C51.8132 89.9254 52.0905 89.6957 52.2849 89.4016C52.4793 89.1076 52.582 88.7625 52.58 88.41C52.5774 87.9397 52.3887 87.4895 52.0551 87.1578C51.7216 86.8262 51.2704 86.64 50.8 86.64V86.64ZM117.09 76.47C115.535 76.4716 113.995 76.1659 112.559 75.5704C111.122 74.9749 109.818 74.1014 108.72 73C108.442 72.7175 108.285 72.3367 108.285 71.94C108.285 71.5433 108.442 71.1625 108.72 70.88L123.34 56.26C123.623 55.9815 124.003 55.8254 124.4 55.8254C124.797 55.8254 125.177 55.9815 125.46 56.26C127.115 57.9158 128.242 60.0251 128.698 62.3213C129.155 64.6175 128.92 66.9974 128.025 69.1604C127.129 71.3233 125.612 73.1722 123.666 74.4732C121.719 75.7743 119.431 76.4692 117.09 76.47V76.47ZM112 71.85C113.703 73.052 115.775 73.6138 117.852 73.4361C119.928 73.2585 121.875 72.3529 123.349 70.8791C124.823 69.4054 125.728 67.4584 125.906 65.3818C126.084 63.3052 125.522 61.2326 124.32 59.53L112 71.85Z" fill="#414042"/>
<path d="M101 82.23C100.801 82.2311 100.605 82.1928 100.421 82.1173C100.237 82.0418 100.07 81.9305 99.93 81.79C95.3789 77.2376 92.8226 71.0636 92.8236 64.6265C92.8245 58.1893 95.3826 52.0161 99.935 47.465C104.487 42.9139 110.661 40.3576 117.099 40.3586C123.536 40.3595 129.709 42.9176 134.26 47.47C134.541 47.751 134.7 48.1323 134.7 48.53C134.697 48.9272 134.54 49.3077 134.26 49.59L102.06 81.79C101.921 81.9298 101.756 82.0406 101.574 82.1161C101.392 82.1917 101.197 82.2304 101 82.23V82.23ZM117.1 43.36C113.018 43.3558 109.021 44.5257 105.586 46.7302C102.151 48.9346 99.4217 52.0805 97.7246 55.7929C96.0276 59.5052 95.4341 63.6273 96.0149 67.6676C96.5956 71.7079 98.3261 75.4959 101 78.58L131 48.58C127.149 45.2127 122.206 43.3579 117.09 43.36H117.1ZM89.32 52.77L87.2 50.65L94.61 43.24C94.7486 43.0997 94.9136 42.9883 95.0956 42.9123C95.2776 42.8363 95.4728 42.7971 95.67 42.7971C95.8672 42.7971 96.0624 42.8363 96.2444 42.9123C96.4264 42.9883 96.5914 43.0997 96.73 43.24C96.8703 43.3786 96.9817 43.5436 97.0577 43.7256C97.1337 43.9076 97.1729 44.1028 97.1729 44.3C97.1729 44.4972 97.1337 44.6924 97.0577 44.8744C96.9817 45.0563 96.8703 45.2214 96.73 45.36L89.32 52.77Z" fill="#414042"/>
<path d="M130.501 75.9156C129.915 75.3299 128.966 75.3301 128.38 75.916C127.794 76.5019 127.794 77.4516 128.38 78.0373L130.007 79.6634C130.593 80.2491 131.543 80.2489 132.128 79.663C132.714 79.0771 132.714 78.1274 132.128 77.5417L130.501 75.9156Z" fill="#414042"/>
<path d="M122.38 82.29C122.38 81.4616 121.708 80.79 120.88 80.79C120.052 80.79 119.38 81.4616 119.38 82.29V84.59C119.38 85.4184 120.052 86.09 120.88 86.09C121.708 86.09 122.38 85.4184 122.38 84.59V82.29Z" fill="#414042"/>
<path d="M137.05 66.92H134.75C133.922 66.92 133.25 67.5916 133.25 68.42C133.25 69.2484 133.922 69.92 134.75 69.92H137.05C137.878 69.92 138.55 69.2484 138.55 68.42C138.55 67.5916 137.878 66.92 137.05 66.92Z" fill="#414042"/>
<path d="M110.55 147.18H65C64.6022 147.18 64.2206 147.022 63.9393 146.741C63.658 146.459 63.5 146.078 63.5 145.68C63.6289 139.327 66.2431 133.278 70.7815 128.831C75.32 124.384 81.4209 121.893 87.775 121.893C94.1291 121.893 100.23 124.384 104.768 128.831C109.307 133.278 111.921 139.327 112.05 145.68C112.05 146.078 111.892 146.459 111.611 146.741C111.329 147.022 110.948 147.18 110.55 147.18V147.18ZM66.55 144.18H109C108.631 138.804 106.235 133.768 102.296 130.091C98.3568 126.413 93.1688 124.368 87.78 124.368C82.3912 124.368 77.2032 126.413 73.2643 130.091C69.3254 133.768 66.9293 138.804 66.56 144.18H66.55Z" fill="#414042"/>
<path d="M94.41 136.75H100.66V139.75H94.41V136.75Z" fill="#414042"/>
</g>
<defs>
<clipPath id="clip0_2_122">
<rect width="186.28" height="182.01" fill="white"/>
</clipPath>
</defs>
</svg>
