<svg width="187" height="183" viewBox="0 0 187 183" fill="none" xmlns="http://www.w3.org/2000/svg">
<g clip-path="url(#clip0_2_108)">
<path d="M98.41 182.02C146.939 182.02 186.28 142.679 186.28 94.15C186.28 45.6207 146.939 6.28 98.41 6.28C49.8807 6.28 10.54 45.6207 10.54 94.15C10.54 142.679 49.8807 182.02 98.41 182.02Z" fill="white"/>
<path d="M89.87 179.74C72.0954 179.74 54.7199 174.469 39.9409 164.594C25.1618 154.719 13.643 140.683 6.84093 124.262C0.038878 107.84 -1.74085 89.7703 1.72681 72.3372C5.19446 54.9042 13.7537 38.8909 26.3223 26.3223C38.8908 13.7538 54.9041 5.19449 72.3372 1.72684C89.7703 -1.74082 107.84 0.0389085 124.262 6.84096C140.683 13.643 154.719 25.1619 164.594 39.9409C174.469 54.72 179.74 72.0954 179.74 89.87C179.706 113.694 170.226 136.533 153.38 153.38C136.533 170.226 113.694 179.706 89.87 179.74ZM89.87 4.00001C72.8865 4.00001 56.2844 9.0362 42.1632 18.4717C28.0419 27.9072 17.0357 41.3183 10.5364 57.009C4.03715 72.6997 2.33663 89.9653 5.64995 106.622C8.96326 123.28 17.1416 138.58 29.1507 150.589C41.1599 162.598 56.4604 170.777 73.1176 174.09C89.7747 177.403 107.04 175.703 122.731 169.204C138.422 162.704 151.833 151.698 161.268 137.577C170.704 123.456 175.74 106.853 175.74 89.87C175.706 67.1064 166.648 45.285 150.551 29.1887C134.455 13.0924 112.634 4.03439 89.87 4.00001V4.00001Z" fill="#8ABFC6"/>
<path d="M110.44 112C112.655 104.318 113.832 96.3742 113.94 88.38C114.113 79.3306 113.047 70.3001 110.77 61.54L115.53 58.85C115.53 58.85 120.04 76.44 119.91 86.29C119.78 96.14 115.33 114.59 115.33 114.59L110.44 112ZM44.69 76.48H56.88V97.52H44.69V76.48Z" fill="#A0A437"/>
<path d="M132.15 100.13C131.81 100.125 131.48 100.018 131.201 99.8242C130.922 99.6303 130.707 99.3578 130.584 99.0413C130.461 98.7248 130.434 98.3788 130.508 98.0473C130.583 97.7158 130.754 97.4139 131 97.18C132.498 95.762 133.702 94.0625 134.542 92.1789C135.383 90.2952 135.843 88.2643 135.898 86.2023C135.953 84.1404 135.601 82.0879 134.861 80.1622C134.122 78.2366 133.011 76.4756 131.59 74.98C131.359 74.6482 131.252 74.245 131.29 73.8422C131.328 73.4394 131.507 73.063 131.796 72.7799C132.085 72.4968 132.465 72.3254 132.869 72.2962C133.272 72.2669 133.673 72.3816 134 72.62C135.727 74.4389 137.079 76.5804 137.978 78.9221C138.877 81.2637 139.306 83.7596 139.24 86.2671C139.174 88.7746 138.615 91.2445 137.594 93.5357C136.573 95.8269 135.11 97.8944 133.29 99.62C132.991 99.9319 132.582 100.115 132.15 100.13Z" fill="#86BEC4"/>
<path d="M141.13 109.61C140.777 109.622 140.428 109.525 140.133 109.331C139.837 109.137 139.609 108.856 139.48 108.527C139.351 108.198 139.326 107.837 139.411 107.494C139.495 107.151 139.683 106.842 139.95 106.61C145.469 101.365 148.685 94.1458 148.893 86.5343C149.101 78.9228 146.285 71.539 141.06 66C140.894 65.8396 140.762 65.6472 140.672 65.4344C140.582 65.2215 140.536 64.9927 140.537 64.7617C140.538 64.5307 140.586 64.3023 140.678 64.0903C140.77 63.8782 140.903 63.687 141.071 63.5281C141.239 63.3692 141.437 63.246 141.654 63.1657C141.87 63.0855 142.101 63.0501 142.332 63.0615C142.562 63.0728 142.788 63.1309 142.996 63.232C143.204 63.3332 143.389 63.4754 143.54 63.65C146.449 66.7197 148.724 70.3324 150.236 74.2818C151.748 78.2311 152.467 82.4397 152.351 86.6669C152.236 90.8942 151.289 95.0574 149.565 98.9185C147.84 102.78 145.371 106.263 142.3 109.17C141.98 109.46 141.562 109.617 141.13 109.61Z" fill="#86BEC4"/>
<path d="M150.61 119.63C150.268 119.63 149.933 119.528 149.65 119.337C149.366 119.145 149.147 118.873 149.02 118.555C148.893 118.237 148.864 117.889 148.937 117.555C149.01 117.22 149.182 116.916 149.43 116.68C157.626 108.914 162.403 98.2112 162.71 86.9245C163.018 75.6378 158.831 64.6908 151.07 56.49C150.758 56.1598 150.591 55.7193 150.604 55.2655C150.617 54.8117 150.81 54.3816 151.14 54.07C151.47 53.7584 151.911 53.5907 152.364 53.6038C152.818 53.6169 153.248 53.8098 153.56 54.14C161.94 62.9968 166.46 74.8182 166.128 87.0063C165.796 99.1945 160.639 110.752 151.79 119.14C151.477 119.453 151.053 119.63 150.61 119.63V119.63Z" fill="#86BEC4"/>
<path d="M42 135H27.2C26.918 135.001 26.6401 134.932 26.3914 134.799C26.1426 134.667 25.9309 134.474 25.7751 134.239C25.6194 134.004 25.5246 133.734 25.4992 133.453C25.4739 133.172 25.5188 132.889 25.63 132.63L40.05 98.55L43.2 99.88L29.78 131.62H40.78L55 97.79L58.15 99.11L43.54 134C43.405 134.296 43.1884 134.547 42.9156 134.724C42.6428 134.901 42.3252 134.997 42 135V135Z" fill="#404041"/>
<path d="M59.41 113.09C58.7075 113.094 58.0057 113.047 57.31 112.95C55.5626 112.696 53.8715 112.145 52.31 111.32L53.91 108.32C55.1256 108.958 56.4411 109.384 57.8 109.58C58.9538 109.75 60.1262 109.75 61.28 109.58C60.28 105.01 60.49 100.93 61.86 98.44L64.86 100.09C64.04 101.59 63.58 105.19 65.01 110.41C65.1284 110.84 65.0744 111.298 64.8596 111.689C64.6448 112.079 64.2862 112.37 63.86 112.5C62.4133 112.912 60.9141 113.111 59.41 113.09V113.09Z" fill="#404041"/>
<path d="M113.21 116.67C112.579 116.669 111.96 116.496 111.42 116.17C95.0962 106.222 76.4586 100.707 57.35 100.17L35.91 100.7C32.1815 100.601 28.6389 99.051 26.0367 96.3791C23.4344 93.7071 21.9782 90.1247 21.9782 86.395C21.9782 82.6653 23.4344 79.0829 26.0367 76.4109C28.6389 73.739 32.1815 72.1886 35.91 72.09H57.77C67.0262 71.8651 76.2149 70.4501 85.11 67.88C94.4015 65.1875 103.291 61.2626 111.54 56.21C111.977 55.942 112.471 55.7787 112.982 55.7329C113.493 55.687 114.008 55.7599 114.486 55.9457C114.964 56.1316 115.393 56.4254 115.739 56.8043C116.085 57.1832 116.338 57.6369 116.48 58.13C119.254 67.6385 120.602 77.5059 120.48 87.41C120.362 96.4764 119.017 105.485 116.48 114.19C116.332 114.698 116.069 115.165 115.712 115.555C115.355 115.945 114.913 116.248 114.42 116.44C114.034 116.589 113.624 116.667 113.21 116.67V116.67ZM57.36 96.67C77.096 97.2273 96.3443 102.929 113.2 113.21C115.662 104.8 116.964 96.0926 117.07 87.33C117.179 77.7991 115.886 68.3041 113.23 59.15C104.749 64.3438 95.6113 68.3796 86.06 71.15C76.8698 73.8101 67.3747 75.2722 57.81 75.5H35.91C33.0802 75.5858 30.3951 76.7702 28.4238 78.8022C26.4525 80.8341 25.35 83.5539 25.35 86.385C25.35 89.2161 26.4525 91.9359 28.4238 93.9678C30.3951 95.9998 33.0802 97.1842 35.91 97.27L57.36 96.67Z" fill="#404041"/>
<path d="M40.3 73.77H43.72V98.42H40.3V73.77ZM55.17 73.77H58.59V98.42H55.17V73.77ZM109.59 112.63L106.29 111.72C108.465 103.766 109.615 95.5659 109.71 87.32C109.82 78.335 108.676 69.3787 106.31 60.71L109.62 59.82C114.329 77.1084 114.329 95.3416 109.62 112.63H109.59Z" fill="#404041"/>
</g>
<defs>
<clipPath id="clip0_2_108">
<rect width="186.28" height="182.01" fill="white"/>
</clipPath>
</defs>
</svg>
