<svg width="187" height="183" viewBox="0 0 187 183" fill="none" xmlns="http://www.w3.org/2000/svg">
<g clip-path="url(#clip0_2_138)">
<path d="M98.41 182.02C146.939 182.02 186.28 142.679 186.28 94.15C186.28 45.6207 146.939 6.28 98.41 6.28C49.8807 6.28 10.54 45.6207 10.54 94.15C10.54 142.679 49.8807 182.02 98.41 182.02Z" fill="white"/>
<path d="M89.87 179.74C72.0954 179.74 54.72 174.469 39.9409 164.594C25.1619 154.719 13.643 140.683 6.84096 124.262C0.0389085 107.84 -1.74082 89.7703 1.72684 72.3372C5.19449 54.9042 13.7538 38.8909 26.3223 26.3223C38.8909 13.7538 54.9042 5.19448 72.3372 1.72682C89.7703 -1.74083 107.84 0.0388932 124.262 6.84094C140.683 13.643 154.719 25.1619 164.594 39.9409C174.469 54.7199 179.74 72.0954 179.74 89.87C179.706 113.694 170.226 136.533 153.38 153.38C136.533 170.226 113.694 179.706 89.87 179.74ZM89.87 3.99999C72.8865 3.99999 56.2844 9.03618 42.1632 18.4717C28.0419 27.9072 17.0358 41.3183 10.5365 57.009C4.03718 72.6997 2.33667 89.9653 5.64998 106.622C8.96329 123.28 17.1416 138.58 29.1508 150.589C41.1599 162.598 56.4605 170.777 73.1176 174.09C89.7747 177.403 107.04 175.703 122.731 169.204C138.422 162.704 151.833 151.698 161.268 137.577C170.704 123.456 175.74 106.853 175.74 89.87C175.706 67.1064 166.648 45.285 150.551 29.1887C134.455 13.0924 112.634 4.03438 89.87 3.99999V3.99999Z" fill="#8ABFC6"/>
<path d="M67.53 78.52V74.87H63.89C63.4922 74.87 63.1107 75.028 62.8294 75.3093C62.548 75.5906 62.39 75.9722 62.39 76.37V85.59C62.39 86.1204 62.6007 86.6291 62.9758 87.0042C63.3509 87.3793 63.8596 87.59 64.39 87.59H66.74V90.59L70.6 87.59H79.27C79.5368 87.5967 79.8023 87.5499 80.0507 87.4524C80.2992 87.3548 80.5256 87.2086 80.7167 87.0222C80.9077 86.8358 81.0595 86.6131 81.1631 86.3671C81.2668 86.1211 81.3201 85.8569 81.32 85.59V82.07H71.08C70.1393 82.0674 69.2379 81.6925 68.5727 81.0273C67.9075 80.3621 67.5327 79.4607 67.53 78.52" fill="#A0A437"/>
<path d="M107.32 78C107.317 79.0945 106.881 80.1435 106.107 80.9174C105.334 81.6914 104.285 82.1274 103.19 82.13H98.47V88.13L90.7 82.13H73.23C72.1338 82.13 71.0823 81.6952 70.3061 80.921C69.53 80.1467 69.0927 79.0963 69.09 78V60.58C69.0927 59.4845 69.5283 58.4345 70.302 57.659C71.0757 56.8835 72.1246 56.4453 73.22 56.44H103.22C104.315 56.4453 105.364 56.8835 106.138 57.659C106.912 58.4345 107.347 59.4845 107.35 60.58L107.32 78ZM139 88.3C138.865 88.2932 138.729 88.3141 138.602 88.3613C138.475 88.4085 138.359 88.4811 138.26 88.5746C138.162 88.6681 138.084 88.7807 138.031 88.9054C137.977 89.0301 137.95 89.1644 137.95 89.3V98.11C137.95 98.2456 137.977 98.3799 138.031 98.5046C138.084 98.6293 138.162 98.7418 138.26 98.8354C138.359 98.9289 138.475 99.0015 138.602 99.0487C138.729 99.0959 138.865 99.1168 139 99.11H147.18C147.311 99.1092 147.44 99.1396 147.556 99.1987C147.673 99.2579 147.774 99.344 147.85 99.45L150.11 102.45V100C150.113 99.778 150.202 99.5659 150.359 99.4089C150.516 99.2519 150.728 99.1626 150.95 99.16H153.47C153.735 99.16 153.99 99.0546 154.177 98.8671C154.365 98.6796 154.47 98.4252 154.47 98.16V89.35C154.47 89.0848 154.365 88.8304 154.177 88.6429C153.99 88.4554 153.735 88.35 153.47 88.35L139 88.3Z" fill="#8ABFC6"/>
<path d="M149.9 104.21C149.672 104.209 149.446 104.155 149.243 104.05C149.04 103.946 148.864 103.795 148.73 103.61L146.34 100.43H138.58C137.857 100.427 137.164 100.139 136.653 99.6275C136.141 99.1161 135.853 98.4232 135.85 97.7V88.89C135.85 88.165 136.137 87.4696 136.649 86.9561C137.161 86.4425 137.855 86.1526 138.58 86.15H153.06C153.785 86.1526 154.479 86.4425 154.991 86.9561C155.503 87.4696 155.79 88.165 155.79 88.89V97.7C155.787 98.4232 155.499 99.1161 154.988 99.6275C154.476 100.139 153.783 100.427 153.06 100.43H151.38V102.73C151.385 103.04 151.29 103.342 151.11 103.594C150.93 103.846 150.674 104.034 150.38 104.13C150.229 104.182 150.07 104.209 149.91 104.21H149.9ZM138.58 87.84C138.315 87.84 138.06 87.9454 137.873 88.1329C137.685 88.3204 137.58 88.5748 137.58 88.84V97.7C137.58 97.9652 137.685 98.2196 137.873 98.4071C138.06 98.5946 138.315 98.7 138.58 98.7H146.76C146.892 98.6984 147.023 98.7284 147.141 98.7876C147.26 98.8467 147.362 98.9333 147.44 99.04L149.69 102.04V99.54C149.693 99.3163 149.783 99.1027 149.942 98.9454C150.102 98.7882 150.316 98.7 150.54 98.7H153.06C153.325 98.7 153.58 98.5946 153.767 98.4071C153.955 98.2196 154.06 97.9652 154.06 97.7V88.89C154.06 88.6248 153.955 88.3704 153.767 88.1829C153.58 87.9954 153.325 87.89 153.06 87.89L138.58 87.84ZM109.13 135.44H65.38C64.8338 135.461 64.2964 135.298 63.854 134.977C63.4116 134.656 63.0897 134.196 62.94 133.67C62.8302 133.187 62.8895 132.682 63.1079 132.237C63.3263 131.793 63.6907 131.438 64.14 131.23C65.4791 130.622 66.6648 129.722 67.6097 128.595C68.5546 127.469 69.2348 126.144 69.6 124.72C70.0531 122.197 70.1874 119.627 70 117.07C69.9819 116.879 70.0038 116.687 70.0645 116.506C70.1252 116.324 70.2232 116.157 70.3523 116.016C70.4813 115.875 70.6386 115.762 70.8139 115.685C70.9892 115.608 71.1786 115.569 71.37 115.57H103.14C103.331 115.569 103.521 115.608 103.696 115.685C103.871 115.762 104.029 115.875 104.158 116.016C104.287 116.157 104.385 116.324 104.446 116.506C104.506 116.687 104.528 116.879 104.51 117.07C104.329 119.627 104.466 122.197 104.92 124.72C105.285 126.144 105.965 127.469 106.91 128.595C107.855 129.722 109.041 130.622 110.38 131.23C110.827 131.441 111.189 131.797 111.407 132.24C111.625 132.683 111.686 133.187 111.58 133.67C111.428 134.196 111.105 134.657 110.66 134.978C110.216 135.299 109.677 135.461 109.13 135.44V135.44ZM67.13 132.68H107.45C104.814 130.978 102.945 128.317 102.24 125.26C101.815 122.976 101.641 120.652 101.72 118.33H72.83C72.9055 120.652 72.7278 122.976 72.3 125.26C71.6029 128.318 69.7364 130.981 67.1 132.68H67.13Z" fill="#404041"/>
<path d="M87.26 112.85C86.7774 112.85 86.3057 112.707 85.9044 112.439C85.5032 112.171 85.1904 111.79 85.0057 111.344C84.8211 110.898 84.7727 110.407 84.8669 109.934C84.961 109.461 85.1934 109.026 85.5347 108.685C85.8759 108.343 86.3107 108.111 86.784 108.017C87.2573 107.923 87.7479 107.971 88.1938 108.156C88.6396 108.34 89.0207 108.653 89.2888 109.054C89.5569 109.456 89.7 109.927 89.7 110.41C89.6974 111.056 89.4395 111.675 88.9824 112.132C88.5254 112.589 87.9063 112.847 87.26 112.85V112.85Z" fill="#A0A437"/>
<path d="M123.93 118.33H38.17C36.3789 118.327 34.662 117.614 33.3964 116.347C32.1308 115.079 31.42 113.361 31.42 111.57V103.87C31.42 103.504 31.5654 103.153 31.8242 102.894C32.083 102.635 32.434 102.49 32.8 102.49H53.86C54.226 102.49 54.577 102.635 54.8358 102.894C55.0946 103.153 55.24 103.504 55.24 103.87C55.24 104.236 55.0946 104.587 54.8358 104.846C54.577 105.105 54.226 105.25 53.86 105.25H34.18V111.57C34.18 112.631 34.6014 113.648 35.3516 114.398C36.1017 115.149 37.1191 115.57 38.18 115.57H123.94C124.306 115.57 124.657 115.715 124.916 115.974C125.175 116.233 125.32 116.584 125.32 116.95C125.32 117.316 125.175 117.667 124.916 117.926C124.657 118.185 124.306 118.33 123.94 118.33H123.93Z" fill="#404041"/>
<path d="M123.85 105.25H32.85C32.484 105.25 32.133 105.105 31.8742 104.846C31.6154 104.587 31.47 104.236 31.47 103.87V48.43C31.4726 46.5213 32.2321 44.6914 33.5818 43.3418C34.9314 41.9921 36.7613 41.2326 38.67 41.23H135.94C137.85 41.23 139.683 41.9882 141.035 43.3382C142.387 44.6882 143.147 46.5195 143.15 48.43V75.48C143.15 75.846 143.005 76.197 142.746 76.4558C142.487 76.7146 142.136 76.86 141.77 76.86C141.404 76.86 141.053 76.7146 140.794 76.4558C140.535 76.197 140.39 75.846 140.39 75.48V48.43C140.387 47.8431 140.269 47.2625 140.041 46.7216C139.813 46.1807 139.48 45.6903 139.062 45.2785C138.644 44.8668 138.148 44.5418 137.604 44.3224C137.059 44.103 136.477 43.9934 135.89 44H38.62C37.4424 44 36.3131 44.4678 35.4804 45.3004C34.6478 46.1331 34.18 47.2624 34.18 48.44V102.5H123.85C124.216 102.5 124.567 102.645 124.826 102.904C125.085 103.163 125.23 103.514 125.23 103.88C125.23 104.246 125.085 104.597 124.826 104.856C124.567 105.115 124.216 105.26 123.85 105.26V105.25ZM127.5 120.98H155.94V123.74H127.5V120.98Z" fill="#404041"/>
<path d="M156.78 135.44H126.66C125.571 135.437 124.527 135.003 123.757 134.233C122.987 133.463 122.553 132.419 122.55 131.33V78.21C122.55 77.12 122.983 76.0746 123.754 75.3038C124.525 74.533 125.57 74.1 126.66 74.1H156.78C157.869 74.1026 158.913 74.5365 159.683 75.3067C160.454 76.0769 160.887 77.1208 160.89 78.21V131.33C160.887 132.419 160.454 133.463 159.683 134.233C158.913 135.003 157.869 135.437 156.78 135.44V135.44ZM126.66 76.85C126.482 76.85 126.306 76.8852 126.141 76.9537C125.977 77.0222 125.827 77.1225 125.702 77.2489C125.576 77.3753 125.477 77.5254 125.41 77.6903C125.343 77.8552 125.309 78.0319 125.31 78.21V131.33C125.31 131.688 125.452 132.031 125.705 132.285C125.959 132.538 126.302 132.68 126.66 132.68H156.78C157.137 132.677 157.479 132.534 157.732 132.282C157.984 132.029 158.127 131.687 158.13 131.33V78.21C158.13 77.851 157.988 77.5066 157.735 77.2519C157.482 76.9971 157.139 76.8526 156.78 76.85H126.66Z" fill="#404041"/>
<path d="M141.72 130.59C141.259 130.59 140.809 130.453 140.426 130.197C140.042 129.941 139.744 129.577 139.567 129.152C139.391 128.726 139.345 128.257 139.435 127.805C139.525 127.353 139.747 126.938 140.072 126.612C140.398 126.287 140.813 126.065 141.265 125.975C141.717 125.885 142.186 125.931 142.612 126.107C143.037 126.284 143.401 126.582 143.657 126.966C143.913 127.349 144.05 127.799 144.05 128.26C144.05 128.878 143.805 129.471 143.368 129.908C142.931 130.345 142.338 130.59 141.72 130.59V130.59Z" fill="#A0A437"/>
<path d="M145.24 82.78H138.19C137.824 82.78 137.473 82.6346 137.214 82.3758C136.955 82.117 136.81 81.766 136.81 81.4C136.81 81.034 136.955 80.683 137.214 80.4242C137.473 80.1654 137.824 80.02 138.19 80.02H145.24C145.606 80.02 145.957 80.1654 146.216 80.4242C146.475 80.683 146.62 81.034 146.62 81.4C146.62 81.766 146.475 82.117 146.216 82.3758C145.957 82.6346 145.606 82.78 145.24 82.78V82.78ZM102.29 53.37H72.29C70.5404 53.3726 68.8632 54.0688 67.626 55.306C66.3889 56.5432 65.6927 58.2204 65.69 59.97V71.74H63.5C62.3958 71.7426 61.3377 72.1832 60.5579 72.9649C59.778 73.7466 59.34 74.8058 59.34 75.91V85.46C59.34 86.5633 59.7783 87.6214 60.5585 88.4016C61.3386 89.1817 62.3967 89.62 63.5 89.62H64.18V91.43C64.1799 91.7431 64.2668 92.0502 64.431 92.3168C64.5953 92.5834 64.8303 92.7992 65.11 92.94C65.3451 93.0494 65.6008 93.1074 65.86 93.11C66.2224 93.1042 66.5732 92.9815 66.86 92.76L71 89.62H79C80.1033 89.62 81.1614 89.1817 81.9416 88.4016C82.7217 87.6214 83.16 86.5633 83.16 85.46V84H89L96.77 90C97.1244 90.2659 97.557 90.4066 98 90.4C98.535 90.3869 99.0437 90.1652 99.4174 89.7822C99.7911 89.3991 100 88.8851 100 88.35V84H102.25C104 83.9974 105.677 83.3011 106.914 82.064C108.151 80.8268 108.847 79.1496 108.85 77.4V60C108.847 58.2504 108.151 56.5732 106.914 55.336C105.677 54.0988 104 53.4026 102.25 53.4L102.29 53.37ZM80.63 85.46C80.63 85.9109 80.4509 86.3433 80.1321 86.6621C79.8133 86.9809 79.3809 87.16 78.93 87.16H70.14L66.64 89.84V87.16H63.5C63.05 87.1574 62.6191 86.9774 62.3008 86.6592C61.9826 86.3409 61.8027 85.9101 61.8 85.46V75.91C61.8 75.4591 61.9791 75.0267 62.2979 74.7079C62.6168 74.3891 63.0492 74.21 63.5 74.21H65.73V77.43C65.7327 79.1796 66.4289 80.8568 67.666 82.094C68.9032 83.3311 70.5804 84.0274 72.33 84.03H80.63V85.46ZM106.42 77.46C106.42 78.5553 105.985 79.6058 105.21 80.3803C104.436 81.1549 103.385 81.59 102.29 81.59H97.57V87.59L89.8 81.59H72.33C71.2347 81.59 70.1842 81.1549 69.4097 80.3803C68.6352 79.6058 68.2 78.5553 68.2 77.46V60C68.2 59.4576 68.3068 58.9206 68.5144 58.4195C68.722 57.9184 69.0262 57.4632 69.4097 57.0796C69.7932 56.6961 70.2485 56.3919 70.7495 56.1844C71.2506 55.9768 71.7877 55.87 72.33 55.87H102.33C103.418 55.8805 104.459 56.3203 105.225 57.0937C105.99 57.8671 106.42 58.9115 106.42 60V77.46Z" fill="#404041"/>
<path d="M80.63 71.85C80.1158 71.85 79.6131 71.6975 79.1855 71.4118C78.758 71.1261 78.4247 70.7201 78.2279 70.245C78.0312 69.7699 77.9797 69.2471 78.08 68.7428C78.1803 68.2384 78.4279 67.7751 78.7916 67.4115C79.1552 67.0479 79.6184 66.8003 80.1228 66.7C80.6271 66.5996 81.1499 66.6511 81.625 66.8479C82.1001 67.0447 82.5062 67.3779 82.7919 67.8055C83.0775 68.2331 83.23 68.7358 83.23 69.25C83.23 69.9396 82.9561 70.6009 82.4685 71.0885C81.9809 71.5761 81.3196 71.85 80.63 71.85V71.85ZM87.26 71.85C86.7458 71.85 86.2431 71.6975 85.8155 71.4118C85.388 71.1261 85.0547 70.7201 84.8579 70.245C84.6612 69.7699 84.6097 69.2471 84.71 68.7428C84.8103 68.2384 85.0579 67.7751 85.4216 67.4115C85.7852 67.0479 86.2484 66.8003 86.7528 66.7C87.2571 66.5996 87.7799 66.6511 88.255 66.8479C88.7301 67.0447 89.1362 67.3779 89.4219 67.8055C89.7075 68.2331 89.86 68.7358 89.86 69.25C89.86 69.9396 89.5861 70.6009 89.0985 71.0885C88.6109 71.5761 87.9496 71.85 87.26 71.85V71.85ZM93.89 71.85C93.3758 71.85 92.8731 71.6975 92.4456 71.4118C92.018 71.1261 91.6847 70.7201 91.4879 70.245C91.2912 69.7699 91.2397 69.2471 91.34 68.7428C91.4403 68.2384 91.6879 67.7751 92.0516 67.4115C92.4152 67.0479 92.8784 66.8003 93.3828 66.7C93.8871 66.5996 94.4099 66.6511 94.885 66.8479C95.3601 67.0447 95.7662 67.3779 96.0519 67.8055C96.3375 68.2331 96.49 68.7358 96.49 69.25C96.49 69.9396 96.2161 70.6009 95.7285 71.0885C95.2409 71.5761 94.5796 71.85 93.89 71.85V71.85ZM142 94.51C141.723 94.51 141.452 94.4279 141.222 94.274C140.992 94.1202 140.813 93.9016 140.707 93.6458C140.601 93.3899 140.573 93.1084 140.627 92.8369C140.681 92.5653 140.814 92.3158 141.01 92.12C141.206 91.9242 141.455 91.7909 141.727 91.7369C141.998 91.6829 142.28 91.7106 142.536 91.8166C142.792 91.9225 143.01 92.102 143.164 92.3322C143.318 92.5624 143.4 92.8331 143.4 93.11C143.4 93.2938 143.364 93.4759 143.293 93.6458C143.223 93.8156 143.12 93.9699 142.99 94.0999C142.86 94.2299 142.706 94.3331 142.536 94.4034C142.366 94.4738 142.184 94.51 142 94.51ZM146 94.51C145.723 94.51 145.452 94.4279 145.222 94.274C144.992 94.1202 144.813 93.9016 144.707 93.6458C144.601 93.3899 144.573 93.1084 144.627 92.8369C144.681 92.5653 144.814 92.3158 145.01 92.12C145.206 91.9242 145.455 91.7909 145.727 91.7369C145.998 91.6829 146.28 91.7106 146.536 91.8166C146.792 91.9225 147.01 92.102 147.164 92.3322C147.318 92.5624 147.4 92.8331 147.4 93.11C147.4 93.2938 147.364 93.4759 147.293 93.6458C147.223 93.8156 147.12 93.9699 146.99 94.0999C146.86 94.2299 146.706 94.3331 146.536 94.4034C146.366 94.4738 146.184 94.51 146 94.51ZM150 94.51C149.723 94.51 149.452 94.4279 149.222 94.274C148.992 94.1202 148.813 93.9016 148.707 93.6458C148.601 93.3899 148.573 93.1084 148.627 92.8369C148.681 92.5653 148.814 92.3158 149.01 92.12C149.206 91.9242 149.455 91.7909 149.727 91.7369C149.998 91.6829 150.28 91.7106 150.536 91.8166C150.792 91.9225 151.01 92.102 151.164 92.3322C151.318 92.5624 151.4 92.8331 151.4 93.11C151.4 93.2938 151.364 93.4759 151.293 93.6458C151.223 93.8156 151.12 93.9699 150.99 94.0999C150.86 94.2299 150.706 94.3331 150.536 94.4034C150.366 94.4738 150.184 94.51 150 94.51V94.51Z" fill="white"/>
</g>
<defs>
<clipPath id="clip0_2_138">
<rect width="186.28" height="182.01" fill="white"/>
</clipPath>
</defs>
</svg>
