<svg width="187" height="183" viewBox="0 0 187 183" fill="none" xmlns="http://www.w3.org/2000/svg">
<g clip-path="url(#clip0_2_166)">
<path d="M98.41 182.02C146.939 182.02 186.28 142.679 186.28 94.15C186.28 45.6207 146.939 6.28 98.41 6.28C49.8807 6.28 10.54 45.6207 10.54 94.15C10.54 142.679 49.8807 182.02 98.41 182.02Z" fill="white"/>
<path d="M89.87 179.74C72.0954 179.74 54.7199 174.469 39.9409 164.594C25.1619 154.719 13.643 140.683 6.84094 124.262C0.0388932 107.84 -1.74083 89.7703 1.72682 72.3372C5.19448 54.9042 13.7538 38.8909 26.3223 26.3223C38.8909 13.7538 54.9042 5.19449 72.3372 1.72684C89.7703 -1.74082 107.84 0.0389085 124.262 6.84096C140.683 13.643 154.719 25.1619 164.594 39.9409C174.469 54.72 179.74 72.0954 179.74 89.87C179.706 113.694 170.226 136.533 153.38 153.38C136.533 170.226 113.694 179.706 89.87 179.74ZM89.87 4.00001C72.8865 4.00001 56.2844 9.0362 42.1632 18.4717C28.0419 27.9072 17.0358 41.3183 10.5365 57.009C4.03716 72.6997 2.33665 89.9653 5.64996 106.622C8.96328 123.28 17.1416 138.58 29.1507 150.589C41.1599 162.598 56.4604 170.777 73.1176 174.09C89.7747 177.403 107.04 175.703 122.731 169.204C138.422 162.704 151.833 151.698 161.268 137.577C170.704 123.456 175.74 106.853 175.74 89.87C175.706 67.1064 166.648 45.285 150.551 29.1887C134.455 13.0924 112.634 4.03439 89.87 4.00001V4.00001Z" fill="#8ABFC6"/>
<path d="M153.16 72.74C153.16 82.9238 150.14 92.8788 144.482 101.346C138.825 109.814 130.783 116.413 121.374 120.311C111.966 124.208 101.613 125.227 91.6248 123.241C81.6367 121.254 72.4621 116.35 65.2611 109.149C58.0601 101.948 53.1561 92.7733 51.1694 82.7852C49.1826 72.7971 50.2023 62.4442 54.0994 53.0356C57.9966 43.6271 64.5962 35.5854 73.0637 29.9276C81.5312 24.2698 91.4862 21.25 101.67 21.25C108.432 21.25 115.127 22.5818 121.374 25.1694C127.621 27.7571 133.298 31.5498 138.079 36.3311C142.86 41.1124 146.653 46.7886 149.241 53.0356C151.828 59.2827 153.16 65.9782 153.16 72.74" fill="#8ABFC6"/>
<path d="M105.26 57.64L109.1 34.5H67.83L71.59 57.64" fill="white"/>
<path d="M105.26 59.77H104.91C104.353 59.6768 103.855 59.3668 103.525 58.9078C103.195 58.4488 103.06 57.878 103.15 57.32L106.59 36.66H70.34L73.7 57.29C73.7915 57.8483 73.6575 58.42 73.3274 58.8795C72.9974 59.339 72.4983 59.6485 71.94 59.74C71.3817 59.8315 70.81 59.6975 70.3505 59.3674C69.891 59.0373 69.5815 58.5383 69.49 57.98L65.72 34.84C65.6708 34.5344 65.6885 34.2217 65.7719 33.9236C65.8553 33.6255 66.0023 33.349 66.2029 33.1133C66.4035 32.8775 66.6529 32.688 66.9338 32.558C67.2147 32.428 67.5205 32.3604 67.83 32.36H109.1C109.41 32.3619 109.716 32.4307 109.997 32.5619C110.278 32.6931 110.527 32.8835 110.727 33.12C110.928 33.3565 111.075 33.6336 111.158 33.9322C111.241 34.2308 111.259 34.5439 111.21 34.85L107.36 58C107.277 58.4962 107.02 58.9468 106.635 59.271C106.251 59.5953 105.763 59.7721 105.26 59.77V59.77Z" fill="#404041"/>
<path d="M105.11 89.77L128.24 95.61V54.33L105.34 57.63" fill="white"/>
<path d="M128.24 97.74C128.065 97.7398 127.89 97.7196 127.72 97.68L104.58 91.83C104.067 91.6665 103.634 91.3144 103.37 90.8448C103.106 90.3752 103.029 89.8229 103.156 89.2992C103.283 88.7755 103.604 88.3193 104.053 88.0225C104.503 87.7258 105.049 87.6105 105.58 87.7L126.06 92.87V56.79L105.59 59.79C105.305 59.847 105.011 59.8453 104.727 59.7849C104.442 59.7246 104.173 59.607 103.936 59.4392C103.698 59.2714 103.497 59.057 103.346 58.809C103.194 58.561 103.094 58.2847 103.053 57.9969C103.011 57.7092 103.029 57.4159 103.104 57.1352C103.18 56.8544 103.312 56.592 103.492 56.3639C103.673 56.1359 103.898 55.947 104.153 55.8088C104.409 55.6705 104.69 55.5859 104.98 55.56L127.89 52.26C128.193 52.2171 128.501 52.2396 128.794 52.3259C129.087 52.4122 129.359 52.5602 129.59 52.7602C129.821 52.9601 130.007 53.2072 130.134 53.4849C130.262 53.7626 130.329 54.0644 130.33 54.37V95.61C130.328 95.9346 130.252 96.2546 130.109 96.5457C129.965 96.8367 129.757 97.0913 129.5 97.29C129.141 97.5747 128.698 97.7329 128.24 97.74V97.74Z" fill="#404041"/>
<path d="M71.59 89.84L67.13 111.29H108.41L105.18 89.61" fill="white"/>
<path d="M108.41 113.42H67.13C66.8134 113.42 66.5009 113.349 66.2154 113.212C65.9299 113.075 65.6786 112.877 65.48 112.63C65.2773 112.386 65.1331 112.098 65.0586 111.79C64.9841 111.481 64.9811 111.16 65.05 110.85L69.5 89.41C69.5571 89.1356 69.6678 88.875 69.8256 88.6433C69.9834 88.4116 70.1853 88.2133 70.4197 88.0596C70.6542 87.9059 70.9167 87.7999 71.1921 87.7476C71.4675 87.6954 71.7505 87.6979 72.025 87.755C72.2995 87.8121 72.56 87.9228 72.7917 88.0806C73.0234 88.2384 73.2218 88.4403 73.3754 88.6748C73.5291 88.9092 73.6351 89.1717 73.6874 89.4471C73.7396 89.7225 73.7371 90.0056 73.68 90.28L69.76 109.15H105.94L103.07 89.93C103.029 89.6529 103.042 89.3704 103.11 89.0986C103.178 88.8267 103.299 88.5709 103.465 88.3458C103.632 88.1206 103.841 87.9304 104.082 87.7862C104.322 87.6419 104.588 87.5464 104.865 87.505C105.142 87.4636 105.425 87.4773 105.696 87.5451C105.968 87.6129 106.224 87.7336 106.449 87.9003C106.674 88.067 106.865 88.2764 107.009 88.5165C107.153 88.7567 107.249 89.0229 107.29 89.3L110.52 111C110.566 111.304 110.546 111.614 110.461 111.909C110.376 112.204 110.229 112.477 110.028 112.71C109.828 112.943 109.579 113.129 109.3 113.257C109.021 113.385 108.717 113.451 108.41 113.45V113.42Z" fill="#404041"/>
<path d="M71.59 57.56L47.99 53.64V94.91L71.59 89.92" fill="white"/>
<path d="M48 97.05C47.5085 97.0483 47.0323 96.8789 46.65 96.57C46.4022 96.3704 46.2025 96.1175 46.0657 95.8301C45.9289 95.5427 45.8586 95.2283 45.86 94.91V53.64C45.8594 53.3278 45.9271 53.0191 46.0584 52.7358C46.1896 52.4525 46.3813 52.2014 46.62 52C46.8542 51.7991 47.1295 51.652 47.4267 51.5691C47.7239 51.4861 48.0357 51.4694 48.34 51.52L71.94 55.44C72.4983 55.5328 72.9968 55.8436 73.326 56.304C73.6551 56.7644 73.7878 57.3367 73.695 57.895C73.6022 58.4533 73.2914 58.9518 72.831 59.281C72.3706 59.6101 71.7983 59.7428 71.24 59.65L50.13 56.15V92.28L71.13 87.83C71.6585 87.7725 72.1895 87.9137 72.6195 88.2261C73.0496 88.5386 73.348 89 73.4565 89.5204C73.5651 90.0408 73.4761 90.5829 73.2069 91.0413C72.9376 91.4997 72.5074 91.8414 72 92L48.4 97C48.2684 97.0285 48.1346 97.0452 48 97.05V97.05Z" fill="#404041"/>
<path d="M71.67 57.59H105.34V89.97H71.67V57.59Z" fill="white"/>
<path d="M105.34 92.1H71.67C71.1085 92.1027 70.5687 91.8836 70.1679 91.4903C69.7672 91.097 69.5379 90.5614 69.53 90V57.59C69.53 57.309 69.5854 57.0307 69.6929 56.7711C69.8004 56.5114 69.9581 56.2755 70.1568 56.0768C70.3555 55.8781 70.5914 55.7205 70.8511 55.6129C71.1107 55.5054 71.389 55.45 71.67 55.45H105.34C105.621 55.45 105.898 55.5054 106.157 55.6131C106.417 55.7208 106.652 55.8786 106.85 56.0774C107.048 56.2763 107.204 56.5122 107.311 56.7718C107.417 57.0314 107.471 57.3095 107.47 57.59V90C107.462 90.5597 107.234 91.0938 106.836 91.4868C106.437 91.8798 105.9 92.1001 105.34 92.1V92.1ZM73.8 87.83H103.21V59.72H73.8V87.83Z" fill="#404041"/>
<path d="M85.29 134.05H100.35V153.71H85.29V134.05Z" fill="#A2A637"/>
<path d="M96.71 73.78C96.71 75.4038 96.2285 76.9911 95.3264 78.3412C94.4242 79.6914 93.142 80.7437 91.6418 81.3651C90.1416 81.9865 88.4909 82.149 86.8983 81.8323C85.3057 81.5155 83.8428 80.7335 82.6947 79.5854C81.5465 78.4372 80.7645 76.9743 80.4478 75.3817C80.131 73.7891 80.2935 72.1384 80.9149 70.6382C81.5363 69.138 82.5886 67.8558 83.9388 66.9536C85.2889 66.0515 86.8762 65.57 88.5 65.57C90.6774 65.57 92.7657 66.435 94.3053 67.9747C95.845 69.5143 96.71 71.6026 96.71 73.78" fill="white"/>
<path d="M88.5 84.12C86.4525 84.12 84.4511 83.5127 82.7488 82.375C81.0465 81.2373 79.72 79.6202 78.9369 77.7285C78.1538 75.8367 77.9494 73.7551 78.3496 71.7471C78.7498 69.7391 79.7365 67.895 81.185 66.4479C82.6335 65.0008 84.4786 64.0159 86.487 63.6176C88.4953 63.2194 90.5767 63.4258 92.4677 64.2107C94.3587 64.9956 95.9745 66.3237 97.1106 68.0271C98.2466 69.7305 98.852 71.7325 98.85 73.78C98.8474 76.5232 97.7557 79.1532 95.815 81.0921C93.8743 83.0309 91.2433 84.12 88.5 84.12ZM88.5 67.7C87.2975 67.7 86.122 68.0566 85.1221 68.7247C84.1223 69.3927 83.343 70.3423 82.8828 71.4533C82.4226 72.5642 82.3022 73.7867 82.5368 74.9661C82.7714 76.1455 83.3505 77.2289 84.2008 78.0792C85.0511 78.9295 86.1344 79.5086 87.3139 79.7432C88.4933 79.9778 89.7157 79.8574 90.8267 79.3972C91.9377 78.937 92.8873 78.1577 93.5553 77.1579C94.2234 76.158 94.58 74.9825 94.58 73.78C94.58 72.1675 93.9394 70.621 92.7992 69.4808C91.659 68.3406 90.1125 67.7 88.5 67.7ZM67.36 176.86C67.0092 176.856 66.6652 176.763 66.36 176.59C66.114 176.455 65.897 176.273 65.7215 176.054C65.546 175.835 65.4155 175.584 65.3374 175.315C65.2594 175.045 65.2353 174.763 65.2667 174.484C65.298 174.205 65.3841 173.935 65.52 173.69L79.1 149C79.2353 148.754 79.4176 148.538 79.6365 148.363C79.8555 148.188 80.1067 148.057 80.376 147.979C80.6453 147.901 80.9273 147.877 81.206 147.908C81.4846 147.939 81.7544 148.025 82 148.16C82.2456 148.295 82.4621 148.478 82.6372 148.696C82.8123 148.915 82.9426 149.167 83.0206 149.436C83.0986 149.705 83.1228 149.987 83.0918 150.266C83.0608 150.545 82.9753 150.814 82.84 151.06L69.23 175.75C69.0476 176.087 68.7774 176.368 68.4482 176.563C68.1189 176.758 67.7429 176.861 67.36 176.86V176.86ZM110.68 177.87C110.296 177.871 109.919 177.768 109.588 177.573C109.257 177.377 108.985 177.097 108.8 176.76L94.55 150.82C94.345 150.331 94.3297 149.783 94.5072 149.283C94.6847 148.784 95.0423 148.368 95.5099 148.118C95.9775 147.868 96.5216 147.801 97.0357 147.931C97.5499 148.061 97.9971 148.378 98.29 148.82L112.54 174.76C112.812 175.256 112.876 175.84 112.719 176.383C112.561 176.927 112.195 177.386 111.7 177.66C111.381 177.809 111.032 177.881 110.68 177.87V177.87ZM88.35 129.56C88.0703 129.556 87.7941 129.497 87.5371 129.386C87.2802 129.276 87.0476 129.116 86.8526 128.915C86.6576 128.714 86.504 128.477 86.4006 128.217C86.2972 127.957 86.246 127.68 86.25 127.4L86.48 111.72C86.4839 111.44 86.5429 111.164 86.6536 110.907C86.7643 110.65 86.9245 110.418 87.1251 110.223C87.3257 110.028 87.5627 109.874 87.8226 109.771C88.0825 109.667 88.3603 109.616 88.64 109.62C88.9197 109.624 89.1959 109.683 89.4528 109.794C89.7098 109.904 89.9424 110.064 90.1374 110.265C90.3324 110.466 90.4859 110.703 90.5893 110.963C90.6927 111.223 90.7439 111.5 90.74 111.78L90.51 127.46C90.5061 127.74 90.4471 128.016 90.3364 128.273C90.2258 128.53 90.0656 128.762 89.865 128.957C89.6644 129.152 89.4274 129.306 89.1674 129.409C88.9075 129.513 88.6297 129.564 88.35 129.56V129.56ZM88.58 180.4C88.0151 180.4 87.4733 180.176 87.0739 179.776C86.6744 179.377 86.45 178.835 86.45 178.27V150.27C86.45 149.705 86.6744 149.163 87.0739 148.764C87.4733 148.364 88.0151 148.14 88.58 148.14C89.1449 148.14 89.6867 148.364 90.0861 148.764C90.4856 149.163 90.71 149.705 90.71 150.27V178.27C90.71 178.835 90.4856 179.377 90.0861 179.776C89.6867 180.176 89.1449 180.4 88.58 180.4V180.4Z" fill="#404041"/>
<path d="M96.42 151.7H81.2C80.9194 151.7 80.6416 151.645 80.3826 151.537C80.1235 151.429 79.8882 151.271 79.6903 151.073C79.4924 150.874 79.3357 150.638 79.2293 150.378C79.1228 150.119 79.0687 149.841 79.07 149.56V129.73C79.07 129.165 79.2944 128.623 79.6939 128.224C80.0933 127.824 80.6351 127.6 81.2 127.6H96.42C96.9849 127.6 97.5267 127.824 97.9261 128.224C98.3256 128.623 98.55 129.165 98.55 129.73V149.56C98.5513 149.841 98.4972 150.119 98.3907 150.378C98.2843 150.638 98.1276 150.874 97.9297 151.073C97.7318 151.271 97.4965 151.429 97.2374 151.537C96.9784 151.645 96.7006 151.7 96.42 151.7V151.7ZM83.34 147.43H94.34V131.87H83.34V147.43Z" fill="#404041"/>
</g>
<defs>
<clipPath id="clip0_2_166">
<rect width="186.28" height="182.01" fill="white"/>
</clipPath>
</defs>
</svg>
