<svg width="187" height="183" viewBox="0 0 187 183" fill="none" xmlns="http://www.w3.org/2000/svg">
<g clip-path="url(#clip0_2_289)">
<path d="M98.41 182.02C146.939 182.02 186.28 142.679 186.28 94.15C186.28 45.6207 146.939 6.28 98.41 6.28C49.8807 6.28 10.54 45.6207 10.54 94.15C10.54 142.679 49.8807 182.02 98.41 182.02Z" fill="white"/>
<path d="M89.87 179.74C72.0954 179.74 54.7199 174.469 39.9409 164.594C25.1619 154.719 13.643 140.683 6.84094 124.262C0.0388932 107.84 -1.74083 89.7703 1.72682 72.3372C5.19448 54.9042 13.7538 38.8909 26.3223 26.3223C38.8909 13.7538 54.9042 5.19449 72.3372 1.72684C89.7703 -1.74082 107.84 0.0389085 124.262 6.84096C140.683 13.643 154.719 25.1619 164.594 39.9409C174.469 54.72 179.74 72.0954 179.74 89.87C179.706 113.694 170.226 136.533 153.38 153.38C136.533 170.226 113.694 179.706 89.87 179.74ZM89.87 4.00001C72.8865 4.00001 56.2844 9.0362 42.1632 18.4717C28.0419 27.9072 17.0358 41.3183 10.5365 57.009C4.03716 72.6997 2.33665 89.9653 5.64996 106.622C8.96328 123.28 17.1416 138.58 29.1507 150.589C41.1599 162.598 56.4604 170.777 73.1176 174.09C89.7747 177.403 107.04 175.703 122.731 169.204C138.422 162.704 151.833 151.698 161.268 137.577C170.704 123.456 175.74 106.853 175.74 89.87C175.706 67.1064 166.648 45.285 150.551 29.1887C134.455 13.0924 112.634 4.03439 89.87 4.00001V4.00001Z" fill="#8ABFC6"/>
<path d="M39.61 51.89H152.86V114.66H39.61V51.89Z" fill="#A2A637"/>
<path d="M32.91 45.12H149.42V112.57H32.91V45.12ZM30.85 114.63H151.48V43.05H30.85V114.63Z" fill="#404041"/>
<path d="M32.91 114.63H149.42V129.12H32.91V114.63ZM30.85 131.19H151.48V112.57H30.85V131.19Z" fill="#404041"/>
<path d="M77.37 145.67H105V131.19H77.37V145.67ZM107 147.74H75.32V129.12H107V147.74Z" fill="#404041"/>
<path d="M70.79 147.74H111.54V150.63H70.79V147.74ZM68.73 152.74H113.6V145.74H68.73V152.74ZM37.85 107.81H144.48V50.08H37.85V107.81ZM146.54 109.88H35.79V48H146.54V109.88ZM89.33 121.87L91.17 123.72L93 121.87L91.17 120L89.33 121.87ZM91.17 126.64L86.42 121.87L91.17 117.1L95.92 121.87L91.17 126.64Z" fill="#404041"/>
<path d="M44.85 57.74H77.78V59.81H44.85V57.74ZM58.03 64.36H117.31V66.43H58.03V64.36ZM123.89 64.36H137.06V66.43H123.89V64.36ZM71.2 70.98H130.48V73.05H71.2V70.98ZM44.85 84.22H77.78V86.29H44.85V84.22ZM58.03 90.84H90.96V92.91H58.03V90.84ZM97.55 90.84H104.14V92.91H97.55V90.84ZM110.72 90.84H130.48V92.91H110.72V90.84ZM71.2 97.46H137.07V99.53H71.2V97.46Z" fill="#404041"/>
</g>
<defs>
<clipPath id="clip0_2_289">
<rect width="186.28" height="182.01" fill="white"/>
</clipPath>
</defs>
</svg>
